<svg width="45" height="43" viewBox="0 0 45 43" fill="none" xmlns="http://www.w3.org/2000/svg">
<path d="M29.1041 1.08547L29.9862 10.5273L30.0357 11.0359L30.5353 10.9234L39.7881 8.84868L34.9592 17.0079L34.6982 17.449L35.1662 17.6515L43.87 21.4138L35.1662 25.1762L34.6982 25.3787L34.9592 25.8197L39.7881 33.979L30.5353 31.9043L30.0357 31.7918L29.9862 32.3003L29.1041 41.7422L22.8396 34.6225L22.502 34.24L22.1645 34.6225L15.8999 41.7422L15.0179 32.3003L14.9684 31.7918L14.4688 31.9043L5.21597 33.979L10.0449 25.8197L10.3059 25.3787L9.8379 25.1762L1.13411 21.4138L9.8379 17.6515L10.3059 17.449L10.0449 17.0079L5.21597 8.84868L14.4688 10.9234L14.9684 11.0359L15.0179 10.5273L15.8999 1.08547L22.1645 8.20512L22.502 8.58765L22.8396 8.20512L29.1041 1.08547ZM29.4552 0.00537109L22.502 7.90809L15.5489 0.00537109L14.5678 10.4868L4.29789 8.18262L9.65788 17.2374L0 21.4138L9.65788 25.5902L4.29789 34.645L14.5678 32.3408L15.5489 42.8223L22.502 34.9195L29.4552 42.8223L30.4363 32.3408L40.7062 34.645L35.3462 25.5902L45.0041 21.4138L35.3462 17.2374L40.7062 8.18262L30.4363 10.4868L29.4552 0.00537109Z" fill="#6F02FD"/>
</svg>
