<svg width="53" height="51" viewBox="0 0 53 51" fill="none" xmlns="http://www.w3.org/2000/svg">
<path d="M33.6317 2.81034L31.1205 17.9088L30.9753 18.7752L31.7538 18.3706L45.3481 11.3161L34.4454 22.0649L33.8209 22.6806L34.6917 22.8126L49.8297 25.0996L34.6917 27.3865L33.8209 27.5185L34.4454 28.1342L45.3481 38.883L31.7538 31.8285L30.9753 31.4239L31.1205 32.2903L33.6317 47.3888L26.784 33.6933L26.3926 32.9061L26.0012 33.6933L19.1534 47.3888L21.6647 32.2903L21.8098 31.4239L21.0314 31.8285L7.43707 38.883L18.3398 28.1342L18.9643 27.5185L18.0935 27.3865L2.95548 25.0996L18.0935 22.8126L18.9643 22.6806L18.3398 22.0649L7.43707 11.3161L21.0314 18.3706L21.8142 18.7752L21.6691 17.9088L19.1578 2.81034L26.0056 16.5058L26.397 17.2931L26.7884 16.5058L33.6361 2.81034M34.5421 0L26.3882 16.3035L18.2342 0L21.2249 17.9791L5.04454 9.58331L18.0187 22.3772L0 25.0996L18.0187 27.8219L5.04454 40.6158L21.2249 32.22L18.2342 50.1991L26.3882 33.8956L34.5421 50.1991L31.5515 32.22L47.7318 40.6158L34.7576 27.8219L52.7764 25.0996L34.7576 22.3772L47.7318 9.58331L31.5515 17.9791L34.5421 0Z" fill="#6F02FD"/>
</svg>
