<svg width="44" height="42" viewBox="0 0 44 42" fill="none" xmlns="http://www.w3.org/2000/svg">
<path d="M28.2401 0.625598L31.751 6.53632L31.8596 6.71902L32.067 6.76346L38.7727 8.27941L38.1456 15.1234L38.1258 15.3357L38.2641 15.4937L42.7922 20.6638L38.2641 25.8338L38.1258 25.9918L38.1456 26.2041L38.7727 33.0481L32.067 34.5641L31.8596 34.6085L31.751 34.7912L28.2401 40.7019L21.9245 37.9811L21.7269 37.8972L21.5294 37.9811L15.2138 40.7019L11.7029 34.7912L11.5943 34.6085L11.3869 34.5641L4.68117 33.0481L5.30829 26.2041L5.32804 25.9918L5.18978 25.8338L0.661682 20.6638L5.18978 15.4937L5.32804 15.3357L5.30829 15.1234L4.68117 8.27941L11.3869 6.76346L11.5943 6.71902L11.7029 6.53632L15.2138 0.625598L21.5294 3.3464L21.7269 3.43035L21.9245 3.3464L28.2401 0.625598ZM28.4425 0.00341797L21.7269 2.89705L15.0113 0.00341797L11.2783 6.28942L4.14787 7.89919L4.81449 15.1777L0 20.6736L4.81449 26.1696L4.14787 33.4481L11.2783 35.0579L15.0113 41.3439L21.7269 38.4502L28.4425 41.3439L32.1756 35.0579L39.306 33.4481L38.6394 26.1696L43.4539 20.6736L38.6394 15.1777L39.306 7.89919L32.1756 6.28942L28.4425 0.00341797Z" fill="#6F02FD"/>
</svg>
