<svg width="125" height="125" viewBox="0 0 125 125" fill="none" xmlns="http://www.w3.org/2000/svg">
<path d="M120.915 22.0098C87.1077 28.9496 53.3 20.7365 19.4922 23.6652C13.1891 24.2382 6.88591 25.1296 0.582763 26.5939C0.200755 26.6576 -0.0539177 26.9759 0.00975037 27.3579C1.15578 52.1885 2.3018 76.9554 3.44783 101.722C3.44783 102.104 3.7025 102.295 4.08451 102.232C10.3877 100.958 16.6271 100.194 22.9303 99.7486C56.738 97.5202 90.5458 105.542 124.417 97.5839C124.799 97.5202 125.054 97.2019 124.99 96.8199C124.799 92.6814 124.608 88.543 124.417 84.4682C124.226 80.3298 124.035 76.1914 123.844 72.1166C123.653 67.9782 123.462 63.8398 123.271 59.7013C123.08 55.5629 122.889 51.4245 122.698 47.3497C122.507 43.2113 122.316 39.0729 122.125 34.9344C121.934 30.796 121.743 26.6576 121.552 22.5192C121.552 22.2008 121.297 21.9462 120.915 22.0098ZM121.425 46.9677C96.2123 52.2522 70.9997 49.0051 45.7871 48.2411C41.8397 44.3573 37.9559 40.5372 34.0085 36.7808C62.9775 36.5262 91.9465 41.6833 120.915 35.7621C121.106 39.5186 121.297 43.2113 121.425 46.9677ZM121.489 48.1774C121.68 51.8702 121.807 55.6266 121.998 59.3193C100.924 63.8398 79.8496 62.3754 58.7754 61.293C54.8917 57.3456 51.0079 53.3982 47.0605 49.5144C71.891 50.3421 96.7216 53.3345 121.489 48.1774ZM58.8391 62.5027C79.9132 63.5851 101.051 65.0495 122.125 60.529C122.316 64.2218 122.444 67.9782 122.635 71.6709C97.804 77.1464 72.9734 74.2177 48.1428 73.2626C51.7083 69.6972 55.2737 66.0682 58.8391 62.5027ZM46.9968 74.536C72.2094 75.4274 97.4856 78.5471 122.698 72.9443C122.889 76.6371 123.017 80.3935 123.208 84.0862C94.2386 90.5804 65.2696 85.6143 36.3006 85.5506C39.866 81.8578 43.4314 78.1651 46.9968 74.536ZM120.852 34.5524C91.5008 40.5372 62.0862 35.1255 32.7352 35.5711C28.8514 31.8784 24.9676 28.2493 21.0839 24.8112C54.1913 22.2645 87.2987 30.032 120.47 23.4105C120.597 27.1033 120.788 30.796 120.852 34.5524C120.915 34.5524 120.915 34.5524 120.852 34.5524ZM2.36547 50.4695C7.20425 54.0986 11.9794 57.9186 16.8181 62.0571C12.3614 67.1505 8.03193 72.3076 3.57516 77.8468C3.19316 68.5512 2.74748 59.7013 2.36547 50.4695ZM3.63883 79.8205C8.47761 73.7083 13.3164 67.9145 18.1552 62.3754C18.4098 62.1207 18.3462 61.7387 18.0915 61.484C12.807 56.8999 7.52259 52.5705 2.17447 48.6231C2.04713 45.8217 1.91979 43.0203 1.79246 40.2189C10.1966 46.3947 18.6008 53.5892 27.005 61.293C19.3649 69.6972 11.661 78.6108 4.02084 88.2247C4.08451 88.2883 3.63883 79.8205 3.63883 79.8205ZM4.14818 90.0074C12.234 79.8205 20.3199 70.5249 28.4057 61.7387C28.6604 61.484 28.5967 61.102 28.3421 60.8474C19.4922 52.6978 10.6423 45.0577 1.79246 38.5635C1.66512 35.7621 1.53778 32.8971 1.41045 30.0957C13.3801 38.8819 25.286 49.6418 37.2556 61.1657C26.3683 72.626 15.4174 84.7229 4.53019 98.4116C4.40285 95.6102 4.27551 92.8088 4.14818 90.0074ZM4.59385 100.131C4.59385 100.131 4.65752 100.131 4.65752 100.067C15.9904 85.8689 27.2597 73.39 38.5926 61.5477C38.8473 61.293 38.7836 60.911 38.529 60.6564C26.1137 48.6231 13.6984 37.4175 1.34678 28.3766C1.34678 28.122 1.34678 27.931 1.34678 27.6763C3.95717 27.1033 6.56757 26.5939 9.11429 26.1482C21.9116 36.3988 34.5815 48.6868 47.4425 61.484C35.7912 73.39 24.2036 85.5506 12.5524 99.4939C9.94198 99.8759 7.33158 100.258 4.72119 100.831C4.59385 100.576 4.59385 100.385 4.59385 100.131ZM14.2077 99.3666C25.7317 85.8053 37.3193 73.6447 48.8432 61.9934C49.0979 61.7387 49.0342 61.3567 48.7795 61.102C36.1096 48.4321 23.5033 36.2715 10.8333 25.9572C13.6347 25.5116 16.4361 25.1932 19.2375 25.0022C23.5033 28.7586 27.8327 32.6424 32.0985 36.6535C40.63 44.6757 49.1615 53.2709 57.6931 61.8661C49.9255 69.6336 42.0944 77.5284 34.3269 85.7416C30.4431 89.88 26.4957 94.1458 22.6119 98.5389C19.8105 98.7299 17.0091 98.9846 14.2077 99.3666ZM24.3946 98.4116C27.96 94.4641 31.5255 90.5804 35.0909 86.824C64.4419 86.6966 93.8565 91.9174 123.208 85.3596C123.399 89.0523 123.526 92.8088 123.717 96.5015C90.6095 104.142 57.5021 96.5652 24.3946 98.4116Z" fill="#FAF9FA"/>
</svg>
