<svg width="125" height="125" viewBox="0 0 125 125" fill="none" xmlns="http://www.w3.org/2000/svg">
<path d="M67.5577 64.3432C74.8586 64.4146 81.172 67.0322 86.4979 72.1962C91.5898 77.3905 94.2022 83.6874 94.3348 91.0867C94.2285 98.4859 91.6398 104.791 86.5687 110.003C81.2642 115.185 74.9621 117.827 67.6624 117.927C60.3592 117.883 54.0348 115.29 48.6892 110.145C43.5752 104.966 40.9391 98.6776 40.7809 91.2789C40.8337 83.9076 43.4266 77.5661 48.5595 72.2544C53.8678 67.0753 60.172 64.4382 67.4721 64.3433M67.5577 62.2441C59.6182 62.3577 52.8258 65.1649 47.1805 70.6655C41.6196 76.3651 38.787 83.175 38.6826 91.0951C38.7655 99.0152 41.5785 105.832 47.1218 111.546C52.75 117.062 59.5333 119.888 67.4717 120.026C75.413 119.936 82.2144 117.148 87.8758 111.663C93.4551 105.976 96.3074 99.1731 96.4325 91.2533C96.3706 83.3332 93.577 76.5097 88.0517 70.7827C82.3324 65.1893 75.5171 62.3431 67.6059 62.2442" fill="#FAF9FA"/>
<path d="M63.6698 67.4191C67.2585 73.7811 68.1494 80.5605 66.3427 87.7573C64.3927 94.7667 60.2486 100.179 53.9105 103.993C47.4529 107.601 40.7009 108.51 33.6546 106.722C26.5166 104.717 21.0793 100.577 17.3428 94.3016C13.7287 87.9518 12.8115 81.1749 14.5914 73.9707C16.517 66.95 20.6422 61.5214 26.9671 57.6849C33.3737 54.0451 40.1591 53.121 47.3232 54.9129C54.4601 56.9229 59.8946 61.067 63.6268 67.345M65.4866 66.3696C61.4185 59.5469 55.5926 55.0648 48.0089 52.9235C40.2951 50.9548 32.9845 51.9053 26.077 55.7749C19.2633 59.8067 14.7694 65.6527 12.5955 73.3128C10.6352 80.9476 11.5803 88.2386 15.4306 95.1859C19.4794 102.022 25.2928 106.522 32.8709 108.685C40.5828 110.676 47.8975 109.746 54.815 105.894C61.6393 101.881 66.1487 96.0481 68.3431 88.397C70.3248 80.6445 69.3806 73.316 65.5106 66.4114" fill="#FAF9FA"/>
<path d="M59.0656 65.5876C55.3533 71.8782 49.9309 76.0399 42.7983 78.0727C35.7563 79.8878 28.9999 79.0029 22.5291 75.4182C16.1779 71.6265 12.0146 66.2307 10.0394 59.2309C8.20588 52.0432 9.07072 45.2618 12.6339 38.8866C16.3229 32.58 21.7301 28.3968 28.8556 26.337C35.8952 24.4951 42.6566 25.3554 49.1397 28.9177C55.4935 32.6491 59.686 38.0666 61.7171 45.1701C63.5457 52.3593 62.6761 59.1403 59.1082 65.5133M60.8824 66.6371C64.7538 59.7008 65.7203 52.4116 63.7818 44.7696C61.629 37.1013 57.151 31.2419 50.3479 27.1914C43.4513 23.3032 36.1444 22.3323 28.4272 24.2786C20.8387 26.3974 15.0005 30.8618 10.9124 37.6718C7.01982 44.5981 6.03189 51.8853 7.94859 59.5333C10.0811 67.2111 14.5436 73.0842 21.336 77.1526C28.2222 81.0589 35.5251 82.0501 43.2448 80.1259C50.9458 77.9669 56.817 73.4845 60.8583 66.6788" fill="#FAF9FA"/>
<path d="M58.3475 60.6826C51.0465 60.6112 44.7331 57.9935 39.4073 52.8296C34.3154 47.6352 31.703 41.3384 31.5704 33.9391C31.6767 26.5399 34.2654 20.2346 39.3365 15.0231C44.641 9.84053 50.9431 7.19921 58.2428 7.09911C65.5459 7.1423 71.8703 9.73607 77.216 14.8804C82.33 20.0593 84.9661 26.3481 85.1243 33.7469C85.0715 41.1181 82.4786 47.4596 77.3456 52.7714C72.0374 57.9505 65.7332 60.5875 58.4331 60.6824M58.3475 62.7816C66.287 62.668 73.0794 59.8609 78.7247 54.3602C84.2856 48.6606 87.1182 41.8507 87.2226 33.9306C87.1397 26.0106 84.3266 19.1937 78.7834 13.48C73.1552 7.96398 66.3719 5.13733 58.4335 5C50.4921 5.09024 43.6908 7.87778 38.0294 13.3626C32.4501 19.0494 29.5978 25.8526 29.4727 33.7724C29.5346 41.6925 32.3282 48.5161 37.8534 54.2431C43.5728 59.8365 50.388 62.6826 58.2993 62.7816" fill="#FAF9FA"/>
<path d="M66.8388 59.4381C70.551 53.1475 75.9734 48.9858 83.106 46.9529C90.148 45.1379 96.9044 46.0227 103.375 49.6074C109.726 53.3992 113.89 58.795 115.865 65.7948C117.698 72.9824 116.834 79.7639 113.27 86.1391C109.581 92.4457 104.174 96.6289 97.0487 98.6887C90.0091 100.531 83.2477 99.6703 76.7646 96.108C70.4108 92.3766 66.2184 86.9591 64.1872 79.8555C62.3586 72.6664 63.2282 65.8853 66.7961 59.5123M65.0219 58.3886C61.1505 65.3249 60.184 72.6141 62.1225 80.2561C64.2754 87.9244 68.7533 93.7838 75.5564 97.8343C82.4531 101.722 89.76 102.693 97.4771 100.747C105.066 98.6282 110.904 94.1638 114.992 87.3539C118.885 80.4276 119.872 73.1404 117.956 65.4924C115.823 57.8146 111.361 51.9415 104.568 47.8731C97.6821 43.9667 90.3791 42.9756 82.6595 44.8997C74.9585 47.0588 69.0873 51.5412 65.0461 58.3468" fill="#FAF9FA"/>
<path d="M62.2347 57.6077C58.646 51.2457 57.755 44.4663 59.5618 37.2695C61.5118 30.2602 65.6558 24.8482 71.994 21.0336C78.4515 17.4261 85.2035 16.5165 92.2498 18.3049C99.3878 20.31 104.825 24.4501 108.562 30.7252C112.176 37.075 113.093 43.852 111.313 51.0561C109.387 58.0769 105.262 63.5055 98.9373 67.3419C92.5307 70.9818 85.7454 71.9058 78.5813 70.114C71.4444 68.1039 66.0098 63.9599 62.2776 57.6818M60.4178 58.6572C64.4859 65.48 70.3118 69.962 77.8956 72.1033C85.6093 74.072 92.9199 73.1216 99.8274 69.2519C106.641 65.2201 111.135 59.3742 113.309 51.7141C115.269 44.0793 114.324 36.7882 110.474 29.8409C106.425 23.0048 100.612 18.5052 93.0335 16.342C85.3217 14.3509 78.0069 15.2811 71.0894 19.1326C64.2651 23.1463 59.7557 28.9787 57.5614 36.6299C55.5797 44.3823 56.5238 51.7108 60.3938 58.6154" fill="#FAF9FA"/>
</svg>
