<svg width="125" height="125" viewBox="0 0 125 125" fill="none" xmlns="http://www.w3.org/2000/svg">
<path d="M62.6805 6.00005C75.7949 5.99899 88.5039 10.5452 98.6421 18.864C108.78 27.1829 115.72 38.7596 118.28 51.6218C120.839 64.4839 118.86 77.8356 112.679 89.402C106.498 100.968 96.4975 110.034 84.3819 115.053C72.2662 120.073 58.7849 120.736 46.2349 116.931C33.6849 113.125 22.8428 105.085 15.5559 94.1816C8.26906 83.278 4.98827 70.1851 6.27256 57.1338C7.55685 44.0825 13.3268 31.8803 22.5992 22.6062C27.8563 17.3338 34.1038 13.1524 40.9823 10.3025C47.8609 7.45264 55.2349 5.99046 62.6805 6.00005ZM90.2105 16.6064C86.3673 19.6611 82.8175 22.6239 83.8076 24.1947C85.4024 26.714 95.2391 28.7395 98.2384 29.3076C100.645 29.789 103.076 30.1397 105.52 30.3582C101.348 24.834 96.1511 20.1651 90.213 16.6064H90.2105ZM107.729 33.5049C104.354 33.3589 100.995 32.9465 97.6854 32.2716C93.4138 31.4579 83.5771 29.4601 81.2681 25.7944C79.0511 22.2938 82.8692 18.6647 87.3788 15.0243C84.1653 13.3604 80.792 12.0251 77.3103 11.0387C76.4487 12.6221 75.7029 14.5582 74.2493 15.1087L71.7136 16.0673C71.3646 16.2021 68.1941 20.5026 67.1196 21.9084C66.8799 22.2392 66.6208 22.5555 66.3436 22.8556C64.9139 24.3282 64.5045 23.9301 63.1478 22.6113C61.7181 21.2181 61.669 20.6134 61.1261 22.2749C59.8727 26.1119 60.5025 30.2839 56.0307 31.2072C52.2114 32.0008 46.3313 29.7649 41.6113 31.3596C40.7516 31.627 39.9551 32.0664 39.2704 32.651C38.5857 33.2357 38.027 33.9535 37.6283 34.7607C36.8586 36.0128 36.2426 37.008 34.857 37.1251C32.3641 37.3204 30.4028 33.6661 28.2098 33.8991C26.4752 34.0818 24.5202 36.8253 24.5315 37.6869C25.3107 38.6154 25.9642 39.6425 26.4752 40.7416C27.4275 43.46 26.8531 48.0603 27.4401 49.3552C27.6372 49.604 27.8907 49.8023 28.1796 49.9337C28.4685 50.0651 28.7845 50.1259 29.1016 50.111C30.2743 49.9271 31.8388 47.2579 36.1557 49.519C38.1422 50.557 40.237 52.2373 42.119 53.264C44.4897 54.5589 45.898 54.7542 48.0885 56.9838C49.2509 58.1591 50.1594 59.5607 50.7578 61.1016C51.6194 63.0629 51.7113 62.4343 52.6032 63.6134C52.9681 64.3113 53.4962 64.9106 54.1425 65.3605C57.3131 67.6279 62.751 69.4293 60.7835 73.8469C60.2393 75.0801 54.989 83.7076 54.5393 84.2505C53.3061 85.7482 51.4846 86.9449 50.8623 88.0698C50.1292 89.3773 49.9806 91.6989 48.7662 93.7761C47.0128 96.7993 43.8296 98.3109 42.876 100.619C42.5976 101.351 42.4508 102.127 42.4427 102.91C42.7324 106.282 43.2016 109.637 43.8485 112.96C51.6208 115.861 59.9588 116.925 68.2108 116.07C76.4628 115.215 84.4052 112.463 91.4173 108.029C92.2785 105.29 92.99 102.507 93.5486 99.6902C93.7624 97.2521 94.1607 94.8338 94.7403 92.456C95.7178 89.5424 97.9839 86.8416 98.2283 85.0239C98.4802 83.1672 96.922 81.2915 97.4536 78.1386C97.7658 76.7724 98.172 75.4293 98.6692 74.119C98.8405 73.5207 97.4347 72.591 96.9333 72.3844C95.7304 71.8806 91.8141 71.9864 90.3831 71.999C89.8061 72.0883 89.2162 72.0438 88.6591 71.8691C88.102 71.6944 87.5924 71.3941 87.1697 70.9913C87.0047 71.2432 80.9079 66.464 80.2592 65.6326C79.1912 64.1585 78.6653 62.3608 78.7702 60.5436C78.7732 58.5982 78.9963 56.6594 79.4353 54.7642C79.6952 53.735 79.8222 52.6766 79.8132 51.6151C79.7239 50.1897 80.0901 48.7727 80.8587 47.569C81.6465 46.3079 82.8152 45.3302 84.1956 44.7776C84.9181 44.4926 85.5599 44.035 86.065 43.4449C87.0359 42.3336 88.3063 41.5255 89.7243 41.117C92.4433 40.4806 95.2501 40.3073 98.0267 40.6043C98.2535 40.6283 100.355 41.0377 100.355 41.0377C101.021 40.9652 101.693 40.9652 102.359 41.0377C103.43 41.2765 104.417 41.8025 105.212 42.5593C106.404 43.6053 107.771 44.4325 109.25 45.0031C110.623 45.0936 112.001 45.0978 113.375 45.0157C111.96 40.9666 110.065 37.1019 107.729 33.5049ZM26.4802 102.299C26.3391 99.5794 26.2598 97.05 26.3543 95.1806C26.4191 94.0149 26.566 92.8553 26.7939 91.7102C27.0594 90.5802 27.0907 89.4077 26.8858 88.2651C26.5546 86.318 26.7033 84.3195 27.3192 82.4429C28.0095 79.8341 27.4716 80.6793 27.0748 78.2633C26.8268 76.865 26.1722 75.5707 25.1928 74.5422C22.2729 70.6574 21.7099 69.1849 20.9717 64.3213C20.556 61.6093 20.0055 58.3215 17.519 56.9044C15.6773 55.8475 12.1276 55.4382 9.54276 55.127C8.31017 63.7746 9.20877 72.5923 12.1604 80.8135C15.1121 89.0347 20.0287 96.4103 26.4802 102.299ZM10.0504 52.1454C13.0308 52.5233 16.6914 52.9642 19.0066 54.2868C21.7779 55.8702 23.0149 58.7775 23.6258 61.8813C23.8875 64.2572 24.3941 66.5996 25.1374 68.8712C26.1036 71.1071 27.7714 72.756 28.8648 74.5221C30.1106 76.5376 29.7869 77.2594 30.2945 78.7924C30.8157 80.2253 30.7919 81.7998 30.2277 83.2163C29.7126 84.731 29.5926 86.3521 29.8788 87.9262C30.3184 91.7757 29.5551 91.6536 29.3598 95.3368C29.2339 97.6899 29.4266 101.294 29.6281 104.978C32.9995 107.615 36.673 109.84 40.5709 111.607C39.9841 108.7 39.6023 105.756 39.4283 102.797C39.5682 99.1738 40.9072 97.6407 43.3686 95.3494C45.8551 93.0404 46.3502 92.4963 47.1929 89.4353C47.5716 87.2494 48.7745 85.2922 50.5537 83.9671C51.1441 83.4617 51.6972 82.9144 52.2089 82.3295C52.4168 82.0776 57.6406 73.5118 58.0311 72.6301C58.3006 72.0242 58.2515 71.8113 57.5675 71.2117C56.357 70.1485 53.7885 68.8045 52.3928 67.8106C51.5526 67.2622 50.8517 66.5256 50.3459 65.6591C49.9176 64.9575 49.3381 64.7773 48.6655 63.6739C47.7132 62.1043 47.761 60.9429 45.9345 59.0862C44.2176 57.339 42.74 57.0266 40.6741 55.8967C38.6335 54.7844 36.4958 53.0864 34.76 52.1756C33.3127 51.4198 32.8365 51.4425 31.6751 52.1756C31.1281 52.5791 30.5005 52.8599 29.8351 52.9988C29.1698 53.1378 28.4823 53.1317 27.8195 52.981C27.1567 52.8302 26.5342 52.5383 25.9944 52.1253C25.4546 51.7122 25.0102 51.1876 24.6915 50.5872C23.7077 48.3878 24.4396 44.0508 23.6346 41.7342C23.1031 40.2227 21.5461 39.7251 21.5209 37.7273C21.4907 35.7723 23.3109 33.4016 24.8754 32.1923C25.7168 31.4633 26.763 31.0124 27.8707 30.9012C28.9784 30.79 30.0934 31.0241 31.0629 31.5713C31.8097 31.9981 32.517 32.4905 33.1766 33.0426C33.6308 33.4363 34.1152 33.7939 34.6252 34.112C34.7512 34.1007 34.7512 33.7026 35.0712 33.171C35.5692 32.3039 36.1688 31.4992 36.8574 30.7739C39.2592 28.6742 42.383 27.5902 45.5692 27.7507C47.1564 27.7741 48.7412 27.8822 50.3169 28.0744C52.0092 28.3475 53.729 28.4072 55.4362 28.252C56.8218 27.9648 57.0977 26.4495 57.4403 24.764C57.856 22.7171 58.4178 19.3928 60.233 18.4833C61.9121 17.6394 63.6051 18.8978 64.7841 19.9949C66.1698 18.1873 69.4764 13.684 70.6555 13.2381L73.1975 12.2795C73.6112 11.6399 73.9807 10.9728 74.3034 10.2829C67.3311 8.73914 60.1209 8.60167 53.0949 9.87856C46.0688 11.1555 39.368 13.821 33.3847 17.7193C27.4014 21.6176 22.2558 26.6702 18.2491 32.5814C14.2425 38.4927 11.4552 45.1438 10.0504 52.1454ZM114.315 47.9973C112.456 48.115 110.59 48.1066 108.731 47.9721C105.939 47.4771 102.706 44.1238 101.956 44.0193C101.503 43.9895 101.048 43.9971 100.596 44.042C99.4968 44.1276 99.8205 43.9626 99.0017 43.79C96.9081 43.4879 94.7867 43.4283 92.6795 43.6124C88.6888 44.0105 88.8538 45.3608 86.9354 46.7049C85.5069 47.7126 84.3644 47.6572 83.4234 49.1663C82.5316 50.596 82.9523 51.4148 82.7697 53.1556C82.6286 54.4821 82.1701 56.2166 81.9572 57.8051C81.7014 59.36 81.7159 60.9474 82 62.4973C82.3567 63.6177 83.1077 64.5706 84.1137 65.1792C84.4803 65.4664 88.8488 68.5034 88.8425 68.5034C89.7041 69.0841 89.6059 69.0073 90.732 68.9985C92.7475 68.9796 96.2745 68.8448 98.0948 69.6157C99.331 70.2298 100.411 71.1177 101.253 72.2119C102.792 74.5574 100.086 76.9986 100.355 79.8958C100.507 81.5334 101.503 83.2327 101.204 85.4321C100.826 88.187 98.5583 90.5085 97.5871 93.4108C97.0906 95.6474 96.7313 97.9123 96.5114 100.193C96.2035 101.914 95.8083 103.618 95.3273 105.3C103.87 98.7504 110.247 89.7858 113.633 79.5683C117.019 69.3508 117.257 58.3516 114.315 47.9973Z" fill="#FAF9FA"/>
</svg>
