<svg width="125" height="125" viewBox="0 0 125 125" fill="none" xmlns="http://www.w3.org/2000/svg">
<path d="M71.3359 58.4378C71.5443 58.4378 71.6484 58.4378 71.8568 58.3337L73.6276 57.292C74.1485 56.9795 74.2526 56.3545 74.0443 55.8337C73.7318 55.3128 73.1068 55.2087 72.586 55.417L70.8151 56.4587C70.2943 56.7712 70.1901 57.3962 70.3985 57.917C70.6068 58.2295 70.9193 58.4378 71.3359 58.4378Z" fill="#FAF9FA"/>
<path d="M80.3985 53.2298C80.6068 53.2298 80.711 53.2298 80.9193 53.1257L82.6901 52.084C83.2109 51.7715 83.3151 51.1465 83.1068 50.6257C82.7943 50.1048 82.1693 50.0007 81.6484 50.209L79.8776 51.2507C79.3568 51.5632 79.2526 52.1882 79.4609 52.709C79.6693 53.0215 79.9818 53.2298 80.3985 53.2298Z" fill="#FAF9FA"/>
<path d="M53.3145 56.25L51.5436 55.2084C51.0228 54.8959 50.3978 55.1042 50.0853 55.625C49.7728 56.1459 49.9811 56.7709 50.502 57.0834L52.2728 58.125C52.4811 58.2292 52.5853 58.2292 52.7936 58.2292C53.1061 58.2292 53.5228 58.0209 53.7311 57.7084C53.9395 57.1875 53.7311 56.5625 53.3145 56.25Z" fill="#FAF9FA"/>
<path d="M44.1475 51.1455L42.3766 50.1039C41.8558 49.7914 41.2308 49.9997 40.9183 50.5205C40.6058 51.0414 40.8141 51.6664 41.335 51.9789L43.1058 53.0205C43.3141 53.1247 43.4183 53.1247 43.6266 53.1247C43.9391 53.1247 44.3558 52.9164 44.5641 52.6039C44.8766 52.083 44.6683 51.458 44.1475 51.1455Z" fill="#FAF9FA"/>
<path d="M62.2731 82.291C61.6481 82.291 61.2314 82.7077 61.2314 83.3327V85.416C61.2314 86.041 61.6481 86.4577 62.2731 86.4577C62.8981 86.4577 63.3148 86.041 63.3148 85.416V83.3327C63.3148 82.7077 62.8981 82.291 62.2731 82.291Z" fill="#FAF9FA"/>
<path d="M62.2731 71.875C61.6481 71.875 61.2314 72.2917 61.2314 72.9167V75C61.2314 75.625 61.6481 76.0417 62.2731 76.0417C62.8981 76.0417 63.3148 75.625 63.3148 75V72.9167C63.3148 72.2917 62.8981 71.875 62.2731 71.875Z" fill="#FAF9FA"/>
<path d="M62.2731 53.0212C62.8981 53.0212 63.3148 52.6045 63.3148 51.9795V49.8962C63.3148 49.2712 62.8981 48.8545 62.2731 48.8545C61.6481 48.8545 61.2314 49.2712 61.2314 49.8962V51.9795C61.2314 52.5003 61.6481 53.0212 62.2731 53.0212Z" fill="#FAF9FA"/>
<path d="M62.2731 42.6042C62.8981 42.6042 63.3148 42.1875 63.3148 41.5625V39.4792C63.3148 38.8542 62.8981 38.4375 62.2731 38.4375C61.6481 38.4375 61.2314 38.8542 61.2314 39.4792V41.5625C61.2314 42.0833 61.6481 42.6042 62.2731 42.6042Z" fill="#FAF9FA"/>
<path d="M82.794 72.8125L81.0231 71.7709C80.5023 71.4584 79.8773 71.6667 79.5648 72.1875C79.2523 72.7084 79.4606 73.3333 79.9815 73.6458L81.7523 74.6875C81.9606 74.7917 82.0648 74.7917 82.2731 74.7917C82.5856 74.7917 83.0023 74.5834 83.2106 74.2709C83.419 73.75 83.3148 73.125 82.794 72.8125Z" fill="#FAF9FA"/>
<path d="M73.7315 67.709L71.9606 66.6673C71.4398 66.3548 70.8148 66.5632 70.5023 67.084C70.1898 67.6048 70.3981 68.2298 70.919 68.5423L72.6898 69.584C72.8981 69.6882 73.0023 69.6882 73.2106 69.6882C73.5231 69.6882 73.9398 69.4798 74.1481 69.1673C74.3565 68.6465 74.1481 68.0215 73.7315 67.709Z" fill="#FAF9FA"/>
<path d="M43.2113 72.0834L41.4404 73.125C40.9196 73.4375 40.7113 74.0625 41.0238 74.5834C41.2321 74.8959 41.5446 75.1042 41.9613 75.1042C42.1696 75.1042 42.2738 75.1042 42.4821 75L44.2529 73.9584C44.7738 73.6459 44.9821 73.0209 44.6696 72.5C44.3571 71.9792 43.6279 71.7709 43.2113 72.0834Z" fill="#FAF9FA"/>
<path d="M52.2728 66.9798L50.502 68.0215C49.9811 68.334 49.7728 68.959 50.0853 69.4798C50.2936 69.7923 50.6061 70.0007 51.0228 70.0007C51.2311 70.0007 51.3353 70.0007 51.5436 69.8965L53.3145 68.8548C53.8353 68.5423 54.0436 67.9173 53.7311 67.3965C53.4186 66.8757 52.7936 66.6673 52.2728 66.9798Z" fill="#FAF9FA"/>
<path d="M110.294 62.5C114.356 57.0833 117.273 51.6667 118.627 46.5625C120.19 40.625 119.773 35.5208 117.273 31.25C112.481 23.125 100.815 20 86.2314 21.6667C80.398 8.4375 71.8564 0 62.273 0C52.6897 0 44.148 8.4375 38.3147 21.6667C23.7314 20 12.0647 23.125 7.27302 31.25C4.77302 35.5208 4.35635 40.625 5.91886 46.5625C7.27302 51.7708 10.1897 57.1875 14.2522 62.5C10.1897 67.9167 7.27302 73.3333 5.91886 78.4375C4.35635 84.375 4.77302 89.4792 7.27302 93.75C11.2314 100.521 19.8772 103.75 31.023 103.75C33.4189 103.75 35.8147 103.542 38.4189 103.333C44.2522 116.562 52.7939 125 62.3772 125C71.9605 125 80.5022 116.562 86.3355 103.333C88.8355 103.646 91.3355 103.75 93.7314 103.75C104.877 103.75 113.523 100.417 117.481 93.75C119.981 89.4792 120.398 84.375 118.836 78.4375C117.273 73.3333 114.461 67.9167 110.294 62.5ZM93.7314 23.2292C104.044 23.2292 111.961 26.25 115.502 32.3958C117.69 36.1458 118.106 40.7292 116.648 46.0417C115.398 50.7292 112.69 55.8333 108.94 60.8333C105.606 56.6667 101.44 52.5 96.7522 48.5417C97.1689 47.7083 97.4814 46.7708 97.4814 45.8333C97.4814 42.7083 94.8772 40.1042 91.7522 40.1042C90.6064 34.1667 88.9397 28.6458 86.9605 23.6458C89.3564 23.3333 91.5439 23.2292 93.7314 23.2292ZM95.398 79.0625C95.398 81.0417 93.7314 82.7083 91.7522 82.7083C89.773 82.7083 88.1064 81.0417 88.1064 79.0625C88.1064 77.0833 89.773 75.4167 91.7522 75.4167C93.7314 75.4167 95.398 77.0833 95.398 79.0625ZM91.4397 73.3333C88.4189 73.5417 86.023 76.0417 86.023 79.0625C86.023 80 86.2314 80.9375 86.648 81.6667C83.6272 83.75 80.398 85.8333 77.0647 87.7083C73.7314 89.5833 70.398 91.25 67.0647 92.8125C66.023 91.25 64.2522 90.2083 62.273 90.2083C60.2939 90.2083 58.523 91.25 57.4814 92.8125C54.148 91.25 50.8147 89.5833 47.4814 87.7083C44.148 85.8333 40.9189 83.8542 37.898 81.6667C38.3147 80.8333 38.523 80 38.523 79.0625C38.523 76.0417 36.1272 73.5417 33.1064 73.3333C32.7939 69.7917 32.5855 66.25 32.5855 62.5C32.5855 58.8542 32.7939 55.2083 33.1064 51.6667C36.1272 51.4583 38.523 48.9583 38.523 45.9375C38.523 45 38.3147 44.0625 37.898 43.3333C40.9189 41.25 44.148 39.1667 47.4814 37.2917C50.8147 35.4167 54.148 33.75 57.4814 32.1875C58.523 33.75 60.2939 34.7917 62.273 34.7917C64.2522 34.7917 66.023 33.75 67.0647 32.1875C70.398 33.75 73.7314 35.4167 77.0647 37.2917C80.398 39.1667 83.523 41.1458 86.5439 43.2292C86.2314 43.9583 86.023 44.7917 86.023 45.7292C86.023 48.75 88.4189 51.25 91.4397 51.4583C91.7522 55 91.9605 58.75 91.9605 62.5C91.8564 66.1458 91.7522 69.7917 91.4397 73.3333ZM65.9189 95.9375C65.9189 97.9167 64.2522 99.5833 62.273 99.5833C60.2939 99.5833 58.6272 97.9167 58.6272 95.9375C58.6272 93.9583 60.2939 92.2917 62.273 92.2917C64.2522 92.2917 65.9189 93.9583 65.9189 95.9375ZM32.7939 75.4167C34.773 75.4167 36.4397 77.0833 36.4397 79.0625C36.4397 81.0417 34.773 82.7083 32.7939 82.7083C30.8147 82.7083 29.148 81.0417 29.148 79.0625C29.148 77.0833 30.7105 75.4167 32.7939 75.4167ZM29.148 45.9375C29.148 43.9583 30.8147 42.2917 32.7939 42.2917C34.773 42.2917 36.4397 43.9583 36.4397 45.9375C36.4397 47.9167 34.773 49.5833 32.7939 49.5833C30.7105 49.5833 29.148 47.9167 29.148 45.9375ZM58.6272 29.0625C58.6272 27.0833 60.2939 25.4167 62.273 25.4167C64.2522 25.4167 65.9189 27.0833 65.9189 29.0625C65.9189 31.0417 64.2522 32.7083 62.273 32.7083C60.2939 32.7083 58.6272 31.0417 58.6272 29.0625ZM91.7522 49.4792C89.773 49.4792 88.1064 47.8125 88.1064 45.8333C88.1064 43.8542 89.773 42.1875 91.7522 42.1875C93.7314 42.1875 95.398 43.8542 95.398 45.8333C95.398 47.8125 93.8355 49.4792 91.7522 49.4792ZM87.7939 41.5625C84.773 39.4792 81.4397 37.3958 78.1064 35.5208C74.6689 33.5417 71.3355 31.875 67.898 30.3125C68.0022 29.8958 68.0022 29.4792 68.0022 29.0625C68.0022 28.75 68.0022 28.4375 67.898 28.0208C73.8355 25.9375 79.5647 24.5833 84.9814 23.8542C86.9605 28.75 88.6272 34.375 89.773 40.4167C89.0439 40.625 88.4189 41.0417 87.7939 41.5625ZM56.648 30.3125C53.2105 31.875 49.8772 33.5417 46.4397 35.5208C43.0022 37.5 39.773 39.4792 36.648 41.6667C36.1272 41.1458 35.398 40.7292 34.773 40.5208C35.9189 34.375 37.5855 28.75 39.5647 23.8542C44.8772 24.5833 50.7105 26.0417 56.648 28.0208C56.5439 28.3333 56.5439 28.6458 56.5439 29.0625C56.5439 29.4792 56.5439 29.8958 56.648 30.3125ZM28.9397 50.2083C29.5647 50.7292 30.2939 51.1458 31.1272 51.4583C30.8147 55 30.6064 58.75 30.6064 62.5C30.6064 66.25 30.8147 70 31.1272 73.5417C30.2939 73.75 29.5647 74.1667 28.9397 74.7917C24.3564 70.8333 20.2939 66.6667 16.9605 62.5C20.2939 58.3333 24.3564 54.1667 28.9397 50.2083ZM36.648 83.3333C39.773 85.5208 43.0022 87.5 46.4397 89.4792C49.8772 91.4583 53.2105 93.125 56.648 94.6875C56.5439 95.1042 56.5439 95.5208 56.5439 95.9375C56.5439 96.25 56.5439 96.5625 56.648 96.9792C50.7105 99.0625 44.9814 100.417 39.5647 101.146C37.5855 96.1458 35.9189 90.5208 34.773 84.4792C35.398 84.2708 36.1272 83.8542 36.648 83.3333ZM67.898 94.6875C71.3355 93.125 74.6689 91.4583 78.1064 89.4792C81.5439 87.5 84.773 85.5208 87.898 83.3333C88.4189 83.8542 89.148 84.2708 89.773 84.4792C88.6272 90.625 86.9605 96.25 84.9814 101.146C79.6689 100.417 73.8355 98.9583 67.898 96.9792C68.0022 96.6667 68.0022 96.3542 68.0022 95.9375C68.0022 95.5208 68.0022 95.1042 67.898 94.6875ZM95.6064 74.7917C94.9814 74.2708 94.2522 73.8542 93.4189 73.5417C93.7314 70 93.9397 66.25 93.9397 62.5C93.9397 58.6458 93.7314 54.8958 93.4189 51.25C94.148 51.0417 94.8772 50.625 95.5022 50.1042C100.19 54.0625 104.252 58.2292 107.586 62.5C104.252 66.6667 100.19 70.8333 95.6064 74.7917ZM62.273 2.08333C70.9189 2.08333 78.7314 9.79166 84.148 21.9792C78.8355 22.7083 73.1064 24.1667 67.1689 26.1458C66.1272 24.4792 64.3564 23.3333 62.1689 23.3333C60.0855 23.3333 58.2105 24.4792 57.1689 26.1458C51.3355 24.1667 45.6064 22.7083 40.1897 21.9792C45.8147 9.79166 53.6272 2.08333 62.273 2.08333ZM7.89802 45.9375C6.43969 40.625 6.85636 36.0417 9.04386 32.2917C12.6897 26.1458 20.6064 23.125 30.8147 23.125C32.898 23.125 35.1897 23.2292 37.4814 23.5417C35.5022 28.5417 33.8355 34.0625 32.6897 40.1042C29.5647 40.1042 27.0647 42.7083 27.0647 45.8333C27.0647 46.7708 27.273 47.6042 27.6897 48.4375C23.0022 52.3958 18.9397 56.4583 15.6064 60.625C11.7522 55.7292 9.14802 50.7292 7.89802 45.9375ZM9.04386 92.7083C6.85636 88.9583 6.43969 84.375 7.89802 79.0625C9.14802 74.375 11.8564 69.2708 15.6064 64.2708C18.9397 68.4375 23.0022 72.6042 27.6897 76.4583C27.273 77.2917 27.0647 78.125 27.0647 79.0625C27.0647 82.1875 29.5647 84.7917 32.6897 84.7917C33.8355 90.8333 35.5022 96.4583 37.4814 101.354C24.0439 102.917 13.4189 100.104 9.04386 92.7083ZM62.273 122.917C53.6272 122.917 45.8147 115.208 40.398 103.021C45.7105 102.292 51.4397 100.833 57.3772 98.8542C58.4189 100.521 60.1897 101.667 62.3772 101.667C64.4605 101.667 66.3355 100.521 67.3772 98.8542C73.2105 100.833 78.9397 102.292 84.3564 103.021C78.7314 115.208 70.9189 122.917 62.273 122.917ZM115.502 92.7083C111.127 100.104 100.502 102.917 87.0647 101.458C89.0439 96.4583 90.7105 90.9375 91.8564 84.8958C94.9814 84.7917 97.4814 82.2917 97.4814 79.1667C97.4814 78.2292 97.273 77.3958 96.8564 76.5625C101.544 72.6042 105.606 68.5417 108.94 64.375C112.69 69.375 115.398 74.4792 116.648 79.1667C118.106 84.375 117.69 88.9583 115.502 92.7083Z" fill="#FAF9FA"/>
<path d="M62.2731 56.7715C59.0439 56.7715 56.5439 59.3757 56.5439 62.5007C56.5439 65.6257 59.1481 68.2298 62.2731 68.2298C65.3981 68.2298 68.0023 65.6257 68.0023 62.5007C68.0023 59.3757 65.5023 56.7715 62.2731 56.7715ZM62.2731 66.1465C60.2939 66.1465 58.6273 64.4798 58.6273 62.5007C58.6273 60.5215 60.2939 58.8548 62.2731 58.8548C64.2523 58.8548 65.9189 60.5215 65.9189 62.5007C65.9189 64.4798 64.2523 66.1465 62.2731 66.1465Z" fill="#FAF9FA"/>
</svg>
