<svg width="232" height="231" viewBox="0 0 232 231" fill="none" xmlns="http://www.w3.org/2000/svg">
<rect x="0.100098" y="0.521484" width="231" height="230" rx="10" fill="#FAF9FA"/>
<path fill-rule="evenodd" clip-rule="evenodd" d="M80.3359 128.366C80.3359 126.627 80.2477 126.44 79.4254 126.165C79.2394 126.165 78.8771 126.077 78.6911 126.077C78.603 126.077 78.5051 126.077 78.5051 125.989C78.5051 125.9 78.5932 125.802 78.8673 125.802C79.7778 125.802 81.1582 125.89 81.2463 125.89C81.3344 125.89 82.7149 125.802 83.3512 125.802C83.6253 125.802 83.7134 125.89 83.7134 125.989C83.7134 126.077 83.6253 126.077 83.5274 126.077C83.3414 126.077 83.2533 126.165 82.9792 126.165C82.4309 126.254 82.2449 126.627 82.2449 127.452C82.1568 128.101 82.1568 128.739 82.1568 129.653V132.128C82.1568 133.051 82.1568 133.14 81.8827 133.326C80.5121 134.063 78.5932 134.24 77.3988 134.24C75.7541 134.24 72.7387 134.053 70.3597 131.951C68.9891 130.763 67.7947 128.464 67.7947 125.714C67.7947 122.315 69.4395 119.84 71.3583 118.641C73.2772 117.354 75.3821 117.266 77.0268 117.266C78.3974 117.266 79.8659 117.541 80.3163 117.629C80.7764 117.718 81.5107 117.816 82.0589 117.816C82.2449 117.816 82.333 117.904 82.333 118.003C82.333 118.278 82.147 118.916 82.147 121.126C82.147 121.401 82.0589 121.588 81.961 121.588C81.8729 121.588 81.775 121.401 81.775 121.225C81.775 120.949 81.6869 120.301 81.3149 119.751C80.7666 118.926 79.024 118.003 76.2827 118.003C75.0002 118.003 73.3555 118.189 71.7108 119.476C70.5164 120.488 69.6059 122.413 69.6059 124.987C69.6059 128.012 71.1625 130.311 71.8968 131.047C73.5415 132.698 75.5583 133.336 77.4771 133.336C78.2995 133.336 79.396 133.248 79.9443 132.874C80.2184 132.688 80.3065 132.511 80.3065 132.138L80.3359 128.366ZM92.4169 127.816C92.505 127.816 92.505 127.727 92.505 127.629L90.7623 122.58C90.6742 122.305 90.5763 122.305 90.4882 122.58L88.8435 127.629C88.8435 127.717 88.8435 127.816 88.9316 127.816H92.4169ZM90.4882 120.291C90.6742 119.741 90.7623 119.653 90.8504 119.653C91.0365 119.564 91.0365 119.653 91.3106 120.291C91.5847 120.94 94.4238 128.641 95.6084 131.489C96.2448 133.14 96.7049 133.415 97.1651 133.601C97.4392 133.69 97.7133 133.69 97.8993 133.69C97.9874 133.69 98.0853 133.69 98.0853 133.778C98.0853 133.867 97.8993 133.965 97.7231 133.965C97.449 133.965 96.0784 133.965 94.7959 133.876C94.4336 133.876 94.2476 133.876 94.2476 133.788C94.2476 133.7 94.3357 133.7 94.4336 133.7C94.5217 133.611 94.6196 133.425 94.5217 133.149L92.7791 128.552C92.7791 128.464 92.691 128.464 92.5931 128.464H88.6575C88.5693 128.464 88.5693 128.552 88.4714 128.651L87.3749 131.951C87.2868 132.413 87.1889 132.776 87.1889 133.149C87.1889 133.513 87.5512 133.7 87.8253 133.7H88.0113C88.1973 133.7 88.1973 133.7 88.1973 133.788C88.1973 133.876 88.1092 133.975 87.9232 133.975C87.4631 133.975 86.7288 133.886 86.5526 133.886C86.2785 133.886 85.2701 133.975 84.4477 133.975C84.1736 133.975 84.0855 133.886 84.0855 133.788C84.0855 133.7 84.1736 133.7 84.2715 133.7H84.8197C85.6421 133.513 86.0141 132.874 86.3764 131.951L90.4882 120.291ZM102.931 128.552C102.931 130.291 102.931 131.764 103.02 132.59C103.108 133.14 103.206 133.513 103.754 133.601C104.028 133.69 104.39 133.69 104.576 133.69C104.664 133.69 104.762 133.778 104.762 133.778C104.762 133.867 104.674 133.965 104.4 133.965C103.489 133.965 102.295 133.876 102.207 133.876C102.119 133.876 100.924 133.965 100.376 133.965C100.19 133.965 100.102 133.876 100.102 133.778C100.102 133.778 100.102 133.69 100.288 133.69C100.376 133.69 100.65 133.69 100.836 133.601C101.199 133.513 101.296 133.14 101.296 132.59C101.385 131.764 101.385 130.301 101.385 128.552V120.655H98.7315C97.5371 120.743 97.1749 120.841 96.8126 121.293C96.6266 121.568 96.6266 121.755 96.5385 121.843C96.4504 122.03 96.4504 122.03 96.3525 122.03C96.2644 122.03 96.2644 122.03 96.2644 121.843C96.2644 121.657 96.6266 120.095 96.6266 119.918C96.7147 119.83 96.8126 119.643 96.8126 119.643C96.9986 119.555 97.1749 119.83 97.635 119.83C98.1832 119.918 98.9175 119.918 99.1035 119.918H105.966C106.603 119.918 106.975 119.83 107.249 119.83C107.523 119.741 107.709 119.741 107.797 119.741C107.885 119.741 107.885 119.83 107.885 119.928C107.885 120.478 107.797 121.765 107.797 122.04C107.797 122.226 107.797 122.226 107.709 122.226C107.621 122.226 107.621 122.226 107.523 121.951V121.765C107.435 121.215 107.063 120.753 105.33 120.665H102.951L102.931 128.552ZM111.351 125.252V121.215C111.263 120.566 111.165 120.291 110.529 120.203C110.44 120.115 110.068 120.115 109.892 120.115C109.892 120.115 109.804 120.115 109.804 120.026C109.804 119.938 109.892 119.84 110.078 119.84C110.901 119.84 112.095 119.928 112.183 119.928H116.393C116.667 119.928 117.029 119.84 117.127 119.84C117.215 119.84 117.313 119.751 117.401 119.751C117.489 119.751 117.489 119.84 117.489 119.938C117.489 120.026 117.401 120.213 117.303 120.763C117.303 120.949 117.303 121.775 117.215 121.951C117.215 122.04 117.215 122.226 117.127 122.226C117.039 122.226 116.941 122.138 116.941 121.951C116.941 121.863 116.941 121.49 116.853 121.303C116.765 120.94 116.579 120.753 115.57 120.665C115.208 120.576 113.28 120.576 113.005 120.576C113.005 120.576 112.917 120.665 112.917 120.763V125.9C112.917 126.087 112.917 126.087 113.005 126.087H115.933C116.393 125.998 116.667 125.998 116.843 125.812C116.931 125.625 117.029 125.537 117.117 125.537C117.117 125.537 117.205 125.625 117.205 125.723C117.205 125.812 117.117 126.185 117.019 126.735C117.019 127.099 116.931 127.835 116.931 127.934C116.931 128.12 116.931 128.297 116.843 128.297C116.755 128.297 116.657 128.297 116.657 128.11V127.56C116.569 127.285 116.383 126.922 115.649 126.922C115.189 126.833 113.358 126.833 113.084 126.833C112.996 126.833 112.898 126.833 112.898 126.922V131.784C112.986 133.071 113.26 133.258 115.003 133.258C115.551 133.258 116.285 133.258 116.833 133.071C117.294 132.884 117.47 132.521 117.656 131.696C117.656 131.509 117.656 131.421 117.744 131.421C117.93 131.421 117.93 131.607 117.93 131.696C117.93 131.882 117.744 133.169 117.656 133.533C117.568 133.994 117.382 133.994 116.647 133.994C113.906 133.994 112.624 133.906 112.164 133.906H111.429C111.067 133.994 110.607 133.994 110.333 133.994C110.147 133.994 110.059 133.906 110.059 133.808C110.059 133.808 110.059 133.719 110.245 133.719C110.333 133.719 110.607 133.719 110.793 133.631C111.155 133.542 111.253 133.169 111.253 132.619C111.341 131.794 111.341 130.33 111.341 128.582L111.351 125.252ZM121.229 133.69C121.043 133.601 120.955 133.503 120.955 132.953C120.955 132.04 121.043 131.303 121.043 131.028C121.131 130.841 121.131 130.753 121.229 130.753C121.317 130.753 121.317 130.753 121.317 130.939C121.317 131.126 121.317 131.401 121.405 131.588C121.68 132.963 122.874 133.513 124.147 133.513C125.879 133.513 126.712 132.226 126.712 131.038C126.712 129.751 126.163 129.024 124.607 127.737L123.784 127C121.866 125.35 121.405 124.25 121.405 122.963C121.405 120.949 122.874 119.663 125.243 119.663C125.879 119.574 126.438 119.663 126.888 119.849C127.25 119.849 127.436 119.938 127.524 119.938C127.71 119.938 127.71 119.938 127.71 120.026V121.951C127.71 122.315 127.622 122.413 127.524 122.413C127.436 122.413 127.436 122.325 127.338 122.226C127.338 121.951 127.25 121.49 127.152 121.215C127.064 121.028 126.516 120.291 124.871 120.291C123.589 120.291 122.58 121.028 122.58 122.403C122.58 123.503 123.128 124.142 124.871 125.527L125.331 125.989C127.524 127.737 127.984 128.837 127.984 130.301C127.984 131.126 127.71 132.501 126.428 133.425C125.693 133.975 124.685 134.25 123.686 134.25C122.845 134.23 122.003 134.043 121.229 133.69ZM138.421 125.065C138.332 125.34 138.235 125.802 138.058 126.264C137.598 128.012 137.148 129.662 136.688 131.401C136.228 132.776 135.777 133.601 135.493 133.876C135.307 134.063 134.671 134.613 133.751 134.613C133.114 134.613 132.84 134.151 132.84 133.876C132.84 133.513 133.026 133.415 133.114 133.326C133.3 133.14 133.388 133.238 133.575 133.415C133.761 133.778 134.123 134.053 134.397 134.053C134.671 134.053 135.043 133.778 135.405 132.766C136.14 130.193 136.6 127.531 137.324 125.055H136.13C135.944 124.967 136.042 124.692 136.218 124.505H137.5C137.863 123.13 138.235 121.932 139.145 120.93C139.879 120.016 140.79 119.643 141.71 119.643C142.356 119.643 142.904 120.007 142.904 120.655C142.904 121.116 142.542 121.568 142.268 121.568C142.18 121.568 142.082 121.382 142.082 121.293C141.994 120.38 141.534 120.095 141.172 120.095C140.711 120.095 140.349 120.458 139.977 120.92C139.243 121.932 138.969 123.209 138.607 124.496H140.437C140.525 124.682 140.525 124.859 140.251 125.046L138.421 125.065ZM144.461 125.517C143.551 126.716 142.993 128.543 142.904 129.279C142.904 129.829 143.09 130.291 143.551 130.291C143.913 130.291 144.285 130.104 144.745 129.466C145.381 128.641 146.116 126.617 146.116 125.792C146.204 125.33 146.116 124.78 145.567 124.78C145.283 124.79 144.921 124.879 144.461 125.517ZM147.202 126.254C147.114 127.079 146.654 128.552 145.558 129.653C144.647 130.664 143.815 130.753 143.453 130.753C142.444 130.753 141.896 130.016 141.896 128.739C141.984 127.825 142.532 126.264 143.541 125.34C144.363 124.515 145 124.329 145.646 124.329C146.742 124.329 147.202 125.154 147.202 126.254ZM150.864 129.191C150.678 129.554 150.776 129.741 150.952 129.741C151.138 129.741 151.774 129.279 152.509 128.454C153.879 127.079 154.702 125.33 155.162 124.417C155.524 124.329 155.896 124.505 155.896 124.692C155.808 125.055 154.799 127.629 154.163 129.368C154.075 129.643 154.075 129.731 154.251 129.731C154.525 129.731 155.348 129.083 155.72 128.631C155.808 128.543 155.994 128.631 155.994 128.818C155.632 129.554 154.163 130.743 153.341 130.743C153.155 130.743 152.881 130.468 152.979 130.193L153.987 127.442V127.354C152.89 128.818 151.06 130.753 150.237 130.753C149.601 130.753 149.503 130.114 149.777 129.466L151.148 125.704C151.236 125.429 151.236 125.34 151.148 125.34C150.874 125.34 150.139 125.979 149.777 126.352C149.591 126.352 149.503 126.264 149.503 126.165C149.865 125.517 151.422 124.329 152.068 124.329C152.254 124.329 152.616 124.515 152.528 124.79L150.864 129.191ZM160.194 127.629C161.29 125.979 162.759 124.329 163.943 124.329C164.492 124.329 164.766 124.604 164.766 125.154C164.766 125.34 164.678 125.89 164.492 126.165C164.218 126.991 163.209 129.466 163.121 129.564C163.033 129.751 163.033 129.839 163.121 129.839C163.395 129.839 164.129 129.378 164.58 128.827C164.766 128.827 164.766 128.916 164.766 129.014C164.218 130.026 163.023 130.753 162.201 130.753C162.113 130.753 161.839 130.566 161.839 130.389C161.839 130.212 161.927 130.114 162.201 129.378C162.563 128.641 163.111 127.089 163.385 126.352C163.571 126.077 163.748 125.527 163.748 125.252C163.748 125.065 163.748 124.888 163.474 124.888C163.111 124.888 162.279 125.625 161.467 126.725C160.644 127.737 159.998 128.926 159.176 130.576C159.088 130.664 158.99 130.763 158.902 130.763C158.716 130.763 158.255 130.674 158.441 130.399L160.184 125.537C160.272 125.35 160.272 125.173 160.096 125.173C159.822 125.173 159.274 125.537 158.813 125.998C158.627 125.998 158.539 125.91 158.539 125.723C159.176 124.987 160.096 124.348 160.82 124.348C161.183 124.348 161.369 124.623 161.183 124.997L160.194 127.629ZM170.522 125.429C169.886 125.979 168.79 127.442 168.329 128.366C167.869 129.378 167.869 129.653 167.869 129.839C167.869 130.026 168.055 130.203 168.143 130.203C168.418 130.203 169.152 129.928 170.16 128.827C171.355 127.629 171.805 126.716 171.991 125.89C172.177 125.252 171.991 124.79 171.629 124.79C171.257 124.79 170.894 125.065 170.522 125.429ZM173.45 121.667C173.812 120.753 173.812 120.468 173.636 120.38L173.273 120.105C173.273 120.105 173.273 120.016 173.362 119.918C173.636 119.83 174.458 119.643 175.104 119.643L175.192 119.731C174.918 120.557 174.644 121.107 174.184 122.393C172.715 126.617 171.991 129.004 171.903 129.456C171.815 129.643 171.815 129.82 171.991 129.82C172.265 129.82 173.185 129.083 173.636 128.444C173.724 128.444 173.822 128.533 173.822 128.631C173.459 129.456 172.089 130.743 171.355 130.743C170.992 130.743 170.806 130.468 170.806 130.281C170.806 130.095 170.894 129.82 170.992 129.368L171.541 127.894V127.806C170.444 129.269 169.348 130.743 167.879 130.743C167.331 130.743 166.969 130.281 166.969 129.643C166.969 128.543 167.791 126.706 168.985 125.694C169.994 124.682 170.904 124.319 171.638 124.319C171.913 124.319 172.275 124.407 172.461 124.78L173.45 121.667ZM178.58 125.704C177.669 126.529 176.661 128.552 176.661 129.653C176.661 129.839 176.847 129.928 176.935 129.928C177.121 129.928 177.571 129.741 178.403 128.916C179.5 127.816 180.146 126.529 180.41 125.615C180.322 125.34 180.048 125.065 179.676 125.065C179.304 125.065 179.03 125.252 178.58 125.704ZM181.233 123.965C181.419 123.877 181.869 123.965 181.967 124.152C181.693 124.79 180.41 128.101 179.95 129.564C179.862 129.751 179.862 129.839 180.038 129.839C180.312 129.839 180.675 129.653 181.595 128.827C181.683 128.827 181.781 128.916 181.781 129.014C181.135 129.928 180.038 130.753 179.216 130.753C178.942 130.753 178.854 130.478 178.854 130.291C178.854 130.203 178.854 130.104 178.942 129.741L179.49 128.366H179.402C178.394 129.653 176.837 130.753 176.113 130.753C175.75 130.753 175.466 130.291 175.466 129.928C175.466 129.564 175.741 128.277 176.749 126.902C177.483 125.89 178.12 125.34 178.756 124.977C179.304 124.613 179.764 124.515 180.126 124.515C180.313 124.515 180.401 124.604 180.489 124.604C180.489 124.604 180.675 124.79 180.763 124.967L181.233 123.965ZM186.715 125.252L185.345 129.289C185.345 129.564 185.345 129.653 185.531 129.653C185.717 129.653 186.725 128.827 187.175 128.277C187.361 128.277 187.45 128.366 187.45 128.552C186.529 129.839 185.159 130.753 184.522 130.753C184.336 130.753 184.16 130.566 184.16 130.291C184.16 130.104 184.16 129.928 184.346 129.466L185.717 125.242H184.62C184.532 125.055 184.62 124.879 184.708 124.78L185.991 124.594L186.813 123.12C186.901 123.032 187.273 123.032 187.361 123.209L186.901 124.682H188.546C188.634 124.869 188.546 125.144 188.36 125.232H186.715V125.252ZM193.666 121.205C193.666 121.667 193.392 122.217 192.844 122.217C192.482 122.217 192.384 121.853 192.384 121.578C192.384 121.303 192.57 120.665 193.118 120.665C193.49 120.655 193.666 120.93 193.666 121.205ZM191.747 125.615C191.835 125.429 191.835 125.252 191.747 125.252C191.659 125.252 191.199 125.439 190.465 126.077C190.377 126.077 190.279 125.989 190.279 125.802C191.101 124.888 192.286 124.329 192.746 124.329C192.834 124.329 192.932 124.417 193.02 124.417C193.108 124.604 193.108 124.692 192.932 125.154L191.101 129.466C191.101 129.653 191.013 129.829 191.189 129.829C191.463 129.829 192.198 129.279 192.746 128.631C192.834 128.719 192.932 128.818 192.932 128.906C192.746 129.368 191.199 130.743 190.191 130.743C190.103 130.743 190.005 130.654 189.917 130.556C189.829 130.468 189.828 130.37 189.828 130.193L191.747 125.615ZM198.15 125.517C197.328 126.716 196.682 128.543 196.682 129.279C196.682 129.829 196.868 130.291 197.328 130.291C197.602 130.291 197.964 130.104 198.522 129.466C199.158 128.641 199.805 126.617 199.893 125.792C199.893 125.33 199.805 124.78 199.256 124.78C198.972 124.79 198.61 124.879 198.15 125.517ZM200.891 126.254C200.891 127.079 200.431 128.552 199.335 129.653C198.424 130.664 197.602 130.753 197.142 130.753C196.231 130.753 195.585 130.016 195.683 128.739C195.771 127.825 196.319 126.264 197.328 125.34C198.062 124.515 198.786 124.329 199.335 124.329C200.431 124.329 200.989 125.154 200.891 126.254ZM205.013 127.629C206.109 125.979 207.578 124.329 208.674 124.329C209.311 124.329 209.585 124.604 209.585 125.154C209.585 125.34 209.399 125.89 209.311 126.165C209.037 126.991 207.94 129.466 207.94 129.564C207.852 129.751 207.852 129.839 207.94 129.839C208.214 129.839 208.949 129.378 209.311 128.827C209.585 128.827 209.585 128.916 209.585 129.014C209.037 130.026 207.842 130.753 207.02 130.753C206.834 130.753 206.658 130.566 206.658 130.389C206.658 130.212 206.658 130.114 207.02 129.378C207.294 128.641 207.842 127.089 208.214 126.352C208.302 126.077 208.577 125.527 208.577 125.252C208.577 125.065 208.488 124.888 208.302 124.888C207.94 124.888 207.02 125.625 206.198 126.725C205.463 127.737 204.827 128.926 203.916 130.576C203.828 130.664 203.828 130.763 203.642 130.763C203.456 130.763 203.094 130.674 203.182 130.399L205.013 125.537C205.013 125.35 205.013 125.173 204.925 125.173C204.563 125.173 204.102 125.537 203.554 125.998C203.466 125.998 203.368 125.91 203.368 125.723C203.916 124.987 204.837 124.348 205.649 124.348C205.923 124.348 206.109 124.623 206.012 124.997L205.013 127.629ZM25.1783 105.881V110.655C25.2665 111.667 25.2665 112.03 25.9126 112.305C26.4609 112.58 27.3811 112.669 27.7434 112.669C28.9378 112.669 30.7587 112.03 30.7587 109.545C30.7587 108.258 30.2986 106.333 28.742 105.233C28.0077 104.683 27.4594 104.594 26.9112 104.594C26.6371 104.506 25.5406 104.506 25.2665 104.506C25.1783 104.506 25.1783 104.594 25.1783 104.693V105.881ZM25.1783 103.593C25.1783 103.779 25.1783 103.868 25.2665 103.868C25.4525 103.868 25.8147 103.956 26.549 103.956C27.7336 103.956 28.1056 103.868 28.5657 103.406C29.0259 102.856 29.3 102.119 29.3 101.206C29.3 99.3687 28.4776 97.4434 26.4609 97.4434C26.1867 97.4434 25.7266 97.4434 25.3644 97.5318C25.1783 97.6202 25.1783 97.6202 25.1783 97.8068V103.593ZM23.4455 103.131C23.4455 99.7321 23.4455 99.182 23.3574 98.4551C23.3574 97.7184 23.1714 97.355 22.4469 97.1684H21.7029C21.6147 97.1585 21.6147 97.0701 21.6147 96.9817C21.6147 96.8933 21.7029 96.7951 21.8889 96.7951C22.8973 96.7951 24.2679 96.8835 24.356 96.8835C24.8161 96.8835 25.6385 96.7951 26.6469 96.7951C30.1224 96.7951 30.9447 98.9954 30.9447 100.096C30.9447 101.834 29.9363 102.944 28.928 104.044C30.4846 104.506 32.5895 106.068 32.5895 108.632C32.5895 110.93 30.8566 113.307 27.1951 113.307C26.6469 113.307 24.4539 113.219 24.356 113.219H22.2511C21.977 113.219 21.8889 113.219 21.8889 113.13C21.8889 113.042 21.977 112.944 22.0749 112.944C22.2609 112.944 22.535 112.944 22.7112 112.855C23.1714 112.767 23.2595 112.305 23.3476 111.657C23.4357 110.744 23.4357 109.083 23.4357 106.981V103.131H23.4455ZM38.9041 107.905C38.9041 109.643 38.9041 111.117 38.9922 111.942C38.9922 112.404 39.0803 112.855 39.6286 112.954C39.9027 112.954 40.3628 113.042 40.4509 113.042C40.539 113.042 40.6369 113.042 40.6369 113.13C40.6369 113.219 40.5488 113.219 40.3628 113.219H36.251C36.065 113.219 35.9768 113.219 35.9768 113.13C35.9768 113.042 36.065 113.042 36.1629 113.042C36.3489 113.042 36.5251 112.954 36.7111 112.954C37.0733 112.865 37.1712 112.404 37.2593 111.942C37.3475 111.117 37.3475 109.643 37.3475 107.905V104.594C37.3475 101.657 37.3475 101.196 37.2593 100.557C37.2593 99.9188 37.0733 99.6437 36.7111 99.5455C36.437 99.4571 36.251 99.4571 36.0747 99.4571C35.9866 99.4571 35.9866 99.3687 35.9866 99.3687C35.9866 99.182 36.0747 99.182 36.2608 99.182C36.809 99.182 38.0034 99.2704 38.0915 99.2704C38.1796 99.2704 39.374 99.182 39.9223 99.182C40.1083 99.182 40.1964 99.182 40.1964 99.3687C40.1964 99.3687 40.1083 99.4571 40.0104 99.4571H39.5502C39.0901 99.5455 38.9139 99.9188 38.9139 100.557L38.9041 107.905ZM46.7656 107.905C46.7656 110.655 46.8537 111.854 47.2257 112.129C47.4998 112.492 47.9599 112.59 49.4187 112.59C50.3292 112.59 51.1613 112.59 51.6117 112.04C51.8858 111.765 52.0718 111.303 52.0718 110.94C52.0718 110.753 52.1599 110.665 52.2578 110.665C52.3557 110.665 52.3459 110.753 52.3459 110.94C52.3459 111.127 52.2578 112.315 52.0718 112.865C51.9837 113.229 51.8858 113.327 50.9753 113.327C48.3222 113.327 47.1376 113.239 46.0313 113.239H44.2005C44.0145 113.239 43.9264 113.239 43.9264 113.15C43.9264 113.062 44.0145 113.062 44.1124 113.062C44.2103 113.062 44.4747 112.973 44.6607 112.973C45.0229 112.885 45.1208 112.423 45.1208 111.962C45.3068 111.136 45.3068 109.663 45.3068 107.924V104.594C45.3068 101.657 45.3068 101.196 45.2187 100.557C45.2187 99.9188 45.0327 99.6437 44.4845 99.4571H43.8383C43.7502 99.4571 43.6523 99.3687 43.6523 99.3687C43.6523 99.182 43.7404 99.182 43.9264 99.182C44.7488 99.182 45.9432 99.2704 46.0313 99.2704C46.1194 99.2704 47.4998 99.182 48.0481 99.182C48.2341 99.182 48.3222 99.182 48.3222 99.3687C48.3222 99.3687 48.2341 99.4571 48.1362 99.4571H47.5879C47.0397 99.5455 46.8537 99.9188 46.8537 100.557C46.7656 101.196 46.7656 101.657 46.7656 104.594V107.905ZM57.1039 107.905C57.1039 110.655 57.192 111.854 57.4661 112.129C57.7403 112.492 58.2004 112.59 59.6591 112.59C60.6675 112.59 61.4899 112.59 61.8521 112.04C62.1262 111.765 62.3123 111.303 62.4004 110.94C62.4004 110.753 62.4004 110.665 62.4885 110.665C62.5766 110.665 62.6745 110.753 62.6745 110.94C62.6745 111.127 62.4885 112.315 62.4004 112.865C62.2144 113.229 62.2144 113.327 61.206 113.327C58.5528 113.327 57.3682 113.239 56.262 113.239H54.5193C54.2452 113.239 54.1571 113.239 54.1571 113.15C54.1571 113.062 54.2452 113.062 54.3431 113.062C54.5291 113.062 54.7053 112.973 54.8913 112.973C55.2536 112.885 55.3515 112.423 55.4396 111.962C55.5277 111.136 55.5277 109.663 55.5277 107.924V104.594C55.5277 101.657 55.5277 101.196 55.4396 100.557C55.4396 99.9188 55.3515 99.6437 54.7053 99.4571H54.069C53.9809 99.4571 53.9809 99.3687 53.9809 99.3687C53.9809 99.182 54.069 99.182 54.255 99.182C55.0774 99.182 56.1739 99.2704 56.2718 99.2704C56.3599 99.2704 57.7403 99.182 58.2787 99.182C58.4647 99.182 58.5528 99.182 58.5528 99.3687L58.4647 99.4571H57.8382C57.2899 99.5455 57.2018 99.9188 57.1039 100.557V107.905ZM69.5471 105.331V104.968C69.5471 104.604 69.3611 104.418 69.087 104.418C68.8129 104.418 68.3528 104.693 67.8926 105.331C67.3444 105.97 67.1584 106.53 66.9821 107.256C67.8633 106.657 68.7248 106.009 69.5471 105.331ZM65.9738 108.357C65.9738 107.62 66.2479 106.245 67.4423 104.958C68.4507 103.946 69.459 103.759 69.7332 103.759C70.4674 103.759 70.5555 104.221 70.7415 104.398C71.3779 103.848 72.4744 102.748 72.9345 102.099C73.1205 101.824 73.4828 101.186 73.4828 100.813C73.4828 100.538 73.3947 100.449 73.2968 100.351C73.1108 100.164 73.1108 100.164 73.1108 99.9875C73.1108 99.5258 73.3849 99.349 73.7471 99.349C74.1093 99.349 74.3835 99.5357 74.3835 100.174C74.3835 100.999 73.9233 102.011 72.4646 103.386C71.1821 104.673 68.6269 106.687 66.9723 107.787V107.973C66.9723 109.899 68.529 110.635 69.7136 110.635C70.9961 110.635 72.5527 109.722 73.4632 108.062C74.0996 106.962 74.2856 106.137 74.2856 104.85C74.0996 104.761 73.8254 104.575 73.4632 104.575C73.0031 104.575 72.3667 105.036 72.3667 105.587C72.3667 105.773 72.4548 105.95 72.4548 106.137C72.5429 106.323 72.6408 106.5 72.6408 106.598C72.6408 106.687 72.5527 107.06 72.0926 107.06C71.8185 107.06 71.4562 106.785 71.4562 106.421C71.4562 105.96 71.7303 105.321 72.4646 104.585C73.101 104.123 73.8352 103.946 74.0212 103.946C74.8436 103.946 75.3037 104.496 76.1261 105.233C76.4883 105.508 76.4883 105.596 76.7625 105.596C76.9485 105.596 77.0366 105.41 77.0366 105.135V104.781C76.9485 104.594 76.9485 104.594 76.9485 104.506C76.9485 104.319 77.1345 104.143 77.4086 104.143C77.8687 104.143 78.045 104.604 78.045 104.968C78.045 105.331 77.859 105.606 77.7708 105.793C77.5848 105.881 77.4967 105.881 77.3107 105.881C77.0366 105.97 76.4883 106.156 76.1163 106.245C76.0282 106.431 75.8422 106.333 75.7541 106.245C75.666 106.058 75.2058 105.508 74.7457 105.046C74.7457 105.321 74.6576 106.146 74.6576 106.421C74.6576 106.883 74.2954 108.445 73.101 109.82C72.0045 111.019 70.4478 111.559 69.3513 111.559C66.894 111.569 65.9738 110.017 65.9738 108.357ZM99.5441 110.38C99.6322 111.117 99.7301 112.305 100.641 112.679C101.091 112.806 101.551 112.865 102.011 112.865C102.197 112.865 102.197 112.865 102.197 112.954C102.197 113.042 102.011 113.14 101.737 113.14C101.277 113.14 98.9958 113.052 98.1734 113.052C97.7133 112.964 97.6252 112.865 97.6252 112.777C97.6252 112.688 97.6252 112.688 97.7133 112.688C97.8993 112.6 97.8993 112.227 97.8014 111.863L96.8028 100.655H96.7147L91.4966 111.942C91.0365 112.855 91.0365 113.14 90.8602 113.14C90.6742 113.14 90.5861 112.865 90.126 112.129C89.5777 111.028 87.747 107.266 87.6589 107.08C86.6994 105.007 85.7498 102.925 84.8197 100.842H84.7316L83.9092 110.94V112.04C83.9092 112.404 84.0953 112.679 84.4575 112.777C84.8197 112.777 85.0938 112.865 85.2799 112.865C85.2799 112.865 85.368 112.865 85.368 112.954C85.368 113.14 85.2799 113.14 85.0057 113.14C84.2715 113.14 83.175 113.052 82.989 113.052C82.803 113.052 81.7946 113.14 81.2463 113.14C81.0603 113.14 80.8841 113.14 80.8841 112.954C80.8841 112.865 80.9722 112.865 81.0701 112.865C81.2561 112.865 81.4323 112.865 81.7065 112.777C82.4407 112.688 82.5288 111.765 82.617 110.94L84.0855 96.8049C84.1736 96.5299 84.2715 96.4415 84.3596 96.4415C84.4477 96.4415 84.5456 96.5299 84.7218 96.7165L91.2225 110.38L97.5371 96.7067C97.6252 96.52 97.6252 96.4316 97.8112 96.4316C97.9972 96.4316 97.9972 96.6183 98.0853 96.9817L99.5441 110.38ZM105.222 104.418V100.469C105.222 99.8303 105.036 99.4571 104.4 99.3687C104.312 99.3687 103.94 99.2803 103.852 99.2803C103.764 99.2803 103.666 99.2803 103.666 99.1919C103.666 99.1035 103.754 99.0052 103.94 99.0052C104.762 99.0052 105.957 99.0936 106.045 99.0936H110.254C110.529 99.0936 110.891 99.0052 110.989 99.0052C111.077 99.0052 111.175 98.9168 111.263 98.9168C111.351 98.9168 111.351 99.0052 111.351 99.1035C111.351 99.1919 111.263 99.4669 111.165 99.9286C111.165 100.115 111.165 100.94 111.077 101.215C111.077 101.304 111.077 101.402 110.989 101.402C110.901 101.402 110.803 101.314 110.803 101.127C110.803 101.039 110.803 100.665 110.715 100.488C110.626 100.213 110.44 99.9384 109.432 99.85C109.07 99.85 107.141 99.7616 106.867 99.7616C106.867 99.7616 106.779 99.85 106.779 99.9482V105.086C106.779 105.272 106.779 105.361 106.867 105.361C107.141 105.361 109.432 105.361 109.794 105.272C110.254 105.272 110.529 105.184 110.705 104.997C110.793 104.909 110.891 104.811 110.979 104.811C110.979 104.811 111.067 104.811 111.067 104.899C111.067 104.987 110.979 105.361 110.881 105.999C110.881 106.363 110.793 107.011 110.793 107.188C110.793 107.276 110.793 107.463 110.705 107.463C110.617 107.463 110.519 107.463 110.519 107.374V106.736C110.431 106.461 110.245 106.186 109.51 106.097C109.05 106.009 107.22 106.009 106.945 106.009C106.857 106.009 106.759 106.009 106.759 106.097V110.96C106.847 112.246 107.122 112.433 108.952 112.433C109.412 112.433 110.235 112.433 110.685 112.246C111.145 112.06 111.322 111.696 111.508 110.96C111.508 110.685 111.596 110.685 111.694 110.685C111.791 110.685 111.782 110.773 111.782 110.96C111.782 111.048 111.596 112.335 111.508 112.708C111.419 113.258 111.233 113.258 110.499 113.258C107.758 113.258 106.564 113.072 106.015 113.072C105.927 113.072 105.653 113.16 105.281 113.16H104.185C103.999 113.16 103.91 113.16 103.91 112.973C103.91 112.973 103.91 112.885 104.096 112.885C104.185 112.885 104.459 112.885 104.645 112.797C105.007 112.708 105.105 112.335 105.105 111.785C105.193 111.048 105.193 109.584 105.193 107.748L105.222 104.418ZM117.656 107.718C117.656 110.469 117.656 111.667 118.018 112.03C118.292 112.305 118.752 112.492 120.211 112.492C121.219 112.492 122.042 112.404 122.404 111.942C122.678 111.578 122.864 111.117 122.952 110.744C122.952 110.655 122.952 110.557 123.04 110.557C123.128 110.557 123.128 110.645 123.128 110.832C123.128 111.019 123.04 112.119 122.942 112.669C122.756 113.13 122.668 113.219 121.748 113.219C119.095 113.219 117.91 113.032 116.804 113.032C116.716 113.032 116.442 113.121 116.07 113.121H115.061C114.875 113.121 114.699 113.121 114.699 112.934C114.699 112.934 114.787 112.846 114.885 112.846C115.071 112.846 115.247 112.846 115.433 112.757C115.796 112.669 115.894 112.296 115.982 111.745C116.07 111.009 116.07 109.545 116.07 107.708V104.418C116.07 101.569 116.07 101.019 115.982 100.469C115.982 99.8303 115.796 99.4571 115.247 99.3687C115.061 99.3687 114.787 99.2803 114.611 99.2803C114.523 99.2803 114.425 99.2803 114.425 99.1919C114.425 99.1035 114.513 99.0052 114.787 99.0052C115.61 99.0052 116.706 99.0936 116.804 99.0936C116.892 99.0936 118.273 99.0052 118.811 99.0052C118.997 99.0052 119.085 99.0936 119.085 99.1919C119.085 99.2803 118.997 99.2803 118.997 99.2803C118.811 99.2803 118.537 99.3687 118.351 99.3687C117.803 99.4571 117.617 99.7321 117.617 100.469L117.656 107.718ZM128.356 107.718C128.356 109.555 128.356 111.019 128.444 111.755C128.533 112.305 128.63 112.669 129.179 112.767C129.453 112.855 129.825 112.855 130.001 112.855C130.089 112.855 130.089 112.944 130.089 112.944C130.089 113.032 130.001 113.13 129.815 113.13C128.807 113.13 127.71 113.042 127.622 113.042C127.534 113.042 126.34 113.13 125.791 113.13C125.605 113.13 125.517 113.131 125.517 112.944C125.517 112.944 125.517 112.855 125.605 112.855C125.791 112.855 125.968 112.855 126.154 112.767C126.516 112.679 126.614 112.305 126.702 111.755C126.79 111.019 126.79 109.555 126.79 107.718V104.418V100.469C126.702 99.8303 126.516 99.4571 126.144 99.3687C125.958 99.3687 125.684 99.2803 125.596 99.2803C125.507 99.2803 125.41 99.2803 125.41 99.1919C125.41 99.1035 125.498 99.0052 125.684 99.0052C126.33 99.0052 127.514 99.0936 127.603 99.0936C127.691 99.0936 128.797 99.0052 129.345 99.0052C129.531 99.0052 129.619 99.0936 129.619 99.1919C129.619 99.2803 129.531 99.2803 129.531 99.2803C129.345 99.2803 129.257 99.3687 129.071 99.3687C128.523 99.4571 128.435 99.7321 128.337 100.469L128.356 107.718ZM135.219 110.567C135.307 112.129 135.493 112.59 135.953 112.767C136.316 112.855 136.688 112.855 136.864 112.855C136.952 112.855 137.05 112.944 137.05 112.944C137.05 113.131 136.962 113.13 136.688 113.13C135.679 113.13 134.945 113.042 134.769 113.042C134.583 113.042 133.858 113.13 133.026 113.13C132.84 113.13 132.752 113.131 132.752 112.944C132.752 112.944 132.752 112.855 132.84 112.855C133.026 112.855 133.3 112.855 133.575 112.767C134.035 112.679 134.123 112.129 134.123 110.38V99.7321C134.123 98.9954 134.211 98.8186 134.397 98.8186C134.485 98.8186 134.857 99.182 135.043 99.3687C135.317 99.7321 138.058 102.669 140.8 105.793C142.298 107.384 143.766 109.005 145.195 110.655L145.009 101.206C145.009 99.9188 144.921 99.5553 144.275 99.3687C144.001 99.3687 143.541 99.2803 143.453 99.2803C143.267 99.2803 143.267 99.2803 143.267 99.1919C143.267 99.1035 143.453 99.0052 143.629 99.0052C144.451 99.0052 145.372 99.0936 145.548 99.0936H147.29C147.476 99.0936 147.653 99.0936 147.653 99.182C147.653 99.2704 147.565 99.3687 147.467 99.3687H147.007C146.37 99.5553 146.272 99.9188 146.272 101.019L146.086 111.755C146.086 112.944 145.998 113.229 145.9 113.229C145.714 113.229 145.538 113.042 144.53 112.04C144.344 111.854 141.691 109.192 139.772 106.991C137.667 104.693 136.933 103.691 135.474 101.854L135.219 110.567ZM152.871 106.431V110.469C152.871 110.93 152.959 111.755 153.057 111.942C153.331 112.305 154.065 112.679 156.17 112.679C157.913 112.679 159.46 112.04 160.566 110.93C161.574 110.017 162.025 108.18 162.025 106.53C162.025 104.143 161.016 102.581 160.292 101.756C158.549 99.9188 156.454 99.6437 154.251 99.6437C153.889 99.6437 153.243 99.7321 153.057 99.8303C152.969 99.9188 152.871 100.017 152.871 100.194V106.431ZM151.324 104.418V100.469C151.236 99.8303 151.138 99.4571 150.502 99.3687C150.316 99.3687 150.041 99.2803 149.865 99.2803C149.777 99.2803 149.777 99.2803 149.777 99.1919C149.777 99.1035 149.865 99.0052 150.051 99.0052C150.874 99.0052 151.97 99.0936 152.068 99.0936C152.342 99.0936 153.439 99.0052 154.535 99.0052C156.366 99.0052 159.753 98.9168 161.946 101.206C162.857 102.119 163.679 103.681 163.679 105.881C163.679 108.268 162.769 110.007 161.76 111.117C160.938 112.03 159.293 113.317 156.18 113.317C154.623 113.317 152.244 113.042 152.068 113.042C151.98 113.042 150.874 113.13 150.325 113.13C150.139 113.13 150.051 113.131 150.051 112.944C150.051 112.944 150.051 112.855 150.139 112.855C150.325 112.855 150.502 112.855 150.688 112.767C151.05 112.679 151.148 112.305 151.236 111.755C151.324 111.019 151.324 109.555 151.324 107.718V104.418ZM171.903 106.981C171.991 106.981 171.991 106.893 171.991 106.795L170.248 101.834C170.16 101.559 170.062 101.559 169.974 101.834L168.329 106.795C168.329 106.883 168.329 106.981 168.418 106.981H171.903ZM169.984 99.5455C170.258 98.907 170.346 98.8088 170.444 98.8088C170.532 98.8088 170.63 98.8972 170.806 99.4473C171.08 100.184 174.008 107.885 175.104 110.645C175.741 112.296 176.299 112.669 176.661 112.757C176.935 112.846 177.209 112.846 177.395 112.846C177.483 112.846 177.581 112.846 177.581 112.934C177.581 113.121 177.395 113.121 177.219 113.121H174.38C174.017 113.032 173.831 113.032 173.831 112.934C173.831 112.846 173.831 112.846 173.92 112.846C174.008 112.757 174.106 112.659 174.008 112.296L172.363 107.708C172.275 107.62 172.275 107.62 172.177 107.62H168.241C168.143 107.63 168.065 107.708 168.055 107.807L166.959 111.107C166.773 111.569 166.685 112.021 166.685 112.305C166.685 112.669 167.047 112.855 167.419 112.855H167.507C167.693 112.855 167.781 112.944 167.781 112.944C167.781 113.131 167.595 113.13 167.507 113.13C167.047 113.13 166.225 113.042 166.039 113.042C165.853 113.042 164.844 113.13 163.934 113.13C163.748 113.13 163.571 113.131 163.571 112.944C163.571 112.944 163.66 112.855 163.757 112.855H164.306C165.128 112.669 165.5 112.03 165.862 111.117L169.984 99.5455Z" fill="black"/>
<path fill-rule="evenodd" clip-rule="evenodd" d="M80.3359 128.366C80.3359 126.627 80.2477 126.44 79.4254 126.165C79.2394 126.165 78.8771 126.077 78.6911 126.077C78.603 126.077 78.5051 126.077 78.5051 125.989C78.5051 125.9 78.5932 125.802 78.8673 125.802C79.7778 125.802 81.1582 125.89 81.2463 125.89C81.3344 125.89 82.7149 125.802 83.3512 125.802C83.6253 125.802 83.7134 125.89 83.7134 125.989C83.7134 126.077 83.6253 126.077 83.5274 126.077C83.3414 126.077 83.2533 126.165 82.9792 126.165C82.4309 126.254 82.2449 126.627 82.2449 127.452C82.1568 128.101 82.1568 128.739 82.1568 129.653V132.128C82.1568 133.051 82.1568 133.14 81.8827 133.326C80.5121 134.063 78.5932 134.24 77.3988 134.24C75.7541 134.24 72.7387 134.053 70.3597 131.951C68.9891 130.763 67.7947 128.464 67.7947 125.714C67.7947 122.315 69.4395 119.84 71.3583 118.641C73.2772 117.354 75.3821 117.266 77.0268 117.266C78.3974 117.266 79.8659 117.541 80.3163 117.629C80.7764 117.718 81.5107 117.816 82.0589 117.816C82.2449 117.816 82.333 117.904 82.333 118.003C82.333 118.278 82.147 118.916 82.147 121.126C82.147 121.401 82.0589 121.588 81.961 121.588C81.8729 121.588 81.775 121.401 81.775 121.225C81.775 120.949 81.6869 120.301 81.3149 119.751C80.7666 118.926 79.024 118.003 76.2827 118.003C75.0002 118.003 73.3555 118.189 71.7108 119.476C70.5164 120.488 69.6059 122.413 69.6059 124.987C69.6059 128.012 71.1625 130.311 71.8968 131.047C73.5415 132.698 75.5583 133.336 77.4771 133.336C78.2995 133.336 79.396 133.248 79.9443 132.874C80.2184 132.688 80.3065 132.511 80.3065 132.138L80.3359 128.366ZM92.4169 127.816C92.505 127.816 92.505 127.727 92.505 127.629L90.7623 122.58C90.6742 122.305 90.5763 122.305 90.4882 122.58L88.8435 127.629C88.8435 127.717 88.8435 127.816 88.9316 127.816H92.4169ZM90.4882 120.291C90.6742 119.741 90.7623 119.653 90.8504 119.653C91.0365 119.564 91.0365 119.653 91.3106 120.291C91.5847 120.94 94.4238 128.641 95.6084 131.489C96.2448 133.14 96.7049 133.415 97.1651 133.601C97.4392 133.69 97.7133 133.69 97.8993 133.69C97.9874 133.69 98.0853 133.69 98.0853 133.778C98.0853 133.867 97.8993 133.965 97.7231 133.965C97.449 133.965 96.0784 133.965 94.7959 133.876C94.4336 133.876 94.2476 133.876 94.2476 133.788C94.2476 133.7 94.3357 133.7 94.4336 133.7C94.5217 133.611 94.6196 133.425 94.5217 133.149L92.7791 128.552C92.7791 128.464 92.691 128.464 92.5931 128.464H88.6575C88.5693 128.464 88.5693 128.552 88.4714 128.651L87.3749 131.951C87.2868 132.413 87.1889 132.776 87.1889 133.149C87.1889 133.513 87.5512 133.7 87.8253 133.7H88.0113C88.1973 133.7 88.1973 133.7 88.1973 133.788C88.1973 133.876 88.1092 133.975 87.9232 133.975C87.4631 133.975 86.7288 133.886 86.5526 133.886C86.2785 133.886 85.2701 133.975 84.4477 133.975C84.1736 133.975 84.0855 133.886 84.0855 133.788C84.0855 133.7 84.1736 133.7 84.2715 133.7H84.8197C85.6421 133.513 86.0141 132.874 86.3764 131.951L90.4882 120.291ZM102.931 128.552C102.931 130.291 102.931 131.764 103.02 132.59C103.108 133.14 103.206 133.513 103.754 133.601C104.028 133.69 104.39 133.69 104.576 133.69C104.664 133.69 104.762 133.778 104.762 133.778C104.762 133.867 104.674 133.965 104.4 133.965C103.489 133.965 102.295 133.876 102.207 133.876C102.119 133.876 100.924 133.965 100.376 133.965C100.19 133.965 100.102 133.876 100.102 133.778C100.102 133.778 100.102 133.69 100.288 133.69C100.376 133.69 100.65 133.69 100.836 133.601C101.199 133.513 101.296 133.14 101.296 132.59C101.385 131.764 101.385 130.301 101.385 128.552V120.655H98.7315C97.5371 120.743 97.1749 120.841 96.8126 121.293C96.6266 121.568 96.6266 121.755 96.5385 121.843C96.4504 122.03 96.4504 122.03 96.3525 122.03C96.2644 122.03 96.2644 122.03 96.2644 121.843C96.2644 121.657 96.6266 120.095 96.6266 119.918C96.7147 119.83 96.8126 119.643 96.8126 119.643C96.9986 119.555 97.1749 119.83 97.635 119.83C98.1832 119.918 98.9175 119.918 99.1035 119.918H105.966C106.603 119.918 106.975 119.83 107.249 119.83C107.523 119.741 107.709 119.741 107.797 119.741C107.885 119.741 107.885 119.83 107.885 119.928C107.885 120.478 107.797 121.765 107.797 122.04C107.797 122.226 107.797 122.226 107.709 122.226C107.621 122.226 107.621 122.226 107.523 121.951V121.765C107.435 121.215 107.063 120.753 105.33 120.665H102.951L102.931 128.552ZM111.351 125.252V121.215C111.263 120.566 111.165 120.291 110.529 120.203C110.44 120.115 110.068 120.115 109.892 120.115C109.892 120.115 109.804 120.115 109.804 120.026C109.804 119.938 109.892 119.84 110.078 119.84C110.901 119.84 112.095 119.928 112.183 119.928H116.393C116.667 119.928 117.029 119.84 117.127 119.84C117.215 119.84 117.313 119.751 117.401 119.751C117.489 119.751 117.489 119.84 117.489 119.938C117.489 120.026 117.401 120.213 117.303 120.763C117.303 120.949 117.303 121.775 117.215 121.951C117.215 122.04 117.215 122.226 117.127 122.226C117.039 122.226 116.941 122.138 116.941 121.951C116.941 121.863 116.941 121.49 116.853 121.303C116.765 120.94 116.579 120.753 115.57 120.665C115.208 120.576 113.28 120.576 113.005 120.576C113.005 120.576 112.917 120.665 112.917 120.763V125.9C112.917 126.087 112.917 126.087 113.005 126.087H115.933C116.393 125.998 116.667 125.998 116.843 125.812C116.931 125.625 117.029 125.537 117.117 125.537C117.117 125.537 117.205 125.625 117.205 125.723C117.205 125.812 117.117 126.185 117.019 126.735C117.019 127.099 116.931 127.835 116.931 127.934C116.931 128.12 116.931 128.297 116.843 128.297C116.755 128.297 116.657 128.297 116.657 128.11V127.56C116.569 127.285 116.383 126.922 115.649 126.922C115.189 126.833 113.358 126.833 113.084 126.833C112.996 126.833 112.898 126.833 112.898 126.922V131.784C112.986 133.071 113.26 133.258 115.003 133.258C115.551 133.258 116.285 133.258 116.833 133.071C117.294 132.884 117.47 132.521 117.656 131.696C117.656 131.509 117.656 131.421 117.744 131.421C117.93 131.421 117.93 131.607 117.93 131.696C117.93 131.882 117.744 133.169 117.656 133.533C117.568 133.994 117.382 133.994 116.647 133.994C113.906 133.994 112.624 133.906 112.164 133.906H111.429C111.067 133.994 110.607 133.994 110.333 133.994C110.147 133.994 110.059 133.906 110.059 133.808C110.059 133.808 110.059 133.719 110.245 133.719C110.333 133.719 110.607 133.719 110.793 133.631C111.155 133.542 111.253 133.169 111.253 132.619C111.341 131.794 111.341 130.33 111.341 128.582L111.351 125.252ZM121.229 133.69C121.043 133.601 120.955 133.503 120.955 132.953C120.955 132.04 121.043 131.303 121.043 131.028C121.131 130.841 121.131 130.753 121.229 130.753C121.317 130.753 121.317 130.753 121.317 130.939C121.317 131.126 121.317 131.401 121.405 131.588C121.68 132.963 122.874 133.513 124.147 133.513C125.879 133.513 126.712 132.226 126.712 131.038C126.712 129.751 126.163 129.024 124.607 127.737L123.784 127C121.866 125.35 121.405 124.25 121.405 122.963C121.405 120.949 122.874 119.663 125.243 119.663C125.879 119.574 126.438 119.663 126.888 119.849C127.25 119.849 127.436 119.938 127.524 119.938C127.71 119.938 127.71 119.938 127.71 120.026V121.951C127.71 122.315 127.622 122.413 127.524 122.413C127.436 122.413 127.436 122.325 127.338 122.226C127.338 121.951 127.25 121.49 127.152 121.215C127.064 121.028 126.516 120.291 124.871 120.291C123.589 120.291 122.58 121.028 122.58 122.403C122.58 123.503 123.128 124.142 124.871 125.527L125.331 125.989C127.524 127.737 127.984 128.837 127.984 130.301C127.984 131.126 127.71 132.501 126.428 133.425C125.693 133.975 124.685 134.25 123.686 134.25C122.845 134.23 122.003 134.043 121.229 133.69ZM138.421 125.065C138.332 125.34 138.235 125.802 138.058 126.264C137.598 128.012 137.148 129.662 136.688 131.401C136.228 132.776 135.777 133.601 135.493 133.876C135.307 134.063 134.671 134.613 133.751 134.613C133.114 134.613 132.84 134.151 132.84 133.876C132.84 133.513 133.026 133.415 133.114 133.326C133.3 133.14 133.388 133.238 133.575 133.415C133.761 133.778 134.123 134.053 134.397 134.053C134.671 134.053 135.043 133.778 135.405 132.766C136.14 130.193 136.6 127.531 137.324 125.055H136.13C135.944 124.967 136.042 124.692 136.218 124.505H137.5C137.863 123.13 138.235 121.932 139.145 120.93C139.879 120.016 140.79 119.643 141.71 119.643C142.356 119.643 142.904 120.007 142.904 120.655C142.904 121.116 142.542 121.568 142.268 121.568C142.18 121.568 142.082 121.382 142.082 121.293C141.994 120.38 141.534 120.095 141.172 120.095C140.711 120.095 140.349 120.458 139.977 120.92C139.243 121.932 138.969 123.209 138.607 124.496H140.437C140.525 124.682 140.525 124.859 140.251 125.046L138.421 125.065ZM144.461 125.517C143.551 126.716 142.993 128.543 142.904 129.279C142.904 129.829 143.09 130.291 143.551 130.291C143.913 130.291 144.285 130.104 144.745 129.466C145.381 128.641 146.116 126.617 146.116 125.792C146.204 125.33 146.116 124.78 145.567 124.78C145.283 124.79 144.921 124.879 144.461 125.517ZM147.202 126.254C147.114 127.079 146.654 128.552 145.558 129.653C144.647 130.664 143.815 130.753 143.453 130.753C142.444 130.753 141.896 130.016 141.896 128.739C141.984 127.825 142.532 126.264 143.541 125.34C144.363 124.515 145 124.329 145.646 124.329C146.742 124.329 147.202 125.154 147.202 126.254ZM150.864 129.191C150.678 129.554 150.776 129.741 150.952 129.741C151.138 129.741 151.774 129.279 152.509 128.454C153.879 127.079 154.702 125.33 155.162 124.417C155.524 124.329 155.896 124.505 155.896 124.692C155.808 125.055 154.799 127.629 154.163 129.368C154.075 129.643 154.075 129.731 154.251 129.731C154.525 129.731 155.348 129.083 155.72 128.631C155.808 128.543 155.994 128.631 155.994 128.818C155.632 129.554 154.163 130.743 153.341 130.743C153.155 130.743 152.881 130.468 152.979 130.193L153.987 127.442V127.354C152.89 128.818 151.06 130.753 150.237 130.753C149.601 130.753 149.503 130.114 149.777 129.466L151.148 125.704C151.236 125.429 151.236 125.34 151.148 125.34C150.874 125.34 150.139 125.979 149.777 126.352C149.591 126.352 149.503 126.264 149.503 126.165C149.865 125.517 151.422 124.329 152.068 124.329C152.254 124.329 152.616 124.515 152.528 124.79L150.864 129.191ZM160.194 127.629C161.29 125.979 162.759 124.329 163.943 124.329C164.492 124.329 164.766 124.604 164.766 125.154C164.766 125.34 164.678 125.89 164.492 126.165C164.218 126.991 163.209 129.466 163.121 129.564C163.033 129.751 163.033 129.839 163.121 129.839C163.395 129.839 164.129 129.378 164.58 128.827C164.766 128.827 164.766 128.916 164.766 129.014C164.218 130.026 163.023 130.753 162.201 130.753C162.113 130.753 161.839 130.566 161.839 130.389C161.839 130.212 161.927 130.114 162.201 129.378C162.563 128.641 163.111 127.089 163.385 126.352C163.571 126.077 163.748 125.527 163.748 125.252C163.748 125.065 163.748 124.888 163.474 124.888C163.111 124.888 162.279 125.625 161.467 126.725C160.644 127.737 159.998 128.926 159.176 130.576C159.088 130.664 158.99 130.763 158.902 130.763C158.716 130.763 158.255 130.674 158.441 130.399L160.184 125.537C160.272 125.35 160.272 125.173 160.096 125.173C159.822 125.173 159.274 125.537 158.813 125.998C158.627 125.998 158.539 125.91 158.539 125.723C159.176 124.987 160.096 124.348 160.82 124.348C161.183 124.348 161.369 124.623 161.183 124.997L160.194 127.629ZM170.522 125.429C169.886 125.979 168.79 127.442 168.329 128.366C167.869 129.378 167.869 129.653 167.869 129.839C167.869 130.026 168.055 130.203 168.143 130.203C168.418 130.203 169.152 129.928 170.16 128.827C171.355 127.629 171.805 126.716 171.991 125.89C172.177 125.252 171.991 124.79 171.629 124.79C171.257 124.79 170.894 125.065 170.522 125.429ZM173.45 121.667C173.812 120.753 173.812 120.468 173.636 120.38L173.273 120.105C173.273 120.105 173.273 120.016 173.362 119.918C173.636 119.83 174.458 119.643 175.104 119.643L175.192 119.731C174.918 120.557 174.644 121.107 174.184 122.393C172.715 126.617 171.991 129.004 171.903 129.456C171.815 129.643 171.815 129.82 171.991 129.82C172.265 129.82 173.185 129.083 173.636 128.444C173.724 128.444 173.822 128.533 173.822 128.631C173.459 129.456 172.089 130.743 171.355 130.743C170.992 130.743 170.806 130.468 170.806 130.281C170.806 130.095 170.894 129.82 170.992 129.368L171.541 127.894V127.806C170.444 129.269 169.348 130.743 167.879 130.743C167.331 130.743 166.969 130.281 166.969 129.643C166.969 128.543 167.791 126.706 168.985 125.694C169.994 124.682 170.904 124.319 171.638 124.319C171.913 124.319 172.275 124.407 172.461 124.78L173.45 121.667ZM178.58 125.704C177.669 126.529 176.661 128.552 176.661 129.653C176.661 129.839 176.847 129.928 176.935 129.928C177.121 129.928 177.571 129.741 178.403 128.916C179.5 127.816 180.146 126.529 180.41 125.615C180.322 125.34 180.048 125.065 179.676 125.065C179.304 125.065 179.03 125.252 178.58 125.704ZM181.233 123.965C181.419 123.877 181.869 123.965 181.967 124.152C181.693 124.79 180.41 128.101 179.95 129.564C179.862 129.751 179.862 129.839 180.038 129.839C180.312 129.839 180.675 129.653 181.595 128.827C181.683 128.827 181.781 128.916 181.781 129.014C181.135 129.928 180.038 130.753 179.216 130.753C178.942 130.753 178.854 130.478 178.854 130.291C178.854 130.203 178.854 130.104 178.942 129.741L179.49 128.366H179.402C178.394 129.653 176.837 130.753 176.113 130.753C175.75 130.753 175.466 130.291 175.466 129.928C175.466 129.564 175.741 128.277 176.749 126.902C177.483 125.89 178.12 125.34 178.756 124.977C179.304 124.613 179.764 124.515 180.126 124.515C180.313 124.515 180.401 124.604 180.489 124.604C180.489 124.604 180.675 124.79 180.763 124.967L181.233 123.965ZM186.715 125.252L185.345 129.289C185.345 129.564 185.345 129.653 185.531 129.653C185.717 129.653 186.725 128.827 187.175 128.277C187.361 128.277 187.45 128.366 187.45 128.552C186.529 129.839 185.159 130.753 184.522 130.753C184.336 130.753 184.16 130.566 184.16 130.291C184.16 130.104 184.16 129.928 184.346 129.466L185.717 125.242H184.62C184.532 125.055 184.62 124.879 184.708 124.78L185.991 124.594L186.813 123.12C186.901 123.032 187.273 123.032 187.361 123.209L186.901 124.682H188.546C188.634 124.869 188.546 125.144 188.36 125.232H186.715V125.252ZM193.666 121.205C193.666 121.667 193.392 122.217 192.844 122.217C192.482 122.217 192.384 121.853 192.384 121.578C192.384 121.303 192.57 120.665 193.118 120.665C193.49 120.655 193.666 120.93 193.666 121.205ZM191.747 125.615C191.835 125.429 191.835 125.252 191.747 125.252C191.659 125.252 191.199 125.439 190.465 126.077C190.377 126.077 190.279 125.989 190.279 125.802C191.101 124.888 192.286 124.329 192.746 124.329C192.834 124.329 192.932 124.417 193.02 124.417C193.108 124.604 193.108 124.692 192.932 125.154L191.101 129.466C191.101 129.653 191.013 129.829 191.189 129.829C191.463 129.829 192.198 129.279 192.746 128.631C192.834 128.719 192.932 128.818 192.932 128.906C192.746 129.368 191.199 130.743 190.191 130.743C190.103 130.743 190.005 130.654 189.917 130.556C189.829 130.468 189.828 130.37 189.828 130.193L191.747 125.615ZM198.15 125.517C197.328 126.716 196.682 128.543 196.682 129.279C196.682 129.829 196.868 130.291 197.328 130.291C197.602 130.291 197.964 130.104 198.522 129.466C199.158 128.641 199.805 126.617 199.893 125.792C199.893 125.33 199.805 124.78 199.256 124.78C198.972 124.79 198.61 124.879 198.15 125.517ZM200.891 126.254C200.891 127.079 200.431 128.552 199.335 129.653C198.424 130.664 197.602 130.753 197.142 130.753C196.231 130.753 195.585 130.016 195.683 128.739C195.771 127.825 196.319 126.264 197.328 125.34C198.062 124.515 198.786 124.329 199.335 124.329C200.431 124.329 200.989 125.154 200.891 126.254ZM205.013 127.629C206.109 125.979 207.578 124.329 208.674 124.329C209.311 124.329 209.585 124.604 209.585 125.154C209.585 125.34 209.399 125.89 209.311 126.165C209.037 126.991 207.94 129.466 207.94 129.564C207.852 129.751 207.852 129.839 207.94 129.839C208.214 129.839 208.949 129.378 209.311 128.827C209.585 128.827 209.585 128.916 209.585 129.014C209.037 130.026 207.842 130.753 207.02 130.753C206.834 130.753 206.658 130.566 206.658 130.389C206.658 130.212 206.658 130.114 207.02 129.378C207.294 128.641 207.842 127.089 208.214 126.352C208.302 126.077 208.577 125.527 208.577 125.252C208.577 125.065 208.488 124.888 208.302 124.888C207.94 124.888 207.02 125.625 206.198 126.725C205.463 127.737 204.827 128.926 203.916 130.576C203.828 130.664 203.828 130.763 203.642 130.763C203.456 130.763 203.094 130.674 203.182 130.399L205.013 125.537C205.013 125.35 205.013 125.173 204.925 125.173C204.563 125.173 204.102 125.537 203.554 125.998C203.466 125.998 203.368 125.91 203.368 125.723C203.916 124.987 204.837 124.348 205.649 124.348C205.923 124.348 206.109 124.623 206.012 124.997L205.013 127.629ZM25.1783 105.881V110.655C25.2665 111.667 25.2665 112.03 25.9126 112.305C26.4609 112.58 27.3811 112.669 27.7434 112.669C28.9378 112.669 30.7587 112.03 30.7587 109.545C30.7587 108.258 30.2986 106.333 28.742 105.233C28.0077 104.683 27.4594 104.594 26.9112 104.594C26.6371 104.506 25.5406 104.506 25.2665 104.506C25.1783 104.506 25.1783 104.594 25.1783 104.693V105.881ZM25.1783 103.593C25.1783 103.779 25.1783 103.868 25.2665 103.868C25.4525 103.868 25.8147 103.956 26.549 103.956C27.7336 103.956 28.1056 103.868 28.5657 103.406C29.0259 102.856 29.3 102.119 29.3 101.206C29.3 99.3687 28.4776 97.4434 26.4609 97.4434C26.1867 97.4434 25.7266 97.4434 25.3644 97.5318C25.1783 97.6202 25.1783 97.6202 25.1783 97.8068V103.593ZM23.4455 103.131C23.4455 99.7321 23.4455 99.182 23.3574 98.4551C23.3574 97.7184 23.1714 97.355 22.4469 97.1684H21.7029C21.6147 97.1585 21.6147 97.0701 21.6147 96.9817C21.6147 96.8933 21.7029 96.7951 21.8889 96.7951C22.8973 96.7951 24.2679 96.8835 24.356 96.8835C24.8161 96.8835 25.6385 96.7951 26.6469 96.7951C30.1224 96.7951 30.9447 98.9954 30.9447 100.096C30.9447 101.834 29.9363 102.944 28.928 104.044C30.4846 104.506 32.5895 106.068 32.5895 108.632C32.5895 110.93 30.8566 113.307 27.1951 113.307C26.6469 113.307 24.4539 113.219 24.356 113.219H22.2511C21.977 113.219 21.8889 113.219 21.8889 113.13C21.8889 113.042 21.977 112.944 22.0749 112.944C22.2609 112.944 22.535 112.944 22.7112 112.855C23.1714 112.767 23.2595 112.305 23.3476 111.657C23.4357 110.744 23.4357 109.083 23.4357 106.981V103.131H23.4455ZM38.9041 107.905C38.9041 109.643 38.9041 111.117 38.9922 111.942C38.9922 112.404 39.0803 112.855 39.6286 112.954C39.9027 112.954 40.3628 113.042 40.4509 113.042C40.539 113.042 40.6369 113.042 40.6369 113.13C40.6369 113.219 40.5488 113.219 40.3628 113.219H36.251C36.065 113.219 35.9768 113.219 35.9768 113.13C35.9768 113.042 36.065 113.042 36.1629 113.042C36.3489 113.042 36.5251 112.954 36.7111 112.954C37.0733 112.865 37.1712 112.404 37.2593 111.942C37.3475 111.117 37.3475 109.643 37.3475 107.905V104.594C37.3475 101.657 37.3475 101.196 37.2593 100.557C37.2593 99.9188 37.0733 99.6437 36.7111 99.5455C36.437 99.4571 36.251 99.4571 36.0747 99.4571C35.9866 99.4571 35.9866 99.3687 35.9866 99.3687C35.9866 99.182 36.0747 99.182 36.2608 99.182C36.809 99.182 38.0034 99.2704 38.0915 99.2704C38.1796 99.2704 39.374 99.182 39.9223 99.182C40.1083 99.182 40.1964 99.182 40.1964 99.3687C40.1964 99.3687 40.1083 99.4571 40.0104 99.4571H39.5502C39.0901 99.5455 38.9139 99.9188 38.9139 100.557L38.9041 107.905ZM46.7656 107.905C46.7656 110.655 46.8537 111.854 47.2257 112.129C47.4998 112.492 47.9599 112.59 49.4187 112.59C50.3292 112.59 51.1613 112.59 51.6117 112.04C51.8858 111.765 52.0718 111.303 52.0718 110.94C52.0718 110.753 52.1599 110.665 52.2578 110.665C52.3557 110.665 52.3459 110.753 52.3459 110.94C52.3459 111.127 52.2578 112.315 52.0718 112.865C51.9837 113.229 51.8858 113.327 50.9753 113.327C48.3222 113.327 47.1376 113.239 46.0313 113.239H44.2005C44.0145 113.239 43.9264 113.239 43.9264 113.15C43.9264 113.062 44.0145 113.062 44.1124 113.062C44.2103 113.062 44.4747 112.973 44.6607 112.973C45.0229 112.885 45.1208 112.423 45.1208 111.962C45.3068 111.136 45.3068 109.663 45.3068 107.924V104.594C45.3068 101.657 45.3068 101.196 45.2187 100.557C45.2187 99.9188 45.0327 99.6437 44.4845 99.4571H43.8383C43.7502 99.4571 43.6523 99.3687 43.6523 99.3687C43.6523 99.182 43.7404 99.182 43.9264 99.182C44.7488 99.182 45.9432 99.2704 46.0313 99.2704C46.1194 99.2704 47.4998 99.182 48.0481 99.182C48.2341 99.182 48.3222 99.182 48.3222 99.3687C48.3222 99.3687 48.2341 99.4571 48.1362 99.4571H47.5879C47.0397 99.5455 46.8537 99.9188 46.8537 100.557C46.7656 101.196 46.7656 101.657 46.7656 104.594V107.905ZM57.1039 107.905C57.1039 110.655 57.192 111.854 57.4661 112.129C57.7403 112.492 58.2004 112.59 59.6591 112.59C60.6675 112.59 61.4899 112.59 61.8521 112.04C62.1262 111.765 62.3123 111.303 62.4004 110.94C62.4004 110.753 62.4004 110.665 62.4885 110.665C62.5766 110.665 62.6745 110.753 62.6745 110.94C62.6745 111.127 62.4885 112.315 62.4004 112.865C62.2144 113.229 62.2144 113.327 61.206 113.327C58.5528 113.327 57.3682 113.239 56.262 113.239H54.5193C54.2452 113.239 54.1571 113.239 54.1571 113.15C54.1571 113.062 54.2452 113.062 54.3431 113.062C54.5291 113.062 54.7053 112.973 54.8913 112.973C55.2536 112.885 55.3515 112.423 55.4396 111.962C55.5277 111.136 55.5277 109.663 55.5277 107.924V104.594C55.5277 101.657 55.5277 101.196 55.4396 100.557C55.4396 99.9188 55.3515 99.6437 54.7053 99.4571H54.069C53.9809 99.4571 53.9809 99.3687 53.9809 99.3687C53.9809 99.182 54.069 99.182 54.255 99.182C55.0774 99.182 56.1739 99.2704 56.2718 99.2704C56.3599 99.2704 57.7403 99.182 58.2787 99.182C58.4647 99.182 58.5528 99.182 58.5528 99.3687L58.4647 99.4571H57.8382C57.2899 99.5455 57.2018 99.9188 57.1039 100.557V107.905ZM69.5471 105.331V104.968C69.5471 104.604 69.3611 104.418 69.087 104.418C68.8129 104.418 68.3528 104.693 67.8926 105.331C67.3444 105.97 67.1584 106.53 66.9821 107.256C67.8633 106.657 68.7248 106.009 69.5471 105.331ZM65.9738 108.357C65.9738 107.62 66.2479 106.245 67.4423 104.958C68.4507 103.946 69.459 103.759 69.7332 103.759C70.4674 103.759 70.5555 104.221 70.7415 104.398C71.3779 103.848 72.4744 102.748 72.9345 102.099C73.1205 101.824 73.4828 101.186 73.4828 100.813C73.4828 100.538 73.3947 100.449 73.2968 100.351C73.1108 100.164 73.1108 100.164 73.1108 99.9875C73.1108 99.5258 73.3849 99.349 73.7471 99.349C74.1093 99.349 74.3835 99.5357 74.3835 100.174C74.3835 100.999 73.9233 102.011 72.4646 103.386C71.1821 104.673 68.6269 106.687 66.9723 107.787V107.973C66.9723 109.899 68.529 110.635 69.7136 110.635C70.9961 110.635 72.5527 109.722 73.4632 108.062C74.0996 106.962 74.2856 106.137 74.2856 104.85C74.0996 104.761 73.8254 104.575 73.4632 104.575C73.0031 104.575 72.3667 105.036 72.3667 105.587C72.3667 105.773 72.4548 105.95 72.4548 106.137C72.5429 106.323 72.6408 106.5 72.6408 106.598C72.6408 106.687 72.5527 107.06 72.0926 107.06C71.8185 107.06 71.4562 106.785 71.4562 106.421C71.4562 105.96 71.7303 105.321 72.4646 104.585C73.101 104.123 73.8352 103.946 74.0212 103.946C74.8436 103.946 75.3037 104.496 76.1261 105.233C76.4883 105.508 76.4883 105.596 76.7625 105.596C76.9485 105.596 77.0366 105.41 77.0366 105.135V104.781C76.9485 104.594 76.9485 104.594 76.9485 104.506C76.9485 104.319 77.1345 104.143 77.4086 104.143C77.8687 104.143 78.045 104.604 78.045 104.968C78.045 105.331 77.859 105.606 77.7708 105.793C77.5848 105.881 77.4967 105.881 77.3107 105.881C77.0366 105.97 76.4883 106.156 76.1163 106.245C76.0282 106.431 75.8422 106.333 75.7541 106.245C75.666 106.058 75.2058 105.508 74.7457 105.046C74.7457 105.321 74.6576 106.146 74.6576 106.421C74.6576 106.883 74.2954 108.445 73.101 109.82C72.0045 111.019 70.4478 111.559 69.3513 111.559C66.894 111.569 65.9738 110.017 65.9738 108.357ZM99.5441 110.38C99.6322 111.117 99.7301 112.305 100.641 112.679C101.091 112.806 101.551 112.865 102.011 112.865C102.197 112.865 102.197 112.865 102.197 112.954C102.197 113.042 102.011 113.14 101.737 113.14C101.277 113.14 98.9958 113.052 98.1734 113.052C97.7133 112.964 97.6252 112.865 97.6252 112.777C97.6252 112.688 97.6252 112.688 97.7133 112.688C97.8993 112.6 97.8993 112.227 97.8014 111.863L96.8028 100.655H96.7147L91.4966 111.942C91.0365 112.855 91.0365 113.14 90.8602 113.14C90.6742 113.14 90.5861 112.865 90.126 112.129C89.5777 111.028 87.747 107.266 87.6589 107.08C86.6994 105.007 85.7498 102.925 84.8197 100.842H84.7316L83.9092 110.94V112.04C83.9092 112.404 84.0953 112.679 84.4575 112.777C84.8197 112.777 85.0938 112.865 85.2799 112.865C85.2799 112.865 85.368 112.865 85.368 112.954C85.368 113.14 85.2799 113.14 85.0057 113.14C84.2715 113.14 83.175 113.052 82.989 113.052C82.803 113.052 81.7946 113.14 81.2463 113.14C81.0603 113.14 80.8841 113.14 80.8841 112.954C80.8841 112.865 80.9722 112.865 81.0701 112.865C81.2561 112.865 81.4323 112.865 81.7065 112.777C82.4407 112.688 82.5288 111.765 82.617 110.94L84.0855 96.8049C84.1736 96.5299 84.2715 96.4415 84.3596 96.4415C84.4477 96.4415 84.5456 96.5299 84.7218 96.7165L91.2225 110.38L97.5371 96.7067C97.6252 96.52 97.6252 96.4316 97.8112 96.4316C97.9972 96.4316 97.9972 96.6183 98.0853 96.9817L99.5441 110.38ZM105.222 104.418V100.469C105.222 99.8303 105.036 99.4571 104.4 99.3687C104.312 99.3687 103.94 99.2803 103.852 99.2803C103.764 99.2803 103.666 99.2803 103.666 99.1919C103.666 99.1035 103.754 99.0052 103.94 99.0052C104.762 99.0052 105.957 99.0936 106.045 99.0936H110.254C110.529 99.0936 110.891 99.0052 110.989 99.0052C111.077 99.0052 111.175 98.9168 111.263 98.9168C111.351 98.9168 111.351 99.0052 111.351 99.1035C111.351 99.1919 111.263 99.4669 111.165 99.9286C111.165 100.115 111.165 100.94 111.077 101.215C111.077 101.304 111.077 101.402 110.989 101.402C110.901 101.402 110.803 101.314 110.803 101.127C110.803 101.039 110.803 100.665 110.715 100.488C110.626 100.213 110.44 99.9384 109.432 99.85C109.07 99.85 107.141 99.7616 106.867 99.7616C106.867 99.7616 106.779 99.85 106.779 99.9482V105.086C106.779 105.272 106.779 105.361 106.867 105.361C107.141 105.361 109.432 105.361 109.794 105.272C110.254 105.272 110.529 105.184 110.705 104.997C110.793 104.909 110.891 104.811 110.979 104.811C110.979 104.811 111.067 104.811 111.067 104.899C111.067 104.987 110.979 105.361 110.881 105.999C110.881 106.363 110.793 107.011 110.793 107.188C110.793 107.276 110.793 107.463 110.705 107.463C110.617 107.463 110.519 107.463 110.519 107.374V106.736C110.431 106.461 110.245 106.186 109.51 106.097C109.05 106.009 107.22 106.009 106.945 106.009C106.857 106.009 106.759 106.009 106.759 106.097V110.96C106.847 112.246 107.122 112.433 108.952 112.433C109.412 112.433 110.235 112.433 110.685 112.246C111.145 112.06 111.322 111.696 111.508 110.96C111.508 110.685 111.596 110.685 111.694 110.685C111.791 110.685 111.782 110.773 111.782 110.96C111.782 111.048 111.596 112.335 111.508 112.708C111.419 113.258 111.233 113.258 110.499 113.258C107.758 113.258 106.564 113.072 106.015 113.072C105.927 113.072 105.653 113.16 105.281 113.16H104.185C103.999 113.16 103.91 113.16 103.91 112.973C103.91 112.973 103.91 112.885 104.096 112.885C104.185 112.885 104.459 112.885 104.645 112.797C105.007 112.708 105.105 112.335 105.105 111.785C105.193 111.048 105.193 109.584 105.193 107.748L105.222 104.418ZM117.656 107.718C117.656 110.469 117.656 111.667 118.018 112.03C118.292 112.305 118.752 112.492 120.211 112.492C121.219 112.492 122.042 112.404 122.404 111.942C122.678 111.578 122.864 111.117 122.952 110.744C122.952 110.655 122.952 110.557 123.04 110.557C123.128 110.557 123.128 110.645 123.128 110.832C123.128 111.019 123.04 112.119 122.942 112.669C122.756 113.13 122.668 113.219 121.748 113.219C119.095 113.219 117.91 113.032 116.804 113.032C116.716 113.032 116.442 113.121 116.07 113.121H115.061C114.875 113.121 114.699 113.121 114.699 112.934C114.699 112.934 114.787 112.846 114.885 112.846C115.071 112.846 115.247 112.846 115.433 112.757C115.796 112.669 115.894 112.296 115.982 111.745C116.07 111.009 116.07 109.545 116.07 107.708V104.418C116.07 101.569 116.07 101.019 115.982 100.469C115.982 99.8303 115.796 99.4571 115.247 99.3687C115.061 99.3687 114.787 99.2803 114.611 99.2803C114.523 99.2803 114.425 99.2803 114.425 99.1919C114.425 99.1035 114.513 99.0052 114.787 99.0052C115.61 99.0052 116.706 99.0936 116.804 99.0936C116.892 99.0936 118.273 99.0052 118.811 99.0052C118.997 99.0052 119.085 99.0936 119.085 99.1919C119.085 99.2803 118.997 99.2803 118.997 99.2803C118.811 99.2803 118.537 99.3687 118.351 99.3687C117.803 99.4571 117.617 99.7321 117.617 100.469L117.656 107.718ZM128.356 107.718C128.356 109.555 128.356 111.019 128.444 111.755C128.533 112.305 128.63 112.669 129.179 112.767C129.453 112.855 129.825 112.855 130.001 112.855C130.089 112.855 130.089 112.944 130.089 112.944C130.089 113.032 130.001 113.13 129.815 113.13C128.807 113.13 127.71 113.042 127.622 113.042C127.534 113.042 126.34 113.13 125.791 113.13C125.605 113.13 125.517 113.131 125.517 112.944C125.517 112.944 125.517 112.855 125.605 112.855C125.791 112.855 125.968 112.855 126.154 112.767C126.516 112.679 126.614 112.305 126.702 111.755C126.79 111.019 126.79 109.555 126.79 107.718V104.418V100.469C126.702 99.8303 126.516 99.4571 126.144 99.3687C125.958 99.3687 125.684 99.2803 125.596 99.2803C125.507 99.2803 125.41 99.2803 125.41 99.1919C125.41 99.1035 125.498 99.0052 125.684 99.0052C126.33 99.0052 127.514 99.0936 127.603 99.0936C127.691 99.0936 128.797 99.0052 129.345 99.0052C129.531 99.0052 129.619 99.0936 129.619 99.1919C129.619 99.2803 129.531 99.2803 129.531 99.2803C129.345 99.2803 129.257 99.3687 129.071 99.3687C128.523 99.4571 128.435 99.7321 128.337 100.469L128.356 107.718ZM135.219 110.567C135.307 112.129 135.493 112.59 135.953 112.767C136.316 112.855 136.688 112.855 136.864 112.855C136.952 112.855 137.05 112.944 137.05 112.944C137.05 113.131 136.962 113.13 136.688 113.13C135.679 113.13 134.945 113.042 134.769 113.042C134.583 113.042 133.858 113.13 133.026 113.13C132.84 113.13 132.752 113.131 132.752 112.944C132.752 112.944 132.752 112.855 132.84 112.855C133.026 112.855 133.3 112.855 133.575 112.767C134.035 112.679 134.123 112.129 134.123 110.38V99.7321C134.123 98.9954 134.211 98.8186 134.397 98.8186C134.485 98.8186 134.857 99.182 135.043 99.3687C135.317 99.7321 138.058 102.669 140.8 105.793C142.298 107.384 143.766 109.005 145.195 110.655L145.009 101.206C145.009 99.9188 144.921 99.5553 144.275 99.3687C144.001 99.3687 143.541 99.2803 143.453 99.2803C143.267 99.2803 143.267 99.2803 143.267 99.1919C143.267 99.1035 143.453 99.0052 143.629 99.0052C144.451 99.0052 145.372 99.0936 145.548 99.0936H147.29C147.476 99.0936 147.653 99.0936 147.653 99.182C147.653 99.2704 147.565 99.3687 147.467 99.3687H147.007C146.37 99.5553 146.272 99.9188 146.272 101.019L146.086 111.755C146.086 112.944 145.998 113.229 145.9 113.229C145.714 113.229 145.538 113.042 144.53 112.04C144.344 111.854 141.691 109.192 139.772 106.991C137.667 104.693 136.933 103.691 135.474 101.854L135.219 110.567ZM152.871 106.431V110.469C152.871 110.93 152.959 111.755 153.057 111.942C153.331 112.305 154.065 112.679 156.17 112.679C157.913 112.679 159.46 112.04 160.566 110.93C161.574 110.017 162.025 108.18 162.025 106.53C162.025 104.143 161.016 102.581 160.292 101.756C158.549 99.9188 156.454 99.6437 154.251 99.6437C153.889 99.6437 153.243 99.7321 153.057 99.8303C152.969 99.9188 152.871 100.017 152.871 100.194V106.431ZM151.324 104.418V100.469C151.236 99.8303 151.138 99.4571 150.502 99.3687C150.316 99.3687 150.041 99.2803 149.865 99.2803C149.777 99.2803 149.777 99.2803 149.777 99.1919C149.777 99.1035 149.865 99.0052 150.051 99.0052C150.874 99.0052 151.97 99.0936 152.068 99.0936C152.342 99.0936 153.439 99.0052 154.535 99.0052C156.366 99.0052 159.753 98.9168 161.946 101.206C162.857 102.119 163.679 103.681 163.679 105.881C163.679 108.268 162.769 110.007 161.76 111.117C160.938 112.03 159.293 113.317 156.18 113.317C154.623 113.317 152.244 113.042 152.068 113.042C151.98 113.042 150.874 113.13 150.325 113.13C150.139 113.13 150.051 113.131 150.051 112.944C150.051 112.944 150.051 112.855 150.139 112.855C150.325 112.855 150.502 112.855 150.688 112.767C151.05 112.679 151.148 112.305 151.236 111.755C151.324 111.019 151.324 109.555 151.324 107.718V104.418ZM171.903 106.981C171.991 106.981 171.991 106.893 171.991 106.795L170.248 101.834C170.16 101.559 170.062 101.559 169.974 101.834L168.329 106.795C168.329 106.883 168.329 106.981 168.418 106.981H171.903ZM169.984 99.5455C170.258 98.907 170.346 98.8088 170.444 98.8088C170.532 98.8088 170.63 98.8972 170.806 99.4473C171.08 100.184 174.008 107.885 175.104 110.645C175.741 112.296 176.299 112.669 176.661 112.757C176.935 112.846 177.209 112.846 177.395 112.846C177.483 112.846 177.581 112.846 177.581 112.934C177.581 113.121 177.395 113.121 177.219 113.121H174.38C174.017 113.032 173.831 113.032 173.831 112.934C173.831 112.846 173.831 112.846 173.92 112.846C174.008 112.757 174.106 112.659 174.008 112.296L172.363 107.708C172.275 107.62 172.275 107.62 172.177 107.62H168.241C168.143 107.63 168.065 107.708 168.055 107.807L166.959 111.107C166.773 111.569 166.685 112.021 166.685 112.305C166.685 112.669 167.047 112.855 167.419 112.855H167.507C167.693 112.855 167.781 112.944 167.781 112.944C167.781 113.131 167.595 113.13 167.507 113.13C167.047 113.13 166.225 113.042 166.039 113.042C165.853 113.042 164.844 113.13 163.934 113.13C163.748 113.13 163.571 113.131 163.571 112.944C163.571 112.944 163.66 112.855 163.757 112.855H164.306C165.128 112.669 165.5 112.03 165.862 111.117L169.984 99.5455Z" fill="black" fill-opacity="0.2"/>
</svg>
