<svg width="232" height="231" viewBox="0 0 232 231" fill="none" xmlns="http://www.w3.org/2000/svg">
<rect x="0.52002" y="0.478516" width="231" height="230" rx="10" fill="#FAF9FA"/>
<g clip-path="url(#clip0_4346_572)">
<path d="M79.0458 146.13C78.7948 145.836 78.4857 145.598 78.1124 145.417C77.739 145.237 77.3412 145.148 76.9158 145.148C76.4905 145.148 76.111 145.234 75.7407 145.405C75.3704 145.576 75.0582 145.806 74.7981 146.09C74.538 146.374 74.333 146.707 74.183 147.083C74.033 147.462 73.9565 147.854 73.9565 148.26C73.9565 148.572 74.0024 148.881 74.0912 149.186C74.1799 149.492 74.3146 149.776 74.486 150.036C74.6604 150.299 74.8624 150.528 75.098 150.73C75.3337 150.928 75.606 151.087 75.9151 151.201C76.2242 151.314 76.5517 151.372 76.8975 151.372C77.3106 151.372 77.7023 151.286 78.0726 151.115C78.4429 150.944 78.7551 150.718 79.0121 150.433C79.2692 150.149 79.4712 149.819 79.6242 149.44C79.7741 149.061 79.8506 148.67 79.8506 148.266C79.8506 147.863 79.7772 147.502 79.6334 147.129C79.4895 146.756 79.2937 146.423 79.0427 146.127L79.0458 146.13ZM78.7244 149.076C78.6357 149.342 78.5102 149.581 78.3511 149.791C78.192 150.005 77.9839 150.177 77.7329 150.305C77.482 150.433 77.2066 150.501 76.9066 150.501C76.518 150.501 76.1691 150.394 75.8662 150.18C75.5601 149.966 75.3306 149.691 75.1745 149.351C75.0185 149.012 74.9389 148.651 74.9389 148.26C74.9389 147.982 74.9848 147.71 75.0735 147.444C75.1654 147.178 75.2908 146.94 75.453 146.729C75.6152 146.518 75.8233 146.347 76.0773 146.221C76.3283 146.093 76.6067 146.029 76.9036 146.029C77.2004 146.029 77.4575 146.09 77.7054 146.212C77.9533 146.334 78.1583 146.499 78.3236 146.707C78.4888 146.915 78.6173 147.154 78.7122 147.423C78.8071 147.692 78.853 147.973 78.853 148.26C78.853 148.547 78.8071 148.81 78.7183 149.076H78.7244Z" fill="black"/>
<path d="M79.0458 146.13C78.7948 145.836 78.4857 145.598 78.1124 145.417C77.739 145.237 77.3412 145.148 76.9158 145.148C76.4905 145.148 76.111 145.234 75.7407 145.405C75.3704 145.576 75.0582 145.806 74.7981 146.09C74.538 146.374 74.333 146.707 74.183 147.083C74.033 147.462 73.9565 147.854 73.9565 148.26C73.9565 148.572 74.0024 148.881 74.0912 149.186C74.1799 149.492 74.3146 149.776 74.486 150.036C74.6604 150.299 74.8624 150.528 75.098 150.73C75.3337 150.928 75.606 151.087 75.9151 151.201C76.2242 151.314 76.5517 151.372 76.8975 151.372C77.3106 151.372 77.7023 151.286 78.0726 151.115C78.4429 150.944 78.7551 150.718 79.0121 150.433C79.2692 150.149 79.4712 149.819 79.6242 149.44C79.7741 149.061 79.8506 148.67 79.8506 148.266C79.8506 147.863 79.7772 147.502 79.6334 147.129C79.4895 146.756 79.2937 146.423 79.0427 146.127L79.0458 146.13ZM78.7244 149.076C78.6357 149.342 78.5102 149.581 78.3511 149.791C78.192 150.005 77.9839 150.177 77.7329 150.305C77.482 150.433 77.2066 150.501 76.9066 150.501C76.518 150.501 76.1691 150.394 75.8662 150.18C75.5601 149.966 75.3306 149.691 75.1745 149.351C75.0185 149.012 74.9389 148.651 74.9389 148.26C74.9389 147.982 74.9848 147.71 75.0735 147.444C75.1654 147.178 75.2908 146.94 75.453 146.729C75.6152 146.518 75.8233 146.347 76.0773 146.221C76.3283 146.093 76.6067 146.029 76.9036 146.029C77.2004 146.029 77.4575 146.09 77.7054 146.212C77.9533 146.334 78.1583 146.499 78.3236 146.707C78.4888 146.915 78.6173 147.154 78.7122 147.423C78.8071 147.692 78.853 147.973 78.853 148.26C78.853 148.547 78.8071 148.81 78.7183 149.076H78.7244Z" fill="black" fill-opacity="0.2"/>
<path d="M87.4183 148.598H90.1634V147.791H87.4183V146.045H90.5888V145.189H86.4482V151.333H90.6653V150.474H87.4183V148.598Z" fill="black"/>
<path d="M87.4183 148.598H90.1634V147.791H87.4183V146.045H90.5888V145.189H86.4482V151.333H90.6653V150.474H87.4183V148.598Z" fill="black" fill-opacity="0.2"/>
<path d="M101.511 148.317C101.732 147.981 101.842 147.605 101.842 147.187C101.842 146.942 101.793 146.701 101.698 146.459C101.603 146.221 101.472 146.007 101.309 145.817C101.147 145.628 100.942 145.478 100.703 145.362C100.462 145.246 100.208 145.188 99.9414 145.188H97.2637V151.331H98.2338V149.195H99.6629L101 151.331H102.093L100.645 148.996C101.006 148.88 101.297 148.654 101.517 148.317H101.511ZM99.9292 148.336H98.2277V146.046H99.8741C100.134 146.046 100.361 146.16 100.56 146.383C100.759 146.606 100.856 146.875 100.856 147.187C100.856 147.498 100.768 147.776 100.593 148C100.419 148.223 100.198 148.336 99.9292 148.336Z" fill="black"/>
<path d="M101.511 148.317C101.732 147.981 101.842 147.605 101.842 147.187C101.842 146.942 101.793 146.701 101.698 146.459C101.603 146.221 101.472 146.007 101.309 145.817C101.147 145.628 100.942 145.478 100.703 145.362C100.462 145.246 100.208 145.188 99.9414 145.188H97.2637V151.331H98.2338V149.195H99.6629L101 151.331H102.093L100.645 148.996C101.006 148.88 101.297 148.654 101.517 148.317H101.511ZM99.9292 148.336H98.2277V146.046H99.8741C100.134 146.046 100.361 146.16 100.56 146.383C100.759 146.606 100.856 146.875 100.856 147.187C100.856 147.498 100.768 147.776 100.593 148C100.419 148.223 100.198 148.336 99.9292 148.336Z" fill="black" fill-opacity="0.2"/>
<path d="M185.136 146.13C184.885 145.836 184.576 145.598 184.203 145.417C183.829 145.237 183.432 145.148 183.006 145.148C182.581 145.148 182.198 145.234 181.831 145.405C181.464 145.576 181.149 145.806 180.888 146.09C180.628 146.374 180.423 146.707 180.273 147.083C180.123 147.462 180.047 147.854 180.047 148.26C180.047 148.572 180.093 148.881 180.182 149.186C180.27 149.492 180.405 149.776 180.576 150.036C180.751 150.299 180.953 150.528 181.188 150.73C181.424 150.928 181.696 151.087 182.005 151.201C182.315 151.314 182.642 151.372 182.988 151.372C183.401 151.372 183.793 151.286 184.163 151.115C184.533 150.944 184.845 150.718 185.102 150.433C185.36 150.149 185.561 149.819 185.715 149.44C185.864 149.061 185.941 148.67 185.941 148.266C185.941 147.863 185.868 147.502 185.727 147.129C185.583 146.756 185.387 146.423 185.136 146.127V146.13ZM184.815 149.076C184.726 149.342 184.601 149.581 184.441 149.791C184.279 150.005 184.074 150.177 183.823 150.305C183.572 150.433 183.297 150.501 182.997 150.501C182.608 150.501 182.263 150.394 181.956 150.18C181.654 149.966 181.421 149.691 181.265 149.351C181.109 149.012 181.029 148.651 181.029 148.26C181.029 147.982 181.075 147.71 181.164 147.444C181.253 147.178 181.381 146.94 181.543 146.729C181.706 146.518 181.914 146.347 182.168 146.221C182.419 146.093 182.697 146.029 182.994 146.029C183.291 146.029 183.548 146.09 183.796 146.212C184.044 146.334 184.249 146.499 184.414 146.707C184.579 146.915 184.708 147.154 184.803 147.423C184.897 147.692 184.943 147.973 184.943 148.26C184.943 148.547 184.897 148.81 184.809 149.076H184.815Z" fill="black"/>
<path d="M185.136 146.13C184.885 145.836 184.576 145.598 184.203 145.417C183.829 145.237 183.432 145.148 183.006 145.148C182.581 145.148 182.198 145.234 181.831 145.405C181.464 145.576 181.149 145.806 180.888 146.09C180.628 146.374 180.423 146.707 180.273 147.083C180.123 147.462 180.047 147.854 180.047 148.26C180.047 148.572 180.093 148.881 180.182 149.186C180.27 149.492 180.405 149.776 180.576 150.036C180.751 150.299 180.953 150.528 181.188 150.73C181.424 150.928 181.696 151.087 182.005 151.201C182.315 151.314 182.642 151.372 182.988 151.372C183.401 151.372 183.793 151.286 184.163 151.115C184.533 150.944 184.845 150.718 185.102 150.433C185.36 150.149 185.561 149.819 185.715 149.44C185.864 149.061 185.941 148.67 185.941 148.266C185.941 147.863 185.868 147.502 185.727 147.129C185.583 146.756 185.387 146.423 185.136 146.127V146.13ZM184.815 149.076C184.726 149.342 184.601 149.581 184.441 149.791C184.279 150.005 184.074 150.177 183.823 150.305C183.572 150.433 183.297 150.501 182.997 150.501C182.608 150.501 182.263 150.394 181.956 150.18C181.654 149.966 181.421 149.691 181.265 149.351C181.109 149.012 181.029 148.651 181.029 148.26C181.029 147.982 181.075 147.71 181.164 147.444C181.253 147.178 181.381 146.94 181.543 146.729C181.706 146.518 181.914 146.347 182.168 146.221C182.419 146.093 182.697 146.029 182.994 146.029C183.291 146.029 183.548 146.09 183.796 146.212C184.044 146.334 184.249 146.499 184.414 146.707C184.579 146.915 184.708 147.154 184.803 147.423C184.897 147.692 184.943 147.973 184.943 148.26C184.943 148.547 184.897 148.81 184.809 149.076H184.815Z" fill="black" fill-opacity="0.2"/>
<path d="M58.8173 149.631L55.3347 145.189H54.5391V151.333H55.5061V146.99L58.9459 151.333H59.7966V145.199H58.8173V149.631Z" fill="black"/>
<path d="M58.8173 149.631L55.3347 145.189H54.5391V151.333H55.5061V146.99L58.9459 151.333H59.7966V145.199H58.8173V149.631Z" fill="black" fill-opacity="0.2"/>
<path d="M105.685 148.598H108.431V147.791H105.685V146.045H108.856V145.189H104.715V151.333H108.932V150.474H105.685V148.598Z" fill="black"/>
<path d="M105.685 148.598H108.431V147.791H105.685V146.045H108.856V145.189H104.715V151.333H108.932V150.474H105.685V148.598Z" fill="black" fill-opacity="0.2"/>
<path d="M50.5331 148.305C50.5331 148.537 50.5178 148.754 50.4841 148.959C50.4504 149.164 50.3953 149.363 50.3127 149.552C50.2301 149.745 50.1291 149.91 50.0036 150.047C49.8782 150.185 49.719 150.295 49.5232 150.377C49.3273 150.46 49.1039 150.503 48.853 150.503C48.602 150.503 48.3847 150.463 48.1889 150.38C47.993 150.298 47.8339 150.191 47.7115 150.056C47.586 149.922 47.485 149.757 47.3993 149.567C47.3167 149.375 47.2586 149.176 47.2249 148.968C47.1912 148.76 47.1729 148.54 47.1729 148.308V145.193H46.1997V148.308C46.1997 148.638 46.2272 148.947 46.2854 149.24C46.3435 149.531 46.4384 149.812 46.57 150.078C46.7016 150.344 46.8699 150.57 47.0688 150.759C47.2677 150.949 47.5217 151.099 47.8247 151.212C48.1277 151.325 48.4704 151.38 48.8499 151.38C49.3089 151.38 49.7129 151.3 50.0618 151.138C50.4106 150.976 50.6891 150.753 50.8942 150.469C51.1023 150.182 51.2553 149.861 51.3563 149.497C51.4573 149.136 51.5093 148.739 51.5093 148.308V145.193H50.5269V148.308L50.5331 148.305Z" fill="black"/>
<path d="M50.5331 148.305C50.5331 148.537 50.5178 148.754 50.4841 148.959C50.4504 149.164 50.3953 149.363 50.3127 149.552C50.2301 149.745 50.1291 149.91 50.0036 150.047C49.8782 150.185 49.719 150.295 49.5232 150.377C49.3273 150.46 49.1039 150.503 48.853 150.503C48.602 150.503 48.3847 150.463 48.1889 150.38C47.993 150.298 47.8339 150.191 47.7115 150.056C47.586 149.922 47.485 149.757 47.3993 149.567C47.3167 149.375 47.2586 149.176 47.2249 148.968C47.1912 148.76 47.1729 148.54 47.1729 148.308V145.193H46.1997V148.308C46.1997 148.638 46.2272 148.947 46.2854 149.24C46.3435 149.531 46.4384 149.812 46.57 150.078C46.7016 150.344 46.8699 150.57 47.0688 150.759C47.2677 150.949 47.5217 151.099 47.8247 151.212C48.1277 151.325 48.4704 151.38 48.8499 151.38C49.3089 151.38 49.7129 151.3 50.0618 151.138C50.4106 150.976 50.6891 150.753 50.8942 150.469C51.1023 150.182 51.2553 149.861 51.3563 149.497C51.4573 149.136 51.5093 148.739 51.5093 148.308V145.193H50.5269V148.308L50.5331 148.305Z" fill="black" fill-opacity="0.2"/>
<path d="M63.8792 145.189H62.9121V151.333H63.8792V145.189Z" fill="black"/>
<path d="M63.8792 145.189H62.9121V151.333H63.8792V145.189Z" fill="black" fill-opacity="0.2"/>
<path d="M68.301 144.237C68.3255 144.182 68.3714 144.136 68.4326 144.096C68.4938 144.059 68.5703 144.038 68.6621 144.038C68.7631 144.038 68.8702 144.068 68.9865 144.13C69.0997 144.191 69.2252 144.255 69.3598 144.316C69.4945 144.377 69.6383 144.408 69.7883 144.408C69.9382 144.408 70.0637 144.377 70.1831 144.316C70.3024 144.255 70.3973 144.185 70.4677 144.099C70.538 144.013 70.5993 143.922 70.6482 143.824C70.6972 143.726 70.7308 143.641 70.7492 143.57C70.7676 143.5 70.7767 143.445 70.7767 143.408H70.232C70.232 143.408 70.232 143.442 70.2259 143.466C70.2228 143.491 70.2106 143.527 70.1892 143.57C70.1678 143.613 70.1433 143.653 70.1096 143.689C70.0759 143.726 70.03 143.76 69.9688 143.787C69.9076 143.815 69.8372 143.83 69.7607 143.83C69.6444 143.83 69.5282 143.799 69.4088 143.735C69.2895 143.671 69.167 143.61 69.0355 143.546C68.9069 143.482 68.7692 143.451 68.6254 143.451C68.4907 143.451 68.3653 143.479 68.2551 143.537C68.1449 143.595 68.0531 143.665 67.9888 143.747C67.9215 143.83 67.8664 143.922 67.8205 144.016C67.7746 144.114 67.741 144.2 67.7257 144.273C67.7073 144.347 67.7012 144.405 67.7012 144.447H68.2398C68.2398 144.429 68.2428 144.402 68.252 144.365C68.2612 144.328 68.2765 144.285 68.304 144.23L68.301 144.237Z" fill="black"/>
<path d="M68.301 144.237C68.3255 144.182 68.3714 144.136 68.4326 144.096C68.4938 144.059 68.5703 144.038 68.6621 144.038C68.7631 144.038 68.8702 144.068 68.9865 144.13C69.0997 144.191 69.2252 144.255 69.3598 144.316C69.4945 144.377 69.6383 144.408 69.7883 144.408C69.9382 144.408 70.0637 144.377 70.1831 144.316C70.3024 144.255 70.3973 144.185 70.4677 144.099C70.538 144.013 70.5993 143.922 70.6482 143.824C70.6972 143.726 70.7308 143.641 70.7492 143.57C70.7676 143.5 70.7767 143.445 70.7767 143.408H70.232C70.232 143.408 70.232 143.442 70.2259 143.466C70.2228 143.491 70.2106 143.527 70.1892 143.57C70.1678 143.613 70.1433 143.653 70.1096 143.689C70.0759 143.726 70.03 143.76 69.9688 143.787C69.9076 143.815 69.8372 143.83 69.7607 143.83C69.6444 143.83 69.5282 143.799 69.4088 143.735C69.2895 143.671 69.167 143.61 69.0355 143.546C68.9069 143.482 68.7692 143.451 68.6254 143.451C68.4907 143.451 68.3653 143.479 68.2551 143.537C68.1449 143.595 68.0531 143.665 67.9888 143.747C67.9215 143.83 67.8664 143.922 67.8205 144.016C67.7746 144.114 67.741 144.2 67.7257 144.273C67.7073 144.347 67.7012 144.405 67.7012 144.447H68.2398C68.2398 144.429 68.2428 144.402 68.252 144.365C68.2612 144.328 68.2765 144.285 68.304 144.23L68.301 144.237Z" fill="black" fill-opacity="0.2"/>
<path d="M68.7753 145.189L66.3638 151.333H67.3951L68.0377 149.664H70.4095L71.0582 151.333H72.0804L69.6903 145.189H68.7722H68.7753ZM68.2122 148.946L69.2313 146.256L70.2197 148.946H68.2122Z" fill="black"/>
<path d="M68.7753 145.189L66.3638 151.333H67.3951L68.0377 149.664H70.4095L71.0582 151.333H72.0804L69.6903 145.189H68.7722H68.7753ZM68.2122 148.946L69.2313 146.256L70.2197 148.946H68.2122Z" fill="black" fill-opacity="0.2"/>
<path d="M176.28 143.578C176.262 143.621 176.234 143.661 176.2 143.697C176.167 143.734 176.121 143.768 176.06 143.795C175.998 143.823 175.928 143.838 175.852 143.838C175.735 143.838 175.619 143.808 175.5 143.743C175.38 143.679 175.258 143.618 175.126 143.554C174.998 143.49 174.86 143.459 174.716 143.459C174.582 143.459 174.456 143.487 174.346 143.545C174.236 143.603 174.147 143.673 174.08 143.756C174.012 143.838 173.957 143.93 173.911 144.025C173.865 144.122 173.832 144.208 173.816 144.281C173.798 144.355 173.792 144.413 173.792 144.456H174.331C174.331 144.437 174.334 144.41 174.343 144.373C174.352 144.336 174.367 144.294 174.395 144.238C174.419 144.183 174.465 144.138 174.526 144.098C174.588 144.061 174.664 144.04 174.756 144.04C174.857 144.04 174.964 144.07 175.08 144.132C175.194 144.193 175.319 144.257 175.454 144.318C175.588 144.379 175.732 144.41 175.882 144.41C176.032 144.41 176.158 144.379 176.277 144.318C176.396 144.257 176.491 144.187 176.562 144.101C176.632 144.015 176.693 143.924 176.742 143.826C176.791 143.728 176.825 143.642 176.843 143.572C176.861 143.502 176.871 143.447 176.871 143.41H176.326C176.326 143.41 176.326 143.444 176.32 143.468C176.317 143.493 176.304 143.529 176.283 143.572L176.28 143.578Z" fill="black"/>
<path d="M176.28 143.578C176.262 143.621 176.234 143.661 176.2 143.697C176.167 143.734 176.121 143.768 176.06 143.795C175.998 143.823 175.928 143.838 175.852 143.838C175.735 143.838 175.619 143.808 175.5 143.743C175.38 143.679 175.258 143.618 175.126 143.554C174.998 143.49 174.86 143.459 174.716 143.459C174.582 143.459 174.456 143.487 174.346 143.545C174.236 143.603 174.147 143.673 174.08 143.756C174.012 143.838 173.957 143.93 173.911 144.025C173.865 144.122 173.832 144.208 173.816 144.281C173.798 144.355 173.792 144.413 173.792 144.456H174.331C174.331 144.437 174.334 144.41 174.343 144.373C174.352 144.336 174.367 144.294 174.395 144.238C174.419 144.183 174.465 144.138 174.526 144.098C174.588 144.061 174.664 144.04 174.756 144.04C174.857 144.04 174.964 144.07 175.08 144.132C175.194 144.193 175.319 144.257 175.454 144.318C175.588 144.379 175.732 144.41 175.882 144.41C176.032 144.41 176.158 144.379 176.277 144.318C176.396 144.257 176.491 144.187 176.562 144.101C176.632 144.015 176.693 143.924 176.742 143.826C176.791 143.728 176.825 143.642 176.843 143.572C176.861 143.502 176.871 143.447 176.871 143.41H176.326C176.326 143.41 176.326 143.444 176.32 143.468C176.317 143.493 176.304 143.529 176.283 143.572L176.28 143.578Z" fill="black" fill-opacity="0.2"/>
<path d="M131.649 149.631L128.163 145.189H127.371V151.333H128.338V146.99L131.777 151.333H132.628V145.199H131.649V149.631Z" fill="black"/>
<path d="M131.649 149.631L128.163 145.189H127.371V151.333H128.338V146.99L131.777 151.333H132.628V145.199H131.649V149.631Z" fill="black" fill-opacity="0.2"/>
<path d="M154.084 148.317C154.304 147.981 154.414 147.605 154.414 147.187C154.414 146.942 154.365 146.701 154.27 146.459C154.176 146.221 154.044 146.007 153.882 145.817C153.72 145.628 153.515 145.478 153.276 145.362C153.034 145.246 152.78 145.188 152.511 145.188H149.833V151.331H150.803V149.195H152.232L153.57 151.331H154.662L153.215 148.996C153.576 148.88 153.866 148.654 154.087 148.317H154.084ZM152.502 148.336H150.8V146.046H152.446C152.707 146.046 152.933 146.16 153.132 146.383C153.331 146.606 153.429 146.875 153.429 147.187C153.429 147.498 153.343 147.776 153.166 148C152.991 148.223 152.771 148.336 152.502 148.336Z" fill="black"/>
<path d="M154.084 148.317C154.304 147.981 154.414 147.605 154.414 147.187C154.414 146.942 154.365 146.701 154.27 146.459C154.176 146.221 154.044 146.007 153.882 145.817C153.72 145.628 153.515 145.478 153.276 145.362C153.034 145.246 152.78 145.188 152.511 145.188H149.833V151.331H150.803V149.195H152.232L153.57 151.331H154.662L153.215 148.996C153.576 148.88 153.866 148.654 154.087 148.317H154.084ZM152.502 148.336H150.8V146.046H152.446C152.707 146.046 152.933 146.16 153.132 146.383C153.331 146.606 153.429 146.875 153.429 147.187C153.429 147.498 153.343 147.776 153.166 148C152.991 148.223 152.771 148.336 152.502 148.336Z" fill="black" fill-opacity="0.2"/>
<path d="M142.204 146.045H144.254V151.333H145.236V146.045H147.278V145.189H142.204V146.045Z" fill="black"/>
<path d="M142.204 146.045H144.254V151.333H145.236V146.045H147.278V145.189H142.204V146.045Z" fill="black" fill-opacity="0.2"/>
<path d="M139.713 148.604C139.606 148.485 139.462 148.375 139.284 148.28C139.107 148.182 138.923 148.102 138.73 148.038C138.538 147.974 138.308 147.91 138.036 147.846C137.867 147.803 137.73 147.769 137.626 147.742C137.522 147.714 137.408 147.684 137.289 147.644C137.17 147.607 137.075 147.571 137.004 147.537C136.934 147.503 136.867 147.464 136.796 147.415C136.726 147.366 136.674 147.317 136.637 147.265C136.6 147.213 136.573 147.152 136.551 147.085C136.53 147.017 136.518 146.941 136.518 146.855C136.518 146.586 136.616 146.375 136.815 146.229C137.014 146.082 137.313 146.006 137.714 146.006C138.054 146.006 138.381 146.073 138.7 146.207C139.018 146.342 139.244 146.482 139.376 146.629L139.817 145.834C139.189 145.373 138.495 145.141 137.739 145.141C137.421 145.141 137.127 145.18 136.854 145.263C136.585 145.345 136.349 145.462 136.147 145.617C135.949 145.773 135.789 145.969 135.676 146.207C135.563 146.446 135.505 146.712 135.505 147.008C135.505 147.244 135.542 147.448 135.615 147.623C135.688 147.797 135.805 147.947 135.967 148.072C136.129 148.197 136.316 148.304 136.527 148.393C136.738 148.481 137.007 148.567 137.332 148.65C137.54 148.705 137.705 148.747 137.828 148.781C137.95 148.815 138.085 148.857 138.235 148.906C138.381 148.958 138.498 149.007 138.577 149.053C138.657 149.102 138.736 149.157 138.813 149.224C138.889 149.291 138.942 149.365 138.975 149.447C139.006 149.53 139.021 149.622 139.021 149.722C139.021 149.976 138.917 150.172 138.709 150.306C138.501 150.441 138.207 150.508 137.821 150.508C137.396 150.508 136.983 150.422 136.579 150.251C136.178 150.08 135.887 149.903 135.71 149.719L135.266 150.551C135.615 150.82 136.01 151.025 136.444 151.165C136.882 151.309 137.335 151.379 137.803 151.379C138.057 151.379 138.293 151.358 138.513 151.318C138.733 151.278 138.938 151.211 139.131 151.119C139.324 151.028 139.486 150.915 139.621 150.78C139.756 150.646 139.863 150.477 139.939 150.282C140.016 150.083 140.055 149.863 140.055 149.619C140.055 149.398 140.025 149.203 139.961 149.032C139.896 148.861 139.811 148.714 139.704 148.595L139.713 148.604Z" fill="black"/>
<path d="M139.713 148.604C139.606 148.485 139.462 148.375 139.284 148.28C139.107 148.182 138.923 148.102 138.73 148.038C138.538 147.974 138.308 147.91 138.036 147.846C137.867 147.803 137.73 147.769 137.626 147.742C137.522 147.714 137.408 147.684 137.289 147.644C137.17 147.607 137.075 147.571 137.004 147.537C136.934 147.503 136.867 147.464 136.796 147.415C136.726 147.366 136.674 147.317 136.637 147.265C136.6 147.213 136.573 147.152 136.551 147.085C136.53 147.017 136.518 146.941 136.518 146.855C136.518 146.586 136.616 146.375 136.815 146.229C137.014 146.082 137.313 146.006 137.714 146.006C138.054 146.006 138.381 146.073 138.7 146.207C139.018 146.342 139.244 146.482 139.376 146.629L139.817 145.834C139.189 145.373 138.495 145.141 137.739 145.141C137.421 145.141 137.127 145.18 136.854 145.263C136.585 145.345 136.349 145.462 136.147 145.617C135.949 145.773 135.789 145.969 135.676 146.207C135.563 146.446 135.505 146.712 135.505 147.008C135.505 147.244 135.542 147.448 135.615 147.623C135.688 147.797 135.805 147.947 135.967 148.072C136.129 148.197 136.316 148.304 136.527 148.393C136.738 148.481 137.007 148.567 137.332 148.65C137.54 148.705 137.705 148.747 137.828 148.781C137.95 148.815 138.085 148.857 138.235 148.906C138.381 148.958 138.498 149.007 138.577 149.053C138.657 149.102 138.736 149.157 138.813 149.224C138.889 149.291 138.942 149.365 138.975 149.447C139.006 149.53 139.021 149.622 139.021 149.722C139.021 149.976 138.917 150.172 138.709 150.306C138.501 150.441 138.207 150.508 137.821 150.508C137.396 150.508 136.983 150.422 136.579 150.251C136.178 150.08 135.887 149.903 135.71 149.719L135.266 150.551C135.615 150.82 136.01 151.025 136.444 151.165C136.882 151.309 137.335 151.379 137.803 151.379C138.057 151.379 138.293 151.358 138.513 151.318C138.733 151.278 138.938 151.211 139.131 151.119C139.324 151.028 139.486 150.915 139.621 150.78C139.756 150.646 139.863 150.477 139.939 150.282C140.016 150.083 140.055 149.863 140.055 149.619C140.055 149.398 140.025 149.203 139.961 149.032C139.896 148.861 139.811 148.714 139.704 148.595L139.713 148.604Z" fill="black" fill-opacity="0.2"/>
<path d="M169.309 150.075C169.122 150.231 168.926 150.344 168.724 150.409C168.522 150.476 168.317 150.509 168.106 150.509C167.733 150.509 167.393 150.406 167.087 150.195C166.781 149.984 166.542 149.709 166.374 149.363C166.205 149.021 166.123 148.648 166.123 148.254C166.123 148.037 166.15 147.823 166.202 147.612C166.254 147.401 166.337 147.199 166.444 147.007C166.554 146.814 166.686 146.646 166.839 146.502C166.992 146.359 167.176 146.246 167.39 146.157C167.604 146.068 167.837 146.028 168.084 146.028C168.241 146.028 168.391 146.047 168.54 146.08C168.687 146.114 168.837 146.166 168.981 146.239C169.128 146.313 169.263 146.414 169.388 146.545C169.514 146.676 169.615 146.829 169.697 147.007L170.459 146.496C170.254 146.09 169.948 145.766 169.538 145.521C169.131 145.277 168.657 145.154 168.118 145.154C167.754 145.154 167.411 145.212 167.09 145.329C166.769 145.445 166.49 145.604 166.257 145.802C166.025 146.001 165.82 146.233 165.652 146.493C165.48 146.753 165.355 147.031 165.269 147.324C165.183 147.618 165.144 147.914 165.144 148.214C165.144 148.587 165.211 148.954 165.346 149.317C165.48 149.681 165.664 150.008 165.896 150.302C166.129 150.595 166.42 150.84 166.762 151.032C167.105 151.228 167.472 151.338 167.864 151.371C168.173 151.573 168.329 151.787 168.329 152.013C168.329 152.145 168.283 152.246 168.192 152.316C168.1 152.386 167.971 152.42 167.809 152.42C167.619 152.42 167.414 152.359 167.197 152.24L166.955 152.75C167.28 152.915 167.619 153.001 167.974 153.001C168.274 153.001 168.507 152.927 168.672 152.781C168.837 152.634 168.923 152.438 168.923 152.188C168.923 151.882 168.776 151.604 168.479 151.356C168.935 151.292 169.358 151.136 169.743 150.888C170.129 150.641 170.401 150.329 170.56 149.953L169.752 149.498C169.651 149.727 169.508 149.92 169.318 150.075H169.309Z" fill="black"/>
<path d="M169.309 150.075C169.122 150.231 168.926 150.344 168.724 150.409C168.522 150.476 168.317 150.509 168.106 150.509C167.733 150.509 167.393 150.406 167.087 150.195C166.781 149.984 166.542 149.709 166.374 149.363C166.205 149.021 166.123 148.648 166.123 148.254C166.123 148.037 166.15 147.823 166.202 147.612C166.254 147.401 166.337 147.199 166.444 147.007C166.554 146.814 166.686 146.646 166.839 146.502C166.992 146.359 167.176 146.246 167.39 146.157C167.604 146.068 167.837 146.028 168.084 146.028C168.241 146.028 168.391 146.047 168.54 146.08C168.687 146.114 168.837 146.166 168.981 146.239C169.128 146.313 169.263 146.414 169.388 146.545C169.514 146.676 169.615 146.829 169.697 147.007L170.459 146.496C170.254 146.09 169.948 145.766 169.538 145.521C169.131 145.277 168.657 145.154 168.118 145.154C167.754 145.154 167.411 145.212 167.09 145.329C166.769 145.445 166.49 145.604 166.257 145.802C166.025 146.001 165.82 146.233 165.652 146.493C165.48 146.753 165.355 147.031 165.269 147.324C165.183 147.618 165.144 147.914 165.144 148.214C165.144 148.587 165.211 148.954 165.346 149.317C165.48 149.681 165.664 150.008 165.896 150.302C166.129 150.595 166.42 150.84 166.762 151.032C167.105 151.228 167.472 151.338 167.864 151.371C168.173 151.573 168.329 151.787 168.329 152.013C168.329 152.145 168.283 152.246 168.192 152.316C168.1 152.386 167.971 152.42 167.809 152.42C167.619 152.42 167.414 152.359 167.197 152.24L166.955 152.75C167.28 152.915 167.619 153.001 167.974 153.001C168.274 153.001 168.507 152.927 168.672 152.781C168.837 152.634 168.923 152.438 168.923 152.188C168.923 151.882 168.776 151.604 168.479 151.356C168.935 151.292 169.358 151.136 169.743 150.888C170.129 150.641 170.401 150.329 170.56 149.953L169.752 149.498C169.651 149.727 169.508 149.92 169.318 150.075H169.309Z" fill="black" fill-opacity="0.2"/>
<path d="M123.824 146.13C123.573 145.836 123.264 145.598 122.89 145.417C122.517 145.237 122.119 145.148 121.694 145.148C121.268 145.148 120.889 145.234 120.519 145.405C120.148 145.576 119.836 145.806 119.576 146.09C119.316 146.374 119.111 146.707 118.961 147.083C118.811 147.462 118.734 147.854 118.734 148.26C118.734 148.572 118.78 148.881 118.869 149.186C118.958 149.492 119.092 149.776 119.264 150.036C119.438 150.299 119.64 150.528 119.876 150.73C120.111 150.928 120.384 151.087 120.693 151.201C121.002 151.314 121.329 151.372 121.675 151.372C122.088 151.372 122.48 151.286 122.85 151.115C123.221 150.944 123.533 150.718 123.79 150.433C124.047 150.149 124.249 149.819 124.402 149.44C124.552 149.061 124.628 148.67 124.628 148.266C124.628 147.863 124.555 147.502 124.411 147.129C124.267 146.756 124.071 146.423 123.821 146.127L123.824 146.13ZM123.502 149.076C123.414 149.342 123.288 149.581 123.129 149.791C122.97 150.005 122.762 150.177 122.511 150.305C122.26 150.433 121.984 150.501 121.684 150.501C121.296 150.501 120.947 150.394 120.644 150.18C120.338 149.966 120.108 149.691 119.952 149.351C119.796 149.012 119.717 148.651 119.717 148.26C119.717 147.982 119.763 147.71 119.851 147.444C119.943 147.178 120.069 146.94 120.231 146.729C120.393 146.518 120.601 146.347 120.855 146.221C121.106 146.093 121.385 146.029 121.681 146.029C121.978 146.029 122.235 146.09 122.483 146.212C122.731 146.334 122.936 146.499 123.101 146.707C123.267 146.915 123.395 147.154 123.49 147.423C123.585 147.692 123.631 147.973 123.631 148.26C123.631 148.547 123.585 148.81 123.496 149.076H123.502Z" fill="black"/>
<path d="M123.824 146.13C123.573 145.836 123.264 145.598 122.89 145.417C122.517 145.237 122.119 145.148 121.694 145.148C121.268 145.148 120.889 145.234 120.519 145.405C120.148 145.576 119.836 145.806 119.576 146.09C119.316 146.374 119.111 146.707 118.961 147.083C118.811 147.462 118.734 147.854 118.734 148.26C118.734 148.572 118.78 148.881 118.869 149.186C118.958 149.492 119.092 149.776 119.264 150.036C119.438 150.299 119.64 150.528 119.876 150.73C120.111 150.928 120.384 151.087 120.693 151.201C121.002 151.314 121.329 151.372 121.675 151.372C122.088 151.372 122.48 151.286 122.85 151.115C123.221 150.944 123.533 150.718 123.79 150.433C124.047 150.149 124.249 149.819 124.402 149.44C124.552 149.061 124.628 148.67 124.628 148.266C124.628 147.863 124.555 147.502 124.411 147.129C124.267 146.756 124.071 146.423 123.821 146.127L123.824 146.13ZM123.502 149.076C123.414 149.342 123.288 149.581 123.129 149.791C122.97 150.005 122.762 150.177 122.511 150.305C122.26 150.433 121.984 150.501 121.684 150.501C121.296 150.501 120.947 150.394 120.644 150.18C120.338 149.966 120.108 149.691 119.952 149.351C119.796 149.012 119.717 148.651 119.717 148.26C119.717 147.982 119.763 147.71 119.851 147.444C119.943 147.178 120.069 146.94 120.231 146.729C120.393 146.518 120.601 146.347 120.855 146.221C121.106 146.093 121.385 146.029 121.681 146.029C121.978 146.029 122.235 146.09 122.483 146.212C122.731 146.334 122.936 146.499 123.101 146.707C123.267 146.915 123.395 147.154 123.49 147.423C123.585 147.692 123.631 147.973 123.631 148.26C123.631 148.547 123.585 148.81 123.496 149.076H123.502Z" fill="black" fill-opacity="0.2"/>
<path d="M115.332 150.075C115.145 150.231 114.949 150.344 114.747 150.409C114.545 150.476 114.34 150.509 114.129 150.509C113.755 150.509 113.416 150.406 113.11 150.195C112.804 149.984 112.565 149.709 112.397 149.363C112.228 149.021 112.146 148.648 112.146 148.254C112.146 148.037 112.173 147.823 112.225 147.612C112.277 147.401 112.36 147.199 112.467 147.007C112.577 146.814 112.709 146.646 112.862 146.502C113.015 146.359 113.199 146.246 113.413 146.157C113.627 146.071 113.86 146.028 114.107 146.028C114.263 146.028 114.413 146.047 114.563 146.08C114.71 146.114 114.857 146.166 115.004 146.239C115.151 146.313 115.286 146.414 115.411 146.545C115.537 146.676 115.638 146.829 115.72 147.007L116.482 146.496C116.277 146.09 115.971 145.766 115.561 145.521C115.154 145.277 114.68 145.154 114.141 145.154C113.777 145.154 113.434 145.212 113.113 145.329C112.792 145.445 112.513 145.604 112.28 145.802C112.048 146.001 111.843 146.233 111.675 146.493C111.503 146.753 111.378 147.031 111.292 147.324C111.206 147.618 111.167 147.914 111.167 148.214C111.167 148.602 111.24 148.987 111.387 149.366C111.534 149.745 111.733 150.085 111.987 150.381C112.238 150.681 112.55 150.919 112.92 151.102C113.29 151.286 113.685 151.378 114.101 151.378C114.432 151.378 114.759 151.326 115.087 151.216C115.414 151.109 115.714 150.944 115.986 150.72C116.259 150.497 116.458 150.24 116.577 149.947L115.769 149.492C115.668 149.721 115.524 149.913 115.335 150.069L115.332 150.075Z" fill="black"/>
<path d="M115.332 150.075C115.145 150.231 114.949 150.344 114.747 150.409C114.545 150.476 114.34 150.509 114.129 150.509C113.755 150.509 113.416 150.406 113.11 150.195C112.804 149.984 112.565 149.709 112.397 149.363C112.228 149.021 112.146 148.648 112.146 148.254C112.146 148.037 112.173 147.823 112.225 147.612C112.277 147.401 112.36 147.199 112.467 147.007C112.577 146.814 112.709 146.646 112.862 146.502C113.015 146.359 113.199 146.246 113.413 146.157C113.627 146.071 113.86 146.028 114.107 146.028C114.263 146.028 114.413 146.047 114.563 146.08C114.71 146.114 114.857 146.166 115.004 146.239C115.151 146.313 115.286 146.414 115.411 146.545C115.537 146.676 115.638 146.829 115.72 147.007L116.482 146.496C116.277 146.09 115.971 145.766 115.561 145.521C115.154 145.277 114.68 145.154 114.141 145.154C113.777 145.154 113.434 145.212 113.113 145.329C112.792 145.445 112.513 145.604 112.28 145.802C112.048 146.001 111.843 146.233 111.675 146.493C111.503 146.753 111.378 147.031 111.292 147.324C111.206 147.618 111.167 147.914 111.167 148.214C111.167 148.602 111.24 148.987 111.387 149.366C111.534 149.745 111.733 150.085 111.987 150.381C112.238 150.681 112.55 150.919 112.92 151.102C113.29 151.286 113.685 151.378 114.101 151.378C114.432 151.378 114.759 151.326 115.087 151.216C115.414 151.109 115.714 150.944 115.986 150.72C116.259 150.497 116.458 150.24 116.577 149.947L115.769 149.492C115.668 149.721 115.524 149.913 115.335 150.069L115.332 150.075Z" fill="black" fill-opacity="0.2"/>
<path d="M174.869 145.189L172.458 151.333H173.489L174.131 149.664H176.503L177.149 151.333H178.174L175.784 145.189H174.866H174.869ZM174.306 148.946L175.325 146.256L176.313 148.946H174.306Z" fill="black"/>
<path d="M174.869 145.189L172.458 151.333H173.489L174.131 149.664H176.503L177.149 151.333H178.174L175.784 145.189H174.866H174.869ZM174.306 148.946L175.325 146.256L176.313 148.946H174.306Z" fill="black" fill-opacity="0.2"/>
<path d="M161.52 148.305C161.52 148.537 161.505 148.754 161.471 148.959C161.438 149.164 161.383 149.363 161.3 149.552C161.217 149.742 161.116 149.91 160.991 150.047C160.865 150.185 160.706 150.295 160.51 150.377C160.315 150.46 160.091 150.503 159.84 150.503C159.589 150.503 159.372 150.463 159.176 150.38C158.98 150.298 158.821 150.191 158.699 150.056C158.573 149.922 158.472 149.757 158.387 149.567C158.304 149.375 158.246 149.176 158.212 148.968C158.179 148.76 158.16 148.54 158.16 148.308V145.193H157.187V148.308C157.187 148.638 157.215 148.947 157.273 149.24C157.331 149.531 157.426 149.812 157.557 150.078C157.689 150.344 157.857 150.57 158.056 150.759C158.255 150.949 158.509 151.099 158.812 151.212C159.115 151.325 159.458 151.38 159.837 151.38C160.296 151.38 160.7 151.3 161.049 151.138C161.398 150.976 161.676 150.753 161.881 150.469C162.09 150.182 162.243 149.861 162.344 149.497C162.445 149.136 162.497 148.739 162.497 148.308V145.193H161.514V148.308L161.52 148.305Z" fill="black"/>
<path d="M161.52 148.305C161.52 148.537 161.505 148.754 161.471 148.959C161.438 149.164 161.383 149.363 161.3 149.552C161.217 149.742 161.116 149.91 160.991 150.047C160.865 150.185 160.706 150.295 160.51 150.377C160.315 150.46 160.091 150.503 159.84 150.503C159.589 150.503 159.372 150.463 159.176 150.38C158.98 150.298 158.821 150.191 158.699 150.056C158.573 149.922 158.472 149.757 158.387 149.567C158.304 149.375 158.246 149.176 158.212 148.968C158.179 148.76 158.16 148.54 158.16 148.308V145.193H157.187V148.308C157.187 148.638 157.215 148.947 157.273 149.24C157.331 149.531 157.426 149.812 157.557 150.078C157.689 150.344 157.857 150.57 158.056 150.759C158.255 150.949 158.509 151.099 158.812 151.212C159.115 151.325 159.458 151.38 159.837 151.38C160.296 151.38 160.7 151.3 161.049 151.138C161.398 150.976 161.676 150.753 161.881 150.469C162.09 150.182 162.243 149.861 162.344 149.497C162.445 149.136 162.497 148.739 162.497 148.308V145.193H161.514V148.308L161.52 148.305Z" fill="black" fill-opacity="0.2"/>
<path d="M110.845 86.1917C113.113 86.1917 114.933 84.373 114.933 82.0959C114.933 79.8187 113.113 78 110.845 78C108.577 78 106.732 79.8187 106.732 82.0959C106.732 84.373 108.553 86.1917 110.845 86.1917ZM110.845 80.1641C111.87 80.1641 112.666 80.9924 112.666 82.0959C112.666 83.1993 111.87 84.0276 110.845 84.0276C109.82 84.0276 108.99 83.1993 108.99 82.0959C108.99 80.9924 109.795 80.1641 110.845 80.1641Z" fill="black"/>
<path d="M110.845 86.1917C113.113 86.1917 114.933 84.373 114.933 82.0959C114.933 79.8187 113.113 78 110.845 78C108.577 78 106.732 79.8187 106.732 82.0959C106.732 84.373 108.553 86.1917 110.845 86.1917ZM110.845 80.1641C111.87 80.1641 112.666 80.9924 112.666 82.0959C112.666 83.1993 111.87 84.0276 110.845 84.0276C109.82 84.0276 108.99 83.1993 108.99 82.0959C108.99 80.9924 109.795 80.1641 110.845 80.1641Z" fill="black" fill-opacity="0.2"/>
<path d="M50.1904 86.1915C52.3571 86.1915 53.9913 84.6051 53.9913 82.1659V81.5576H49.6273V83.2265H51.7358C51.5522 83.7339 51.0228 84.1466 50.1934 84.1466C49.0061 84.1466 48.189 83.2938 48.189 82.1231C48.189 80.9524 49.0061 80.0416 50.1598 80.0416C50.8973 80.0416 51.5308 80.3992 51.8766 81.0197L53.673 79.9499C52.9477 78.7425 51.6226 78.0059 50.1843 78.0059C47.9044 78.0059 46.0835 79.8245 46.0835 82.1109C46.0835 84.3972 47.8921 86.1945 50.1965 86.1945L50.1904 86.1915Z" fill="black"/>
<path d="M50.1904 86.1915C52.3571 86.1915 53.9913 84.6051 53.9913 82.1659V81.5576H49.6273V83.2265H51.7358C51.5522 83.7339 51.0228 84.1466 50.1934 84.1466C49.0061 84.1466 48.189 83.2938 48.189 82.1231C48.189 80.9524 49.0061 80.0416 50.1598 80.0416C50.8973 80.0416 51.5308 80.3992 51.8766 81.0197L53.673 79.9499C52.9477 78.7425 51.6226 78.0059 50.1843 78.0059C47.9044 78.0059 46.0835 79.8245 46.0835 82.1109C46.0835 84.3972 47.8921 86.1945 50.1965 86.1945L50.1904 86.1915Z" fill="black" fill-opacity="0.2"/>
<path d="M125.278 83.1536H127.579V81.3808H125.278V80.0604H128.766V78.1836H123.157V86.0055H125.278V83.1536Z" fill="black"/>
<path d="M125.278 83.1536H127.579V81.3808H125.278V80.0604H128.766V78.1836H123.157V86.0055H125.278V83.1536Z" fill="black" fill-opacity="0.2"/>
<path d="M72.2211 86.0055L75.2844 78.1836H73.0168L71.1745 83.0039L69.3536 78.1836H67.0859L70.1126 86.0055H72.2211Z" fill="black"/>
<path d="M72.2211 86.0055L75.2844 78.1836H73.0168L71.1745 83.0039L69.3536 78.1836H67.0859L70.1126 86.0055H72.2211Z" fill="black" fill-opacity="0.2"/>
<path d="M162.163 83.3034H163.051L164.605 86.0055H166.943L165.205 82.9916C166.034 82.5545 166.576 81.7262 166.576 80.7267C166.576 79.2779 165.401 78.1836 163.871 78.1836H160.082V86.0055H162.166V83.3034H162.163ZM162.163 80.0604H163.638C164.146 80.0604 164.443 80.4057 164.443 80.797C164.443 81.1882 164.131 81.5214 163.638 81.5214H162.163V80.0604Z" fill="black"/>
<path d="M162.163 83.3034H163.051L164.605 86.0055H166.943L165.205 82.9916C166.034 82.5545 166.576 81.7262 166.576 80.7267C166.576 79.2779 165.401 78.1836 163.871 78.1836H160.082V86.0055H162.166V83.3034H162.163ZM162.163 80.0604H163.638C164.146 80.0604 164.443 80.4057 164.443 80.797C164.443 81.1882 164.131 81.5214 163.638 81.5214H162.163V80.0604Z" fill="black" fill-opacity="0.2"/>
<path d="M61.0056 86.1917C63.2733 86.1917 65.0941 84.373 65.0941 82.0959C65.0941 79.8187 63.2733 78 61.0056 78C58.7379 78 56.8926 79.8187 56.8926 82.0959C56.8926 84.373 58.7134 86.1917 61.0056 86.1917ZM61.0056 80.1641C62.0308 80.1641 62.8265 80.9924 62.8265 82.0959C62.8265 83.1993 62.0308 84.0276 61.0056 84.0276C59.9804 84.0276 59.1511 83.1993 59.1511 82.0959C59.1511 80.9924 59.9559 80.1641 61.0056 80.1641Z" fill="black"/>
<path d="M61.0056 86.1917C63.2733 86.1917 65.0941 84.373 65.0941 82.0959C65.0941 79.8187 63.2733 78 61.0056 78C58.7379 78 56.8926 79.8187 56.8926 82.0959C56.8926 84.373 58.7134 86.1917 61.0056 86.1917ZM61.0056 80.1641C62.0308 80.1641 62.8265 80.9924 62.8265 82.0959C62.8265 83.1993 62.0308 84.0276 61.0056 84.0276C59.9804 84.0276 59.1511 83.1993 59.1511 82.0959C59.1511 80.9924 59.9559 80.1641 61.0056 80.1641Z" fill="black" fill-opacity="0.2"/>
<path d="M148.171 82.0961C148.171 79.8525 146.375 78.1836 143.991 78.1836H140.802V86.0055H143.991C146.375 86.0055 148.171 84.3365 148.171 82.093V82.0961ZM142.932 83.9698V80.2193H143.887C145.129 80.2193 145.983 80.9559 145.983 82.093C145.983 83.2301 145.129 83.9667 143.887 83.9667H142.932V83.9698Z" fill="black"/>
<path d="M148.171 82.0961C148.171 79.8525 146.375 78.1836 143.991 78.1836H140.802V86.0055H143.991C146.375 86.0055 148.171 84.3365 148.171 82.093V82.0961ZM142.932 83.9698V80.2193H143.887C145.129 80.2193 145.983 80.9559 145.983 82.093C145.983 83.2301 145.129 83.9667 143.887 83.9667H142.932V83.9698Z" fill="black" fill-opacity="0.2"/>
<path d="M137.54 84.0981H134.051V82.9366H136.355V81.2555H134.051V80.094H137.54V78.1836H131.93V86.0055H137.54V84.0981Z" fill="black"/>
<path d="M137.54 84.0981H134.051V82.9366H136.355V81.2555H134.051V80.094H137.54V78.1836H131.93V86.0055H137.54V84.0981Z" fill="black" fill-opacity="0.2"/>
<path d="M175.646 86.0055H177.834L174.529 78.1836H172.525L169.253 86.0055H171.454L171.995 84.6605H175.092L175.646 86.0055ZM172.754 82.796L173.538 80.8734L174.321 82.796H172.754Z" fill="black"/>
<path d="M175.646 86.0055H177.834L174.529 78.1836H172.525L169.253 86.0055H171.454L171.995 84.6605H175.092L175.646 86.0055ZM172.754 82.796L173.538 80.8734L174.321 82.796H172.754Z" fill="black" fill-opacity="0.2"/>
<path d="M88.9887 83.3034H89.8762L91.4308 86.0055H93.7689L92.0306 82.9916C92.86 82.5545 93.4016 81.7262 93.4016 80.7267C93.4016 79.2779 92.2265 78.1836 90.6963 78.1836H86.9077V86.0055H88.9918V83.3034H88.9887ZM88.9887 80.0604H90.4638C90.9718 80.0604 91.2686 80.4057 91.2686 80.797C91.2686 81.1882 90.9565 81.5214 90.4638 81.5214H88.9887V80.0604Z" fill="black"/>
<path d="M88.9887 83.3034H89.8762L91.4308 86.0055H93.7689L92.0306 82.9916C92.86 82.5545 93.4016 81.7262 93.4016 80.7267C93.4016 79.2779 92.2265 78.1836 90.6963 78.1836H86.9077V86.0055H88.9918V83.3034H88.9887ZM88.9887 80.0604H90.4638C90.9718 80.0604 91.2686 80.4057 91.2686 80.797C91.2686 81.1882 90.9565 81.5214 90.4638 81.5214H88.9887V80.0604Z" fill="black" fill-opacity="0.2"/>
<path d="M156.819 84.0981H153.328V82.9366H155.632V81.2555H153.328V80.094H156.819V78.1836H151.21V86.0055H156.819V84.0981Z" fill="black"/>
<path d="M156.819 84.0981H153.328V82.9366H155.632V81.2555H153.328V80.094H156.819V78.1836H151.21V86.0055H156.819V84.0981Z" fill="black" fill-opacity="0.2"/>
<path d="M98.754 81.8882L101.909 86.0055H103.696V78.1836H101.609V82.3131L98.4418 78.1836H96.6699V86.0055H98.754V81.8882Z" fill="black"/>
<path d="M98.754 81.8882L101.909 86.0055H103.696V78.1836H101.609V82.3131L98.4418 78.1836H96.6699V86.0055H98.754V81.8882Z" fill="black" fill-opacity="0.2"/>
<path d="M83.6451 84.0981H80.1564V82.9366H82.4577V81.2555H80.1564V80.094H83.6451V78.1836H78.0356V86.0055H83.6451V84.0981Z" fill="black"/>
<path d="M83.6451 84.0981H80.1564V82.9366H82.4577V81.2555H80.1564V80.094H83.6451V78.1836H78.0356V86.0055H83.6451V84.0981Z" fill="black" fill-opacity="0.2"/>
<path d="M182.811 78.1836H180.586V86.0055H186.104V83.9942H182.811V78.1836Z" fill="black"/>
<path d="M182.811 78.1836H180.586V86.0055H186.104V83.9942H182.811V78.1836Z" fill="black" fill-opacity="0.2"/>
<path d="M152.404 94.8477H137.705V109.098H152.404V94.8477Z" fill="black"/>
<path d="M152.404 94.8477H137.705V109.098H152.404V94.8477Z" fill="black" fill-opacity="0.2"/>
<path d="M136.974 135.314V113.156H124.222V123.592L131.202 135.314H136.974Z" fill="black"/>
<path d="M136.974 135.314V113.156H124.222V123.592L131.202 135.314H136.974Z" fill="black" fill-opacity="0.2"/>
<path d="M136.974 112.426V94.8477H133.023C128.169 94.8477 124.225 98.7907 124.225 103.638C124.225 108.486 128.172 112.426 133.023 112.426H136.977H136.974Z" fill="black"/>
<path d="M136.974 112.426V94.8477H133.023C128.169 94.8477 124.225 98.7907 124.225 103.638C124.225 108.486 128.172 112.426 133.023 112.426H136.977H136.974Z" fill="black" fill-opacity="0.2"/>
<path d="M124.222 135.314H130.351L124.222 125.02V135.314Z" fill="black"/>
<path d="M124.222 135.314H130.351L124.222 125.02V135.314Z" fill="black" fill-opacity="0.2"/>
<path d="M185.736 94.8477H172.207V121.477H185.736V94.8477Z" fill="black"/>
<path d="M185.736 94.8477H172.207V121.477H185.736V94.8477Z" fill="black" fill-opacity="0.2"/>
<path d="M116.745 125.222C113.982 122.51 110.331 121.016 106.466 121.016C102.601 121.016 98.9496 122.507 96.1862 125.222C93.4442 127.911 91.8834 131.494 91.7886 135.314H121.143C121.048 131.494 119.49 127.911 116.745 125.222Z" fill="black"/>
<path d="M116.745 125.222C113.982 122.51 110.331 121.016 106.466 121.016C102.601 121.016 98.9496 122.507 96.1862 125.222C93.4442 127.911 91.8834 131.494 91.7886 135.314H121.143C121.048 131.494 119.49 127.911 116.745 125.222Z" fill="black" fill-opacity="0.2"/>
<path d="M142.051 109.828H137.705V135.314H142.051C149.086 135.314 154.809 129.598 154.809 122.571C154.809 115.544 149.086 109.828 142.051 109.828Z" fill="black"/>
<path d="M142.051 109.828H137.705V135.314H142.051C149.086 135.314 154.809 129.598 154.809 122.571C154.809 115.544 149.086 109.828 142.051 109.828Z" fill="black" fill-opacity="0.2"/>
<path d="M106.463 120.285C110.521 120.285 114.355 121.853 117.26 124.702C120.142 127.529 121.777 131.295 121.871 135.311H123.49V123.788L106.463 95.1934L86.0938 129.4L89.9405 135.308H91.0575C91.1524 131.292 92.7866 127.526 95.6694 124.699C98.5736 121.85 102.405 120.282 106.466 120.282L106.463 120.285Z" fill="black"/>
<path d="M106.463 120.285C110.521 120.285 114.355 121.853 117.26 124.702C120.142 127.529 121.777 131.295 121.871 135.311H123.49V123.788L106.463 95.1934L86.0938 129.4L89.9405 135.308H91.0575C91.1524 131.292 92.7866 127.526 95.6694 124.699C98.5736 121.85 102.405 120.282 106.466 120.282L106.463 120.285Z" fill="black" fill-opacity="0.2"/>
<path d="M200 122.207H186.471V135.314H200V122.207Z" fill="black"/>
<path d="M200 122.207H186.471V135.314H200V122.207Z" fill="black" fill-opacity="0.2"/>
<path d="M169.07 94.8477H155.541V135.314H169.07V94.8477Z" fill="black"/>
<path d="M169.07 94.8477H155.541V135.314H169.07V94.8477Z" fill="black" fill-opacity="0.2"/>
<path d="M91.2072 106.924C91.2072 100.267 85.7844 94.8477 79.1161 94.8477H63.6035L79.3119 118.998C85.8732 118.891 91.2042 113.484 91.2042 106.924H91.2072Z" fill="black"/>
<path d="M91.2072 106.924C91.2072 100.267 85.7844 94.8477 79.1161 94.8477H63.6035L79.3119 118.998C85.8732 118.891 91.2042 113.484 91.2042 106.924H91.2072Z" fill="black" fill-opacity="0.2"/>
<path d="M185.736 122.207H172.207V135.314H185.736V122.207Z" fill="black"/>
<path d="M185.736 122.207H172.207V135.314H185.736V122.207Z" fill="black" fill-opacity="0.2"/>
<path d="M85.6772 130.105L82.5771 135.314H89.068L85.6772 130.105Z" fill="black"/>
<path d="M85.6772 130.105L82.5771 135.314H89.068L85.6772 130.105Z" fill="black" fill-opacity="0.2"/>
<path d="M45.5295 111.379H32V135.315H45.5295V111.379Z" fill="black"/>
<path d="M45.5295 111.379H32V135.315H45.5295V111.379Z" fill="black" fill-opacity="0.2"/>
<path d="M46.2607 94.8477V110.647H49.1986C53.5595 110.647 57.1064 107.105 57.1064 102.749C57.1064 98.3933 53.5595 94.8507 49.1986 94.8507H46.2607V94.8477Z" fill="black"/>
<path d="M46.2607 94.8477V110.647H49.1986C53.5595 110.647 57.1064 107.105 57.1064 102.749C57.1064 98.3933 53.5595 94.8507 49.1986 94.8507H46.2607V94.8477Z" fill="black" fill-opacity="0.2"/>
<path d="M63.3008 118.999H78.4461L63.3008 95.7168V118.999Z" fill="black"/>
<path d="M63.3008 118.999H78.4461L63.3008 95.7168V118.999Z" fill="black" fill-opacity="0.2"/>
<path d="M78.9204 119.729H63.3008V135.314H81.7267L85.2338 129.424L78.9204 119.729Z" fill="black"/>
<path d="M78.9204 119.729H63.3008V135.314H81.7267L85.2338 129.424L78.9204 119.729Z" fill="black" fill-opacity="0.2"/>
<path d="M45.5295 94.8477H32V110.647H45.5295V94.8477Z" fill="black"/>
<path d="M45.5295 94.8477H32V110.647H45.5295V94.8477Z" fill="black" fill-opacity="0.2"/>
<path d="M50.5854 111.379H46.2612V135.315H50.5854C57.1925 135.315 62.5694 129.948 62.5694 123.346C62.5694 116.743 57.1925 111.379 50.5854 111.379Z" fill="black"/>
<path d="M50.5854 111.379H46.2612V135.315H50.5854C57.1925 135.315 62.5694 129.948 62.5694 123.346C62.5694 116.743 57.1925 111.379 50.5854 111.379Z" fill="black" fill-opacity="0.2"/>
</g>
<defs>
<clipPath id="clip0_4346_572">
<rect width="168" height="75" fill="white" transform="translate(32 78)"/>
</clipPath>
</defs>
</svg>
