<svg width="232" height="230" viewBox="0 0 232 230" fill="none" xmlns="http://www.w3.org/2000/svg">
<rect x="0.680176" width="231" height="230" rx="10" fill="#FAF9FA"/>
<g clip-path="url(#clip0_4346_476)">
<path d="M26.1606 110.291V114.44H33.2674V135.014H38.2494V114.44H45.2844V110.291H26.1606Z" fill="black"/>
<path d="M26.1606 110.291V114.44H33.2674V135.014H38.2494V114.44H45.2844V110.291H26.1606Z" fill="black" fill-opacity="0.2"/>
<path d="M65.1545 114.483H53.7549V120.341H64.0059V124.533H53.7549V130.807H64.8386V135.028H48.7729V112.301C48.7729 111.698 48.9883 111.21 49.3903 110.851C49.8067 110.478 50.2948 110.291 50.8835 110.291H65.1545V114.483Z" fill="black"/>
<path d="M65.1545 114.483H53.7549V120.341H64.0059V124.533H53.7549V130.807H64.8386V135.028H48.7729V112.301C48.7729 111.698 48.9883 111.21 49.3903 110.851C49.8067 110.478 50.2948 110.291 50.8835 110.291H65.1545V114.483Z" fill="black" fill-opacity="0.2"/>
<path d="M71.4285 135.014C70.8542 135.014 70.366 134.827 69.9927 134.44C69.6051 134.052 69.4185 133.578 69.4185 133.004V110.291H74.3717V130.865H85.3549V135.014H71.4285Z" fill="black"/>
<path d="M71.4285 135.014C70.8542 135.014 70.366 134.827 69.9927 134.44C69.6051 134.052 69.4185 133.578 69.4185 133.004V110.291H74.3717V130.865H85.3549V135.014H71.4285Z" fill="black" fill-opacity="0.2"/>
<path d="M90.5813 135.014C90.007 135.014 89.5189 134.827 89.1456 134.44C88.7579 134.052 88.5713 133.578 88.5713 133.004V110.291H93.5245V130.865H104.508V135.014H90.5813Z" fill="black"/>
<path d="M90.5813 135.014C90.007 135.014 89.5189 134.827 89.1456 134.44C88.7579 134.052 88.5713 133.578 88.5713 133.004V110.291H93.5245V130.865H104.508V135.014H90.5813Z" fill="black" fill-opacity="0.2"/>
<path d="M123.66 132.933C121.952 134.57 119.583 135.388 116.553 135.388C113.524 135.388 111.169 134.57 109.475 132.933C107.781 131.296 106.934 129.071 106.934 126.286V110.277H111.916V126.386C111.916 129.53 113.467 131.095 116.553 131.095C119.64 131.095 121.263 129.53 121.263 126.386V110.277H126.216V126.286C126.216 129.085 125.354 131.296 123.646 132.933" fill="black"/>
<path d="M123.66 132.933C121.952 134.57 119.583 135.388 116.553 135.388C113.524 135.388 111.169 134.57 109.475 132.933C107.781 131.296 106.934 129.071 106.934 126.286V110.277H111.916V126.386C111.916 129.53 113.467 131.095 116.553 131.095C119.64 131.095 121.263 129.53 121.263 126.386V110.277H126.216V126.286C126.216 129.085 125.354 131.296 123.646 132.933" fill="black" fill-opacity="0.2"/>
<path d="M138.405 135.403C136.653 135.403 134.988 135.087 133.394 134.455C131.815 133.823 130.508 132.919 129.503 131.77L132.03 128.483C133.854 130.306 135.978 131.225 138.405 131.225C139.812 131.225 140.917 130.923 141.736 130.306C142.54 129.689 142.942 128.928 142.942 128.009C142.942 127.707 142.899 127.435 142.827 127.176C142.741 126.918 142.597 126.688 142.382 126.487C142.166 126.286 141.98 126.114 141.822 125.984C141.664 125.855 141.391 125.712 140.975 125.539C140.558 125.367 140.257 125.252 140.07 125.18C139.884 125.109 139.525 124.994 138.979 124.822C138.434 124.649 138.075 124.52 137.888 124.463C136.797 124.089 135.878 123.73 135.131 123.371C134.385 123.012 133.624 122.553 132.863 121.979C132.102 121.419 131.528 120.715 131.126 119.897C130.738 119.079 130.537 118.131 130.537 117.069C130.537 114.8 131.355 113.034 132.992 111.771C134.629 110.507 136.754 109.861 139.367 109.861C142.224 109.861 144.794 110.622 147.062 112.144L145.024 115.647C143.157 114.47 141.319 113.881 139.51 113.881C138.29 113.881 137.299 114.14 136.538 114.657C135.778 115.173 135.39 115.891 135.39 116.825C135.39 117.169 135.433 117.485 135.533 117.758C135.62 118.031 135.821 118.289 136.122 118.533C136.424 118.777 136.668 118.978 136.854 119.122C137.041 119.265 137.4 119.452 137.931 119.653C138.462 119.854 138.821 119.997 139.022 120.069C139.223 120.141 139.668 120.285 140.357 120.514C141.492 120.888 142.425 121.247 143.186 121.591C143.947 121.936 144.708 122.381 145.512 122.941C146.301 123.501 146.904 124.175 147.292 125.008C147.68 125.827 147.881 126.774 147.881 127.837C147.881 130.033 146.99 131.842 145.21 133.278C143.43 134.714 141.176 135.431 138.419 135.431" fill="black"/>
<path d="M138.405 135.403C136.653 135.403 134.988 135.087 133.394 134.455C131.815 133.823 130.508 132.919 129.503 131.77L132.03 128.483C133.854 130.306 135.978 131.225 138.405 131.225C139.812 131.225 140.917 130.923 141.736 130.306C142.54 129.689 142.942 128.928 142.942 128.009C142.942 127.707 142.899 127.435 142.827 127.176C142.741 126.918 142.597 126.688 142.382 126.487C142.166 126.286 141.98 126.114 141.822 125.984C141.664 125.855 141.391 125.712 140.975 125.539C140.558 125.367 140.257 125.252 140.07 125.18C139.884 125.109 139.525 124.994 138.979 124.822C138.434 124.649 138.075 124.52 137.888 124.463C136.797 124.089 135.878 123.73 135.131 123.371C134.385 123.012 133.624 122.553 132.863 121.979C132.102 121.419 131.528 120.715 131.126 119.897C130.738 119.079 130.537 118.131 130.537 117.069C130.537 114.8 131.355 113.034 132.992 111.771C134.629 110.507 136.754 109.861 139.367 109.861C142.224 109.861 144.794 110.622 147.062 112.144L145.024 115.647C143.157 114.47 141.319 113.881 139.51 113.881C138.29 113.881 137.299 114.14 136.538 114.657C135.778 115.173 135.39 115.891 135.39 116.825C135.39 117.169 135.433 117.485 135.533 117.758C135.62 118.031 135.821 118.289 136.122 118.533C136.424 118.777 136.668 118.978 136.854 119.122C137.041 119.265 137.4 119.452 137.931 119.653C138.462 119.854 138.821 119.997 139.022 120.069C139.223 120.141 139.668 120.285 140.357 120.514C141.492 120.888 142.425 121.247 143.186 121.591C143.947 121.936 144.708 122.381 145.512 122.941C146.301 123.501 146.904 124.175 147.292 125.008C147.68 125.827 147.881 126.774 147.881 127.837C147.881 130.033 146.99 131.842 145.21 133.278C143.43 134.714 141.176 135.431 138.419 135.431" fill="black" fill-opacity="0.2"/>
<path d="M193.709 117.055L168.756 111.068L195.101 103.387V110.149L193.723 117.055H193.709ZM187.966 123.042L164.707 120.142L160.673 113.422L167.019 111.57L193.163 117.844L187.951 123.056L187.966 123.042ZM176.279 128.928L169.043 125.31L185.927 124.104L176.279 128.928ZM169.919 135.03L169.388 132.661L176.164 129.948L178.404 132.187L169.904 135.016L169.919 135.03ZM172.015 144.477L170.105 135.906L178.289 133.178L172.015 144.477ZM162.439 138.461L169.258 136.193L171.153 144.692L162.439 138.476V138.461ZM164.721 134.24L168.555 132.963L169.072 135.303L162.568 137.471L164.721 134.24ZM169.215 131.771L168.024 125.784L175.202 129.373L169.215 131.771ZM165.08 121.06L183.572 123.372L167.377 124.535H166.229L165.066 121.06H165.08ZM158.088 111.068L159.625 113.365L163.659 120.084H160.342L158.088 111.068ZM153.02 102.655V102.597H153.006C153.006 102.597 152.992 102.568 152.977 102.554L146.33 91.657L148.354 88.1251L155.188 76.1943L156.581 108.254H154.427L153.035 102.669L153.02 102.655ZM145.555 100.903L144.478 96.5815L150.967 101.994L145.555 100.917V100.903ZM133.796 97.8736V96.8399C133.796 96.5959 133.595 96.3949 133.351 96.3949H129.187L126.948 91.9154L138.879 97.888H133.796V97.8736ZM129.259 86.7612L132.059 83.9615H134.93L127.666 89.1445L129.259 86.7612ZM145.827 92.5328L150.809 100.702L144.277 95.2606L145.813 92.5328H145.827ZM143.703 94.4854L136.768 83.3873V77.6875L145.311 91.657L143.717 94.4854H143.703ZM140.673 97.7731L126.818 90.8386L136.194 84.1338L143.157 95.275L140.673 97.7588V97.7731ZM133.796 72.3179L140.587 75.0314C140.587 75.0314 140.63 75.0457 140.644 75.0457H140.673C140.673 75.0457 140.731 75.0457 140.759 75.0457H154.801L146.646 89.2737L145.799 90.7525L136.696 75.8497C136.696 75.8497 136.668 75.8067 136.653 75.7923H136.639L136.61 75.7492H136.596L136.553 75.7062H136.538C136.538 75.7062 136.495 75.6775 136.481 75.6631C136.481 75.6631 136.452 75.6487 136.423 75.6487H136.409C136.409 75.6487 136.38 75.6487 136.366 75.6487H133.81V72.3035L133.796 72.3179ZM139.596 73.6818L134.643 71.7005L137.615 70.7099L139.596 73.6818ZM148.326 72.0738C148.455 72.0307 148.541 71.9159 148.584 71.7867C148.627 71.6574 148.598 71.5139 148.527 71.4134L146.904 68.987L154.169 74.17H143.056L148.311 72.0594L148.326 72.0738ZM152.489 64.7804L154.485 66.776H147.507L152.489 64.7804ZM152.288 69.8628C152.145 70.0064 152.116 70.2504 152.231 70.4227L153.853 72.8491L146.588 67.6662H154.499L152.302 69.8628H152.288ZM161.663 70.6237H165.741L167.09 71.9733C167.09 71.9733 167.133 72.0164 167.162 72.0307L169.474 73.567L160.874 71.4134L161.663 70.6237ZM170.134 68.3553L171.197 73.6531L170.823 73.3947L168.024 71.5282L170.148 68.3553H170.134ZM172.115 73.7105L171.082 68.5563L174.168 71.6431L172.115 73.6962V73.7105ZM193.637 80.9178L194.943 100.558L189.818 90.3218L184.463 79.6113L193.637 80.9178ZM202.61 85.2968L204.491 89.0583L196.953 82.4684L202.61 85.2968ZM195.934 101.879L194.685 83.1719L200.916 98.1464L195.92 101.894L195.934 101.879ZM167.019 110.58L157.887 108.383L183.601 79.8123L190.507 93.6239L194.915 102.439L194.828 102.468L167.019 110.58ZM160.199 112.575L158.045 109.345L165.296 111.082L160.199 112.575ZM157.442 107.55L156.035 75.1319L182.826 79.3673L157.457 107.565L157.442 107.55ZM160.084 72.1169L171.713 75.017L179.438 77.9172L156.753 74.3422L160.084 72.1169ZM201.533 97.2994L195.202 82.1095L205.324 90.9678L201.519 97.2994H201.533ZM201.835 98.5197L206.257 91.1258C206.314 91.054 206.343 90.9678 206.343 90.8673C206.343 90.7812 206.314 90.6951 206.271 90.6376L203.328 84.7512C203.285 84.665 203.213 84.5933 203.127 84.5502L194.254 80.1138H194.225C194.225 80.1138 194.211 80.0995 194.197 80.0851H194.125V80.0564L183.788 78.5776L172.632 74.3997L175.102 71.9302C175.188 71.8441 175.231 71.7292 175.231 71.6144C175.231 71.4995 175.188 71.3847 175.102 71.2985L170.665 66.8622C170.665 66.8622 170.637 66.8334 170.608 66.8191H170.594L170.55 66.7904H170.522L170.479 66.7617H170.378L170.349 66.7329H170.22L170.192 66.7617H170.163V66.7904H170.134L170.105 66.8191H170.077C170.077 66.8191 170.062 66.8478 170.048 66.8622H170.034C170.034 66.8622 170.019 66.9052 170.005 66.9196H169.991L167.334 70.9252L166.243 69.8341C166.157 69.7479 166.042 69.7049 165.927 69.7049H161.491C161.376 69.7049 161.261 69.7479 161.175 69.8341L159.725 71.2842L155.691 73.969L153.178 70.193L155.877 67.4939C155.877 67.4939 155.935 67.4221 155.964 67.379C155.964 67.379 156.021 67.2498 156.021 67.1637V67.1349C156.021 67.0632 155.992 67.0057 155.964 66.9483C155.964 66.9483 155.906 66.8622 155.877 66.8334L152.92 63.9764C152.791 63.8471 152.604 63.8184 152.446 63.8759L145.038 66.8334H145.009L144.98 66.8622H144.952L144.923 66.9052H144.909V66.9339L144.88 66.9627V66.9914H144.851V67.0201H144.837V67.0488H144.822C144.822 67.0488 144.822 67.0775 144.822 67.0919V67.1206H144.808V67.1637V67.1924V67.2354C144.808 67.2354 144.808 67.2498 144.808 67.2642V67.3359V67.4077H144.837V67.4508L144.865 67.4795V67.5082H144.88L147.536 71.4995L140.975 74.1269L138.218 69.9777C138.103 69.8054 137.902 69.7336 137.701 69.8054L133.265 71.2842C133.265 71.2842 133.222 71.2985 133.207 71.3129C133.207 71.3129 133.179 71.3272 133.164 71.3416H133.136L133.107 71.3847L133.078 71.4277C133.078 71.4277 133.035 71.5139 133.021 71.5426C133.021 71.5426 133.021 71.5857 133.021 71.6C133.021 71.6 133.021 71.6574 133.021 71.6718V76.1369C133.021 76.381 133.222 76.582 133.466 76.582H135.978V83.1001H131.987C131.872 83.1001 131.757 83.1432 131.671 83.2293L128.714 86.1869C128.714 86.1869 128.671 86.23 128.656 86.2587L125.699 90.6951V90.7238H125.67V90.7525V90.7812V90.8099V90.853V90.8961V90.9535C125.67 90.9535 125.67 90.9678 125.67 90.9822V91.054H125.684V91.1258H125.713L128.671 97.0696C128.742 97.2276 128.9 97.3137 129.073 97.3137H133.064V98.3474C133.064 98.5915 133.265 98.7925 133.509 98.7925H140.917C140.917 98.7925 140.96 98.7925 140.975 98.7925H141.003C141.104 98.7781 141.176 98.7207 141.247 98.6633L143.645 96.2656L144.937 101.42C144.98 101.592 145.11 101.721 145.282 101.75L152.403 103.171L153.81 108.814C153.853 109.015 154.04 109.144 154.241 109.144H156.854L159.725 120.658C159.768 120.859 159.955 120.989 160.156 120.989H164.276L165.655 125.124C165.712 125.31 165.884 125.425 166.071 125.425H167.191L168.526 132.087L164.463 133.436C164.362 133.465 164.291 133.523 164.233 133.609L161.276 138.045C161.276 138.045 161.261 138.088 161.247 138.102C161.247 138.102 161.233 138.146 161.218 138.174V138.232H161.204V138.26C161.204 138.26 161.204 138.289 161.204 138.303V138.332C161.204 138.332 161.204 138.361 161.204 138.375V138.404C161.204 138.404 161.204 138.433 161.218 138.447V138.476L161.247 138.504V138.533C161.247 138.533 161.276 138.562 161.276 138.576C161.276 138.576 161.319 138.634 161.333 138.662V138.691L171.713 146.099C171.713 146.099 171.742 146.114 171.742 146.128H171.771L171.814 146.157H171.843L171.871 146.171H171.9C171.9 146.171 171.943 146.171 171.957 146.171C171.957 146.171 172.001 146.171 172.015 146.171H172.029C172.029 146.171 172.058 146.171 172.072 146.171H172.101C172.101 146.171 172.13 146.157 172.13 146.142H172.158L172.187 146.114H172.216L172.245 146.071H172.259L172.288 146.028H172.302C172.302 146.028 172.316 145.985 172.331 145.97H172.345V145.941L179.753 132.618C179.753 132.618 179.768 132.575 179.782 132.561V132.503V132.417C179.782 132.417 179.782 132.388 179.782 132.374V132.345C179.782 132.345 179.782 132.317 179.782 132.302C179.782 132.302 179.782 132.245 179.768 132.23C179.768 132.23 179.753 132.173 179.739 132.159C179.739 132.159 179.725 132.116 179.71 132.101V132.072L177.169 129.546L188.454 123.903H188.483L188.511 123.86L188.54 123.831H188.569V123.803L194.484 117.888C194.484 117.888 194.513 117.844 194.527 117.83C194.527 117.83 194.556 117.773 194.556 117.744C194.556 117.744 194.57 117.687 194.584 117.658L196.063 110.25C196.063 110.25 196.063 110.192 196.063 110.163V102.985L201.806 98.6777C201.806 98.6777 201.835 98.6489 201.849 98.6346H201.863C201.863 98.6346 201.878 98.5915 201.892 98.5772H201.907" fill="black"/>
<path d="M193.709 117.055L168.756 111.068L195.101 103.387V110.149L193.723 117.055H193.709ZM187.966 123.042L164.707 120.142L160.673 113.422L167.019 111.57L193.163 117.844L187.951 123.056L187.966 123.042ZM176.279 128.928L169.043 125.31L185.927 124.104L176.279 128.928ZM169.919 135.03L169.388 132.661L176.164 129.948L178.404 132.187L169.904 135.016L169.919 135.03ZM172.015 144.477L170.105 135.906L178.289 133.178L172.015 144.477ZM162.439 138.461L169.258 136.193L171.153 144.692L162.439 138.476V138.461ZM164.721 134.24L168.555 132.963L169.072 135.303L162.568 137.471L164.721 134.24ZM169.215 131.771L168.024 125.784L175.202 129.373L169.215 131.771ZM165.08 121.06L183.572 123.372L167.377 124.535H166.229L165.066 121.06H165.08ZM158.088 111.068L159.625 113.365L163.659 120.084H160.342L158.088 111.068ZM153.02 102.655V102.597H153.006C153.006 102.597 152.992 102.568 152.977 102.554L146.33 91.657L148.354 88.1251L155.188 76.1943L156.581 108.254H154.427L153.035 102.669L153.02 102.655ZM145.555 100.903L144.478 96.5815L150.967 101.994L145.555 100.917V100.903ZM133.796 97.8736V96.8399C133.796 96.5959 133.595 96.3949 133.351 96.3949H129.187L126.948 91.9154L138.879 97.888H133.796V97.8736ZM129.259 86.7612L132.059 83.9615H134.93L127.666 89.1445L129.259 86.7612ZM145.827 92.5328L150.809 100.702L144.277 95.2606L145.813 92.5328H145.827ZM143.703 94.4854L136.768 83.3873V77.6875L145.311 91.657L143.717 94.4854H143.703ZM140.673 97.7731L126.818 90.8386L136.194 84.1338L143.157 95.275L140.673 97.7588V97.7731ZM133.796 72.3179L140.587 75.0314C140.587 75.0314 140.63 75.0457 140.644 75.0457H140.673C140.673 75.0457 140.731 75.0457 140.759 75.0457H154.801L146.646 89.2737L145.799 90.7525L136.696 75.8497C136.696 75.8497 136.668 75.8067 136.653 75.7923H136.639L136.61 75.7492H136.596L136.553 75.7062H136.538C136.538 75.7062 136.495 75.6775 136.481 75.6631C136.481 75.6631 136.452 75.6487 136.423 75.6487H136.409C136.409 75.6487 136.38 75.6487 136.366 75.6487H133.81V72.3035L133.796 72.3179ZM139.596 73.6818L134.643 71.7005L137.615 70.7099L139.596 73.6818ZM148.326 72.0738C148.455 72.0307 148.541 71.9159 148.584 71.7867C148.627 71.6574 148.598 71.5139 148.527 71.4134L146.904 68.987L154.169 74.17H143.056L148.311 72.0594L148.326 72.0738ZM152.489 64.7804L154.485 66.776H147.507L152.489 64.7804ZM152.288 69.8628C152.145 70.0064 152.116 70.2504 152.231 70.4227L153.853 72.8491L146.588 67.6662H154.499L152.302 69.8628H152.288ZM161.663 70.6237H165.741L167.09 71.9733C167.09 71.9733 167.133 72.0164 167.162 72.0307L169.474 73.567L160.874 71.4134L161.663 70.6237ZM170.134 68.3553L171.197 73.6531L170.823 73.3947L168.024 71.5282L170.148 68.3553H170.134ZM172.115 73.7105L171.082 68.5563L174.168 71.6431L172.115 73.6962V73.7105ZM193.637 80.9178L194.943 100.558L189.818 90.3218L184.463 79.6113L193.637 80.9178ZM202.61 85.2968L204.491 89.0583L196.953 82.4684L202.61 85.2968ZM195.934 101.879L194.685 83.1719L200.916 98.1464L195.92 101.894L195.934 101.879ZM167.019 110.58L157.887 108.383L183.601 79.8123L190.507 93.6239L194.915 102.439L194.828 102.468L167.019 110.58ZM160.199 112.575L158.045 109.345L165.296 111.082L160.199 112.575ZM157.442 107.55L156.035 75.1319L182.826 79.3673L157.457 107.565L157.442 107.55ZM160.084 72.1169L171.713 75.017L179.438 77.9172L156.753 74.3422L160.084 72.1169ZM201.533 97.2994L195.202 82.1095L205.324 90.9678L201.519 97.2994H201.533ZM201.835 98.5197L206.257 91.1258C206.314 91.054 206.343 90.9678 206.343 90.8673C206.343 90.7812 206.314 90.6951 206.271 90.6376L203.328 84.7512C203.285 84.665 203.213 84.5933 203.127 84.5502L194.254 80.1138H194.225C194.225 80.1138 194.211 80.0995 194.197 80.0851H194.125V80.0564L183.788 78.5776L172.632 74.3997L175.102 71.9302C175.188 71.8441 175.231 71.7292 175.231 71.6144C175.231 71.4995 175.188 71.3847 175.102 71.2985L170.665 66.8622C170.665 66.8622 170.637 66.8334 170.608 66.8191H170.594L170.55 66.7904H170.522L170.479 66.7617H170.378L170.349 66.7329H170.22L170.192 66.7617H170.163V66.7904H170.134L170.105 66.8191H170.077C170.077 66.8191 170.062 66.8478 170.048 66.8622H170.034C170.034 66.8622 170.019 66.9052 170.005 66.9196H169.991L167.334 70.9252L166.243 69.8341C166.157 69.7479 166.042 69.7049 165.927 69.7049H161.491C161.376 69.7049 161.261 69.7479 161.175 69.8341L159.725 71.2842L155.691 73.969L153.178 70.193L155.877 67.4939C155.877 67.4939 155.935 67.4221 155.964 67.379C155.964 67.379 156.021 67.2498 156.021 67.1637V67.1349C156.021 67.0632 155.992 67.0057 155.964 66.9483C155.964 66.9483 155.906 66.8622 155.877 66.8334L152.92 63.9764C152.791 63.8471 152.604 63.8184 152.446 63.8759L145.038 66.8334H145.009L144.98 66.8622H144.952L144.923 66.9052H144.909V66.9339L144.88 66.9627V66.9914H144.851V67.0201H144.837V67.0488H144.822C144.822 67.0488 144.822 67.0775 144.822 67.0919V67.1206H144.808V67.1637V67.1924V67.2354C144.808 67.2354 144.808 67.2498 144.808 67.2642V67.3359V67.4077H144.837V67.4508L144.865 67.4795V67.5082H144.88L147.536 71.4995L140.975 74.1269L138.218 69.9777C138.103 69.8054 137.902 69.7336 137.701 69.8054L133.265 71.2842C133.265 71.2842 133.222 71.2985 133.207 71.3129C133.207 71.3129 133.179 71.3272 133.164 71.3416H133.136L133.107 71.3847L133.078 71.4277C133.078 71.4277 133.035 71.5139 133.021 71.5426C133.021 71.5426 133.021 71.5857 133.021 71.6C133.021 71.6 133.021 71.6574 133.021 71.6718V76.1369C133.021 76.381 133.222 76.582 133.466 76.582H135.978V83.1001H131.987C131.872 83.1001 131.757 83.1432 131.671 83.2293L128.714 86.1869C128.714 86.1869 128.671 86.23 128.656 86.2587L125.699 90.6951V90.7238H125.67V90.7525V90.7812V90.8099V90.853V90.8961V90.9535C125.67 90.9535 125.67 90.9678 125.67 90.9822V91.054H125.684V91.1258H125.713L128.671 97.0696C128.742 97.2276 128.9 97.3137 129.073 97.3137H133.064V98.3474C133.064 98.5915 133.265 98.7925 133.509 98.7925H140.917C140.917 98.7925 140.96 98.7925 140.975 98.7925H141.003C141.104 98.7781 141.176 98.7207 141.247 98.6633L143.645 96.2656L144.937 101.42C144.98 101.592 145.11 101.721 145.282 101.75L152.403 103.171L153.81 108.814C153.853 109.015 154.04 109.144 154.241 109.144H156.854L159.725 120.658C159.768 120.859 159.955 120.989 160.156 120.989H164.276L165.655 125.124C165.712 125.31 165.884 125.425 166.071 125.425H167.191L168.526 132.087L164.463 133.436C164.362 133.465 164.291 133.523 164.233 133.609L161.276 138.045C161.276 138.045 161.261 138.088 161.247 138.102C161.247 138.102 161.233 138.146 161.218 138.174V138.232H161.204V138.26C161.204 138.26 161.204 138.289 161.204 138.303V138.332C161.204 138.332 161.204 138.361 161.204 138.375V138.404C161.204 138.404 161.204 138.433 161.218 138.447V138.476L161.247 138.504V138.533C161.247 138.533 161.276 138.562 161.276 138.576C161.276 138.576 161.319 138.634 161.333 138.662V138.691L171.713 146.099C171.713 146.099 171.742 146.114 171.742 146.128H171.771L171.814 146.157H171.843L171.871 146.171H171.9C171.9 146.171 171.943 146.171 171.957 146.171C171.957 146.171 172.001 146.171 172.015 146.171H172.029C172.029 146.171 172.058 146.171 172.072 146.171H172.101C172.101 146.171 172.13 146.157 172.13 146.142H172.158L172.187 146.114H172.216L172.245 146.071H172.259L172.288 146.028H172.302C172.302 146.028 172.316 145.985 172.331 145.97H172.345V145.941L179.753 132.618C179.753 132.618 179.768 132.575 179.782 132.561V132.503V132.417C179.782 132.417 179.782 132.388 179.782 132.374V132.345C179.782 132.345 179.782 132.317 179.782 132.302C179.782 132.302 179.782 132.245 179.768 132.23C179.768 132.23 179.753 132.173 179.739 132.159C179.739 132.159 179.725 132.116 179.71 132.101V132.072L177.169 129.546L188.454 123.903H188.483L188.511 123.86L188.54 123.831H188.569V123.803L194.484 117.888C194.484 117.888 194.513 117.844 194.527 117.83C194.527 117.83 194.556 117.773 194.556 117.744C194.556 117.744 194.57 117.687 194.584 117.658L196.063 110.25C196.063 110.25 196.063 110.192 196.063 110.163V102.985L201.806 98.6777C201.806 98.6777 201.835 98.6489 201.849 98.6346H201.863C201.863 98.6346 201.878 98.5915 201.892 98.5772H201.907" fill="black" fill-opacity="0.2"/>
<path d="M27.5677 90.9824H26.0171V100.573H27.5677V90.9824Z" fill="black"/>
<path d="M27.5677 90.9824H26.0171V100.573H27.5677V90.9824Z" fill="black" fill-opacity="0.2"/>
<path d="M36.4114 90.9819H37.8471V100.127C37.8471 100.285 37.7754 100.415 37.6174 100.515C37.4595 100.616 37.2729 100.659 37.0575 100.659C36.6124 100.659 36.2966 100.501 36.0812 100.185L31.3146 93.437V100.558H29.8789V91.5419C29.8789 91.3409 29.9507 91.1829 30.1086 91.0681C30.2665 90.9676 30.4676 90.9102 30.7116 90.9102C31.0131 90.9102 31.2285 90.9532 31.3577 91.0537C31.5013 91.1542 31.6592 91.3265 31.8315 91.5706L36.4114 97.9452V90.9676V90.9819Z" fill="black"/>
<path d="M36.4114 90.9819H37.8471V100.127C37.8471 100.285 37.7754 100.415 37.6174 100.515C37.4595 100.616 37.2729 100.659 37.0575 100.659C36.6124 100.659 36.2966 100.501 36.0812 100.185L31.3146 93.437V100.558H29.8789V91.5419C29.8789 91.3409 29.9507 91.1829 30.1086 91.0681C30.2665 90.9676 30.4676 90.9102 30.7116 90.9102C31.0131 90.9102 31.2285 90.9532 31.3577 91.0537C31.5013 91.1542 31.6592 91.3265 31.8315 91.5706L36.4114 97.9452V90.9676V90.9819Z" fill="black" fill-opacity="0.2"/>
<path d="M42.7288 100.716C42.054 100.716 41.4223 100.587 40.8337 100.329C40.2307 100.07 39.7569 99.7113 39.3979 99.2519L40.2881 98.2469C40.9485 98.9934 41.7669 99.3811 42.7575 99.3811C43.3462 99.3811 43.82 99.2519 44.1789 98.9791C44.5378 98.7063 44.7101 98.3474 44.7101 97.931C44.7101 97.8162 44.6957 97.7013 44.6527 97.6008C44.624 97.5003 44.5809 97.3998 44.5378 97.328C44.4947 97.2562 44.423 97.1701 44.3225 97.0983C44.222 97.0265 44.1358 96.9547 44.064 96.9117C43.9922 96.8686 43.8774 96.8112 43.7338 96.7537C43.5759 96.6963 43.461 96.6389 43.3749 96.6102C43.2887 96.5814 43.1452 96.524 42.9585 96.4666C42.7719 96.3948 42.6283 96.3517 42.5278 96.3087C42.1115 96.1651 41.7525 96.0359 41.4797 95.8923C41.207 95.7631 40.9198 95.5908 40.6327 95.3754C40.3455 95.1601 40.1158 94.9017 39.9722 94.6002C39.8287 94.2987 39.7569 93.9397 39.7569 93.5377C39.7569 92.6763 40.0584 92.0159 40.6901 91.5421C41.3075 91.0683 42.0971 90.8242 43.0734 90.8242C44.1215 90.8242 45.069 91.1257 45.9161 91.7144L45.2126 92.8342C44.4947 92.3604 43.7912 92.1164 43.0734 92.1164C42.5422 92.1164 42.1115 92.2312 41.7812 92.4609C41.451 92.6907 41.2787 93.0209 41.2787 93.4372C41.2787 93.5952 41.2931 93.7387 41.3362 93.8679C41.3792 93.9972 41.4654 94.112 41.5802 94.2125C41.7095 94.313 41.81 94.3992 41.8817 94.4566C41.9535 94.514 42.1115 94.5858 42.3412 94.6863C42.5709 94.7868 42.7288 94.8442 42.8006 94.8729C42.8724 94.9017 43.059 94.9591 43.3605 95.0596C43.8056 95.2175 44.1645 95.3467 44.4086 95.4616C44.6527 95.5764 44.9542 95.7344 45.2844 95.9641C45.6146 96.1794 45.8587 96.4522 46.0166 96.7681C46.1745 97.0839 46.2463 97.4429 46.2463 97.8736C46.2463 98.735 45.9161 99.4242 45.2413 99.9554C44.5665 100.487 43.7338 100.745 42.7145 100.745" fill="black"/>
<path d="M42.7288 100.716C42.054 100.716 41.4223 100.587 40.8337 100.329C40.2307 100.07 39.7569 99.7113 39.3979 99.2519L40.2881 98.2469C40.9485 98.9934 41.7669 99.3811 42.7575 99.3811C43.3462 99.3811 43.82 99.2519 44.1789 98.9791C44.5378 98.7063 44.7101 98.3474 44.7101 97.931C44.7101 97.8162 44.6957 97.7013 44.6527 97.6008C44.624 97.5003 44.5809 97.3998 44.5378 97.328C44.4947 97.2562 44.423 97.1701 44.3225 97.0983C44.222 97.0265 44.1358 96.9547 44.064 96.9117C43.9922 96.8686 43.8774 96.8112 43.7338 96.7537C43.5759 96.6963 43.461 96.6389 43.3749 96.6102C43.2887 96.5814 43.1452 96.524 42.9585 96.4666C42.7719 96.3948 42.6283 96.3517 42.5278 96.3087C42.1115 96.1651 41.7525 96.0359 41.4797 95.8923C41.207 95.7631 40.9198 95.5908 40.6327 95.3754C40.3455 95.1601 40.1158 94.9017 39.9722 94.6002C39.8287 94.2987 39.7569 93.9397 39.7569 93.5377C39.7569 92.6763 40.0584 92.0159 40.6901 91.5421C41.3075 91.0683 42.0971 90.8242 43.0734 90.8242C44.1215 90.8242 45.069 91.1257 45.9161 91.7144L45.2126 92.8342C44.4947 92.3604 43.7912 92.1164 43.0734 92.1164C42.5422 92.1164 42.1115 92.2312 41.7812 92.4609C41.451 92.6907 41.2787 93.0209 41.2787 93.4372C41.2787 93.5952 41.2931 93.7387 41.3362 93.8679C41.3792 93.9972 41.4654 94.112 41.5802 94.2125C41.7095 94.313 41.81 94.3992 41.8817 94.4566C41.9535 94.514 42.1115 94.5858 42.3412 94.6863C42.5709 94.7868 42.7288 94.8442 42.8006 94.8729C42.8724 94.9017 43.059 94.9591 43.3605 95.0596C43.8056 95.2175 44.1645 95.3467 44.4086 95.4616C44.6527 95.5764 44.9542 95.7344 45.2844 95.9641C45.6146 96.1794 45.8587 96.4522 46.0166 96.7681C46.1745 97.0839 46.2463 97.4429 46.2463 97.8736C46.2463 98.735 45.9161 99.4242 45.2413 99.9554C44.5665 100.487 43.7338 100.745 42.7145 100.745" fill="black" fill-opacity="0.2"/>
<path d="M54.1283 90.9824V92.3033H51.2856V100.573H49.735V92.3033H46.8779V90.9824H54.1283Z" fill="black"/>
<path d="M54.1283 90.9824V92.3033H51.2856V100.573H49.735V92.3033H46.8779V90.9824H54.1283Z" fill="black" fill-opacity="0.2"/>
<path d="M57.1863 90.9824H55.6357V100.573H57.1863V90.9824Z" fill="black"/>
<path d="M57.1863 90.9824H55.6357V100.573H57.1863V90.9824Z" fill="black" fill-opacity="0.2"/>
<path d="M65.8295 90.9824V92.3033H62.9868V100.573H61.4362V92.3033H58.5791V90.9824H65.8295Z" fill="black"/>
<path d="M65.8295 90.9824V92.3033H62.9868V100.573H61.4362V92.3033H58.5791V90.9824H65.8295Z" fill="black" fill-opacity="0.2"/>
<path d="M71.1847 100.715C70.0505 100.715 69.1603 100.414 68.5286 99.7965C67.8969 99.1791 67.5811 98.3464 67.5811 97.2983V90.9668H69.146V97.2983C69.146 97.9157 69.3039 98.4038 69.6341 98.7771C69.95 99.1504 70.4812 99.3227 71.1991 99.3227C72.563 99.3227 73.2521 98.6479 73.2521 97.2983V90.9668H74.8027V97.2983C74.8027 98.3464 74.4869 99.1791 73.8551 99.7965C73.2234 100.414 72.3476 100.715 71.1991 100.715" fill="black"/>
<path d="M71.1847 100.715C70.0505 100.715 69.1603 100.414 68.5286 99.7965C67.8969 99.1791 67.5811 98.3464 67.5811 97.2983V90.9668H69.146V97.2983C69.146 97.9157 69.3039 98.4038 69.6341 98.7771C69.95 99.1504 70.4812 99.3227 71.1991 99.3227C72.563 99.3227 73.2521 98.6479 73.2521 97.2983V90.9668H74.8027V97.2983C74.8027 98.3464 74.4869 99.1791 73.8551 99.7965C73.2234 100.414 72.3476 100.715 71.1991 100.715" fill="black" fill-opacity="0.2"/>
<path d="M83.3451 90.9824V92.3033H80.5024V100.573H78.9518V92.3033H76.0947V90.9824H83.3451Z" fill="black"/>
<path d="M83.3451 90.9824V92.3033H80.5024V100.573H78.9518V92.3033H76.0947V90.9824H83.3451Z" fill="black" fill-opacity="0.2"/>
<path d="M88.4706 99.3231C89.3894 99.3231 90.1217 99.0072 90.6816 98.3899C91.2415 97.7725 91.5143 96.8967 91.5143 95.7769C91.5143 94.657 91.2272 93.7669 90.6816 93.1495C90.1217 92.5178 89.3894 92.2163 88.4706 92.2163C87.5517 92.2163 86.7908 92.5321 86.2309 93.1495C85.6709 93.7812 85.3981 94.657 85.3981 95.7769C85.3981 96.8967 85.6709 97.7725 86.2309 98.3899C86.7908 99.0072 87.5374 99.3231 88.4706 99.3231ZM91.8158 99.3662C90.9544 100.271 89.8345 100.716 88.4562 100.716C87.0779 100.716 85.9437 100.271 85.0966 99.3662C84.2352 98.4617 83.8188 97.27 83.8188 95.7912C83.8188 94.3124 84.2496 93.0921 85.0966 92.1732C85.9581 91.2544 87.0779 90.7949 88.4706 90.7949C89.8632 90.7949 90.9831 91.2544 91.8302 92.1732C92.6772 93.0921 93.1079 94.2837 93.1079 95.7912C93.1079 97.2987 92.6772 98.4617 91.8302 99.3662" fill="black"/>
<path d="M88.4706 99.3231C89.3894 99.3231 90.1217 99.0072 90.6816 98.3899C91.2415 97.7725 91.5143 96.8967 91.5143 95.7769C91.5143 94.657 91.2272 93.7669 90.6816 93.1495C90.1217 92.5178 89.3894 92.2163 88.4706 92.2163C87.5517 92.2163 86.7908 92.5321 86.2309 93.1495C85.6709 93.7812 85.3981 94.657 85.3981 95.7769C85.3981 96.8967 85.6709 97.7725 86.2309 98.3899C86.7908 99.0072 87.5374 99.3231 88.4706 99.3231ZM91.8158 99.3662C90.9544 100.271 89.8345 100.716 88.4562 100.716C87.0779 100.716 85.9437 100.271 85.0966 99.3662C84.2352 98.4617 83.8188 97.27 83.8188 95.7912C83.8188 94.3124 84.2496 93.0921 85.0966 92.1732C85.9581 91.2544 87.0779 90.7949 88.4706 90.7949C89.8632 90.7949 90.9831 91.2544 91.8302 92.1732C92.6772 93.0921 93.1079 94.2837 93.1079 95.7912C93.1079 97.2987 92.6772 98.4617 91.8302 99.3662" fill="black" fill-opacity="0.2"/>
</g>
<defs>
<clipPath id="clip0_4346_476">
<rect width="180.326" height="82.3097" fill="white" transform="translate(26.0171 63.8457)"/>
</clipPath>
</defs>
</svg>
