<svg width="232" height="231" viewBox="0 0 232 231" fill="none" xmlns="http://www.w3.org/2000/svg">
<rect x="0.100098" y="0.478516" width="231" height="230" rx="10" fill="#FAF9FA"/>
<path fill-rule="evenodd" clip-rule="evenodd" d="M106.265 134.251L126.673 134.268V137.658H106.265V134.251ZM106.265 86.6381H126.673V90.0451L106.265 90.0281V86.6381ZM65.4494 134.251H85.8572V137.658H65.4494V134.251ZM53.559 86.6381H56.966H94.3747V90.0451H77.3738V125.682H73.9668V90.0451H56.949V125.75H53.542V86.6381H53.559ZM94.3576 106.058L115.276 126.977L117.661 124.558L97.7646 104.644V98.5456H94.3576V106.058ZM138.58 118.238V125.75H135.173V119.652L115.276 99.721L117.661 97.319L138.58 118.238ZM147.064 86.6381H167.471V90.0451L147.064 90.0281V86.6381ZM138.563 134.251V137.658H158.971V120.657H179.379V98.5456H175.972V117.25H158.971V98.5456H155.564V134.251H138.563ZM106.265 86.6381C100.03 86.6381 94.3576 92.0041 94.3576 98.5285H97.7646C97.7646 93.6906 101.717 90.0281 106.265 90.0281C106.248 88.4098 106.248 87.8817 106.265 86.6381ZM56.949 125.75H53.542C53.542 132.309 58.891 137.658 65.4494 137.658V134.251C60.7818 134.251 56.949 130.418 56.949 125.75ZM175.972 98.5456H179.379C179.379 91.9871 174.03 86.6381 167.471 86.6381V90.0451C172.156 90.0451 175.972 93.861 175.972 98.5456ZM135.156 125.75C135.156 130.435 131.34 134.268 126.656 134.268V137.658C133.214 137.658 138.563 132.309 138.563 125.75H135.156ZM135.156 98.5456H136.86V92.43C134.781 88.9719 130.983 86.6381 126.656 86.6381V90.0451C131.34 90.0451 135.156 93.861 135.156 98.5456ZM138.563 98.5285C138.563 93.8439 142.379 90.0281 147.064 90.0281V86.6211C142.737 86.6211 138.955 88.9378 136.86 92.413V98.5285H138.563ZM97.7646 125.75C97.7646 130.435 101.58 134.251 106.265 134.251V137.658C101.938 137.658 98.1564 135.341 96.0611 131.883V125.767H97.7646V125.75ZM94.3576 125.75C94.3576 130.435 90.5418 134.251 85.8572 134.251V137.658C90.1841 137.658 93.9658 135.341 96.0611 131.883V125.767H94.3576V125.75Z" fill="black"/>
<path fill-rule="evenodd" clip-rule="evenodd" d="M106.265 134.251L126.673 134.268V137.658H106.265V134.251ZM106.265 86.6381H126.673V90.0451L106.265 90.0281V86.6381ZM65.4494 134.251H85.8572V137.658H65.4494V134.251ZM53.559 86.6381H56.966H94.3747V90.0451H77.3738V125.682H73.9668V90.0451H56.949V125.75H53.542V86.6381H53.559ZM94.3576 106.058L115.276 126.977L117.661 124.558L97.7646 104.644V98.5456H94.3576V106.058ZM138.58 118.238V125.75H135.173V119.652L115.276 99.721L117.661 97.319L138.58 118.238ZM147.064 86.6381H167.471V90.0451L147.064 90.0281V86.6381ZM138.563 134.251V137.658H158.971V120.657H179.379V98.5456H175.972V117.25H158.971V98.5456H155.564V134.251H138.563ZM106.265 86.6381C100.03 86.6381 94.3576 92.0041 94.3576 98.5285H97.7646C97.7646 93.6906 101.717 90.0281 106.265 90.0281C106.248 88.4098 106.248 87.8817 106.265 86.6381ZM56.949 125.75H53.542C53.542 132.309 58.891 137.658 65.4494 137.658V134.251C60.7818 134.251 56.949 130.418 56.949 125.75ZM175.972 98.5456H179.379C179.379 91.9871 174.03 86.6381 167.471 86.6381V90.0451C172.156 90.0451 175.972 93.861 175.972 98.5456ZM135.156 125.75C135.156 130.435 131.34 134.268 126.656 134.268V137.658C133.214 137.658 138.563 132.309 138.563 125.75H135.156ZM135.156 98.5456H136.86V92.43C134.781 88.9719 130.983 86.6381 126.656 86.6381V90.0451C131.34 90.0451 135.156 93.861 135.156 98.5456ZM138.563 98.5285C138.563 93.8439 142.379 90.0281 147.064 90.0281V86.6211C142.737 86.6211 138.955 88.9378 136.86 92.413V98.5285H138.563ZM97.7646 125.75C97.7646 130.435 101.58 134.251 106.265 134.251V137.658C101.938 137.658 98.1564 135.341 96.0611 131.883V125.767H97.7646V125.75ZM94.3576 125.75C94.3576 130.435 90.5418 134.251 85.8572 134.251V137.658C90.1841 137.658 93.9658 135.341 96.0611 131.883V125.767H94.3576V125.75Z" fill="black" fill-opacity="0.2"/>
</svg>
