<svg width="28" height="20" viewBox="0 0 28 20" fill="none" xmlns="http://www.w3.org/2000/svg">
<path d="M13.3728 1.15607C10.878 2.4149 9.0866 3.73796 7.99847 5.12524C6.91034 6.51252 6.36627 8.02826 6.36627 9.67245C6.36627 10.5973 6.64494 11.368 7.20228 11.9846C7.75961 12.6012 8.39657 13.115 9.11314 13.526C9.85626 13.9114 10.5065 14.2325 11.0638 14.4894C11.6212 14.7206 11.8998 14.9261 11.8998 15.106C11.8998 16.5189 11.4221 17.6879 10.4667 18.6127C9.51124 19.5376 8.27714 20 6.76437 20C5.06582 20 3.67248 19.4477 2.58435 18.343C1.49621 17.2383 0.952148 15.6455 0.952148 13.5646C0.952148 11.8433 1.37679 10.1734 2.22606 8.55491C3.07533 6.93642 4.36252 5.40784 6.0876 3.96917C7.81269 2.50482 9.97569 1.18176 12.5766 0L13.3728 1.15607ZM27.6645 1.15607C25.1697 2.4149 23.3783 3.73796 22.2902 5.12524C21.202 6.51252 20.658 8.02826 20.658 9.67245C20.658 10.5973 20.9366 11.368 21.494 11.9846C22.0513 12.6012 22.6883 13.115 23.4048 13.526C24.1479 13.9114 24.7982 14.2325 25.3555 14.4894C25.9128 14.7206 26.1915 14.9261 26.1915 15.106C26.1915 16.5189 25.7138 17.6879 24.7584 18.6127C23.8029 19.5376 22.5688 20 21.0561 20C19.3575 20 17.9642 19.4477 16.876 18.343C15.7879 17.2383 15.2438 15.6455 15.2438 13.5646C15.2438 11.8433 15.6685 10.1734 16.5178 8.55491C17.367 6.93642 18.6542 5.40784 20.3793 3.96917C22.1044 2.50482 24.2674 1.18176 26.8683 0L27.6645 1.15607Z" fill="#DDC7F9"/>
</svg>
