<svg width="113" height="49" viewBox="0 0 113 49" fill="none" xmlns="http://www.w3.org/2000/svg">
<path d="M78.4261 31.2461C77.2634 31.2461 76.5672 30.4505 76.5672 29.1271C76.5672 27.7501 77.2863 26.9928 78.4261 26.9928C79.5889 26.9928 80.285 27.8037 80.285 29.1271C80.285 30.4964 79.5659 31.2461 78.4261 31.2461ZM78.4261 30.6647C79.1834 30.6647 79.5965 30.1216 79.5965 29.1271C79.5965 28.1403 79.1758 27.5742 78.4261 27.5742C77.6688 27.5742 77.2557 28.125 77.2557 29.1271C77.2557 30.1063 77.6764 30.6647 78.4261 30.6647ZM82.5208 31.2461C81.4422 31.2461 80.7919 30.4505 80.7919 29.1271C80.7919 27.7501 81.4575 26.9928 82.5208 26.9928C83.0027 26.9928 83.3928 27.1917 83.6606 27.5666V25.6465H84.3338V31.1543H83.6606V30.6418C83.3928 31.0243 83.0027 31.2461 82.5208 31.2461ZM82.5667 30.6647C83.2781 30.6647 83.6606 30.1216 83.6606 29.1271C83.6606 28.1403 83.2628 27.5742 82.5667 27.5742C81.8629 27.5742 81.4804 28.125 81.4804 29.1271C81.4804 30.1063 81.8782 30.6647 82.5667 30.6647ZM86.7754 31.2461C85.6967 31.2461 85.0465 30.4505 85.0465 29.1271C85.0465 27.7501 85.712 26.9928 86.7754 26.9928C87.2573 26.9928 87.6474 27.1917 87.9152 27.5666V25.6465H88.5884V31.1543H87.9152V30.6418C87.6474 31.0243 87.2573 31.2461 86.7754 31.2461ZM86.8213 30.6647C87.5327 30.6647 87.9152 30.1216 87.9152 29.1271C87.9152 28.1403 87.5174 27.5742 86.8213 27.5742C86.1175 27.5742 85.735 28.125 85.735 29.1271C85.735 30.1063 86.1328 30.6647 86.8213 30.6647ZM93.4201 28.1053C93.3682 27.9851 93.2903 27.8908 93.1865 27.8225C93.0854 27.7542 92.9652 27.7201 92.8259 27.7201C92.61 27.7201 92.4065 27.7816 92.2152 27.9045C92.024 28.0275 91.8478 28.19 91.6866 28.3922C91.5281 28.5916 91.3902 28.8075 91.2727 29.0397C91.1579 29.2692 91.0691 29.4932 91.0063 29.7118C90.9435 29.9276 90.9121 30.1147 90.9121 30.2732C90.9121 30.4207 90.9517 30.5314 91.0309 30.6052C91.1129 30.6762 91.2194 30.7117 91.3506 30.7117C91.4462 30.7117 91.5609 30.6762 91.6948 30.6052C91.8287 30.5314 91.968 30.4317 92.1128 30.306C92.2576 30.1776 92.3997 30.0287 92.539 29.8593C92.6811 29.6899 92.8081 29.5055 92.9201 29.3061C93.0349 29.1066 93.125 28.9003 93.1906 28.6872L94.0348 25.9579C93.9856 25.9224 93.9283 25.8855 93.8627 25.8473C93.7998 25.809 93.7315 25.7721 93.6578 25.7366C93.584 25.7011 93.5075 25.6697 93.4283 25.6424L93.4734 25.4784L94.7397 25.2489H94.8626L93.0799 30.8551L92.9734 30.6625C93.0772 30.6762 93.1947 30.668 93.3258 30.6379C93.457 30.6052 93.5963 30.5505 93.7438 30.474C93.8941 30.3975 94.043 30.3005 94.1905 30.183L94.3258 30.3716C93.987 30.7049 93.6974 30.933 93.457 31.0559C93.2193 31.1762 93.013 31.2363 92.8382 31.2363C92.7016 31.2363 92.6046 31.2076 92.5472 31.1502C92.4926 31.0928 92.4844 31.0109 92.5226 30.9043L93.0226 29.4741H93.0595C92.8218 29.8265 92.6073 30.1175 92.4161 30.347C92.2275 30.5737 92.0568 30.7513 91.9038 30.8797C91.7508 31.0081 91.6087 31.0983 91.4776 31.1502C91.3465 31.2021 91.2208 31.2281 91.1006 31.2281C90.9312 31.2281 90.7823 31.1966 90.6539 31.1338C90.5255 31.071 90.4257 30.974 90.3547 30.8428C90.2837 30.7117 90.2482 30.545 90.2482 30.3429C90.2482 30.1161 90.2905 29.8689 90.3752 29.6011C90.4599 29.3334 90.5787 29.0684 90.7317 28.8061C90.8875 28.5411 91.0691 28.3007 91.2768 28.0848C91.4844 27.8663 91.7125 27.6914 91.9612 27.5603C92.2098 27.4264 92.4707 27.3595 92.7439 27.3595C92.9433 27.3595 93.1059 27.4032 93.2316 27.4906C93.3572 27.578 93.4583 27.7051 93.5348 27.8717L93.4201 28.1053ZM96.4143 30.9043L96.9102 29.4741H96.9471C96.7121 29.8238 96.5017 30.1134 96.316 30.3429C96.1302 30.5724 95.9608 30.7513 95.8078 30.8797C95.6575 31.0081 95.5182 31.0983 95.3898 31.1502C95.2614 31.2021 95.1371 31.2281 95.0169 31.2281C94.8475 31.2281 94.6986 31.1966 94.5702 31.1338C94.4418 31.071 94.3421 30.9753 94.271 30.8469C94.2 30.7185 94.1645 30.5532 94.1645 30.3511C94.1645 30.127 94.2068 29.8825 94.2915 29.6175C94.3762 29.3498 94.4937 29.0861 94.6439 28.8266C94.7969 28.5643 94.9759 28.3252 95.1808 28.1094C95.3884 27.8908 95.6152 27.7174 95.8611 27.589C96.107 27.4578 96.3638 27.3922 96.6315 27.3922C96.8337 27.3922 96.9962 27.436 97.1192 27.5234C97.2449 27.6081 97.3473 27.7338 97.4265 27.9004L97.3118 28.134C97.2572 28.0111 97.1793 27.9168 97.0782 27.8512C96.9771 27.7829 96.8555 27.7488 96.7135 27.7488C96.5031 27.7488 96.3037 27.8103 96.1152 27.9332C95.9266 28.0561 95.7532 28.2173 95.5947 28.4168C95.439 28.6135 95.3037 28.8266 95.189 29.0561C95.0742 29.2856 94.9855 29.5082 94.9226 29.7241C94.8598 29.9399 94.8284 30.1257 94.8284 30.2814C94.8284 30.4262 94.868 30.5341 94.9472 30.6052C95.0292 30.6762 95.1357 30.7117 95.2669 30.7117C95.3816 30.7117 95.5209 30.6598 95.6849 30.556C95.8515 30.4522 96.0223 30.3115 96.1971 30.1339C96.372 29.9536 96.5345 29.7473 96.6848 29.5151C96.8378 29.2828 96.958 29.0397 97.0454 28.7856L97.4102 27.675L97.906 27.4291H98.115L96.9717 30.8551L96.8651 30.6625C96.9662 30.6762 97.0823 30.668 97.2134 30.6379C97.3473 30.6052 97.488 30.5505 97.6356 30.474C97.7831 30.3975 97.932 30.3005 98.0822 30.183L98.2175 30.3716C97.8787 30.7049 97.5891 30.933 97.3487 31.0559C97.111 31.1762 96.9047 31.2363 96.7299 31.2363C96.5905 31.2363 96.4936 31.2076 96.4389 31.1502C96.3843 31.0928 96.3761 31.0109 96.4143 30.9043ZM98.4431 27.8062L98.4964 27.4291H100.804L100.759 27.8062H98.4431ZM99.1357 30.1626C99.1193 30.2172 99.1057 30.2677 99.0947 30.3142C99.0838 30.3579 99.0742 30.3975 99.066 30.433C99.0606 30.4685 99.0578 30.4986 99.0578 30.5232C99.0578 30.5751 99.0674 30.612 99.0865 30.6338C99.1057 30.6557 99.133 30.6666 99.1685 30.6666C99.2286 30.6666 99.3078 30.6379 99.4062 30.5806C99.5073 30.5232 99.622 30.4399 99.7504 30.3306C99.8816 30.2186 100.022 30.0792 100.173 29.9126L100.353 30.0806C100.211 30.2636 100.071 30.4262 99.9348 30.5683C99.7982 30.7103 99.6671 30.8305 99.5414 30.9289C99.4157 31.0273 99.2955 31.1024 99.1808 31.1543C99.0688 31.2062 98.9622 31.2322 98.8611 31.2322C98.7355 31.2322 98.6344 31.1953 98.5579 31.1215C98.4814 31.045 98.4431 30.9207 98.4431 30.7486C98.4431 30.6748 98.4527 30.586 98.4718 30.4822C98.4909 30.3784 98.5224 30.2527 98.5661 30.1052L99.5619 26.6669H100.164L99.1357 30.1626ZM102.622 30.9043L103.118 29.4741H103.155C102.92 29.8238 102.71 30.1134 102.524 30.3429C102.338 30.5724 102.169 30.7513 102.016 30.8797C101.866 31.0081 101.726 31.0983 101.598 31.1502C101.469 31.2021 101.345 31.2281 101.225 31.2281C101.055 31.2281 100.907 31.1966 100.778 31.1338C100.65 31.071 100.55 30.9753 100.479 30.8469C100.408 30.7185 100.372 30.5532 100.372 30.3511C100.372 30.127 100.415 29.8825 100.499 29.6175C100.584 29.3498 100.702 29.0861 100.852 28.8266C101.005 28.5643 101.184 28.3252 101.389 28.1094C101.596 27.8908 101.823 27.7174 102.069 27.589C102.315 27.4578 102.572 27.3922 102.839 27.3922C103.042 27.3922 103.204 27.436 103.327 27.5234C103.453 27.6081 103.555 27.7338 103.635 27.9004L103.52 28.134C103.465 28.0111 103.387 27.9168 103.286 27.8512C103.185 27.7829 103.064 27.7488 102.921 27.7488C102.711 27.7488 102.512 27.8103 102.323 27.9332C102.135 28.0561 101.961 28.2173 101.803 28.4168C101.647 28.6135 101.512 28.8266 101.397 29.0561C101.282 29.2856 101.193 29.5082 101.131 29.7241C101.068 29.9399 101.036 30.1257 101.036 30.2814C101.036 30.4262 101.076 30.5341 101.155 30.6052C101.237 30.6762 101.344 30.7117 101.475 30.7117C101.59 30.7117 101.729 30.6598 101.893 30.556C102.059 30.4522 102.23 30.3115 102.405 30.1339C102.58 29.9536 102.742 29.7473 102.893 29.5151C103.046 29.2828 103.166 29.0397 103.253 28.7856L103.618 27.675L104.114 27.4291H104.323L103.18 30.8551L103.073 30.6625C103.174 30.6762 103.29 30.668 103.421 30.6379C103.555 30.6052 103.696 30.5505 103.844 30.474C103.991 30.3975 104.14 30.3005 104.29 30.183L104.425 30.3716C104.087 30.7049 103.797 30.933 103.557 31.0559C103.319 31.1762 103.113 31.2363 102.938 31.2363C102.799 31.2363 102.702 31.2076 102.647 31.1502C102.592 31.0928 102.584 31.0109 102.622 30.9043ZM77.3934 36.4157H76.7202C76.8503 35.5207 77.4393 34.9928 78.4338 34.9928C79.52 34.9928 80.0479 35.6278 80.0479 36.5763V38.1751C80.0479 38.6418 80.0861 38.9325 80.1932 39.1543H79.4818C79.4053 38.9937 79.3823 38.7565 79.3747 38.5117C79.0304 39.0243 78.4797 39.2461 77.9901 39.2461C77.1486 39.2461 76.5825 38.856 76.5825 38.0833C76.5825 37.5249 76.8885 37.1195 77.4852 36.9206C78.036 36.737 78.5944 36.6911 79.3747 36.6834V36.5916C79.3747 35.9337 79.0687 35.5742 78.3726 35.5742C77.7912 35.5742 77.4775 35.8955 77.3934 36.4157ZM77.271 38.068C77.271 38.4429 77.5846 38.6647 78.0589 38.6647C78.8086 38.6647 79.3747 38.0757 79.3747 37.3795V37.1883C77.6458 37.2036 77.271 37.5708 77.271 38.068ZM80.9985 39.1543V35.0923H81.6717V35.6431C81.947 35.2147 82.3907 34.9928 82.9262 34.9928C83.7906 34.9928 84.3032 35.4977 84.3032 36.4386V39.1543H83.63V36.5763C83.63 35.9643 83.3546 35.5666 82.7426 35.5666C82.0694 35.5666 81.6717 36.1709 81.6717 36.7523V39.1543H80.9985ZM86.7455 39.2461C85.6669 39.2461 85.0166 38.4505 85.0166 37.1271C85.0166 35.7501 85.6822 34.9928 86.7455 34.9928C87.2274 34.9928 87.6176 35.1917 87.8853 35.5666V33.6465H88.5585V39.1543H87.8853V38.6418C87.6176 39.0243 87.2274 39.2461 86.7455 39.2461ZM86.7914 38.6647C87.5028 38.6647 87.8853 38.1216 87.8853 37.1271C87.8853 36.1403 87.4875 35.5742 86.7914 35.5742C86.0876 35.5742 85.7051 36.125 85.7051 37.1271C85.7051 38.1063 86.1029 38.6647 86.7914 38.6647ZM93.7924 36.1053C93.7405 35.9851 93.6627 35.8908 93.5588 35.8225C93.4578 35.7542 93.3375 35.7201 93.1982 35.7201C92.9824 35.7201 92.7788 35.7816 92.5876 35.9045C92.3964 36.0275 92.2201 36.19 92.0589 36.3922C91.9005 36.5916 91.7625 36.8075 91.645 37.0397C91.5303 37.2692 91.4415 37.4932 91.3787 37.7118C91.3158 37.9276 91.2844 38.1147 91.2844 38.2732C91.2844 38.4207 91.324 38.5314 91.4032 38.6052C91.4852 38.6762 91.5918 38.7117 91.7229 38.7117C91.8185 38.7117 91.9333 38.6762 92.0671 38.6052C92.201 38.5314 92.3403 38.4317 92.4851 38.306C92.6299 38.1776 92.772 38.0287 92.9113 37.8593C93.0534 37.6899 93.1805 37.5055 93.2925 37.3061C93.4072 37.1066 93.4974 36.9003 93.5629 36.6872L94.4072 33.9579C94.358 33.9224 94.3006 33.8855 94.235 33.8473C94.1722 33.809 94.1039 33.7721 94.0301 33.7366C93.9564 33.7011 93.8799 33.6697 93.8006 33.6424L93.8457 33.4784L95.112 33.2489H95.235L93.4523 38.8551L93.3457 38.6625C93.4496 38.6762 93.567 38.668 93.6982 38.6379C93.8293 38.6052 93.9687 38.5505 94.1162 38.474C94.2665 38.3975 94.4153 38.3005 94.5629 38.183L94.6981 38.3716C94.3593 38.7049 94.0697 38.933 93.8293 39.0559C93.5916 39.1762 93.3854 39.2363 93.2105 39.2363C93.0739 39.2363 92.9769 39.2076 92.9195 39.1502C92.8649 39.0928 92.8567 39.0109 92.895 38.9043L93.3949 37.4741H93.4318C93.1941 37.8265 92.9796 38.1175 92.7884 38.347C92.5999 38.5737 92.4291 38.7513 92.2761 38.8797C92.1231 39.0081 91.9811 39.0983 91.8499 39.1502C91.7188 39.2021 91.5931 39.2281 91.4729 39.2281C91.3035 39.2281 91.1546 39.1966 91.0262 39.1338C90.8978 39.071 90.7981 38.974 90.7271 38.8428C90.656 38.7117 90.6205 38.545 90.6205 38.3429C90.6205 38.1161 90.6629 37.8689 90.7476 37.6011C90.8322 37.3334 90.9511 37.0684 91.1041 36.8061C91.2598 36.5411 91.4415 36.3007 91.6491 36.0848C91.8568 35.8663 92.0849 35.6914 92.3335 35.5603C92.5821 35.4264 92.843 35.3595 93.1163 35.3595C93.3157 35.3595 93.4783 35.4032 93.6039 35.4906C93.7296 35.578 93.8307 35.7051 93.9072 35.8717L93.7924 36.1053ZM96.6965 35.6914C96.5299 35.6914 96.3755 35.7351 96.2334 35.8225C96.0941 35.9072 95.9684 36.0247 95.8564 36.175C95.7471 36.3225 95.6529 36.4905 95.5736 36.679C95.4971 36.8676 95.437 37.0656 95.3933 37.2733C95.3523 37.4782 95.3318 37.679 95.3318 37.8757C95.3318 38.1899 95.392 38.4098 95.5122 38.5355C95.6324 38.6612 95.8004 38.724 96.0162 38.724C96.1583 38.724 96.2922 38.7008 96.4178 38.6543C96.5462 38.6052 96.6678 38.5232 96.7826 38.4084C96.9 38.2937 97.0121 38.1366 97.1186 37.9372H97.4137C97.2634 38.2677 97.1077 38.5273 96.9465 38.7158C96.788 38.9043 96.6173 39.0382 96.4342 39.1174C96.2539 39.1966 96.0531 39.2363 95.8318 39.2363C95.5887 39.2363 95.381 39.1925 95.2089 39.1051C95.0395 39.015 94.9097 38.8825 94.8196 38.7076C94.7294 38.5328 94.6843 38.3142 94.6843 38.0519C94.6843 37.7459 94.7212 37.4563 94.795 37.1831C94.8688 36.9099 94.9726 36.6627 95.1065 36.4414C95.2403 36.2173 95.3974 36.0234 95.5777 35.8594C95.758 35.6955 95.9534 35.5698 96.1638 35.4824C96.3769 35.3922 96.5982 35.3472 96.8277 35.3472C97.0517 35.3472 97.232 35.3854 97.3686 35.4619C97.5052 35.5357 97.6049 35.6354 97.6678 35.7611C97.7333 35.884 97.7661 36.0193 97.7661 36.1668C97.7661 36.2925 97.7415 36.4195 97.6923 36.5479C97.6432 36.6736 97.5803 36.776 97.5038 36.8553C97.3181 36.9236 97.1309 36.9891 96.9424 37.052C96.7566 37.1121 96.5695 37.1695 96.381 37.2241C96.1924 37.276 96.0053 37.3265 95.8195 37.3757C95.6337 37.4249 95.4521 37.47 95.2745 37.511L95.2909 37.179C95.6187 37.108 95.8947 37.0383 96.1187 36.97C96.3427 36.9017 96.523 36.8348 96.6596 36.7692C96.799 36.7036 96.9041 36.6381 96.9752 36.5725C97.0489 36.5069 97.0981 36.4386 97.1227 36.3676C97.15 36.2966 97.1637 36.2228 97.1637 36.1463C97.1637 36.0534 97.1459 35.9742 97.1104 35.9086C97.0749 35.8403 97.023 35.787 96.9547 35.7488C96.8864 35.7105 96.8003 35.6914 96.6965 35.6914ZM98.0151 38.1912C98.0506 38.2623 98.0847 38.3319 98.1175 38.4002C98.153 38.4685 98.205 38.5519 98.2733 38.6502C98.3416 38.7486 98.4099 38.8155 98.4782 38.851C98.5465 38.8866 98.6216 38.9043 98.7036 38.9043C98.8456 38.9043 98.974 38.8811 99.0888 38.8346C99.2035 38.7882 99.295 38.7185 99.3633 38.6256C99.4316 38.5328 99.4658 38.4207 99.4658 38.2896C99.4658 38.1994 99.4494 38.1134 99.4166 38.0314C99.3838 37.9467 99.3237 37.8566 99.2363 37.7609C99.1489 37.6653 99.0218 37.5574 98.8552 37.4372C98.6913 37.3143 98.5629 37.1995 98.47 37.093C98.3771 36.9837 98.3115 36.8785 98.2733 36.7774C98.2377 36.6736 98.22 36.567 98.22 36.4578C98.22 36.2447 98.2719 36.0548 98.3757 35.8881C98.4823 35.7187 98.6353 35.5862 98.8347 35.4906C99.0341 35.395 99.2732 35.3472 99.5519 35.3472C99.7513 35.3472 99.9166 35.3718 100.048 35.4209C100.182 35.4674 100.281 35.5329 100.347 35.6176C100.415 35.7023 100.449 35.8021 100.449 35.9168C100.449 35.9933 100.43 36.0616 100.392 36.1217C100.356 36.1818 100.305 36.2296 100.236 36.2651C100.171 36.2979 100.091 36.3143 99.9985 36.3143C99.9685 36.2569 99.9343 36.2009 99.8961 36.1463C99.8578 36.0917 99.8059 36.022 99.7404 35.9373C99.6775 35.8553 99.6092 35.7952 99.5355 35.757C99.4644 35.7187 99.3907 35.6996 99.3142 35.6996C99.1339 35.6996 98.9863 35.7447 98.8716 35.8348C98.7596 35.9223 98.7036 36.0425 98.7036 36.1955C98.7036 36.2665 98.7199 36.3403 98.7527 36.4168C98.7882 36.4905 98.8497 36.5752 98.9371 36.6709C99.0273 36.7637 99.1557 36.8758 99.3224 37.0069C99.4918 37.1353 99.6215 37.261 99.7117 37.3839C99.8046 37.5041 99.8701 37.6216 99.9084 37.7364C99.9466 37.8484 99.9658 37.9618 99.9658 38.0765C99.9658 38.3033 99.9016 38.5041 99.7732 38.6789C99.6447 38.8538 99.4699 38.9904 99.2486 39.0887C99.03 39.1871 98.7814 39.2363 98.5027 39.2363C98.2733 39.2363 98.0847 39.2076 97.9372 39.1502C97.7924 39.0901 97.6859 39.0122 97.6176 38.9166C97.5493 38.821 97.5151 38.7185 97.5151 38.6093C97.5151 38.5273 97.5315 38.4549 97.5643 38.3921C97.5998 38.3292 97.6544 38.28 97.7282 38.2445C97.8047 38.209 97.9003 38.1912 98.0151 38.1912ZM100.495 38.8633L101.63 35.7939L101.761 35.9373C101.663 35.9318 101.549 35.9496 101.421 35.9906C101.292 36.0316 101.156 36.0944 101.011 36.1791C100.866 36.2638 100.717 36.3703 100.564 36.4987L100.417 36.3184C100.654 36.0507 100.866 35.8471 101.052 35.7078C101.24 35.5685 101.41 35.4742 101.56 35.425C101.71 35.3731 101.846 35.3472 101.966 35.3472C102.1 35.3472 102.193 35.3772 102.244 35.4373C102.299 35.4947 102.302 35.589 102.253 35.7201L101.118 38.8428L101.019 38.6543C101.123 38.6653 101.239 38.6557 101.368 38.6256C101.499 38.5929 101.635 38.5396 101.777 38.4658C101.922 38.3921 102.066 38.2992 102.208 38.1871L102.347 38.3798C102.123 38.6011 101.919 38.7745 101.736 38.9002C101.553 39.0232 101.387 39.1092 101.236 39.1584C101.089 39.2103 100.951 39.2363 100.822 39.2363C100.656 39.2363 100.547 39.2089 100.495 39.1543C100.443 39.0997 100.443 39.0027 100.495 38.8633ZM101.872 33.7981C101.872 33.697 101.893 33.6068 101.937 33.5276C101.984 33.4457 102.048 33.3815 102.13 33.335C102.214 33.2886 102.314 33.2653 102.429 33.2653C102.587 33.2653 102.712 33.3091 102.802 33.3965C102.892 33.4839 102.937 33.5932 102.937 33.7243C102.937 33.8254 102.914 33.9169 102.867 33.9989C102.824 34.0781 102.759 34.141 102.675 34.1874C102.593 34.2339 102.494 34.2571 102.38 34.2571C102.221 34.2571 102.097 34.2134 102.007 34.1259C101.917 34.0385 101.872 33.9292 101.872 33.7981ZM105.914 35.9906C105.868 35.9906 105.823 35.981 105.779 35.9619C105.738 35.9428 105.69 35.9182 105.636 35.8881C105.581 35.8581 105.514 35.8266 105.435 35.7939C105.356 35.7611 105.259 35.731 105.144 35.7037C105.032 35.6764 104.893 35.6573 104.726 35.6463L104.648 35.4045C104.869 35.4264 105.073 35.4332 105.259 35.425C105.444 35.4168 105.61 35.4045 105.755 35.3882C105.899 35.3718 106.022 35.3636 106.123 35.3636C106.178 35.3636 106.219 35.3759 106.246 35.4004C106.274 35.425 106.287 35.4619 106.287 35.5111C106.287 35.563 106.275 35.6176 106.25 35.675C106.226 35.7297 106.194 35.7816 106.156 35.8307C106.118 35.8772 106.077 35.9154 106.033 35.9455C105.992 35.9755 105.953 35.9906 105.914 35.9906ZM103.714 37.72C103.823 37.72 103.93 37.6954 104.033 37.6462C104.137 37.597 104.233 37.5287 104.32 37.4413C104.41 37.3511 104.488 37.2446 104.554 37.1216C104.619 36.9987 104.671 36.8635 104.71 36.7159C104.748 36.5684 104.767 36.4113 104.767 36.2447C104.767 36.0425 104.729 35.8949 104.652 35.8021C104.578 35.7092 104.464 35.6627 104.308 35.6627C104.199 35.6627 104.092 35.6873 103.988 35.7365C103.884 35.7829 103.787 35.8512 103.697 35.9414C103.61 36.0288 103.532 36.134 103.464 36.2569C103.398 36.3799 103.346 36.5151 103.308 36.6627C103.272 36.8102 103.255 36.9673 103.255 37.1339C103.255 37.3361 103.292 37.485 103.365 37.5806C103.442 37.6735 103.558 37.72 103.714 37.72ZM104.353 35.3472C104.588 35.3472 104.779 35.3895 104.927 35.4742C105.077 35.5589 105.189 35.675 105.263 35.8225C105.337 35.9673 105.373 36.134 105.373 36.3225C105.373 36.5493 105.328 36.7665 105.238 36.9741C105.148 37.179 105.024 37.3621 104.865 37.5233C104.71 37.6817 104.529 37.8074 104.324 37.9003C104.119 37.9904 103.9 38.0355 103.665 38.0355C103.432 38.0355 103.241 37.9932 103.091 37.9085C102.941 37.8238 102.829 37.7077 102.755 37.5601C102.684 37.4126 102.648 37.246 102.648 37.0602C102.648 36.8334 102.692 36.6176 102.779 36.4127C102.87 36.205 102.994 36.022 103.152 35.8635C103.311 35.7023 103.492 35.5767 103.697 35.4865C103.902 35.3936 104.121 35.3472 104.353 35.3472ZM103.513 41.2361C103.218 41.2361 102.958 41.2129 102.734 41.1665C102.513 41.1227 102.329 41.0585 102.181 40.9738C102.031 40.8892 101.917 40.7867 101.841 40.6665C101.764 40.5463 101.726 40.4124 101.726 40.2649C101.726 40.09 101.778 39.9384 101.882 39.81C101.986 39.6843 102.146 39.5778 102.361 39.4903C102.58 39.4029 102.86 39.3346 103.201 39.2854L103.456 39.1666L103.73 39.3756C103.495 39.3811 103.289 39.4029 103.111 39.4412C102.936 39.4821 102.79 39.5368 102.673 39.6051C102.558 39.6734 102.472 39.7554 102.415 39.851C102.36 39.9466 102.333 40.0531 102.333 40.1706C102.333 40.3182 102.376 40.4479 102.464 40.5599C102.551 40.672 102.686 40.758 102.87 40.8181C103.053 40.881 103.285 40.9124 103.566 40.9124C103.837 40.9124 104.061 40.8796 104.238 40.814C104.416 40.7485 104.548 40.6624 104.636 40.5558C104.723 40.4493 104.767 40.3345 104.767 40.2116C104.767 40.1051 104.742 40.0122 104.693 39.9329C104.644 39.8564 104.565 39.7881 104.455 39.728C104.346 39.6679 104.204 39.6106 104.029 39.5559C103.857 39.5013 103.648 39.4453 103.402 39.3879C103.145 39.3305 102.953 39.2608 102.824 39.1789C102.699 39.0969 102.614 39.0095 102.57 38.9166C102.529 38.8237 102.509 38.7308 102.509 38.6379C102.509 38.5068 102.549 38.3934 102.628 38.2978C102.71 38.2022 102.826 38.1216 102.976 38.056C103.129 37.9877 103.307 37.9317 103.509 37.888L103.656 37.9863C103.443 38.0082 103.289 38.0533 103.193 38.1216C103.098 38.1899 103.05 38.2705 103.05 38.3634C103.05 38.4125 103.061 38.4576 103.083 38.4986C103.104 38.5396 103.145 38.5806 103.206 38.6215C103.268 38.6625 103.359 38.7049 103.476 38.7486C103.596 38.7896 103.753 38.8374 103.947 38.892C104.308 38.9904 104.589 39.0956 104.792 39.2076C104.994 39.3196 105.134 39.4439 105.214 39.5805C105.296 39.7171 105.337 39.8728 105.337 40.0477C105.337 40.2198 105.296 40.3783 105.214 40.5231C105.134 40.6679 105.017 40.7935 104.861 40.9001C104.705 41.0066 104.514 41.0886 104.287 41.146C104.061 41.2061 103.803 41.2361 103.513 41.2361ZM105.762 36.5643L105.647 36.5192C105.751 36.2132 105.871 35.9755 106.008 35.8062C106.147 35.6368 106.301 35.5179 106.471 35.4496C106.64 35.3813 106.82 35.3472 107.012 35.3472C107.061 35.3472 107.109 35.3499 107.155 35.3554C107.204 35.3608 107.252 35.3677 107.299 35.3759C107.348 35.3841 107.397 35.3936 107.446 35.4045L106.86 37.261H106.897C107.053 36.9659 107.211 36.7009 107.372 36.4659C107.536 36.231 107.703 36.0316 107.872 35.8676C108.044 35.701 108.221 35.5739 108.401 35.4865C108.581 35.3991 108.764 35.3554 108.95 35.3554C109.199 35.3554 109.375 35.4114 109.479 35.5234C109.583 35.6327 109.635 35.7734 109.635 35.9455C109.635 36.0411 109.618 36.1504 109.585 36.2733C109.555 36.3935 109.507 36.537 109.442 36.7036L108.585 38.8428L108.561 38.6584C108.665 38.6612 108.778 38.6448 108.901 38.6093C109.027 38.5737 109.158 38.5205 109.294 38.4494C109.434 38.3757 109.574 38.2869 109.716 38.183L109.86 38.3716C109.633 38.5929 109.426 38.7677 109.237 38.8961C109.048 39.0218 108.876 39.1092 108.721 39.1584C108.565 39.2103 108.421 39.2363 108.29 39.2363C108.113 39.2363 108.001 39.2062 107.954 39.1461C107.908 39.086 107.919 38.9712 107.987 38.8019L108.889 36.552C108.924 36.4646 108.95 36.3895 108.967 36.3266C108.986 36.261 108.995 36.2023 108.995 36.1504C108.995 36.0766 108.969 36.0179 108.917 35.9742C108.865 35.9277 108.777 35.9045 108.651 35.9045C108.493 35.9045 108.323 35.9646 108.143 36.0848C107.962 36.2023 107.784 36.3662 107.606 36.5766C107.431 36.7842 107.269 37.026 107.118 37.302C106.971 37.5779 106.848 37.873 106.749 38.1871L106.45 39.1543H105.815L106.795 35.925C106.786 35.925 106.777 35.925 106.766 35.925C106.758 35.925 106.749 35.925 106.741 35.925C106.616 35.925 106.497 35.9441 106.385 35.9824C106.275 36.0206 106.169 36.0862 106.065 36.1791C105.964 36.272 105.863 36.4004 105.762 36.5643ZM77.271 44.1326C77.271 45.2648 79.9102 44.3315 79.9102 46.0068C79.9102 46.7642 79.237 47.2461 78.2808 47.2461C77.3169 47.2461 76.6437 46.7871 76.4907 45.8309H77.1639C77.2557 46.397 77.6764 46.7106 78.3037 46.7106C78.9157 46.7106 79.237 46.4352 79.237 46.0527C79.237 44.9435 76.6284 45.8615 76.6284 44.1785C76.6284 43.5589 77.1104 42.9928 78.1048 42.9928C78.9845 42.9928 79.6348 43.4059 79.7648 44.4157H79.0916C78.9922 43.7807 78.6403 43.5436 78.0666 43.5436C77.5617 43.5436 77.271 43.796 77.271 44.1326ZM80.6495 45.9839V43.6278H80.0834V43.0923H80.6495V42.159H81.3227V43.0923H82.2177V43.6278H81.3227V45.9839C81.3227 46.4735 81.468 46.703 82.0647 46.703H82.2024V47.1849C82.1259 47.2231 81.9576 47.2461 81.7664 47.2461C81.009 47.2461 80.6495 46.8407 80.6495 45.9839ZM85.2912 45.4943V43.0923H85.9644V47.1543H85.2912V46.6035C85.0159 47.0319 84.5875 47.2461 84.0596 47.2461C83.2105 47.2461 82.7056 46.7489 82.7056 45.8079V43.0923H83.3788V45.6702C83.3788 46.2822 83.6465 46.6724 84.2432 46.6724C84.9011 46.6724 85.2912 46.0757 85.2912 45.4943ZM88.4078 47.2461C87.3292 47.2461 86.679 46.4505 86.679 45.1271C86.679 43.7501 87.3445 42.9928 88.4078 42.9928C88.8897 42.9928 89.2799 43.1917 89.5476 43.5666V41.6465H90.2208V47.1543H89.5476V46.6418C89.2799 47.0243 88.8897 47.2461 88.4078 47.2461ZM88.4537 46.6647C89.1651 46.6647 89.5476 46.1216 89.5476 45.1271C89.5476 44.1403 89.1498 43.5742 88.4537 43.5742C87.7499 43.5742 87.3674 44.125 87.3674 45.1271C87.3674 46.1063 87.7652 46.6647 88.4537 46.6647ZM91.1401 42.5491V41.6465H91.8133V42.5491H91.1401ZM91.1401 47.1543V43.0923H91.8133V47.1543H91.1401ZM94.3801 47.2461C93.2173 47.2461 92.5212 46.4505 92.5212 45.1271C92.5212 43.7501 93.2403 42.9928 94.3801 42.9928C95.5428 42.9928 96.239 43.8037 96.239 45.1271C96.239 46.4964 95.5199 47.2461 94.3801 47.2461ZM94.3801 46.6647C95.1374 46.6647 95.5505 46.1216 95.5505 45.1271C95.5505 44.1403 95.1298 43.5742 94.3801 43.5742C93.6227 43.5742 93.2097 44.125 93.2097 45.1271C93.2097 46.1063 93.6304 46.6647 94.3801 46.6647Z" fill="#FAF9FA"/>
<path fill-rule="evenodd" clip-rule="evenodd" d="M14.0313 37.6043V10.7039C14.0313 8.84678 12.5258 7.34131 10.6687 7.34131C8.81162 7.34131 7.30616 8.84678 7.30616 10.7039V37.6043C7.30616 39.4614 8.81162 40.9668 10.6687 40.9668C12.5258 40.9668 14.0313 39.4614 14.0313 37.6043ZM10.6687 0.616211C5.09745 0.616211 0.581055 5.13261 0.581055 10.7039V37.6043C0.581055 43.1755 5.09745 47.6919 10.6687 47.6919C16.24 47.6919 20.7564 43.1755 20.7564 37.6043V10.7039C20.7564 5.13261 16.24 0.616211 10.6687 0.616211Z" fill="#FAF9FA"/>
<path fill-rule="evenodd" clip-rule="evenodd" d="M39.25 37.6041V19.1101C39.25 17.253 37.7445 15.7476 35.8875 15.7476C34.0304 15.7476 32.5249 17.253 32.5249 19.1101V37.6041C32.5249 39.4612 34.0304 40.9667 35.8875 40.9667C37.7445 40.9667 39.25 39.4612 39.25 37.6041ZM35.8875 9.02246C30.3162 9.02246 25.7998 13.5389 25.7998 19.1101V37.6041C25.7998 43.1754 30.3162 47.6918 35.8875 47.6918C41.4587 47.6918 45.9751 43.1754 45.9751 37.6041V19.1101C45.9751 13.5389 41.4587 9.02246 35.8875 9.02246Z" fill="#FAF9FA"/>
<path fill-rule="evenodd" clip-rule="evenodd" d="M64.4697 37.6041V19.1101C64.4697 17.253 62.9643 15.7476 61.1072 15.7476C59.2501 15.7476 57.7446 17.253 57.7446 19.1101V37.6041C57.7446 39.4612 59.2501 40.9667 61.1072 40.9667C62.9643 40.9667 64.4697 39.4612 64.4697 37.6041ZM61.1072 9.02246C55.5359 9.02246 51.0195 13.5389 51.0195 19.1101V37.6041C51.0195 43.1754 55.5359 47.6918 61.1072 47.6918C66.6784 47.6918 71.1948 43.1754 71.1948 37.6041V19.1101C71.1948 13.5389 66.6784 9.02246 61.1072 9.02246Z" fill="#FAF9FA"/>
<path d="M39.25 3.97876C39.25 2.12168 40.7555 0.616211 42.6126 0.616211C44.4696 0.616211 45.9751 2.12168 45.9751 3.97876C45.9751 5.83585 44.4696 7.34131 42.6126 7.34131C40.7555 7.34131 39.25 5.83585 39.25 3.97876Z" fill="#FAF9FA"/>
<path d="M64.4697 3.97876C64.4697 2.12168 65.9752 0.616211 67.8323 0.616211C69.6894 0.616211 71.1948 2.12168 71.1948 3.97876C71.1948 5.83585 69.6894 7.34131 67.8323 7.34131C65.9752 7.34131 64.4697 5.83585 64.4697 3.97876Z" fill="#FAF9FA"/>
</svg>
