<svg width="48" height="34" viewBox="0 0 48 34" fill="none" xmlns="http://www.w3.org/2000/svg">
<path d="M3.09295 9.22157C1.44914 9.22157 0.465024 8.09686 0.465024 6.22595C0.465024 4.27934 1.48159 3.20871 3.09295 3.20871C4.73675 3.20871 5.72087 4.35504 5.72087 6.22595C5.72087 8.16175 4.70431 9.22157 3.09295 9.22157ZM3.09295 8.39967C4.16358 8.39967 4.74757 7.63184 4.74757 6.22595C4.74757 4.83088 4.15277 4.03061 3.09295 4.03061C2.02231 4.03061 1.43833 4.80925 1.43833 6.22595C1.43833 7.61021 2.03313 8.39967 3.09295 8.39967ZM8.88158 9.22157C7.35674 9.22157 6.4375 8.09686 6.4375 6.22595C6.4375 4.27934 7.37837 3.20871 8.88158 3.20871C9.5629 3.20871 10.1144 3.48988 10.4929 4.01979V1.30535H11.4446V9.0918H10.4929V8.36722C10.1144 8.90795 9.5629 9.22157 8.88158 9.22157ZM8.94647 8.39967C9.95222 8.39967 10.4929 7.63184 10.4929 6.22595C10.4929 4.83088 9.93059 4.03061 8.94647 4.03061C7.95153 4.03061 7.41081 4.80925 7.41081 6.22595C7.41081 7.61021 7.97316 8.39967 8.94647 8.39967ZM14.8963 9.22157C13.3715 9.22157 12.4522 8.09686 12.4522 6.22595C12.4522 4.27934 13.3931 3.20871 14.8963 3.20871C15.5776 3.20871 16.1292 3.48988 16.5077 4.01979V1.30535H17.4593V9.0918H16.5077V8.36722C16.1292 8.90795 15.5776 9.22157 14.8963 9.22157ZM14.9612 8.39967C15.9669 8.39967 16.5077 7.63184 16.5077 6.22595C16.5077 4.83088 15.9453 4.03061 14.9612 4.03061C13.9663 4.03061 13.4255 4.80925 13.4255 6.22595C13.4255 7.61021 13.9879 8.39967 14.9612 8.39967ZM24.29 4.78144C24.2166 4.6115 24.1065 4.47825 23.9597 4.38169C23.8168 4.28514 23.6469 4.23686 23.4499 4.23686C23.1448 4.23686 22.857 4.32376 22.5867 4.49756C22.3163 4.67137 22.0672 4.90118 21.8393 5.18699C21.6153 5.46894 21.4203 5.77406 21.2542 6.10236C21.092 6.42679 20.9664 6.7435 20.8776 7.05249C20.7888 7.35761 20.7444 7.62218 20.7444 7.8462C20.7444 8.05476 20.8004 8.21119 20.9124 8.31547C21.0282 8.41589 21.1789 8.4661 21.3643 8.4661C21.4994 8.4661 21.6617 8.41589 21.8509 8.31547C22.0402 8.21119 22.2371 8.07021 22.4418 7.89255C22.6466 7.71102 22.8474 7.50052 23.0444 7.26106C23.2452 7.02159 23.4248 6.76088 23.5832 6.47893C23.7454 6.19699 23.8728 5.90538 23.9655 5.60412L25.159 1.74566C25.0895 1.69545 25.0084 1.64331 24.9157 1.58923C24.8268 1.53516 24.7303 1.48302 24.626 1.43281C24.5217 1.3826 24.4136 1.33818 24.3016 1.29956L24.3653 1.06782L26.1555 0.743384H26.3293L23.8091 8.66887L23.6585 8.39658C23.8052 8.41589 23.9713 8.4043 24.1567 8.36182C24.3421 8.31547 24.5391 8.23822 24.7477 8.13008C24.9601 8.02193 25.1706 7.88482 25.3791 7.71874L25.5703 7.98524C25.0914 8.45644 24.682 8.77895 24.3421 8.95275C24.0061 9.1227 23.7145 9.20767 23.4673 9.20767C23.2742 9.20767 23.1371 9.16711 23.056 9.086C22.9787 9.00489 22.9671 8.88902 23.0212 8.73839L23.728 6.71647H23.7801C23.4441 7.21471 23.1409 7.62605 22.8706 7.95048C22.6041 8.27105 22.3627 8.5221 22.1464 8.70363C21.9301 8.88516 21.7293 9.01262 21.5439 9.086C21.3585 9.15939 21.1808 9.19608 21.0109 9.19608C20.7714 9.19608 20.5609 9.15166 20.3794 9.06283C20.1978 8.974 20.0569 8.83688 19.9564 8.65149C19.856 8.4661 19.8058 8.2305 19.8058 7.94469C19.8058 7.62411 19.8657 7.27457 19.9854 6.89607C20.1051 6.51756 20.2732 6.14291 20.4894 5.77213C20.7096 5.39748 20.9664 5.0576 21.26 4.75248C21.5535 4.44349 21.876 4.1963 22.2275 4.01091C22.579 3.82166 22.9478 3.72703 23.334 3.72703C23.616 3.72703 23.8458 3.78883 24.0235 3.91242C24.2011 4.03602 24.344 4.21561 24.4522 4.45121L24.29 4.78144ZM28.5229 8.73839L29.2239 6.71647H29.2761C28.9439 7.21085 28.6465 7.62025 28.3839 7.94469C28.1212 8.26912 27.8818 8.5221 27.6655 8.70363C27.4531 8.88516 27.2561 9.01262 27.0746 9.086C26.893 9.15939 26.7173 9.19608 26.5473 9.19608C26.3079 9.19608 26.0974 9.15166 25.9159 9.06283C25.7343 8.974 25.5934 8.83881 25.4929 8.65729C25.3925 8.47576 25.3423 8.24209 25.3423 7.95627C25.3423 7.63956 25.4022 7.29389 25.5219 6.91924C25.6416 6.54073 25.8077 6.16802 26.0201 5.8011C26.2364 5.43031 26.4894 5.09236 26.7791 4.78724C27.0726 4.47825 27.3932 4.23299 27.7408 4.05146C28.0884 3.86607 28.4515 3.77338 28.83 3.77338C29.1158 3.77338 29.3456 3.83517 29.5194 3.95877C29.6971 4.0785 29.8419 4.25617 29.9539 4.49177L29.7917 4.822C29.7145 4.64819 29.6044 4.51494 29.4615 4.42225C29.3186 4.32569 29.1467 4.27741 28.9459 4.27741C28.6485 4.27741 28.3665 4.36431 28.1 4.53812C27.8335 4.71192 27.5882 4.9398 27.3642 5.22175C27.1441 5.49984 26.9529 5.8011 26.7907 6.12553C26.6285 6.44997 26.5029 6.76475 26.4141 7.06987C26.3253 7.37499 26.2808 7.63763 26.2808 7.85778C26.2808 8.06249 26.3369 8.21505 26.4489 8.31547C26.5647 8.41589 26.7154 8.4661 26.9008 8.4661C27.063 8.4661 27.2599 8.39272 27.4917 8.24595C27.7273 8.09918 27.9687 7.90027 28.2159 7.64922C28.4631 7.39431 28.6929 7.1027 28.9053 6.7744C29.1216 6.44611 29.2915 6.10236 29.4151 5.74316L29.9307 4.17313L30.6318 3.82552H30.9272L29.3108 8.66887L29.1602 8.39658C29.3031 8.41589 29.4673 8.4043 29.6527 8.36182C29.8419 8.31547 30.0408 8.23822 30.2494 8.13008C30.458 8.02193 30.6684 7.88482 30.8809 7.71874L31.0721 7.98524C30.5931 8.45644 30.1837 8.77895 29.8438 8.95275C29.5078 9.1227 29.2162 9.20767 28.969 9.20767C28.772 9.20767 28.6349 9.16711 28.5577 9.086C28.4804 9.00489 28.4689 8.88902 28.5229 8.73839ZM31.3911 4.35852L31.4664 3.82552H34.7281L34.6644 4.35852H31.3911ZM32.3702 7.68977C32.347 7.76702 32.3277 7.83847 32.3122 7.90413C32.2968 7.96593 32.2833 8.02193 32.2717 8.07214C32.2639 8.12235 32.2601 8.16484 32.2601 8.1996C32.2601 8.27298 32.2736 8.32513 32.3006 8.35602C32.3277 8.38692 32.3663 8.40237 32.4165 8.40237C32.5015 8.40237 32.6135 8.36182 32.7525 8.28071C32.8954 8.1996 33.0577 8.0818 33.2392 7.92731C33.4246 7.76895 33.6235 7.57197 33.8359 7.33637L34.0908 7.5739C33.89 7.83268 33.693 8.06249 33.4999 8.26333C33.3068 8.46417 33.1214 8.63411 32.9437 8.77316C32.766 8.9122 32.5961 9.01841 32.4339 9.0918C32.2755 9.16518 32.1249 9.20187 31.982 9.20187C31.8043 9.20187 31.6614 9.14973 31.5533 9.04545C31.4451 8.9373 31.3911 8.76157 31.3911 8.51824C31.3911 8.41396 31.4046 8.28843 31.4316 8.14167C31.4587 7.9949 31.5031 7.81723 31.5649 7.60866L32.9727 2.74793H33.8243L32.3702 7.68977ZM37.2991 8.73839L38.0002 6.71647H38.0523C37.7201 7.21085 37.4227 7.62025 37.1601 7.94469C36.8975 8.26912 36.658 8.5221 36.4417 8.70363C36.2293 8.88516 36.0323 9.01262 35.8508 9.086C35.6692 9.15939 35.4935 9.19608 35.3236 9.19608C35.0841 9.19608 34.8736 9.15166 34.6921 9.06283C34.5106 8.974 34.3696 8.83881 34.2692 8.65729C34.1687 8.47576 34.1185 8.24209 34.1185 7.95627C34.1185 7.63956 34.1784 7.29389 34.2981 6.91924C34.4179 6.54073 34.5839 6.16802 34.7964 5.8011C35.0127 5.43031 35.2656 5.09236 35.5553 4.78724C35.8488 4.47825 36.1694 4.23299 36.517 4.05146C36.8646 3.86607 37.2277 3.77338 37.6062 3.77338C37.892 3.77338 38.1218 3.83517 38.2956 3.95877C38.4733 4.0785 38.6181 4.25617 38.7301 4.49177L38.5679 4.822C38.4907 4.64819 38.3806 4.51494 38.2377 4.42225C38.0948 4.32569 37.9229 4.27741 37.7221 4.27741C37.4247 4.27741 37.1427 4.36431 36.8762 4.53812C36.6097 4.71192 36.3645 4.9398 36.1405 5.22175C35.9203 5.49984 35.7291 5.8011 35.5669 6.12553C35.4047 6.44997 35.2792 6.76475 35.1903 7.06987C35.1015 7.37499 35.0571 7.63763 35.0571 7.85778C35.0571 8.06249 35.1131 8.21505 35.2251 8.31547C35.341 8.41589 35.4916 8.4661 35.677 8.4661C35.8392 8.4661 36.0362 8.39272 36.2679 8.24595C36.5035 8.09918 36.7449 7.90027 36.9921 7.64922C37.2393 7.39431 37.4691 7.1027 37.6815 6.7744C37.8978 6.44611 38.0678 6.10236 38.1913 5.74316L38.707 4.17313L39.408 3.82552H39.7034L38.0871 8.66887L37.9364 8.39658C38.0793 8.41589 38.2435 8.4043 38.4289 8.36182C38.6181 8.31547 38.817 8.23822 39.0256 8.13008C39.2342 8.02193 39.4447 7.88482 39.6571 7.71874L39.8483 7.98524C39.3694 8.45644 38.9599 8.77895 38.6201 8.95275C38.284 9.1227 37.9924 9.20767 37.7452 9.20767C37.5483 9.20767 37.4112 9.16711 37.3339 9.086C37.2567 9.00489 37.2451 8.88902 37.2991 8.73839ZM1.63299 17.2202H0.681314C0.865161 15.9549 1.69788 15.2087 3.10376 15.2087C4.63942 15.2087 5.38562 16.1063 5.38562 17.4473V19.7075C5.38562 20.3672 5.4397 20.7782 5.5911 21.0918H4.58535C4.47721 20.8647 4.44476 20.5294 4.43395 20.1834C3.94729 20.908 3.16865 21.2216 2.47652 21.2216C1.28693 21.2216 0.486653 20.67 0.486653 19.5778C0.486653 18.7883 0.919233 18.2151 1.76276 17.934C2.54141 17.6744 3.33087 17.6095 4.43395 17.5987V17.4689C4.43395 16.5389 4.00137 16.0306 3.01725 16.0306C2.19534 16.0306 1.75195 16.4848 1.63299 17.2202ZM1.45996 19.5561C1.45996 20.086 1.90335 20.3997 2.57385 20.3997C3.63367 20.3997 4.43395 19.567 4.43395 18.5828V18.3125C1.98987 18.3341 1.45996 18.8532 1.45996 19.5561ZM6.7295 21.0918V15.3493H7.68117V16.1279C8.07049 15.5223 8.69774 15.2087 9.45475 15.2087C10.6768 15.2087 11.4014 15.9225 11.4014 17.2526V21.0918H10.4497V17.4473C10.4497 16.5821 10.0604 16.0198 9.1952 16.0198C8.24353 16.0198 7.68117 16.8741 7.68117 17.696V21.0918H6.7295ZM14.8541 21.2216C13.3292 21.2216 12.41 20.0969 12.41 18.226C12.41 16.2793 13.3508 15.2087 14.8541 15.2087C15.5354 15.2087 16.0869 15.4899 16.4654 16.0198V13.3054H17.4171V21.0918H16.4654V20.3672C16.0869 20.908 15.5354 21.2216 14.8541 21.2216ZM14.9189 20.3997C15.9247 20.3997 16.4654 19.6318 16.4654 18.226C16.4654 16.8309 15.9031 16.0306 14.9189 16.0306C13.924 16.0306 13.3833 16.8093 13.3833 18.226C13.3833 19.6102 13.9456 20.3997 14.9189 20.3997ZM24.8164 16.7814C24.743 16.6115 24.6329 16.4783 24.4861 16.3817C24.3432 16.2851 24.1733 16.2369 23.9763 16.2369C23.6712 16.2369 23.3834 16.3238 23.1131 16.4976C22.8427 16.6714 22.5936 16.9012 22.3657 17.187C22.1417 17.4689 21.9467 17.7741 21.7806 18.1024C21.6184 18.4268 21.4928 18.7435 21.404 19.0525C21.3152 19.3576 21.2707 19.6222 21.2707 19.8462C21.2707 20.0548 21.3268 20.2112 21.4388 20.3155C21.5546 20.4159 21.7053 20.4661 21.8907 20.4661C22.0258 20.4661 22.1881 20.4159 22.3773 20.3155C22.5666 20.2112 22.7635 20.0702 22.9682 19.8925C23.1729 19.711 23.3738 19.5005 23.5708 19.2611C23.7716 19.0216 23.9512 18.7609 24.1096 18.4789C24.2718 18.197 24.3992 17.9054 24.4919 17.6041L25.6854 13.7457C25.6159 13.6954 25.5348 13.6433 25.4421 13.5892C25.3532 13.5352 25.2567 13.483 25.1524 13.4328C25.0481 13.3826 24.94 13.3382 24.8279 13.2996L24.8917 13.0678L26.6819 12.7434H26.8557L24.3355 20.6689L24.1849 20.3966C24.3316 20.4159 24.4977 20.4043 24.6831 20.3618C24.8685 20.3155 25.0655 20.2382 25.274 20.1301C25.4865 20.0219 25.697 19.8848 25.9055 19.7187L26.0967 19.9852C25.6178 20.4564 25.2084 20.7789 24.8685 20.9528C24.5325 21.1227 24.2409 21.2077 23.9937 21.2077C23.8006 21.2077 23.6635 21.1671 23.5824 21.086C23.5051 21.0049 23.4935 20.889 23.5476 20.7384L24.2544 18.7165H24.3065C23.9705 19.2147 23.6673 19.626 23.397 19.9505C23.1305 20.2711 22.8891 20.5221 22.6728 20.7036C22.4565 20.8852 22.2556 21.0126 22.0703 21.086C21.8849 21.1594 21.7072 21.1961 21.5372 21.1961C21.2978 21.1961 21.0873 21.1517 20.9058 21.0628C20.7242 20.974 20.5833 20.8369 20.4828 20.6515C20.3824 20.4661 20.3322 20.2305 20.3322 19.9447C20.3322 19.6241 20.3921 19.2746 20.5118 18.8961C20.6315 18.5176 20.7995 18.1429 21.0158 17.7721C21.236 17.3975 21.4928 17.0576 21.7864 16.7525C22.0799 16.4435 22.4024 16.1963 22.7539 16.0109C23.1054 15.8217 23.4742 15.727 23.8604 15.727C24.1424 15.727 24.3722 15.7888 24.5499 15.9124C24.7275 16.036 24.8704 16.2156 24.9786 16.4512L24.8164 16.7814ZM28.9219 16.1963C28.6863 16.1963 28.468 16.2581 28.2672 16.3817C28.0702 16.5014 27.8926 16.6675 27.7342 16.8799C27.5797 17.0885 27.4465 17.326 27.3344 17.5925C27.2263 17.859 27.1413 18.1391 27.0795 18.4326C27.0216 18.7223 26.9926 19.0061 26.9926 19.2842C26.9926 19.7284 27.0776 20.0393 27.2475 20.217C27.4175 20.3946 27.655 20.4835 27.9601 20.4835C28.161 20.4835 28.3502 20.4507 28.5279 20.385C28.7094 20.3155 28.8813 20.1996 29.0435 20.0374C29.2096 19.8752 29.368 19.6531 29.5186 19.3711H29.9357C29.7233 19.8385 29.5031 20.2054 29.2753 20.4719C29.0513 20.7384 28.8099 20.9276 28.5511 21.0397C28.2962 21.1517 28.0123 21.2077 27.6994 21.2077C27.3557 21.2077 27.0622 21.1459 26.8188 21.0223C26.5794 20.8948 26.3959 20.7075 26.2684 20.4603C26.141 20.2131 26.0773 19.9041 26.0773 19.5333C26.0773 19.1008 26.1294 18.6914 26.2337 18.3051C26.338 17.9189 26.4847 17.5694 26.674 17.2565C26.8632 16.9398 27.0853 16.6656 27.3402 16.4338C27.5952 16.2021 27.8713 16.0244 28.1687 15.9008C28.47 15.7734 28.7828 15.7096 29.1073 15.7096C29.424 15.7096 29.6789 15.7637 29.872 15.8719C30.0651 15.9761 30.2061 16.1171 30.2949 16.2948C30.3876 16.4686 30.434 16.6598 30.434 16.8683C30.434 17.046 30.3992 17.2256 30.3297 17.4071C30.2602 17.5848 30.1713 17.7296 30.0632 17.8417C29.8005 17.9382 29.536 18.0309 29.2695 18.1197C29.0068 18.2047 28.7423 18.2858 28.4758 18.3631C28.2093 18.4364 27.9447 18.5079 27.6821 18.5774C27.4194 18.6469 27.1626 18.7107 26.9115 18.7686L26.9347 18.2993C27.3982 18.1989 27.7883 18.1004 28.105 18.0039C28.4217 17.9073 28.6766 17.8127 28.8697 17.72C29.0667 17.6273 29.2154 17.5346 29.3158 17.4419C29.4201 17.3492 29.4896 17.2526 29.5244 17.1522C29.563 17.0518 29.5823 16.9475 29.5823 16.8394C29.5823 16.7081 29.5572 16.5961 29.507 16.5034C29.4568 16.4068 29.3834 16.3315 29.2869 16.2774C29.1903 16.2233 29.0686 16.1963 28.9219 16.1963ZM30.7859 19.7303C30.8361 19.8307 30.8844 19.9292 30.9308 20.0258C30.981 20.1224 31.0543 20.2402 31.1509 20.3792C31.2475 20.5182 31.344 20.6129 31.4406 20.6631C31.5371 20.7133 31.6434 20.7384 31.7592 20.7384C31.9601 20.7384 32.1416 20.7056 32.3038 20.6399C32.466 20.5742 32.5954 20.4758 32.692 20.3444C32.7885 20.2131 32.8368 20.0548 32.8368 19.8694C32.8368 19.7419 32.8136 19.6203 32.7673 19.5044C32.7209 19.3846 32.636 19.2572 32.5124 19.122C32.3888 18.9868 32.2092 18.8343 31.9736 18.6643C31.7418 18.4905 31.5603 18.3283 31.429 18.1777C31.2977 18.0232 31.205 17.8745 31.1509 17.7316C31.1007 17.5848 31.0756 17.4342 31.0756 17.2797C31.0756 16.9784 31.149 16.71 31.2957 16.4744C31.4464 16.2349 31.6627 16.0476 31.9446 15.9124C32.2266 15.7772 32.5645 15.7096 32.9585 15.7096C33.2404 15.7096 33.4741 15.7444 33.6595 15.8139C33.8487 15.8796 33.9897 15.9723 34.0824 16.092C34.179 16.2118 34.2272 16.3527 34.2272 16.5149C34.2272 16.6231 34.2002 16.7196 34.1461 16.8046C34.0959 16.8896 34.0225 16.9572 33.926 17.0074C33.8333 17.0537 33.7213 17.0769 33.59 17.0769C33.5475 16.9958 33.4992 16.9166 33.4451 16.8394C33.3911 16.7621 33.3177 16.6636 33.225 16.5439C33.1361 16.428 33.0396 16.3431 32.9353 16.289C32.8349 16.2349 32.7306 16.2079 32.6225 16.2079C32.3675 16.2079 32.159 16.2716 31.9968 16.3991C31.8384 16.5227 31.7592 16.6926 31.7592 16.9089C31.7592 17.0093 31.7824 17.1136 31.8287 17.2217C31.879 17.326 31.9659 17.4458 32.0895 17.5809C32.2169 17.7123 32.3984 17.8706 32.634 18.056C32.8735 18.2375 33.057 18.4152 33.1844 18.589C33.3157 18.759 33.4084 18.925 33.4625 19.0873C33.5166 19.2456 33.5436 19.4059 33.5436 19.5681C33.5436 19.8887 33.4529 20.1726 33.2713 20.4198C33.0898 20.6669 32.8426 20.8601 32.5298 20.9991C32.2208 21.1381 31.8693 21.2077 31.4753 21.2077C31.1509 21.2077 30.8844 21.1671 30.6758 21.086C30.4711 21.001 30.3205 20.891 30.2239 20.7558C30.1274 20.6206 30.0791 20.4758 30.0791 20.3213C30.0791 20.2054 30.1023 20.103 30.1486 20.0142C30.1988 19.9254 30.2761 19.8559 30.3804 19.8056C30.4885 19.7554 30.6237 19.7303 30.7859 19.7303ZM34.2912 20.6805L35.896 16.3411L36.0814 16.5439C35.9424 16.5362 35.7821 16.5613 35.6006 16.6192C35.419 16.6772 35.2259 16.766 35.0212 16.8857C34.8165 17.0055 34.606 17.1561 34.3897 17.3376L34.1812 17.0827C34.5172 16.7042 34.8165 16.4165 35.0792 16.2195C35.3457 16.0225 35.5851 15.8892 35.7976 15.8197C36.01 15.7463 36.2012 15.7096 36.3711 15.7096C36.5604 15.7096 36.6917 15.7521 36.7651 15.8371C36.8423 15.9182 36.8462 16.0515 36.7766 16.2369L35.1719 20.6515L35.0328 20.385C35.1796 20.4004 35.3437 20.3869 35.5253 20.3444C35.7106 20.2981 35.9038 20.2228 36.1046 20.1185C36.3093 20.0142 36.5121 19.8829 36.7129 19.7245L36.9099 19.9968C36.5932 20.3097 36.3054 20.5549 36.0467 20.7326C35.7879 20.9064 35.5523 21.0281 35.3399 21.0976C35.1313 21.171 34.9363 21.2077 34.7547 21.2077C34.5191 21.2077 34.3646 21.169 34.2912 21.0918C34.2179 21.0146 34.2179 20.8774 34.2912 20.6805ZM36.2379 13.5197C36.2379 13.3768 36.2688 13.2493 36.3306 13.1373C36.3962 13.0215 36.487 12.9307 36.6028 12.865C36.7226 12.7994 36.8636 12.7666 37.0258 12.7666C37.2498 12.7666 37.4255 12.8284 37.553 12.9519C37.6804 13.0755 37.7442 13.23 37.7442 13.4154C37.7442 13.5583 37.7113 13.6877 37.6457 13.8036C37.5839 13.9156 37.4931 14.0044 37.3734 14.0701C37.2575 14.1358 37.1185 14.1686 36.9562 14.1686C36.7322 14.1686 36.5565 14.1068 36.429 13.9832C36.3016 13.8596 36.2379 13.7051 36.2379 13.5197ZM41.9532 16.6192C41.8876 16.6192 41.8238 16.6057 41.762 16.5787C41.7041 16.5516 41.6365 16.5169 41.5593 16.4744C41.482 16.4319 41.3874 16.3875 41.2754 16.3411C41.1634 16.2948 41.0263 16.2523 40.864 16.2137C40.7057 16.1751 40.5087 16.148 40.2731 16.1326L40.163 15.7908C40.4759 15.8217 40.7636 15.8313 41.0263 15.8197C41.2889 15.8081 41.5226 15.7908 41.7273 15.7676C41.932 15.7444 42.1058 15.7328 42.2487 15.7328C42.3259 15.7328 42.3839 15.7502 42.4225 15.785C42.4611 15.8197 42.4804 15.8719 42.4804 15.9414C42.4804 16.0148 42.463 16.092 42.4283 16.1731C42.3935 16.2504 42.3491 16.3238 42.295 16.3933C42.241 16.4589 42.183 16.513 42.1212 16.5555C42.0633 16.598 42.0073 16.6192 41.9532 16.6192ZM38.8421 19.0641C38.9966 19.0641 39.1472 19.0293 39.294 18.9598C39.4408 18.8903 39.576 18.7937 39.6996 18.6701C39.827 18.5427 39.9371 18.392 40.0298 18.2182C40.1225 18.0444 40.1959 17.8532 40.2499 17.6447C40.304 17.4361 40.331 17.214 40.331 16.9784C40.331 16.6926 40.277 16.484 40.1688 16.3527C40.0645 16.2214 39.9023 16.1557 39.6822 16.1557C39.5277 16.1557 39.377 16.1905 39.2303 16.26C39.0835 16.3257 38.9464 16.4222 38.8189 16.5497C38.6953 16.6733 38.5853 16.822 38.4887 16.9958C38.396 17.1696 38.3226 17.3608 38.2686 17.5694C38.2184 17.7779 38.1932 18 38.1932 18.2356C38.1932 18.5214 38.2454 18.7319 38.3497 18.8671C38.4578 18.9984 38.622 19.0641 38.8421 19.0641ZM39.7459 15.7096C40.0781 15.7096 40.3484 15.7695 40.557 15.8892C40.7694 16.009 40.9278 16.1731 41.0321 16.3817C41.1363 16.5864 41.1885 16.822 41.1885 17.0885C41.1885 17.4091 41.1248 17.7161 40.9973 18.0097C40.8698 18.2993 40.6941 18.5581 40.4701 18.786C40.2499 19.01 39.995 19.1877 39.7053 19.319C39.4157 19.4464 39.1048 19.5102 38.7726 19.5102C38.4443 19.5102 38.1739 19.4503 37.9615 19.3306C37.7491 19.2108 37.5907 19.0467 37.4864 18.8381C37.386 18.6296 37.3358 18.394 37.3358 18.1313C37.3358 17.8108 37.3976 17.5056 37.5212 17.216C37.6487 16.9224 37.8244 16.6636 38.0484 16.4396C38.2724 16.2118 38.5293 16.0341 38.8189 15.9066C39.1086 15.7753 39.4176 15.7096 39.7459 15.7096ZM38.5582 24.0349C38.1411 24.0349 37.7742 24.0021 37.4575 23.9364C37.1446 23.8746 36.8839 23.7838 36.6754 23.6641C36.4629 23.5444 36.3026 23.3995 36.1945 23.2296C36.0863 23.0597 36.0323 22.8704 36.0323 22.6618C36.0323 22.4146 36.1057 22.2003 36.2524 22.0188C36.3992 21.8411 36.6251 21.6905 36.9303 21.5669C37.2393 21.4433 37.6351 21.3467 38.1179 21.2772L38.4771 21.1092L38.8653 21.4046C38.5331 21.4124 38.2415 21.4433 37.9905 21.4973C37.7433 21.5553 37.5367 21.6325 37.3706 21.7291C37.2084 21.8256 37.0867 21.9415 37.0056 22.0767C36.9283 22.2119 36.8897 22.3625 36.8897 22.5286C36.8897 22.7371 36.9515 22.9206 37.0751 23.079C37.1987 23.2373 37.3899 23.359 37.6487 23.444C37.9074 23.5328 38.2357 23.5772 38.6336 23.5772C39.0159 23.5772 39.3326 23.5309 39.5837 23.4382C39.8347 23.3455 40.0221 23.2238 40.1457 23.0732C40.2692 22.9225 40.331 22.7603 40.331 22.5865C40.331 22.4359 40.2963 22.3046 40.2268 22.1926C40.1572 22.0844 40.0452 21.9879 39.8907 21.9029C39.7362 21.8179 39.5354 21.7368 39.2882 21.6596C39.0449 21.5823 38.7494 21.5031 38.4018 21.422C38.0388 21.3409 37.7665 21.2424 37.5849 21.1266C37.4073 21.0107 37.2875 20.8871 37.2257 20.7558C37.1678 20.6245 37.1388 20.4931 37.1388 20.3618C37.1388 20.1764 37.1948 20.0161 37.3068 19.881C37.4227 19.7458 37.5869 19.6318 37.7993 19.5391C38.0156 19.4426 38.2666 19.3634 38.5524 19.3016L38.761 19.4407C38.4597 19.4716 38.2415 19.5353 38.1063 19.6318C37.9712 19.7284 37.9036 19.8423 37.9036 19.9737C37.9036 20.0432 37.919 20.1069 37.9499 20.1648C37.9808 20.2228 38.0388 20.2807 38.1237 20.3386C38.2126 20.3966 38.34 20.4564 38.5061 20.5182C38.676 20.5762 38.8981 20.6438 39.1723 20.721C39.6822 20.8601 40.08 21.0088 40.3658 21.1671C40.6516 21.3255 40.8505 21.5012 40.9625 21.6943C41.0784 21.8874 41.1363 22.1076 41.1363 22.3548C41.1363 22.5981 41.0784 22.8221 40.9625 23.0268C40.8505 23.2315 40.6844 23.4092 40.4643 23.5598C40.2441 23.7105 39.9738 23.8263 39.6532 23.9074C39.3326 23.9924 38.9676 24.0349 38.5582 24.0349ZM41.7375 17.4303L41.5753 17.3666C41.7221 16.934 41.892 16.598 42.0851 16.3585C42.2821 16.1191 42.5003 15.951 42.7398 15.8545C42.9792 15.7579 43.2342 15.7096 43.5045 15.7096C43.574 15.7096 43.6416 15.7135 43.7073 15.7212C43.7768 15.729 43.8444 15.7386 43.9101 15.7502C43.9796 15.7618 44.0491 15.7753 44.1186 15.7908L43.2902 18.4152H43.3423C43.5624 17.9981 43.7865 17.6234 44.0143 17.2913C44.2461 16.9591 44.4817 16.6772 44.7211 16.4454C44.9645 16.2098 45.2136 16.0302 45.4685 15.9066C45.7234 15.783 45.9822 15.7212 46.2448 15.7212C46.5963 15.7212 46.8454 15.8004 46.9922 15.9588C47.139 16.1133 47.2123 16.3122 47.2123 16.5555C47.2123 16.6907 47.1892 16.8452 47.1428 17.019C47.1003 17.1889 47.0327 17.3917 46.9401 17.6273L45.7292 20.6515L45.6945 20.3908C45.8412 20.3946 46.0015 20.3715 46.1753 20.3213C46.353 20.2711 46.5384 20.1957 46.7315 20.0953C46.9285 19.991 47.1274 19.8655 47.3282 19.7187L47.531 19.9852C47.2104 20.2981 46.9169 20.5453 46.6504 20.7268C46.3839 20.9045 46.1406 21.0281 45.9204 21.0976C45.7002 21.171 45.4975 21.2077 45.3121 21.2077C45.061 21.2077 44.9027 21.1652 44.837 21.0802C44.7714 20.9952 44.7868 20.833 44.8834 20.5936L46.1579 17.4129C46.2081 17.2893 46.2448 17.1831 46.268 17.0943C46.295 17.0016 46.3086 16.9186 46.3086 16.8452C46.3086 16.7409 46.2719 16.6578 46.1985 16.5961C46.1251 16.5304 45.9996 16.4976 45.8219 16.4976C45.5979 16.4976 45.3584 16.5825 45.1035 16.7525C44.8486 16.9186 44.5956 17.1503 44.3446 17.4477C44.0974 17.7412 43.8676 18.083 43.6551 18.4731C43.4466 18.8632 43.2728 19.2804 43.1337 19.7245L42.7108 21.0918H41.8128L43.1975 16.5265C43.1859 16.5265 43.1724 16.5265 43.1569 16.5265C43.1453 16.5265 43.1337 16.5265 43.1221 16.5265C42.9445 16.5265 42.7765 16.5536 42.6181 16.6076C42.4636 16.6617 42.313 16.7544 42.1662 16.8857C42.0233 17.017 41.8804 17.1986 41.7375 17.4303ZM1.45996 28.8201C1.45996 30.4206 5.19096 29.1012 5.19096 31.4696C5.19096 32.5403 4.23929 33.2216 2.88747 33.2216C1.52485 33.2216 0.573169 32.5727 0.356879 31.2209H1.30856C1.43833 32.0212 2.03313 32.4646 2.91992 32.4646C3.78508 32.4646 4.23929 32.0752 4.23929 31.5345C4.23929 29.9664 0.55154 31.2641 0.55154 28.885C0.55154 28.009 1.23285 27.2087 2.63874 27.2087C3.88241 27.2087 4.80164 27.7927 4.98549 29.2202H4.03381C3.89322 28.3226 3.39575 27.9873 2.58467 27.9873C1.87091 27.9873 1.45996 28.3442 1.45996 28.8201ZM6.23617 31.4372V28.1063H5.43589V27.3493H6.23617V26.0299H7.18784V27.3493H8.45314V28.1063H7.18784V31.4372C7.18784 32.1293 7.39332 32.4537 8.23685 32.4537H8.43151V33.1351C8.32337 33.1891 8.08545 33.2216 7.81509 33.2216C6.74445 33.2216 6.23617 32.6484 6.23617 31.4372ZM12.7982 30.745V27.3493H13.7499V33.0918H12.7982V32.3132C12.4089 32.9188 11.8033 33.2216 11.0571 33.2216C9.85666 33.2216 9.1429 32.5186 9.1429 31.1884V27.3493H10.0946V30.9938C10.0946 31.8589 10.4731 32.4105 11.3166 32.4105C12.2467 32.4105 12.7982 31.567 12.7982 30.745ZM17.2041 33.2216C15.6793 33.2216 14.76 32.0969 14.76 30.226C14.76 28.2793 15.7009 27.2087 17.2041 27.2087C17.8854 27.2087 18.437 27.4899 18.8155 28.0198V25.3054H19.7671V33.0918H18.8155V32.3672C18.437 32.908 17.8854 33.2216 17.2041 33.2216ZM17.269 32.3997C18.2747 32.3997 18.8155 31.6318 18.8155 30.226C18.8155 28.8309 18.2531 28.0306 17.269 28.0306C16.2741 28.0306 15.7333 28.8093 15.7333 30.226C15.7333 31.6102 16.2957 32.3997 17.269 32.3997ZM21.0667 26.5815V25.3054H22.0184V26.5815H21.0667ZM21.0667 33.0918V27.3493H22.0184V33.0918H21.0667ZM25.6471 33.2216C24.0033 33.2216 23.0192 32.0969 23.0192 30.226C23.0192 28.2793 24.0357 27.2087 25.6471 27.2087C27.2909 27.2087 28.275 28.355 28.275 30.226C28.275 32.1617 27.2585 33.2216 25.6471 33.2216ZM25.6471 32.3997C26.7177 32.3997 27.3017 31.6318 27.3017 30.226C27.3017 28.8309 26.7069 28.0306 25.6471 28.0306C24.5765 28.0306 23.9925 28.8093 23.9925 30.226C23.9925 31.6102 24.5873 32.3997 25.6471 32.3997Z" fill="#6F02FD"/>
</svg>
