<svg width="25" height="25" viewBox="0 0 25 25" fill="none" xmlns="http://www.w3.org/2000/svg">
<path fill-rule="evenodd" clip-rule="evenodd" d="M6.33784 12.1543C6.33784 8.75101 9.09671 5.99214 12.5 5.99214C15.9033 5.99214 18.6622 8.75101 18.6622 12.1543C18.6622 15.5576 15.9033 18.3165 12.5 18.3165C9.09671 18.3165 6.33784 15.5576 6.33784 12.1543ZM12.5 16.1543C10.2908 16.1543 8.5 14.3634 8.5 12.1543C8.5 9.94515 10.2908 8.1543 12.5 8.1543C14.7091 8.1543 16.5 9.94515 16.5 12.1543C16.5 14.3634 14.7091 16.1543 12.5 16.1543Z" fill="#FAF9FA"/>
<path d="M18.9056 7.18866C19.7009 7.18866 20.3456 6.54398 20.3456 5.74868C20.3456 4.95338 19.7009 4.30866 18.9056 4.30866C18.1104 4.30866 17.4656 4.95338 17.4656 5.74868C17.4656 6.54398 18.1104 7.18866 18.9056 7.18866Z" fill="#FAF9FA"/>
<path fill-rule="evenodd" clip-rule="evenodd" d="M12.5 0.154297C9.241 0.154297 8.83234 0.168111 7.55242 0.22651C6.27516 0.284767 5.40283 0.48764 4.63954 0.784305C3.85044 1.09093 3.18123 1.50125 2.51406 2.16836C1.84695 2.83552 1.43663 3.50473 1.13001 4.29384C0.833343 5.05713 0.63047 5.92945 0.572213 7.20671C0.513814 8.48664 0.5 8.89529 0.5 12.1543C0.5 15.4133 0.513814 15.822 0.572213 17.1019C0.63047 18.3791 0.833343 19.2515 1.13001 20.0148C1.43663 20.8039 1.84695 21.4731 2.51406 22.1402C3.18123 22.8073 3.85044 23.2177 4.63954 23.5243C5.40283 23.821 6.27516 24.0238 7.55242 24.0821C8.83234 24.1405 9.241 24.1543 12.5 24.1543C15.759 24.1543 16.1677 24.1405 17.4476 24.0821C18.7248 24.0238 19.5972 23.821 20.3605 23.5243C21.1496 23.2177 21.8188 22.8073 22.4859 22.1402C23.1531 21.4731 23.5634 20.8039 23.87 20.0148C24.1667 19.2515 24.3695 18.3791 24.4278 17.1019C24.4862 15.822 24.5 15.4133 24.5 12.1543C24.5 8.89529 24.4862 8.48664 24.4278 7.20671C24.3695 5.92945 24.1667 5.05713 23.87 4.29384C23.5634 3.50473 23.1531 2.83552 22.4859 2.16836C21.8188 1.50125 21.1496 1.09093 20.3605 0.784305C19.5972 0.48764 18.7248 0.284767 17.4476 0.22651C16.1677 0.168111 15.759 0.154297 12.5 0.154297ZM12.5 2.31646C15.7041 2.31646 16.0837 2.3287 17.349 2.38643C18.519 2.43978 19.1544 2.63527 19.5773 2.79961C20.1374 3.0173 20.5371 3.27733 20.957 3.69727C21.377 4.11717 21.637 4.51691 21.8547 5.07704C22.019 5.49989 22.2145 6.13528 22.2679 7.30527C22.3256 8.57062 22.3378 8.95017 22.3378 12.1543C22.3378 15.3584 22.3256 15.738 22.2679 17.0033C22.2145 18.1733 22.019 18.8087 21.8547 19.2316C21.637 19.7917 21.377 20.1914 20.957 20.6113C20.5371 21.0313 20.1374 21.2913 19.5773 21.509C19.1544 21.6733 18.519 21.8688 17.349 21.9222C16.0839 21.9799 15.7044 21.9921 12.5 21.9921C9.29564 21.9921 8.91618 21.9799 7.65097 21.9222C6.48098 21.8688 5.84559 21.6733 5.42275 21.509C4.86262 21.2913 4.46287 21.0313 4.04298 20.6113C3.62308 20.1914 3.363 19.7917 3.14531 19.2316C2.98098 18.8087 2.78549 18.1733 2.73214 17.0033C2.6744 15.738 2.66216 15.3584 2.66216 12.1543C2.66216 8.95017 2.6744 8.57062 2.73214 7.30527C2.78549 6.13528 2.98098 5.49989 3.14531 5.07704C3.363 4.51691 3.62304 4.11717 4.04298 3.69727C4.46287 3.27733 4.86262 3.0173 5.42275 2.79961C5.84559 2.63527 6.48098 2.43978 7.65097 2.38643C8.91632 2.3287 9.29587 2.31646 12.5 2.31646Z" fill="#FAF9FA"/>
</svg>
