<svg width="25" height="25" viewBox="0 0 25 25" fill="none" xmlns="http://www.w3.org/2000/svg">
<path d="M20.9491 20.6038H17.3931V15.0348C17.3931 13.7068 17.3694 11.9972 15.5436 11.9972C13.6915 11.9972 13.4081 13.4441 13.4081 14.9381V20.6034H9.85204V9.15124H13.2658V10.7163H13.3136C14.0097 9.52609 15.304 8.81523 16.6819 8.86638C20.2861 8.86638 20.9506 11.2371 20.9506 14.3213L20.9491 20.6038ZM5.83963 7.5858C4.69992 7.586 3.77584 6.66224 3.77564 5.5225C3.77544 4.38277 4.69918 3.45867 5.83889 3.45847C6.9786 3.45826 7.90268 4.38203 7.90288 5.52176C7.90298 6.06908 7.68566 6.59402 7.29872 6.9811C6.91179 7.36819 6.38694 7.5857 5.83963 7.5858ZM7.61765 20.6038H4.0579V9.15124H7.61765V20.6038ZM22.722 0.156086H2.27099C1.30443 0.145179 0.511796 0.919428 0.5 1.88599V22.4223C0.511392 23.3893 1.30396 24.1643 2.27099 24.1542H22.722C23.6909 24.1662 24.4866 23.3912 24.5 22.4223V1.88451C24.4862 0.916036 23.6904 0.141832 22.722 0.154449" fill="#FAF9FA"/>
</svg>
