<svg width="57" height="47" viewBox="0 0 57 47" fill="none" xmlns="http://www.w3.org/2000/svg">
<path fill-rule="evenodd" clip-rule="evenodd" d="M11.5221 38.5412V8.64155C11.5221 7.19901 10.3527 6.02959 8.91011 6.02959C7.46756 6.02959 6.29815 7.19901 6.29815 8.64155L6.29815 38.5412C6.29815 39.9838 7.46756 41.1532 8.91011 41.1532C10.3527 41.1532 11.5221 39.9838 11.5221 38.5412ZM8.91011 0.805664C4.58247 0.805664 1.07422 4.31391 1.07422 8.64155L1.07422 38.5412C1.07422 42.8689 4.58247 46.3771 8.91011 46.3771C13.2378 46.3771 16.746 42.8689 16.746 38.5412L16.746 8.64155C16.746 4.31391 13.2378 0.805664 8.91011 0.805664Z" stroke="#FAF9FA" stroke-width="0.461026"/>
<path fill-rule="evenodd" clip-rule="evenodd" d="M31.1119 32.7564V18.3906C31.1119 16.948 29.9425 15.7786 28.5 15.7786C27.0574 15.7786 25.888 16.948 25.888 18.3906V32.7564C25.888 34.1989 27.0574 35.3683 28.5 35.3683C29.9425 35.3683 31.1119 34.1989 31.1119 32.7564ZM28.5 10.5547C24.1723 10.5547 20.6641 14.0629 20.6641 18.3906V32.7564C20.6641 37.084 24.1723 40.5923 28.5 40.5923C32.8276 40.5923 36.3358 37.084 36.3358 32.7564V18.3906C36.3358 14.0629 32.8276 10.5547 28.5 10.5547Z" stroke="#FAF9FA" stroke-width="0.461026"/>
<path fill-rule="evenodd" clip-rule="evenodd" d="M50.7018 29.5371V15.1713C50.7018 13.7288 49.5323 12.5594 48.0898 12.5594C46.6472 12.5594 45.4778 13.7288 45.4778 15.1713V29.5371C45.4778 30.9797 46.6472 32.1491 48.0898 32.1491C49.5323 32.1491 50.7018 30.9797 50.7018 29.5371ZM48.0898 7.33545C43.7622 7.33545 40.2539 10.8437 40.2539 15.1713V29.5371C40.2539 33.8648 43.7622 37.373 48.0898 37.373C52.4174 37.373 55.9257 33.8648 55.9257 29.5371V15.1713C55.9257 10.8437 52.4174 7.33545 48.0898 7.33545Z" stroke="#FAF9FA" stroke-width="0.461026"/>
<path d="M31.2031 6.63663C31.2031 5.24464 32.3316 4.11621 33.7235 4.11621V4.11621C35.1155 4.11621 36.244 5.24464 36.244 6.63663V6.63663C36.244 8.02861 35.1155 9.15704 33.7235 9.15704V9.15704C32.3316 9.15704 31.2031 8.02861 31.2031 6.63663V6.63663Z" stroke="#FAF9FA" stroke-width="0.461026"/>
<path d="M50.793 3.41788C50.793 2.02589 51.9214 0.897461 53.3134 0.897461V0.897461C54.7054 0.897461 55.8338 2.02589 55.8338 3.41788V3.41788C55.8338 4.80986 54.7054 5.93829 53.3134 5.93829V5.93829C51.9214 5.93829 50.793 4.80986 50.793 3.41788V3.41788Z" stroke="#FAF9FA" stroke-width="0.461026"/>
<path d="M6.38867 38.3886C6.38867 36.9966 7.5171 35.8682 8.90909 35.8682V35.8682C10.3011 35.8682 11.4295 36.9966 11.4295 38.3886V38.3886C11.4295 39.7806 10.3011 40.909 8.90909 40.909V40.909C7.5171 40.909 6.38867 39.7806 6.38867 38.3886V38.3886Z" stroke="#FAF9FA" stroke-width="0.115256"/>
<path fill-rule="evenodd" clip-rule="evenodd" d="M9.54603 38.388H8.40039V38.2734H9.54603V38.388Z" fill="#FAF9FA"/>
<path fill-rule="evenodd" clip-rule="evenodd" d="M8.91669 38.9611L8.91669 37.8154L9.03125 37.8154L9.03125 38.9611L8.91669 38.9611Z" fill="#FAF9FA"/>
<path d="M6.38867 8.56875C6.38867 7.17677 7.5171 6.04834 8.90909 6.04834V6.04834C10.3011 6.04834 11.4295 7.17677 11.4295 8.56875V8.56875C11.4295 9.96074 10.3011 11.0892 8.90909 11.0892V11.0892C7.5171 11.0892 6.38867 9.96074 6.38867 8.56875V8.56875Z" stroke="#FAF9FA" stroke-width="0.115256"/>
<path fill-rule="evenodd" clip-rule="evenodd" d="M9.54603 8.56867H8.40039V8.4541H9.54603V8.56867Z" fill="#FAF9FA"/>
<path fill-rule="evenodd" clip-rule="evenodd" d="M8.91669 9.14174L8.91669 7.99609L9.03125 7.99609L9.03125 9.14174L8.91669 9.14174Z" fill="#FAF9FA"/>
<path d="M25.9336 18.3427C25.9336 16.9507 27.062 15.8223 28.454 15.8223V15.8223C29.846 15.8223 30.9744 16.9507 30.9744 18.3427V18.3427C30.9744 19.7347 29.846 20.8631 28.454 20.8631V20.8631C27.062 20.8631 25.9336 19.7347 25.9336 18.3427V18.3427Z" stroke="#FAF9FA" stroke-width="0.115256"/>
<path fill-rule="evenodd" clip-rule="evenodd" d="M29.091 18.3426H27.9453V18.228H29.091V18.3426Z" fill="#FAF9FA"/>
<path fill-rule="evenodd" clip-rule="evenodd" d="M28.4616 18.9152L28.4616 17.7695L28.5762 17.7695L28.5762 18.9152L28.4616 18.9152Z" fill="#FAF9FA"/>
<path fill-rule="evenodd" clip-rule="evenodd" d="M34.298 6.63703H33.1523V6.52246H34.298V6.63703Z" fill="#FAF9FA"/>
<path fill-rule="evenodd" clip-rule="evenodd" d="M33.6686 7.20961L33.6686 6.06396L33.7832 6.06396L33.7832 7.20961L33.6686 7.20961Z" fill="#FAF9FA"/>
<path fill-rule="evenodd" clip-rule="evenodd" d="M53.8859 3.41779H52.7402V3.30322H53.8859V3.41779Z" fill="#FAF9FA"/>
<path fill-rule="evenodd" clip-rule="evenodd" d="M53.2565 3.99037L53.2565 2.84473L53.3711 2.84473L53.3711 3.99037L53.2565 3.99037Z" fill="#FAF9FA"/>
<path d="M45.5234 15.1234C45.5234 13.7315 46.6519 12.603 48.0439 12.603V12.603C49.4358 12.603 50.5643 13.7315 50.5643 15.1234V15.1234C50.5643 16.5154 49.4358 17.6439 48.0439 17.6439V17.6439C46.6519 17.6439 45.5234 16.5154 45.5234 15.1234V15.1234Z" stroke="#FAF9FA" stroke-width="0.115256"/>
<path fill-rule="evenodd" clip-rule="evenodd" d="M48.6788 15.1234H47.5332V15.0088H48.6788V15.1234Z" fill="#FAF9FA"/>
<path fill-rule="evenodd" clip-rule="evenodd" d="M48.0495 15.6964L48.0495 14.5508L48.1641 14.5508L48.1641 15.6964L48.0495 15.6964Z" fill="#FAF9FA"/>
<path d="M25.9336 32.8485C25.9336 31.4566 27.062 30.3281 28.454 30.3281V30.3281C29.846 30.3281 30.9744 31.4566 30.9744 32.8485V32.8485C30.9744 34.2405 29.846 35.369 28.454 35.369V35.369C27.062 35.369 25.9336 34.2405 25.9336 32.8485V32.8485Z" stroke="#FAF9FA" stroke-width="0.115256"/>
<path fill-rule="evenodd" clip-rule="evenodd" d="M29.089 32.8489H27.9434V32.7344H29.089V32.8489Z" fill="#FAF9FA"/>
<path fill-rule="evenodd" clip-rule="evenodd" d="M28.4597 33.4215L28.4597 32.2759L28.5742 32.2759L28.5742 33.4215L28.4597 33.4215Z" fill="#FAF9FA"/>
<path d="M45.5234 29.6293C45.5234 28.2373 46.6519 27.1089 48.0439 27.1089V27.1089C49.4358 27.1089 50.5643 28.2373 50.5643 29.6293V29.6293C50.5643 31.0213 49.4358 32.1497 48.0439 32.1497V32.1497C46.6519 32.1497 45.5234 31.0213 45.5234 29.6293V29.6293Z" stroke="#FAF9FA" stroke-width="0.115256"/>
<path fill-rule="evenodd" clip-rule="evenodd" d="M48.6788 29.6302H47.5332V29.5156H48.6788V29.6302Z" fill="#FAF9FA"/>
<path fill-rule="evenodd" clip-rule="evenodd" d="M48.0495 30.2028L48.0495 29.0571L48.1641 29.0571L48.1641 30.2028L48.0495 30.2028Z" fill="#FAF9FA"/>
<path d="M8.96875 9.67627L8.96871 37.0127" stroke="#FAF9FA" stroke-width="0.115256" stroke-linecap="round" stroke-dasharray="0.46 0.92"/>
<line x1="28.5108" y1="19.3692" x2="28.5108" y2="31.8835" stroke="#FAF9FA" stroke-width="0.115256" stroke-linecap="round" stroke-dasharray="0.46 0.92"/>
<line x1="48.1475" y1="16.1499" x2="48.1475" y2="28.6643" stroke="#FAF9FA" stroke-width="0.115256" stroke-linecap="round" stroke-dasharray="0.46 0.92"/>
</svg>
