<svg width="51" height="35" viewBox="0 0 51 35" fill="none" xmlns="http://www.w3.org/2000/svg">
<mask id="mask0_3212_903" style="mask-type:alpha" maskUnits="userSpaceOnUse" x="0" y="0" width="51" height="35">
<path fill-rule="evenodd" clip-rule="evenodd" d="M10.0181 27.0987V8.06243C10.0181 6.74825 8.95278 5.6829 7.6386 5.6829C6.32442 5.6829 5.25907 6.74825 5.25907 8.06243V27.0987C5.25907 28.4129 6.32442 29.4782 7.6386 29.4782C8.95278 29.4782 10.0181 28.4129 10.0181 27.0987ZM7.6386 0.923828C3.69606 0.923828 0.5 4.11989 0.5 8.06243V27.0987C0.5 31.0412 3.69606 34.2373 7.6386 34.2373C11.5811 34.2373 14.7772 31.0412 14.7772 27.0987V8.06243C14.7772 4.11989 11.5811 0.923828 7.6386 0.923828Z" fill="#FAF9FA"/>
<path fill-rule="evenodd" clip-rule="evenodd" d="M27.8638 27.0984V14.6059C27.8638 13.2917 26.7985 12.2264 25.4843 12.2264C24.1701 12.2264 23.1048 13.2917 23.1048 14.6059V27.0984C23.1048 28.4126 24.1701 29.478 25.4843 29.478C26.7985 29.478 27.8638 28.4126 27.8638 27.0984ZM25.4843 7.46729C21.5418 7.46729 18.3457 10.6633 18.3457 14.6059V27.0984C18.3457 31.041 21.5418 34.237 25.4843 34.237C29.4268 34.237 32.6229 31.041 32.6229 27.0984V14.6059C32.6229 10.6633 29.4268 7.46729 25.4843 7.46729Z" fill="#FAF9FA"/>
<path fill-rule="evenodd" clip-rule="evenodd" d="M45.7115 27.0984V14.6059C45.7115 13.2917 44.6461 12.2264 43.332 12.2264C42.0178 12.2264 40.9524 13.2917 40.9524 14.6059V27.0984C40.9524 28.4126 42.0178 29.478 43.332 29.478C44.6461 29.478 45.7115 28.4126 45.7115 27.0984ZM43.332 7.46729C39.3894 7.46729 36.1934 10.6633 36.1934 14.6059V27.0984C36.1934 31.041 39.3894 34.237 43.332 34.237C47.2745 34.237 50.4706 31.041 50.4706 27.0984V14.6059C50.4706 10.6633 47.2745 7.46729 43.332 7.46729Z" fill="#FAF9FA"/>
</mask>
<g mask="url(#mask0_3212_903)">
<path d="M-2.77148 38.104H51.9578V19.9601H-2.77148V38.104Z" fill="#FAF9FA"/>
</g>
<path d="M10.0188 0.923828H5.25977V5.6829H10.0188V0.923828Z" fill="#FAF9FA"/>
<path d="M5.25907 5.68262H0.5V10.4417H5.25907V5.68262Z" fill="#FAF9FA"/>
<path d="M14.7766 5.68262H10.0176V10.4417H14.7766V5.68262Z" fill="#FAF9FA"/>
<path d="M5.25907 10.4419H0.5V15.201H5.25907V10.4419Z" fill="#FAF9FA"/>
<path d="M14.7766 10.4419H10.0176V15.201H14.7766V10.4419Z" fill="#FAF9FA"/>
<path d="M5.25907 15.2007H0.5V19.9598H5.25907V15.2007Z" fill="#FAF9FA"/>
<path d="M14.7766 15.2007H10.0176V19.9598H14.7766V15.2007Z" fill="#FAF9FA"/>
<path d="M5.25907 19.96H0.5V24.719H5.25907V19.96Z" fill="#FAF9FA"/>
<path d="M14.7766 19.96H10.0176V24.719H14.7766V19.96Z" fill="#FAF9FA"/>
<path d="M27.8938 10.4419H23.1348V15.201H27.8938V10.4419Z" fill="#FAF9FA"/>
<path d="M32.6536 0.923828H27.8945V5.6829H32.6536V0.923828Z" fill="#FAF9FA"/>
<path d="M32.6536 10.4419H27.8945V15.201H32.6536V10.4419Z" fill="#FAF9FA"/>
<path d="M23.136 15.2007H18.377V19.9598H23.136V15.2007Z" fill="#FAF9FA"/>
<path d="M32.6536 15.2007H27.8945V19.9598H32.6536V15.2007Z" fill="#FAF9FA"/>
<path d="M23.136 19.96H18.377V24.719H23.136V19.96Z" fill="#FAF9FA"/>
<path d="M32.6536 19.96H27.8945V24.719H32.6536V19.96Z" fill="#FAF9FA"/>
<path d="M45.7415 10.4419H40.9824V15.201H45.7415V10.4419Z" fill="#FAF9FA"/>
<path d="M50.4993 0.923828H45.7402V5.6829H50.4993V0.923828Z" fill="#FAF9FA"/>
<path d="M50.4993 10.4419H45.7402V15.201H50.4993V10.4419Z" fill="#FAF9FA"/>
<path d="M40.9817 15.2007H36.2227V19.9598H40.9817V15.2007Z" fill="#FAF9FA"/>
<path d="M50.4993 15.2007H45.7402V19.9598H50.4993V15.2007Z" fill="#FAF9FA"/>
<path d="M40.9817 19.96H36.2227V24.719H40.9817V19.96Z" fill="#FAF9FA"/>
<path d="M50.4993 19.96H45.7402V24.719H50.4993V19.96Z" fill="#FAF9FA"/>
</svg>
