<svg width="51" height="10" viewBox="0 0 51 10" fill="none" xmlns="http://www.w3.org/2000/svg">
<path d="M48.1474 3.21045C48.5447 3.21045 48.8813 3.28991 49.1573 3.44883C49.4375 3.60775 49.6508 3.83358 49.7972 4.12633C49.9477 4.41489 50.023 4.75991 50.023 5.16139C50.023 5.68834 49.9394 6.19228 49.7721 6.67322C49.6048 7.14998 49.3727 7.57655 49.0758 7.95294C48.783 8.32514 48.438 8.61998 48.0407 8.83745C47.6476 9.05492 47.221 9.16365 46.761 9.16365C46.3679 9.16365 46.0312 9.08419 45.751 8.92527C45.475 8.76635 45.2617 8.54052 45.1112 8.24777C44.9648 7.95503 44.8916 7.61001 44.8916 7.21271C44.8916 6.68576 44.9732 6.18182 45.1363 5.70088C45.3035 5.21994 45.5356 4.79337 45.8326 4.42116C46.1295 4.04478 46.4745 3.74994 46.8676 3.53665C47.2608 3.31918 47.6873 3.21045 48.1474 3.21045ZM46.7861 8.61789C47.037 8.61789 47.2754 8.54888 47.5012 8.41088C47.7271 8.26868 47.932 8.07631 48.116 7.83375C48.3042 7.59119 48.4652 7.31308 48.599 6.99942C48.737 6.68576 48.8437 6.35538 48.919 6.00827C48.9942 5.65697 49.0319 5.30568 49.0319 4.95438C49.0319 4.55708 48.9566 4.25806 48.806 4.05732C48.6555 3.85658 48.4296 3.75621 48.1285 3.75621C47.8776 3.75621 47.6392 3.82731 47.4134 3.9695C47.1876 4.10751 46.9806 4.29779 46.7924 4.54035C46.6083 4.78291 46.4473 5.06102 46.3093 5.37468C46.1713 5.68834 46.0647 6.02081 45.9894 6.37211C45.9183 6.71922 45.8828 7.06633 45.8828 7.41345C45.8828 7.81075 45.958 8.11186 46.1086 8.31678C46.2591 8.51752 46.485 8.61789 46.7861 8.61789Z" fill="#FAF9FA"/>
<path d="M41.8838 8.59254L43.6215 3.89396L43.8222 4.11352C43.6717 4.10516 43.4981 4.13234 43.3016 4.19507C43.105 4.2578 42.8959 4.35399 42.6743 4.48363C42.4526 4.61328 42.2247 4.77638 41.9905 4.97294L41.7646 4.69692C42.1285 4.28708 42.4526 3.97551 42.737 3.76222C43.0255 3.54894 43.2848 3.40466 43.5149 3.32938C43.7449 3.24992 43.9519 3.21019 44.1359 3.21019C44.3408 3.21019 44.483 3.25619 44.5625 3.3482C44.6461 3.43602 44.6503 3.5803 44.575 3.78104L42.8374 8.56117L42.6868 8.27261C42.8457 8.28933 43.0235 8.2747 43.22 8.22869C43.4208 8.17851 43.6299 8.09696 43.8473 7.98404C44.069 7.87113 44.2885 7.72893 44.506 7.55747L44.7193 7.85231C44.3764 8.19106 44.0648 8.45662 43.7846 8.64899C43.5044 8.83719 43.2493 8.96892 43.0193 9.0442C42.7934 9.12366 42.5822 9.16339 42.3857 9.16339C42.1306 9.16339 41.9633 9.12157 41.8838 9.03793C41.8044 8.95429 41.8044 8.80582 41.8838 8.59254ZM43.9916 0.838944C43.9916 0.684207 44.0251 0.546198 44.092 0.424918C44.1631 0.299455 44.2614 0.201176 44.3868 0.130081C44.5165 0.0589852 44.6691 0.0234375 44.8448 0.0234375C45.0873 0.0234375 45.2776 0.0903508 45.4156 0.224177C45.5536 0.358004 45.6226 0.525288 45.6226 0.726028C45.6226 0.880765 45.5871 1.02087 45.516 1.14633C45.4491 1.26761 45.3508 1.3638 45.2211 1.43489C45.0957 1.50599 44.9451 1.54154 44.7695 1.54154C44.5269 1.54154 44.3366 1.47462 44.1986 1.34079C44.0606 1.20697 43.9916 1.03968 43.9916 0.838944Z" fill="#FAF9FA"/>
<path d="M40.3554 4.37091C40.2759 4.1869 40.1568 4.04261 39.9978 3.93806C39.8431 3.83351 39.6591 3.78123 39.4458 3.78123C39.1154 3.78123 38.8038 3.87533 38.5111 4.06352C38.2184 4.25172 37.9486 4.50055 37.7019 4.81003C37.4593 5.11532 37.2481 5.4457 37.0683 5.80118C36.8926 6.15248 36.7567 6.49541 36.6605 6.82998C36.5643 7.16036 36.5162 7.44683 36.5162 7.68939C36.5162 7.91523 36.5769 8.0846 36.6982 8.19752C36.8236 8.30625 36.9867 8.36062 37.1875 8.36062C37.3338 8.36062 37.5095 8.30625 37.7144 8.19752C37.9193 8.0846 38.1326 7.93196 38.3543 7.73958C38.5759 7.54302 38.7934 7.3151 39.0067 7.05581C39.2241 6.79652 39.4186 6.51423 39.5901 6.20894C39.7657 5.90364 39.9037 5.5879 40.0041 5.26169L41.2964 1.08379C41.2211 1.02942 41.1333 0.972962 41.0329 0.914413C40.9367 0.855864 40.8322 0.799405 40.7192 0.745038C40.6063 0.690671 40.4892 0.642577 40.368 0.600756L40.437 0.349831L42.3754 -0.00146484H42.5635L39.8347 8.58018L39.6716 8.28534C39.8306 8.30625 40.0104 8.29371 40.2111 8.2477C40.4119 8.19752 40.6251 8.11388 40.851 7.99678C41.081 7.87968 41.3089 7.73122 41.5348 7.55139L41.7418 7.83995C41.2232 8.35016 40.7799 8.69937 40.4119 8.88756C40.048 9.07157 39.7323 9.16358 39.4646 9.16358C39.2555 9.16358 39.1071 9.11967 39.0192 9.03184C38.9356 8.94402 38.923 8.81856 38.9816 8.65546L39.7469 6.46613H39.8034C39.4395 7.00562 39.1112 7.45102 38.8185 7.80231C38.5299 8.14942 38.2685 8.42126 38.0343 8.61782C37.8001 8.81438 37.5827 8.95238 37.3819 9.03184C37.1812 9.1113 36.9888 9.15103 36.8048 9.15103C36.5455 9.15103 36.3176 9.10294 36.121 9.00675C35.9245 8.91056 35.7718 8.7621 35.6631 8.56136C35.5544 8.36062 35.5 8.10551 35.5 7.79604C35.5 7.44892 35.5648 7.07045 35.6945 6.6606C35.8241 6.25076 36.006 5.84509 36.2402 5.44361C36.4786 5.03795 36.7567 4.66993 37.0746 4.33954C37.3924 4.00498 37.7416 3.73732 38.1222 3.53658C38.5027 3.33166 38.9021 3.2292 39.3203 3.2292C39.6256 3.2292 39.8745 3.29611 40.0668 3.42994C40.2592 3.56376 40.414 3.75823 40.5311 4.01334L40.3554 4.37091Z" fill="#FAF9FA"/>
<path d="M33.0182 8.70571L33.7459 6.43484H33.7082C33.3778 7.01615 33.0767 7.48873 32.8049 7.85257C32.5372 8.21223 32.2884 8.48824 32.0584 8.68062C31.8326 8.86881 31.6172 8.99637 31.4123 9.06328C31.2073 9.13019 31.0024 9.16365 30.7975 9.16365C30.442 9.16365 30.1848 9.08628 30.0259 8.93155C29.867 8.77263 29.7875 8.5677 29.7875 8.31678C29.7875 8.17459 29.8105 8.00312 29.8565 7.80238C29.9025 7.60164 29.9862 7.34653 30.1075 7.03706L31.3433 3.8064L31.5126 4.10751C31.3579 4.09914 31.1781 4.12842 30.9731 4.19533C30.7682 4.25806 30.5528 4.35843 30.327 4.49644C30.1054 4.63027 29.8816 4.79755 29.6558 4.99829L29.4111 4.70973C29.7708 4.31243 30.0949 4.00505 30.3835 3.78758C30.6762 3.57011 30.9418 3.41955 31.1802 3.33591C31.4227 3.25227 31.6423 3.21045 31.8388 3.21045C32.0479 3.21045 32.1943 3.25645 32.278 3.34846C32.3616 3.44046 32.3637 3.58684 32.2842 3.78758L30.8916 7.45109C30.8498 7.55982 30.8163 7.66019 30.7912 7.7522C30.7703 7.84002 30.7599 7.91739 30.7599 7.9843C30.7599 8.1014 30.7975 8.19132 30.8728 8.25405C30.9522 8.3126 31.0693 8.34187 31.2241 8.34187C31.3955 8.34187 31.5942 8.27705 31.82 8.1474C32.0458 8.01358 32.28 7.81911 32.5226 7.564C32.7652 7.30471 32.9994 6.9806 33.2252 6.59167C33.4552 6.20273 33.656 5.75316 33.8274 5.24294L34.4861 3.33591H35.4522L33.8274 8.54261L33.7396 8.28541C33.8985 8.30632 34.0783 8.29378 34.2791 8.24777C34.4798 8.19759 34.6931 8.11395 34.9189 7.99685C35.149 7.87975 35.3769 7.73129 35.6027 7.55146L35.8097 7.84002C35.2953 8.36278 34.8541 8.71408 34.4861 8.89391C34.1181 9.07374 33.8002 9.16365 33.5326 9.16365C33.2984 9.16365 33.1416 9.12601 33.0621 9.05073C32.9826 8.97546 32.968 8.86045 33.0182 8.70571Z" fill="#FAF9FA"/>
<path d="M26.2695 3.91288L26.3511 3.33575H29.8829L29.8139 3.91288H26.2695ZM27.3297 7.51993C27.3046 7.60357 27.2837 7.68094 27.267 7.75203C27.2502 7.81895 27.2356 7.87959 27.223 7.93395C27.2147 7.98832 27.2105 8.03432 27.2105 8.07196C27.2105 8.15142 27.2251 8.20788 27.2544 8.24134C27.2837 8.27479 27.3255 8.29152 27.3799 8.29152C27.4719 8.29152 27.5932 8.24761 27.7437 8.15979C27.8985 8.07196 28.0741 7.94441 28.2707 7.77712C28.4714 7.60566 28.6868 7.39237 28.9168 7.13726L29.1928 7.39446C28.9753 7.67466 28.7621 7.9235 28.553 8.14097C28.3438 8.35843 28.1431 8.54245 27.9507 8.693C27.7584 8.84356 27.5743 8.95856 27.3987 9.03802C27.2272 9.11748 27.0641 9.15721 26.9094 9.15721C26.717 9.15721 26.5623 9.10076 26.4452 8.98784C26.3281 8.87074 26.2695 8.68046 26.2695 8.41698C26.2695 8.30407 26.2842 8.16815 26.3134 8.00923C26.3427 7.85031 26.3908 7.65794 26.4577 7.4321L27.9821 2.16895H28.9042L27.3297 7.51993Z" fill="#FAF9FA"/>
<path d="M22.2292 7.564C22.2836 7.67274 22.3358 7.77938 22.386 7.88393C22.4404 7.98848 22.5198 8.11604 22.6244 8.26659C22.7289 8.41715 22.8335 8.51961 22.9381 8.57398C23.0426 8.62834 23.1576 8.65553 23.2831 8.65553C23.5005 8.65553 23.6971 8.61998 23.8728 8.54888C24.0484 8.47779 24.1885 8.37115 24.293 8.22896C24.3976 8.08676 24.4499 7.9153 24.4499 7.71456C24.4499 7.57655 24.4248 7.44481 24.3746 7.31935C24.3244 7.18971 24.2324 7.0517 24.0986 6.90532C23.9648 6.75895 23.7703 6.59376 23.5152 6.40975C23.2643 6.22155 23.0677 6.04591 22.9255 5.8828C22.7833 5.71552 22.6829 5.55451 22.6244 5.39977C22.57 5.24085 22.5428 5.07775 22.5428 4.91047C22.5428 4.58427 22.6223 4.29361 22.7812 4.0385C22.9443 3.77921 23.1785 3.57638 23.4838 3.43001C23.7891 3.28364 24.155 3.21045 24.5816 3.21045C24.8869 3.21045 25.1399 3.24809 25.3407 3.32337C25.5456 3.39446 25.6982 3.49483 25.7986 3.62448C25.9032 3.75412 25.9554 3.90677 25.9554 4.08241C25.9554 4.19951 25.9262 4.30407 25.8676 4.39607C25.8132 4.48808 25.7338 4.56126 25.6292 4.61563C25.5289 4.66582 25.4076 4.69091 25.2654 4.69091C25.2194 4.60308 25.1671 4.51735 25.1086 4.43371C25.05 4.35007 24.9705 4.24343 24.8702 4.11378C24.774 3.98832 24.6694 3.89631 24.5565 3.83776C24.4478 3.77921 24.3349 3.74994 24.2178 3.74994C23.9418 3.74994 23.7159 3.81894 23.5403 3.95695C23.3688 4.09078 23.2831 4.27479 23.2831 4.50899C23.2831 4.61772 23.3082 4.73064 23.3584 4.84774C23.4127 4.96065 23.5068 5.0903 23.6406 5.23667C23.7787 5.37886 23.9752 5.55033 24.2303 5.75107C24.4896 5.94763 24.6883 6.14 24.8263 6.3282C24.9685 6.51221 25.0688 6.69204 25.1274 6.86769C25.1859 7.03915 25.2152 7.21271 25.2152 7.38835C25.2152 7.73547 25.1169 8.04285 24.9204 8.31051C24.7238 8.57816 24.4562 8.78726 24.1174 8.93782C23.7828 9.08837 23.4023 9.16365 22.9757 9.16365C22.6244 9.16365 22.3358 9.11974 22.11 9.03192C21.8883 8.93991 21.7252 8.82072 21.6207 8.67435C21.5161 8.52797 21.4639 8.37115 21.4639 8.20386C21.4639 8.0784 21.489 7.96757 21.5391 7.87139C21.5935 7.7752 21.6772 7.69992 21.7901 7.64555C21.9072 7.59119 22.0535 7.564 22.2292 7.564Z" fill="#FAF9FA"/>
<path d="M16.0445 9.18255C14.3491 9.18255 13.3271 7.93211 13.3271 5.85204C13.3271 3.68781 14.3732 2.49748 16.0445 2.49748C16.8019 2.49748 17.4151 2.81009 17.836 3.39925V0.381348H18.894V9.03827H17.836V8.23269C17.4151 8.83387 16.8019 9.18255 16.0445 9.18255ZM16.1166 8.26876C17.2348 8.26876 17.836 7.4151 17.836 5.85204C17.836 4.30101 17.2107 3.41127 16.1166 3.41127C15.0104 3.41127 14.4093 4.27696 14.4093 5.85204C14.4093 7.39105 15.0345 8.26876 16.1166 8.26876Z" fill="#FAF9FA"/>
<path d="M9.35794 9.18255C7.66262 9.18255 6.64062 7.93211 6.64062 5.85204C6.64062 3.68781 7.68667 2.49748 9.35794 2.49748C10.1154 2.49748 10.7286 2.81009 11.1494 3.39925V0.381348H12.2075V9.03827H11.1494V8.23269C10.7286 8.83387 10.1154 9.18255 9.35794 9.18255ZM9.43008 8.26876C10.5483 8.26876 11.1494 7.4151 11.1494 5.85204C11.1494 4.30101 10.5242 3.41127 9.43008 3.41127C8.32392 3.41127 7.72274 4.27696 7.72274 5.85204C7.72274 7.39105 8.34796 8.26876 9.43008 8.26876Z" fill="#FAF9FA"/>
<path d="M2.92171 9.18263C1.09414 9.18263 0 7.93218 0 5.85212C0 3.68789 1.13021 2.49756 2.92171 2.49756C4.74928 2.49756 5.84342 3.77205 5.84342 5.85212C5.84342 8.00432 4.71321 9.18263 2.92171 9.18263ZM2.92171 8.26884C4.11204 8.26884 4.76131 7.41517 4.76131 5.85212C4.76131 4.30108 4.10001 3.41134 2.92171 3.41134C1.73138 3.41134 1.08212 4.27704 1.08212 5.85212C1.08212 7.39112 1.74341 8.26884 2.92171 8.26884Z" fill="#FAF9FA"/>
</svg>
