<svg width="79" height="13" viewBox="0 0 79 13" fill="none" xmlns="http://www.w3.org/2000/svg">
<path d="M3.38454 9.73283C1.58576 9.73283 0.508865 8.50209 0.508865 6.45479C0.508865 4.32466 1.62127 3.15309 3.38454 3.15309C5.18332 3.15309 6.26022 4.4075 6.26022 6.45479C6.26022 8.57309 5.14782 9.73283 3.38454 9.73283ZM3.38454 8.83344C4.55611 8.83344 5.19515 7.99322 5.19515 6.45479C5.19515 4.9282 4.54428 4.05248 3.38454 4.05248C2.21297 4.05248 1.57393 4.90453 1.57393 6.45479C1.57393 7.96955 2.2248 8.83344 3.38454 8.83344ZM9.71891 9.73283C8.05031 9.73283 7.04441 8.50209 7.04441 6.45479C7.04441 4.32466 8.07397 3.15309 9.71891 3.15309C10.4645 3.15309 11.068 3.46078 11.4822 4.04064V1.07029H12.5236V9.59082H11.4822V8.79794C11.068 9.38964 10.4645 9.73283 9.71891 9.73283ZM9.78991 8.83344C10.8905 8.83344 11.4822 7.99322 11.4822 6.45479C11.4822 4.9282 10.8668 4.05248 9.78991 4.05248C8.70118 4.05248 8.10948 4.90453 8.10948 6.45479C8.10948 7.96955 8.72485 8.83344 9.78991 8.83344ZM16.3007 9.73283C14.6321 9.73283 13.6262 8.50209 13.6262 6.45479C13.6262 4.32466 14.6557 3.15309 16.3007 3.15309C17.0462 3.15309 17.6498 3.46078 18.064 4.04064V1.07029H19.1054V9.59082H18.064V8.79794C17.6498 9.38964 17.0462 9.73283 16.3007 9.73283ZM16.3717 8.83344C17.4723 8.83344 18.064 7.99322 18.064 6.45479C18.064 4.9282 17.4486 4.05248 16.3717 4.05248C15.283 4.05248 14.6913 4.90453 14.6913 6.45479C14.6913 7.96955 15.3066 8.83344 16.3717 8.83344ZM24.8714 4.39863C24.6215 4.39863 24.3901 4.46417 24.1771 4.59525C23.9682 4.72224 23.7797 4.89839 23.6118 5.12369C23.4479 5.34489 23.3066 5.59682 23.1878 5.87948C23.0731 6.16213 22.983 6.45912 22.9174 6.77044C22.856 7.07767 22.8253 7.37876 22.8253 7.6737C22.8253 8.14479 22.9154 8.47455 23.0956 8.66298C23.2759 8.85142 23.5278 8.94564 23.8514 8.94564C24.0644 8.94564 24.2651 8.91082 24.4536 8.84118C24.6461 8.76744 24.8284 8.64455 25.0005 8.4725C25.1766 8.30045 25.3446 8.06491 25.5043 7.76587H25.9467C25.7214 8.26154 25.4879 8.65069 25.2462 8.93335C25.0086 9.216 24.7526 9.41672 24.4782 9.53552C24.2078 9.65431 23.9067 9.71371 23.5749 9.71371C23.2103 9.71371 22.899 9.64817 22.6409 9.51708C22.3869 9.3819 22.1924 9.18323 22.0572 8.92106C21.922 8.65889 21.8544 8.33118 21.8544 7.93792C21.8544 7.47912 21.9097 7.0449 22.0203 6.63526C22.1309 6.22562 22.2866 5.8549 22.4873 5.52309C22.688 5.18718 22.9236 4.89634 23.1939 4.65055C23.4643 4.40477 23.7572 4.21634 24.0726 4.08525C24.3921 3.95007 24.7239 3.88248 25.068 3.88248C25.4039 3.88248 25.6743 3.93983 25.8791 4.05453C26.084 4.16513 26.2335 4.31465 26.3277 4.50308C26.426 4.68742 26.4752 4.89019 26.4752 5.1114C26.4752 5.29983 26.4383 5.49032 26.3646 5.68285C26.2908 5.87128 26.1966 6.0249 26.0819 6.14369C25.8033 6.2461 25.5227 6.34442 25.2401 6.43864C24.9615 6.52876 24.6809 6.61478 24.3983 6.69671C24.1156 6.77454 23.835 6.85032 23.5565 6.92406C23.2779 6.9978 23.0055 7.06539 22.7392 7.12683L22.7638 6.62912C23.2554 6.52261 23.6691 6.41815 24.005 6.31574C24.3409 6.21333 24.6113 6.11297 24.8161 6.01466C25.025 5.91634 25.1827 5.81803 25.2892 5.71972C25.3999 5.6214 25.4736 5.51899 25.5105 5.41249C25.5514 5.30598 25.5719 5.19538 25.5719 5.08068C25.5719 4.9414 25.5453 4.8226 25.492 4.72429C25.4388 4.62188 25.3609 4.542 25.2585 4.48465C25.1561 4.4273 25.0271 4.39863 24.8714 4.39863ZM29.4778 6.89948L29.1398 7.13912L27.9908 8.67527C27.7941 8.93744 27.6118 9.14431 27.4439 9.29588C27.2759 9.44745 27.1121 9.55395 26.9523 9.6154C26.7926 9.68094 26.6267 9.71371 26.4546 9.71371C26.1965 9.71371 26.004 9.64612 25.877 9.51094C25.7459 9.37576 25.6804 9.216 25.6804 9.03166C25.6804 8.8719 25.7193 8.73262 25.7971 8.61383C25.8709 8.49503 25.961 8.40286 26.0675 8.33732C26.1781 8.26768 26.2805 8.23286 26.3747 8.23286C26.4198 8.23286 26.4669 8.25744 26.5161 8.3066C26.5652 8.35166 26.6185 8.40901 26.6758 8.47865C26.7332 8.54828 26.7864 8.60359 26.8356 8.64455C26.8888 8.68551 26.9359 8.706 26.9769 8.706C27.0547 8.706 27.1469 8.67732 27.2534 8.61997C27.3599 8.56262 27.4849 8.46226 27.6282 8.31889C27.7757 8.17551 27.9457 7.97888 28.1382 7.729L28.9862 6.61683L29.3119 6.38948L30.3872 4.92092C30.5797 4.65875 30.7579 4.45188 30.9217 4.30031C31.0897 4.14874 31.2536 4.04224 31.4133 3.98079C31.5772 3.91525 31.7472 3.88248 31.9233 3.88248C32.1773 3.88248 32.3698 3.95007 32.5009 4.08525C32.632 4.21634 32.6975 4.37609 32.6975 4.56453C32.6975 4.72019 32.6586 4.85947 32.5808 4.98236C32.5071 5.10116 32.4169 5.19333 32.3104 5.25887C32.2039 5.32441 32.1015 5.35718 32.0032 5.35718C31.9663 5.35718 31.9233 5.33875 31.8742 5.30188C31.825 5.26092 31.7697 5.20152 31.7083 5.12369C31.6468 5.04586 31.5895 4.98851 31.5362 4.95164C31.487 4.91068 31.442 4.89019 31.401 4.89019C31.3191 4.89019 31.2228 4.91887 31.1122 4.97622C31.0057 5.03357 30.8808 5.13393 30.7374 5.2773C30.594 5.41658 30.4281 5.61321 30.2397 5.86719L29.4778 6.89948ZM32.0032 7.75973C31.6919 8.29636 31.4195 8.706 31.186 8.98865C30.9525 9.2672 30.7395 9.45769 30.5469 9.5601C30.3544 9.66251 30.1619 9.71371 29.9693 9.71371C29.8628 9.71371 29.7727 9.69733 29.699 9.66456C29.6293 9.63178 29.5699 9.57648 29.5208 9.49865C29.4757 9.42082 29.4347 9.31022 29.3979 9.16684L28.3902 4.9455C28.3697 4.85537 28.3512 4.79598 28.3349 4.7673C28.3185 4.73863 28.2898 4.72429 28.2488 4.72429C28.1055 4.72429 27.9293 4.82875 27.7204 5.03766C27.5115 5.24248 27.3005 5.57429 27.0875 6.03309L26.7618 5.92863C26.9503 5.40839 27.1449 4.99875 27.3456 4.69971C27.5463 4.40067 27.7491 4.18971 27.9539 4.06682C28.1628 3.94392 28.3697 3.88248 28.5745 3.88248C28.681 3.88248 28.7691 3.89886 28.8387 3.93163C28.9084 3.96441 28.9657 4.02176 29.0108 4.10368C29.0599 4.18152 29.1009 4.29007 29.1337 4.42935L30.1168 8.56467C30.1537 8.71214 30.1823 8.80431 30.2028 8.84118C30.2233 8.87395 30.2581 8.89033 30.3073 8.89033C30.3974 8.89033 30.506 8.85756 30.6329 8.79202C30.7599 8.72238 30.9115 8.59744 31.0876 8.4172C31.2679 8.23286 31.4768 7.97274 31.7144 7.63683L32.0032 7.75973ZM33.8174 7.83346C33.7805 7.97684 33.7559 8.09358 33.7437 8.1837C33.7355 8.26973 33.7314 8.34142 33.7314 8.39877C33.7314 8.62407 33.8051 8.81865 33.9526 8.9825C34.1 9.14226 34.3417 9.22214 34.6776 9.22214C34.907 9.22214 35.1344 9.1566 35.3597 9.02552C35.585 8.89033 35.798 8.706 35.9987 8.4725C36.1995 8.23901 36.3756 7.97479 36.5272 7.67985C36.6787 7.38081 36.7975 7.06539 36.8836 6.73358C36.9737 6.39767 37.0187 6.06381 37.0187 5.73201C37.0187 5.37562 36.9532 5.11754 36.8221 4.95778C36.6951 4.79393 36.4985 4.712 36.2322 4.712C36.0602 4.712 35.8799 4.76116 35.6915 4.85947C35.5072 4.95778 35.3269 5.09297 35.1508 5.26501C34.9746 5.43297 34.8087 5.6255 34.6531 5.84261C34.4974 6.05562 34.3622 6.27888 34.2475 6.51237C34.1328 6.74177 34.0468 6.96502 33.9894 7.18213L33.8174 7.83346ZM33.123 8.9825H33.5286L32.6745 11.9811L33.7682 12.2637L33.6576 12.5894H30.7144L30.825 12.2637L31.7589 11.9811L33.8174 4.74887C33.8133 4.74887 33.8071 4.74887 33.799 4.74887C33.7908 4.74887 33.7826 4.74887 33.7744 4.74887C33.5859 4.74887 33.4077 4.77754 33.2398 4.83489C33.0718 4.89224 32.91 4.99056 32.7544 5.12983C32.6028 5.26911 32.4533 5.46164 32.3058 5.70743L32.1338 5.63984C32.2894 5.18104 32.4676 4.82465 32.6683 4.57067C32.8732 4.3167 33.1005 4.1385 33.3504 4.03609C33.6003 3.92959 33.8645 3.87633 34.1431 3.87633C34.2496 3.87633 34.3561 3.88453 34.4626 3.90091C34.5691 3.9173 34.6756 3.93778 34.7821 3.96236L34.1492 6.17442L34.1676 6.05153C34.4544 5.53947 34.7391 5.12369 35.0217 4.80417C35.3044 4.48465 35.5809 4.25115 35.8513 4.10368C36.1257 3.95621 36.3858 3.88248 36.6316 3.88248C37.1109 3.88248 37.4632 4.03609 37.6885 4.34332C37.9179 4.64646 38.0326 5.01309 38.0326 5.44321C38.0326 5.87333 37.9752 6.29526 37.8605 6.709C37.7458 7.12274 37.5861 7.51189 37.3813 7.87647C37.1764 8.23696 36.9307 8.55443 36.6439 8.82889C36.3613 9.10335 36.0479 9.32046 35.7038 9.48022C35.3597 9.63588 34.9951 9.71371 34.61 9.71371C34.2905 9.71371 33.9894 9.65431 33.7068 9.53552C33.4241 9.41263 33.2296 9.22829 33.123 8.9825ZM41.1858 4.39863C40.936 4.39863 40.7045 4.46417 40.4915 4.59525C40.2826 4.72224 40.0941 4.89839 39.9262 5.12369C39.7623 5.34489 39.621 5.59682 39.5022 5.87948C39.3875 6.16213 39.2974 6.45912 39.2318 6.77044C39.1704 7.07767 39.1397 7.37876 39.1397 7.6737C39.1397 8.14479 39.2298 8.47455 39.41 8.66298C39.5903 8.85142 39.8422 8.94564 40.1658 8.94564C40.3788 8.94564 40.5796 8.91082 40.768 8.84118C40.9605 8.76744 41.1428 8.64455 41.3149 8.4725C41.491 8.30045 41.659 8.06491 41.8187 7.76587H42.2611C42.0358 8.26154 41.8023 8.65069 41.5607 8.93335C41.3231 9.216 41.067 9.41672 40.7926 9.53552C40.5222 9.65431 40.2211 9.71371 39.8893 9.71371C39.5247 9.71371 39.2134 9.64817 38.9553 9.51708C38.7014 9.3819 38.5068 9.18323 38.3716 8.92106C38.2364 8.65889 38.1688 8.33118 38.1688 7.93792C38.1688 7.47912 38.2241 7.0449 38.3347 6.63526C38.4453 6.22562 38.601 5.8549 38.8017 5.52309C39.0024 5.18718 39.238 4.89634 39.5084 4.65055C39.7787 4.40477 40.0716 4.21634 40.387 4.08525C40.7066 3.95007 41.0384 3.88248 41.3825 3.88248C41.7184 3.88248 41.9887 3.93983 42.1936 4.05453C42.3984 4.16513 42.5479 4.31465 42.6421 4.50308C42.7404 4.68742 42.7896 4.89019 42.7896 5.1114C42.7896 5.29983 42.7527 5.49032 42.679 5.68285C42.6052 5.87128 42.511 6.0249 42.3963 6.14369C42.1178 6.2461 41.8372 6.34442 41.5545 6.43864C41.276 6.52876 40.9954 6.61478 40.7127 6.69671C40.43 6.77454 40.1494 6.85032 39.8709 6.92406C39.5923 6.9978 39.3199 7.06539 39.0537 7.12683L39.0782 6.62912C39.5698 6.52261 39.9835 6.41815 40.3194 6.31574C40.6553 6.21333 40.9257 6.11297 41.1305 6.01466C41.3394 5.91634 41.4972 5.81803 41.6037 5.71972C41.7143 5.6214 41.788 5.51899 41.8249 5.41249C41.8658 5.30598 41.8863 5.19538 41.8863 5.08068C41.8863 4.9414 41.8597 4.8226 41.8064 4.72429C41.7532 4.62188 41.6754 4.542 41.5729 4.48465C41.4705 4.4273 41.3415 4.39863 41.1858 4.39863ZM44.4527 4.74887C44.4404 4.74887 44.426 4.74887 44.4096 4.74887C44.3974 4.74887 44.3851 4.74887 44.3728 4.74887C44.1843 4.74887 44.0061 4.77754 43.8382 4.83489C43.6743 4.89224 43.5146 4.99056 43.3589 5.12983C43.2073 5.26911 43.0558 5.46164 42.9042 5.70743L42.7322 5.63984C42.8878 5.18104 43.0681 4.82465 43.2729 4.57067C43.4818 4.3167 43.7133 4.1385 43.9672 4.03609C44.2212 3.93368 44.4916 3.88248 44.7783 3.88248C44.8521 3.88248 44.9258 3.88657 44.9995 3.89477C45.0733 3.90296 45.147 3.9132 45.2207 3.92549C45.2945 3.93778 45.3682 3.95212 45.4419 3.9685L44.6677 6.38333H44.723C45.0384 5.78116 45.3354 5.29779 45.614 4.93321C45.8925 4.56453 46.165 4.29826 46.4312 4.13441C46.7016 3.96645 46.9719 3.88248 47.2423 3.88248C47.5086 3.88248 47.7011 3.94392 47.8199 4.06682C47.9428 4.18971 48.0042 4.34128 48.0042 4.52152C48.0042 4.69357 47.9612 4.84104 47.8752 4.96393C47.7933 5.08682 47.6929 5.18104 47.5741 5.24658C47.4553 5.30803 47.3427 5.33875 47.2362 5.33875C47.2116 5.33875 47.1727 5.31827 47.1194 5.2773C47.0703 5.23224 47.0129 5.1708 46.9474 5.09297C46.8818 5.01104 46.8183 4.9455 46.7569 4.89634C46.6954 4.84309 46.636 4.81646 46.5787 4.81646C46.4599 4.81646 46.3268 4.87176 46.1793 4.98236C46.0318 5.08887 45.8782 5.24044 45.7184 5.43706C45.5587 5.6296 45.401 5.85695 45.2453 6.11912C45.0896 6.38129 44.9422 6.66803 44.8029 6.97936C44.6636 7.29069 44.5428 7.6143 44.4404 7.95021L43.9304 9.59082H42.9841L44.4527 4.74887ZM47.4927 9.15455L49.1948 4.55224L49.3914 4.7673C49.2439 4.75911 49.0739 4.78574 48.8814 4.84718C48.6888 4.90863 48.484 5.00285 48.2669 5.12983C48.0498 5.25682 47.8266 5.41658 47.5972 5.60911L47.376 5.33875C47.7323 4.9373 48.0498 4.63212 48.3284 4.4232C48.611 4.21429 48.865 4.07296 49.0903 3.99923C49.3156 3.92139 49.5184 3.88248 49.6986 3.88248C49.8993 3.88248 50.0386 3.92754 50.1164 4.01766C50.1984 4.10368 50.2025 4.24501 50.1287 4.44164L48.4267 9.12383L48.2792 8.84118C48.4349 8.85756 48.609 8.84323 48.8015 8.79817C48.9981 8.74901 49.2029 8.66913 49.416 8.55853C49.6331 8.44792 49.8481 8.30865 50.0611 8.14069L50.2701 8.42949C49.9342 8.7613 49.629 9.02142 49.3545 9.20985C49.0801 9.39419 48.8302 9.52323 48.6049 9.59696C48.3837 9.6748 48.1768 9.71371 47.9843 9.71371C47.7344 9.71371 47.5705 9.67275 47.4927 9.59082C47.4149 9.50889 47.4149 9.36347 47.4927 9.15455ZM49.5573 1.55982C49.5573 1.40825 49.5901 1.27307 49.6556 1.15427C49.7252 1.03138 49.8215 0.935113 49.9444 0.865474C50.0714 0.795836 50.2209 0.761016 50.393 0.761016C50.6305 0.761016 50.8169 0.826559 50.9521 0.957643C51.0873 1.08873 51.1549 1.25259 51.1549 1.44921C51.1549 1.60078 51.1201 1.73801 51.0504 1.8609C50.9849 1.9797 50.8886 2.07391 50.7616 2.14355C50.6387 2.21319 50.4913 2.24801 50.3192 2.24801C50.0816 2.24801 49.8952 2.18247 49.7601 2.05138C49.6249 1.9203 49.5573 1.75644 49.5573 1.55982ZM57.7758 9.12383L57.7389 8.84732C57.8946 8.85142 58.0646 8.82684 58.2489 8.77359C58.4374 8.72033 58.634 8.64045 58.8388 8.53395C59.0477 8.42334 59.2587 8.29021 59.4717 8.13455L59.6868 8.4172C59.3468 8.74901 59.0354 9.01118 58.7528 9.20371C58.4701 9.39214 58.2121 9.52323 57.9786 9.59696C57.7451 9.6748 57.53 9.71371 57.3334 9.71371C57.0671 9.71371 56.8992 9.66865 56.8295 9.57853C56.7599 9.48841 56.7763 9.31636 56.8787 9.06238L58.2366 5.6767C58.2899 5.54152 58.3268 5.42887 58.3472 5.33875C58.3718 5.24863 58.3841 5.1667 58.3841 5.09297C58.3841 4.97827 58.3472 4.88815 58.2735 4.8226C58.2039 4.75296 58.0789 4.71814 57.8987 4.71814C57.6693 4.71814 57.4297 4.80212 57.1798 4.97007C56.934 5.13803 56.6882 5.37152 56.4424 5.67056C56.2007 5.9655 55.9734 6.3096 55.7604 6.70285C55.5474 7.09201 55.363 7.5078 55.2074 7.95021L54.6789 9.59082H53.7204L55.0169 5.6767C55.0496 5.58658 55.0742 5.5067 55.0906 5.43706C55.1111 5.36743 55.1254 5.30393 55.1336 5.24658C55.1459 5.18923 55.1521 5.13803 55.1521 5.09297C55.1521 4.97827 55.1152 4.88815 55.0414 4.8226C54.9718 4.75296 54.8489 4.71814 54.6728 4.71814C54.4434 4.71814 54.2058 4.80622 53.96 4.98236C53.7183 5.15851 53.4787 5.40429 53.2411 5.71972C53.0076 6.03104 52.7864 6.39358 52.5775 6.80731C52.3726 7.22105 52.1965 7.66551 52.049 8.14069L51.6005 9.59082H50.6481L52.1166 4.74887C52.1043 4.74887 52.09 4.74887 52.0736 4.74887C52.0613 4.74887 52.049 4.74887 52.0367 4.74887C51.8483 4.74887 51.6701 4.77754 51.5022 4.83489C51.3383 4.89224 51.1785 4.99056 51.0229 5.12983C50.8713 5.26911 50.7197 5.46164 50.5682 5.70743L50.3961 5.63984C50.5518 5.18104 50.732 4.82465 50.9368 4.57067C51.1458 4.3167 51.3772 4.1385 51.6312 4.03609C51.8852 3.93368 52.1555 3.88248 52.4423 3.88248C52.516 3.88248 52.5877 3.88657 52.6573 3.89477C52.7311 3.90296 52.8028 3.9132 52.8724 3.92549C52.9461 3.93778 53.0199 3.95212 53.0936 3.9685L52.2518 6.63526H52.2948C52.5816 6.09454 52.8478 5.64598 53.0936 5.28959C53.3435 4.93321 53.579 4.6526 53.8002 4.44778C54.0214 4.24296 54.2345 4.09754 54.4393 4.01151C54.6482 3.92549 54.8551 3.88248 55.0599 3.88248C55.404 3.88248 55.6457 3.95212 55.7849 4.09139C55.9242 4.23067 55.9939 4.41296 55.9939 4.63826C55.9939 4.79393 55.9693 4.97007 55.9201 5.1667C55.871 5.36333 55.7993 5.60502 55.7051 5.89177L55.5269 6.44478H55.5699C55.828 5.9614 56.0758 5.55586 56.3134 5.22815C56.5551 4.89634 56.7886 4.63212 57.0139 4.43549C57.2433 4.23887 57.4686 4.09754 57.6898 4.01151C57.911 3.92139 58.1342 3.87633 58.3595 3.87633C58.7159 3.87633 58.9699 3.95416 59.1215 4.10983C59.273 4.2614 59.3488 4.46007 59.3488 4.70586C59.3488 4.85333 59.3242 5.02333 59.2751 5.21586C59.23 5.40839 59.1522 5.64393 59.0416 5.92249L57.7758 9.12383ZM62.8024 4.39863C62.5525 4.39863 62.321 4.46417 62.108 4.59525C61.8991 4.72224 61.7107 4.89839 61.5427 5.12369C61.3789 5.34489 61.2375 5.59682 61.1188 5.87948C61.0041 6.16213 60.9139 6.45912 60.8484 6.77044C60.7869 7.07767 60.7562 7.37876 60.7562 7.6737C60.7562 8.14479 60.8463 8.47455 61.0266 8.66298C61.2068 8.85142 61.4588 8.94564 61.7824 8.94564C61.9954 8.94564 62.1961 8.91082 62.3845 8.84118C62.5771 8.76744 62.7594 8.64455 62.9314 8.4725C63.1076 8.30045 63.2755 8.06491 63.4353 7.76587H63.8777C63.6524 8.26154 63.4189 8.65069 63.1772 8.93335C62.9396 9.216 62.6836 9.41672 62.4091 9.53552C62.1388 9.65431 61.8377 9.71371 61.5059 9.71371C61.1413 9.71371 60.83 9.64817 60.5719 9.51708C60.3179 9.3819 60.1233 9.18323 59.9881 8.92106C59.853 8.65889 59.7854 8.33118 59.7854 7.93792C59.7854 7.47912 59.8407 7.0449 59.9513 6.63526C60.0619 6.22562 60.2175 5.8549 60.4183 5.52309C60.619 5.18718 60.8545 4.89634 61.1249 4.65055C61.3953 4.40477 61.6882 4.21634 62.0036 4.08525C62.3231 3.95007 62.6549 3.88248 62.999 3.88248C63.3349 3.88248 63.6053 3.93983 63.8101 4.05453C64.0149 4.16513 64.1644 4.31465 64.2586 4.50308C64.357 4.68742 64.4061 4.89019 64.4061 5.1114C64.4061 5.29983 64.3693 5.49032 64.2955 5.68285C64.2218 5.87128 64.1276 6.0249 64.0129 6.14369C63.7343 6.2461 63.4537 6.34442 63.1711 6.43864C62.8925 6.52876 62.6119 6.61478 62.3292 6.69671C62.0466 6.77454 61.766 6.85032 61.4874 6.92406C61.2089 6.9978 60.9365 7.06539 60.6702 7.12683L60.6948 6.62912C61.1863 6.52261 61.6001 6.41815 61.936 6.31574C62.2719 6.21333 62.5423 6.11297 62.7471 6.01466C62.956 5.91634 63.1137 5.81803 63.2202 5.71972C63.3308 5.6214 63.4045 5.51899 63.4414 5.41249C63.4824 5.30598 63.5029 5.19538 63.5029 5.08068C63.5029 4.9414 63.4762 4.8226 63.423 4.72429C63.3697 4.62188 63.2919 4.542 63.1895 4.48465C63.0871 4.4273 62.958 4.39863 62.8024 4.39863ZM64.5208 5.70743L64.3487 5.63984C64.5044 5.18104 64.6846 4.82465 64.8894 4.57067C65.0983 4.3167 65.3298 4.1385 65.5838 4.03609C65.8377 3.93368 66.1081 3.88248 66.3949 3.88248C66.4686 3.88248 66.5403 3.88657 66.6099 3.89477C66.6837 3.90296 66.7553 3.9132 66.825 3.92549C66.8987 3.93778 66.9725 3.95212 67.0462 3.9685L66.1675 6.75201H66.2228C66.4563 6.3096 66.6939 5.91225 66.9356 5.55996C67.1814 5.20767 67.4313 4.90863 67.6852 4.66284C67.9433 4.41296 68.2075 4.22248 68.4779 4.09139C68.7482 3.96031 69.0227 3.89477 69.3013 3.89477C69.674 3.89477 69.9383 3.97874 70.0939 4.1467C70.2496 4.31055 70.3274 4.52152 70.3274 4.77959C70.3274 4.92297 70.3028 5.08682 70.2537 5.27116C70.2086 5.4514 70.1369 5.66646 70.0386 5.91634L68.7544 9.12383L68.7175 8.84732C68.8732 8.85142 69.0432 8.82684 69.2275 8.77359C69.416 8.72033 69.6126 8.64045 69.8174 8.53395C70.0263 8.42334 70.2373 8.29021 70.4503 8.13455L70.6654 8.4172C70.3254 8.74901 70.014 9.01118 69.7314 9.20371C69.4487 9.39214 69.1907 9.52323 68.9572 9.59696C68.7237 9.6748 68.5086 9.71371 68.312 9.71371C68.0457 9.71371 67.8778 9.66865 67.8081 9.57853C67.7385 9.48841 67.7549 9.31636 67.8573 9.06238L69.2091 5.68899C69.2623 5.55791 69.3013 5.44526 69.3258 5.35104C69.3545 5.25273 69.3689 5.16465 69.3689 5.08682C69.3689 4.97622 69.3299 4.88815 69.2521 4.8226C69.1743 4.75296 69.0411 4.71814 68.8527 4.71814C68.6151 4.71814 68.3611 4.80827 68.0908 4.98851C67.8204 5.16465 67.5521 5.41044 67.2858 5.72586C67.0237 6.03719 66.7799 6.39972 66.5546 6.81346C66.3334 7.22719 66.1491 7.66961 66.0016 8.14069L65.553 9.59082H64.6006L66.0692 4.74887C66.0569 4.74887 66.0426 4.74887 66.0262 4.74887C66.0139 4.74887 66.0016 4.74887 65.9893 4.74887C65.8009 4.74887 65.6227 4.77754 65.4547 4.83489C65.2909 4.89224 65.1311 4.99056 64.9755 5.12983C64.8239 5.26911 64.6723 5.46164 64.5208 5.70743ZM71.1736 4.57067L71.2535 4.00537H74.7129L74.6453 4.57067H71.1736ZM72.2121 8.10382C72.1875 8.18575 72.167 8.26154 72.1506 8.33118C72.1342 8.39672 72.1199 8.45612 72.1076 8.50937C72.0994 8.56262 72.0953 8.60768 72.0953 8.64455C72.0953 8.72238 72.1097 8.77768 72.1383 8.81045C72.167 8.84323 72.208 8.85961 72.2612 8.85961C72.3514 8.85961 72.4702 8.8166 72.6176 8.73057C72.7692 8.64455 72.9412 8.51961 73.1338 8.35575C73.3304 8.1878 73.5414 7.97888 73.7667 7.729L74.037 7.98093C73.824 8.25539 73.6151 8.49913 73.4103 8.71214C73.2055 8.92515 73.0088 9.1054 72.8204 9.25287C72.632 9.40034 72.4517 9.51299 72.2797 9.59082C72.1117 9.66865 71.952 9.70757 71.8004 9.70757C71.612 9.70757 71.4604 9.65227 71.3457 9.54166C71.231 9.42696 71.1736 9.24058 71.1736 8.9825C71.1736 8.8719 71.188 8.73877 71.2167 8.5831C71.2453 8.42744 71.2924 8.23901 71.358 8.0178L72.8511 2.86247H73.7544L72.2121 8.10382ZM74.7116 8.14684C74.7648 8.25334 74.816 8.3578 74.8652 8.46021C74.9185 8.56262 74.9963 8.68756 75.0987 8.83503C75.2011 8.9825 75.3035 9.08287 75.4059 9.13612C75.5083 9.18937 75.621 9.216 75.7439 9.216C75.9569 9.216 76.1494 9.18118 76.3215 9.11154C76.4935 9.0419 76.6308 8.93744 76.7332 8.79817C76.8356 8.65889 76.8868 8.49094 76.8868 8.29431C76.8868 8.15913 76.8622 8.03009 76.813 7.9072C76.7639 7.78021 76.6738 7.64503 76.5427 7.50165C76.4116 7.35828 76.2211 7.19647 75.9712 7.01623C75.7254 6.83189 75.5329 6.65984 75.3936 6.50008C75.2544 6.33623 75.156 6.17851 75.0987 6.02695C75.0454 5.87128 75.0188 5.71152 75.0188 5.54767C75.0188 5.22815 75.0966 4.94345 75.2523 4.69357C75.4121 4.43959 75.6415 4.24091 75.9405 4.09754C76.2395 3.95417 76.598 3.88248 77.0158 3.88248C77.3149 3.88248 77.5627 3.91935 77.7593 3.99308C77.96 4.06272 78.1096 4.16103 78.2079 4.28802C78.3103 4.41501 78.3615 4.56453 78.3615 4.73658C78.3615 4.85128 78.3328 4.95369 78.2755 5.04381C78.2222 5.13393 78.1444 5.20562 78.042 5.25887C77.9437 5.30803 77.8249 5.33261 77.6856 5.33261C77.6405 5.24658 77.5893 5.1626 77.532 5.08068C77.4746 4.99875 77.3968 4.89429 77.2985 4.7673C77.2043 4.64441 77.1018 4.55429 76.9912 4.49694C76.8847 4.43959 76.7741 4.41091 76.6594 4.41091C76.3891 4.41091 76.1679 4.4785 75.9958 4.61369C75.8279 4.74477 75.7439 4.92501 75.7439 5.15441C75.7439 5.26092 75.7685 5.37152 75.8176 5.48622C75.8709 5.59682 75.963 5.72381 76.0941 5.86719C76.2293 6.00646 76.4218 6.17442 76.6717 6.37104C76.9257 6.56358 77.1203 6.75201 77.2555 6.93635C77.3947 7.11659 77.493 7.29274 77.5504 7.46479C77.6077 7.63274 77.6364 7.80274 77.6364 7.97479C77.6364 8.31479 77.5402 8.61588 77.3476 8.87805C77.1551 9.14022 76.8929 9.34504 76.5611 9.49251C76.2334 9.63998 75.8606 9.71371 75.4428 9.71371C75.0987 9.71371 74.816 9.6707 74.5948 9.58468C74.3777 9.49455 74.218 9.37781 74.1156 9.23443C74.0131 9.09106 73.9619 8.93744 73.9619 8.77359C73.9619 8.6507 73.9865 8.54214 74.0357 8.44792C74.0889 8.35371 74.1709 8.27997 74.2815 8.22672C74.3962 8.17346 74.5395 8.14684 74.7116 8.14684Z" fill="#FAF9FA"/>
</svg>
