<svg width="67" height="10" viewBox="0 0 67 10" fill="none" xmlns="http://www.w3.org/2000/svg">
<path d="M3.38454 9.73283C1.58576 9.73283 0.508865 8.50209 0.508865 6.45479C0.508865 4.32466 1.62127 3.15309 3.38454 3.15309C5.18332 3.15309 6.26022 4.4075 6.26022 6.45479C6.26022 8.57309 5.14782 9.73283 3.38454 9.73283ZM3.38454 8.83344C4.55611 8.83344 5.19515 7.99322 5.19515 6.45479C5.19515 4.9282 4.54428 4.05248 3.38454 4.05248C2.21297 4.05248 1.57393 4.90453 1.57393 6.45479C1.57393 7.96955 2.2248 8.83344 3.38454 8.83344ZM9.71891 9.73283C8.05031 9.73283 7.04441 8.50209 7.04441 6.45479C7.04441 4.32466 8.07397 3.15309 9.71891 3.15309C10.4645 3.15309 11.068 3.46078 11.4822 4.04064V1.07029H12.5236V9.59082H11.4822V8.79794C11.068 9.38964 10.4645 9.73283 9.71891 9.73283ZM9.78991 8.83344C10.8905 8.83344 11.4822 7.99322 11.4822 6.45479C11.4822 4.9282 10.8668 4.05248 9.78991 4.05248C8.70118 4.05248 8.10948 4.90453 8.10948 6.45479C8.10948 7.96955 8.72485 8.83344 9.78991 8.83344ZM16.3007 9.73283C14.6321 9.73283 13.6262 8.50209 13.6262 6.45479C13.6262 4.32466 14.6557 3.15309 16.3007 3.15309C17.0462 3.15309 17.6498 3.46078 18.064 4.04064V1.07029H19.1054V9.59082H18.064V8.79794C17.6498 9.38964 17.0462 9.73283 16.3007 9.73283ZM16.3717 8.83344C17.4723 8.83344 18.064 7.99322 18.064 6.45479C18.064 4.9282 17.4486 4.05248 16.3717 4.05248C15.283 4.05248 14.6913 4.90453 14.6913 6.45479C14.6913 7.96955 15.3066 8.83344 16.3717 8.83344ZM24.8714 4.39863C24.6215 4.39863 24.3901 4.46417 24.1771 4.59525C23.9682 4.72224 23.7797 4.89839 23.6118 5.12369C23.4479 5.34489 23.3066 5.59682 23.1878 5.87948C23.0731 6.16213 22.983 6.45912 22.9174 6.77044C22.856 7.07767 22.8253 7.37876 22.8253 7.6737C22.8253 8.14479 22.9154 8.47455 23.0956 8.66298C23.2759 8.85142 23.5278 8.94564 23.8514 8.94564C24.0644 8.94564 24.2651 8.91082 24.4536 8.84118C24.6461 8.76744 24.8284 8.64455 25.0005 8.4725C25.1766 8.30045 25.3446 8.06491 25.5043 7.76587H25.9467C25.7214 8.26154 25.4879 8.65069 25.2462 8.93335C25.0086 9.216 24.7526 9.41672 24.4782 9.53552C24.2078 9.65431 23.9067 9.71371 23.5749 9.71371C23.2103 9.71371 22.899 9.64817 22.6409 9.51708C22.3869 9.3819 22.1924 9.18323 22.0572 8.92106C21.922 8.65889 21.8544 8.33118 21.8544 7.93792C21.8544 7.47912 21.9097 7.0449 22.0203 6.63526C22.1309 6.22562 22.2866 5.8549 22.4873 5.52309C22.688 5.18718 22.9236 4.89634 23.1939 4.65055C23.4643 4.40477 23.7572 4.21634 24.0726 4.08525C24.3921 3.95007 24.7239 3.88248 25.068 3.88248C25.4039 3.88248 25.6743 3.93983 25.8791 4.05453C26.084 4.16513 26.2335 4.31465 26.3277 4.50308C26.426 4.68742 26.4752 4.89019 26.4752 5.1114C26.4752 5.29983 26.4383 5.49032 26.3646 5.68285C26.2908 5.87128 26.1966 6.0249 26.0819 6.14369C25.8033 6.2461 25.5227 6.34442 25.2401 6.43864C24.9615 6.52876 24.6809 6.61478 24.3983 6.69671C24.1156 6.77454 23.835 6.85032 23.5565 6.92406C23.2779 6.9978 23.0055 7.06539 22.7392 7.12683L22.7638 6.62912C23.2554 6.52261 23.6691 6.41815 24.005 6.31574C24.3409 6.21333 24.6113 6.11297 24.8161 6.01466C25.025 5.91634 25.1827 5.81803 25.2892 5.71972C25.3999 5.6214 25.4736 5.51899 25.5105 5.41249C25.5514 5.30598 25.5719 5.19538 25.5719 5.08068C25.5719 4.9414 25.5453 4.8226 25.492 4.72429C25.4388 4.62188 25.3609 4.542 25.2585 4.48465C25.1561 4.4273 25.0271 4.39863 24.8714 4.39863ZM30.9893 5.01923C30.9115 4.83899 30.7948 4.69766 30.6391 4.59525C30.4875 4.49284 30.3073 4.44164 30.0984 4.44164C29.7747 4.44164 29.4696 4.53381 29.1828 4.71814C28.8961 4.90248 28.6319 5.14622 28.3902 5.44935C28.1526 5.74839 27.9457 6.07201 27.7696 6.4202C27.5975 6.7643 27.4644 7.10021 27.3702 7.42792C27.2759 7.75153 27.2288 8.03214 27.2288 8.26973C27.2288 8.49094 27.2882 8.65684 27.407 8.76744C27.5299 8.87395 27.6897 8.9272 27.8863 8.9272C28.0297 8.9272 28.2017 8.87395 28.4025 8.76744C28.6032 8.65684 28.8121 8.50732 29.0292 8.31889C29.2463 8.12635 29.4593 7.9031 29.6682 7.64912C29.8813 7.39515 30.0717 7.11864 30.2397 6.8196C30.4117 6.52056 30.5469 6.21128 30.6452 5.89177L31.911 1.79946C31.8373 1.7462 31.7513 1.6909 31.653 1.63355C31.5587 1.5762 31.4563 1.5209 31.3457 1.46765C31.2351 1.41439 31.1204 1.36728 31.0016 1.32632L31.0692 1.08054L32.9679 0.736437H33.1522L30.4793 9.14226L30.3196 8.85347C30.4752 8.87395 30.6514 8.86166 30.848 8.8166C31.0446 8.76744 31.2536 8.68551 31.4748 8.57082C31.7001 8.45612 31.9233 8.31069 32.1445 8.13455L32.3473 8.4172C31.8393 8.91696 31.4051 9.25901 31.0446 9.44335C30.6882 9.62359 30.379 9.71371 30.1168 9.71371C29.912 9.71371 29.7666 9.6707 29.6805 9.58468C29.5986 9.49865 29.5863 9.37576 29.6437 9.216L30.3933 7.07153H30.4486C30.0922 7.59997 29.7707 8.03623 29.4839 8.38033C29.2013 8.72033 28.9452 8.9866 28.7158 9.17913C28.4864 9.37166 28.2734 9.50684 28.0768 9.58468C27.8802 9.66251 27.6917 9.70142 27.5115 9.70142C27.2575 9.70142 27.0343 9.65431 26.8417 9.5601C26.6492 9.46588 26.4997 9.32046 26.3932 9.12383C26.2867 8.9272 26.2334 8.67732 26.2334 8.37419C26.2334 8.03419 26.2969 7.66346 26.4239 7.26201C26.5509 6.86057 26.7291 6.46321 26.9585 6.06996C27.192 5.67261 27.4644 5.31212 27.7757 4.98851C28.087 4.6608 28.4291 4.39863 28.8019 4.202C29.1746 4.00127 29.5658 3.90091 29.9755 3.90091C30.2745 3.90091 30.5182 3.96645 30.7067 4.09754C30.8951 4.22862 31.0467 4.41911 31.1614 4.66899L30.9893 5.01923ZM35.8229 9.26516L36.5357 7.04081H36.4988C36.1752 7.61021 35.8803 8.0731 35.614 8.42949C35.3518 8.78178 35.1081 9.05214 34.8828 9.24058C34.6616 9.42492 34.4506 9.54986 34.2499 9.6154C34.0492 9.68094 33.8485 9.71371 33.6477 9.71371C33.2995 9.71371 33.0476 9.63793 32.892 9.48636C32.7363 9.3307 32.6585 9.12997 32.6585 8.88419C32.6585 8.74491 32.681 8.57696 32.7261 8.38033C32.7711 8.1837 32.853 7.93382 32.9718 7.63069L34.1823 4.46622L34.3482 4.76116C34.1967 4.75296 34.0205 4.78164 33.8198 4.84718C33.6191 4.90863 33.4081 5.00694 33.1869 5.14212C32.9698 5.27321 32.7506 5.43706 32.5294 5.63369L32.2898 5.35104C32.6421 4.96188 32.9595 4.6608 33.2422 4.44778C33.5289 4.23477 33.7891 4.0873 34.0226 4.00537C34.2602 3.92344 34.4752 3.88248 34.6677 3.88248C34.8726 3.88248 35.0159 3.92754 35.0979 4.01766C35.1798 4.10778 35.1818 4.25115 35.104 4.44778L33.7399 8.03623C33.6989 8.14274 33.6662 8.24105 33.6416 8.33118C33.6211 8.4172 33.6109 8.49298 33.6109 8.55853C33.6109 8.67323 33.6477 8.7613 33.7215 8.82274C33.7993 8.88009 33.914 8.90877 34.0656 8.90877C34.2335 8.90877 34.4281 8.84527 34.6493 8.71829C34.8705 8.5872 35.0999 8.39672 35.3375 8.14684C35.5751 7.89286 35.8045 7.57539 36.0257 7.19442C36.251 6.81346 36.4476 6.37309 36.6156 5.87333L37.2608 4.00537H38.207L36.6156 9.1054L36.5296 8.85347C36.6852 8.87395 36.8614 8.86166 37.058 8.8166C37.2546 8.76744 37.4635 8.68551 37.6848 8.57082C37.9101 8.45612 38.1333 8.31069 38.3545 8.13455L38.5573 8.4172C38.0534 8.92925 37.6213 9.27335 37.2608 9.44949C36.9003 9.62564 36.589 9.71371 36.3268 9.71371C36.0974 9.71371 35.9438 9.67684 35.8659 9.60311C35.7881 9.52937 35.7738 9.41672 35.8229 9.26516ZM41.3138 4.43549C41.0435 4.43549 40.7936 4.52766 40.5642 4.712C40.3389 4.89634 40.1402 5.14417 39.9681 5.4555C39.8002 5.76682 39.6691 6.11502 39.5749 6.50008C39.4848 6.88514 39.4397 7.27635 39.4397 7.6737C39.4397 8.14479 39.5196 8.47455 39.6793 8.66298C39.8432 8.85142 40.0849 8.94564 40.4044 8.94564C40.6051 8.94564 40.7977 8.90877 40.982 8.83503C41.1704 8.7613 41.3527 8.63841 41.5289 8.46636C41.705 8.29431 41.875 8.06081 42.0389 7.76587H42.469C42.256 8.23286 42.0327 8.60973 41.7992 8.89648C41.5698 9.18323 41.3179 9.39214 41.0435 9.52323C40.7731 9.65022 40.4679 9.71371 40.1279 9.71371C39.5913 9.71371 39.1796 9.56829 38.8928 9.27745C38.6061 8.9866 38.4627 8.54009 38.4627 7.93792C38.4627 7.37671 38.5467 6.85032 38.7146 6.35876C38.8867 5.86719 39.1222 5.43706 39.4213 5.06839C39.7203 4.69561 40.0685 4.40477 40.4659 4.19585C40.8632 3.98694 41.2872 3.88248 41.7378 3.88248C42.172 3.88248 42.5018 3.9685 42.7271 4.14055C42.9524 4.3085 43.065 4.51128 43.065 4.74887C43.065 4.92501 43.0056 5.06634 42.8868 5.17285C42.7721 5.27526 42.637 5.32646 42.4813 5.32646C42.4117 5.33056 42.3338 5.28959 42.2478 5.20357C42.1659 5.11754 42.0717 5.00899 41.9651 4.8779C41.8586 4.75092 41.7521 4.64646 41.6456 4.56453C41.5391 4.47851 41.4285 4.43549 41.3138 4.43549ZM45.9871 9.216L46.7306 7.07153H46.7859C46.4336 7.59587 46.1182 8.03009 45.8396 8.37419C45.5611 8.71829 45.3071 8.9866 45.0777 9.17913C44.8524 9.37166 44.6435 9.50684 44.4509 9.58468C44.2584 9.66251 44.072 9.70142 43.8918 9.70142C43.6378 9.70142 43.4145 9.65431 43.222 9.5601C43.0295 9.46588 42.88 9.32251 42.7734 9.12997C42.6669 8.93744 42.6137 8.68961 42.6137 8.38648C42.6137 8.05057 42.6772 7.68394 42.8042 7.28659C42.9312 6.88514 43.1073 6.48984 43.3326 6.10068C43.562 5.70743 43.8303 5.34899 44.1375 5.02538C44.4489 4.69766 44.7889 4.43754 45.1576 4.24501C45.5262 4.04838 45.9113 3.95007 46.3127 3.95007C46.6159 3.95007 46.8596 4.01561 47.0439 4.1467C47.2324 4.27368 47.386 4.46212 47.5048 4.712L47.3327 5.06224C47.2508 4.8779 47.1341 4.73658 46.9825 4.63826C46.8309 4.53585 46.6486 4.48465 46.4356 4.48465C46.1202 4.48465 45.8212 4.57682 45.5385 4.76116C45.2559 4.9455 44.9957 5.18718 44.7582 5.48622C44.5247 5.78116 44.3219 6.10068 44.1498 6.44478C43.9778 6.78888 43.8447 7.12274 43.7504 7.44635C43.6562 7.76997 43.6091 8.04852 43.6091 8.28202C43.6091 8.49913 43.6685 8.66094 43.7873 8.76744C43.9102 8.87395 44.07 8.9272 44.2666 8.9272C44.4386 8.9272 44.6476 8.84937 44.8933 8.69371C45.1432 8.53804 45.3992 8.32708 45.6614 8.06081C45.9236 7.79045 46.1673 7.48117 46.3926 7.13298C46.622 6.78478 46.8023 6.4202 46.9333 6.03924L47.4802 4.37405L48.2237 4.00537H48.5371L46.8227 9.14226L46.663 8.85347C46.8146 8.87395 46.9886 8.86166 47.1853 8.8166C47.386 8.76744 47.597 8.68551 47.8182 8.57082C48.0394 8.45612 48.2626 8.31069 48.4879 8.13455L48.6907 8.4172C48.1828 8.91696 47.7485 9.25901 47.388 9.44335C47.0317 9.62359 46.7224 9.71371 46.4602 9.71371C46.2513 9.71371 46.1059 9.6707 46.0239 9.58468C45.942 9.49865 45.9297 9.37576 45.9871 9.216ZM49.029 4.57067L49.1089 4.00537H52.5683L52.5007 4.57067H49.029ZM50.0675 8.10382C50.0429 8.18575 50.0224 8.26154 50.006 8.33118C49.9896 8.39672 49.9753 8.45612 49.963 8.50937C49.9548 8.56262 49.9507 8.60768 49.9507 8.64455C49.9507 8.72238 49.9651 8.77768 49.9937 8.81045C50.0224 8.84323 50.0634 8.85961 50.1166 8.85961C50.2068 8.85961 50.3256 8.8166 50.473 8.73057C50.6246 8.64455 50.7966 8.51961 50.9892 8.35575C51.1858 8.1878 51.3968 7.97888 51.6221 7.729L51.8924 7.98093C51.6794 8.25539 51.4705 8.49913 51.2657 8.71214C51.0609 8.92515 50.8642 9.1054 50.6758 9.25287C50.4874 9.40034 50.3071 9.51299 50.1351 9.59082C49.9671 9.66865 49.8074 9.70757 49.6558 9.70757C49.4674 9.70757 49.3158 9.65227 49.2011 9.54166C49.0864 9.42696 49.029 9.24058 49.029 8.9825C49.029 8.8719 49.0434 8.73877 49.0721 8.5831C49.1007 8.42744 49.1478 8.23901 49.2134 8.0178L50.7065 2.86247H51.6098L50.0675 8.10382ZM52.3028 9.15455L54.0048 4.55224L54.2015 4.7673C54.054 4.75911 53.884 4.78574 53.6915 4.84718C53.4989 4.90863 53.2941 5.00285 53.077 5.12983C52.8599 5.25682 52.6366 5.41658 52.4072 5.60911L52.186 5.33875C52.5424 4.9373 52.8599 4.63212 53.1384 4.4232C53.4211 4.21429 53.6751 4.07296 53.9004 3.99923C54.1257 3.92139 54.3284 3.88248 54.5087 3.88248C54.7094 3.88248 54.8487 3.92754 54.9265 4.01766C55.0085 4.10368 55.0125 4.24501 54.9388 4.44164L53.2368 9.12383L53.0893 8.84118C53.245 8.85756 53.419 8.84323 53.6116 8.79817C53.8082 8.74901 54.013 8.66913 54.226 8.55853C54.4431 8.44792 54.6582 8.30865 54.8712 8.14069L55.0801 8.42949C54.7442 8.7613 54.4391 9.02142 54.1646 9.20985C53.8901 9.39419 53.6403 9.52323 53.415 9.59696C53.1937 9.6748 52.9869 9.71371 52.7943 9.71371C52.5445 9.71371 52.3806 9.67275 52.3028 9.59082C52.2249 9.50889 52.2249 9.36347 52.3028 9.15455ZM54.3674 1.55982C54.3674 1.40825 54.4001 1.27307 54.4657 1.15427C54.5353 1.03138 54.6316 0.935113 54.7545 0.865474C54.8815 0.795836 55.031 0.761016 55.203 0.761016C55.4406 0.761016 55.627 0.826559 55.7622 0.957643C55.8974 1.08873 55.965 1.25259 55.965 1.44921C55.965 1.60078 55.9301 1.73801 55.8605 1.8609C55.795 1.9797 55.6987 2.07391 55.5717 2.14355C55.4488 2.21319 55.3013 2.24801 55.1293 2.24801C54.8917 2.24801 54.7053 2.18247 54.5701 2.05138C54.435 1.9203 54.3674 1.75644 54.3674 1.55982ZM58.4383 3.88248C58.8274 3.88248 59.1572 3.96031 59.4275 4.11597C59.702 4.27164 59.9109 4.49284 60.0543 4.77959C60.2018 5.06224 60.2755 5.4002 60.2755 5.79345C60.2755 6.3096 60.1936 6.80322 60.0297 7.2743C59.8659 7.74129 59.6385 8.15913 59.3477 8.5278C59.0609 8.89238 58.723 9.18118 58.3338 9.39419C57.9487 9.60721 57.5309 9.71371 57.0803 9.71371C56.6952 9.71371 56.3655 9.63588 56.091 9.48022C55.8207 9.32455 55.6117 9.10335 55.4643 8.8166C55.3209 8.52985 55.2492 8.1919 55.2492 7.80274C55.2492 7.28659 55.3291 6.79297 55.4889 6.32189C55.6527 5.8508 55.8801 5.43297 56.1709 5.06839C56.4617 4.69971 56.7997 4.41091 57.1848 4.202C57.5698 3.98898 57.9877 3.88248 58.4383 3.88248ZM57.1049 9.17913C57.3507 9.17913 57.5842 9.11154 57.8054 8.97636C58.0266 8.83708 58.2273 8.64865 58.4075 8.41106C58.5919 8.17346 58.7496 7.90105 58.8807 7.59382C59.0159 7.28659 59.1203 6.96298 59.1941 6.62297C59.2678 6.27888 59.3047 5.93478 59.3047 5.59068C59.3047 5.20152 59.2309 4.90863 59.0834 4.712C58.936 4.51537 58.7148 4.41706 58.4198 4.41706C58.174 4.41706 57.9406 4.4867 57.7193 4.62598C57.4981 4.76116 57.2954 4.94754 57.111 5.18514C56.9308 5.42273 56.7731 5.69514 56.6379 6.00237C56.5027 6.3096 56.3983 6.63526 56.3245 6.97936C56.2549 7.31936 56.2201 7.65936 56.2201 7.99937C56.2201 8.38853 56.2938 8.68347 56.4413 8.88419C56.5887 9.08082 56.8099 9.17913 57.1049 9.17913ZM60.6324 5.70743L60.4603 5.63984C60.616 5.18104 60.7962 4.82465 61.001 4.57067C61.21 4.3167 61.4414 4.1385 61.6954 4.03609C61.9494 3.93368 62.2197 3.88248 62.5065 3.88248C62.5802 3.88248 62.6519 3.88657 62.7215 3.89477C62.7953 3.90296 62.867 3.9132 62.9366 3.92549C63.0103 3.93778 63.0841 3.95212 63.1578 3.9685L62.2791 6.75201H62.3344C62.5679 6.3096 62.8055 5.91225 63.0472 5.55996C63.293 5.20767 63.5429 4.90863 63.7968 4.66284C64.0549 4.41296 64.3191 4.22248 64.5895 4.09139C64.8599 3.96031 65.1343 3.89477 65.4129 3.89477C65.7856 3.89477 66.0499 3.97874 66.2055 4.1467C66.3612 4.31055 66.439 4.52152 66.439 4.77959C66.439 4.92297 66.4144 5.08682 66.3653 5.27116C66.3202 5.4514 66.2485 5.66646 66.1502 5.91634L64.866 9.12383L64.8291 8.84732C64.9848 8.85142 65.1548 8.82684 65.3391 8.77359C65.5276 8.72033 65.7242 8.64045 65.929 8.53395C66.1379 8.42334 66.3489 8.29021 66.5619 8.13455L66.777 8.4172C66.437 8.74901 66.1257 9.01118 65.843 9.20371C65.5603 9.39214 65.3023 9.52323 65.0688 9.59696C64.8353 9.6748 64.6202 9.71371 64.4236 9.71371C64.1573 9.71371 63.9894 9.66865 63.9197 9.57853C63.8501 9.48841 63.8665 9.31636 63.9689 9.06238L65.3207 5.68899C65.374 5.55791 65.4129 5.44526 65.4375 5.35104C65.4661 5.25273 65.4805 5.16465 65.4805 5.08682C65.4805 4.97622 65.4416 4.88815 65.3637 4.8226C65.2859 4.75296 65.1528 4.71814 64.9643 4.71814C64.7267 4.71814 64.4728 4.80827 64.2024 4.98851C63.932 5.16465 63.6637 5.41044 63.3974 5.72586C63.1353 6.03719 62.8915 6.39972 62.6662 6.81346C62.445 7.22719 62.2607 7.66961 62.1132 8.14069L61.6647 9.59082H60.7122L62.1808 4.74887C62.1685 4.74887 62.1542 4.74887 62.1378 4.74887C62.1255 4.74887 62.1132 4.74887 62.1009 4.74887C61.9125 4.74887 61.7343 4.77754 61.5663 4.83489C61.4025 4.89224 61.2427 4.99056 61.0871 5.12983C60.9355 5.26911 60.7839 5.46164 60.6324 5.70743Z" fill="#FAF9FA"/>
</svg>
