<svg width="48" height="34" viewBox="0 0 48 34" fill="none" xmlns="http://www.w3.org/2000/svg">
<path d="M3.09295 9.12977C1.44914 9.12977 0.465024 8.00507 0.465024 6.13416C0.465024 4.18754 1.48159 3.11691 3.09295 3.11691C4.73675 3.11691 5.72087 4.26325 5.72087 6.13416C5.72087 8.06995 4.70431 9.12977 3.09295 9.12977ZM3.09295 8.30787C4.16358 8.30787 4.74757 7.54004 4.74757 6.13416C4.74757 4.73908 4.15277 3.93881 3.09295 3.93881C2.02231 3.93881 1.43833 4.71746 1.43833 6.13416C1.43833 7.51841 2.03313 8.30787 3.09295 8.30787ZM8.88158 9.12977C7.35674 9.12977 6.4375 8.00507 6.4375 6.13416C6.4375 4.18754 7.37837 3.11691 8.88158 3.11691C9.5629 3.11691 10.1144 3.39809 10.4929 3.928V1.21356H11.4446V9H10.4929V8.27543C10.1144 8.81615 9.5629 9.12977 8.88158 9.12977ZM8.94647 8.30787C9.95222 8.30787 10.4929 7.54004 10.4929 6.13416C10.4929 4.73908 9.93059 3.93881 8.94647 3.93881C7.95153 3.93881 7.41081 4.71746 7.41081 6.13416C7.41081 7.51841 7.97316 8.30787 8.94647 8.30787ZM14.8963 9.12977C13.3715 9.12977 12.4522 8.00507 12.4522 6.13416C12.4522 4.18754 13.3931 3.11691 14.8963 3.11691C15.5776 3.11691 16.1292 3.39809 16.5077 3.928V1.21356H17.4593V9H16.5077V8.27543C16.1292 8.81615 15.5776 9.12977 14.8963 9.12977ZM14.9612 8.30787C15.9669 8.30787 16.5077 7.54004 16.5077 6.13416C16.5077 4.73908 15.9453 3.93881 14.9612 3.93881C13.9663 3.93881 13.4255 4.71746 13.4255 6.13416C13.4255 7.51841 13.9879 8.30787 14.9612 8.30787ZM24.29 4.68965C24.2166 4.5197 24.1065 4.38645 23.9597 4.2899C23.8168 4.19334 23.6469 4.14506 23.4499 4.14506C23.1448 4.14506 22.857 4.23196 22.5867 4.40577C22.3163 4.57957 22.0672 4.80938 21.8393 5.09519C21.6153 5.37714 21.4203 5.68226 21.2542 6.01056C21.092 6.335 20.9664 6.65171 20.8776 6.96069C20.7888 7.26582 20.7444 7.53039 20.7444 7.7544C20.7444 7.96297 20.8004 8.11939 20.9124 8.22367C21.0282 8.32409 21.1789 8.3743 21.3643 8.3743C21.4994 8.3743 21.6617 8.32409 21.8509 8.22367C22.0402 8.11939 22.2371 7.97842 22.4418 7.80075C22.6466 7.61922 22.8474 7.40872 23.0444 7.16926C23.2452 6.92979 23.4248 6.66909 23.5832 6.38714C23.7454 6.10519 23.8728 5.81358 23.9655 5.51232L25.159 1.65386C25.0895 1.60365 25.0084 1.55151 24.9157 1.49744C24.8268 1.44336 24.7303 1.39122 24.626 1.34101C24.5217 1.2908 24.4136 1.24639 24.3016 1.20776L24.3653 0.976022L26.1555 0.651587H26.3293L23.8091 8.57708L23.6585 8.30478C23.8052 8.32409 23.9713 8.31251 24.1567 8.27002C24.3421 8.22367 24.5391 8.14643 24.7477 8.03828C24.9601 7.93014 25.1706 7.79302 25.3791 7.62694L25.5703 7.89344C25.0914 8.36465 24.682 8.68715 24.3421 8.86096C24.0061 9.0309 23.7145 9.11587 23.4673 9.11587C23.2742 9.11587 23.1371 9.07532 23.056 8.99421C22.9787 8.9131 22.9671 8.79723 23.0212 8.6466L23.728 6.62467H23.7801C23.4441 7.12291 23.1409 7.53425 22.8706 7.85868C22.6041 8.17926 22.3627 8.43031 22.1464 8.61184C21.9301 8.79337 21.7293 8.92082 21.5439 8.99421C21.3585 9.06759 21.1808 9.10428 21.0109 9.10428C20.7714 9.10428 20.5609 9.05987 20.3794 8.97103C20.1978 8.8822 20.0569 8.74509 19.9564 8.5597C19.856 8.3743 19.8058 8.1387 19.8058 7.85289C19.8058 7.53232 19.8657 7.18278 19.9854 6.80427C20.1051 6.42576 20.2732 6.05112 20.4894 5.68033C20.7096 5.30569 20.9664 4.9658 21.26 4.66068C21.5535 4.35169 21.876 4.1045 22.2275 3.91911C22.579 3.72986 22.9478 3.63523 23.334 3.63523C23.616 3.63523 23.8458 3.69703 24.0235 3.82062C24.2011 3.94422 24.344 4.12382 24.4522 4.35942L24.29 4.68965ZM28.5229 8.6466L29.2239 6.62467H29.2761C28.9439 7.11905 28.6465 7.52845 28.3839 7.85289C28.1212 8.17733 27.8818 8.43031 27.6655 8.61184C27.4531 8.79337 27.2561 8.92082 27.0746 8.99421C26.893 9.06759 26.7173 9.10428 26.5473 9.10428C26.3079 9.10428 26.0974 9.05987 25.9159 8.97103C25.7343 8.8822 25.5934 8.74702 25.4929 8.56549C25.3925 8.38396 25.3423 8.15029 25.3423 7.86448C25.3423 7.54777 25.4022 7.20209 25.5219 6.82744C25.6416 6.44894 25.8077 6.07622 26.0201 5.7093C26.2364 5.33852 26.4894 5.00056 26.7791 4.69544C27.0726 4.38645 27.3932 4.1412 27.7408 3.95967C28.0884 3.77428 28.4515 3.68158 28.83 3.68158C29.1158 3.68158 29.3456 3.74338 29.5194 3.86697C29.6971 3.9867 29.8419 4.16437 29.9539 4.39997L29.7917 4.7302C29.7145 4.5564 29.6044 4.42315 29.4615 4.33045C29.3186 4.23389 29.1467 4.18561 28.9459 4.18561C28.6485 4.18561 28.3665 4.27252 28.1 4.44632C27.8335 4.62012 27.5882 4.848 27.3642 5.12995C27.1441 5.40804 26.9529 5.7093 26.7907 6.03374C26.6285 6.35817 26.5029 6.67295 26.4141 6.97807C26.3253 7.2832 26.2808 7.54584 26.2808 7.76599C26.2808 7.97069 26.3369 8.12325 26.4489 8.22367C26.5647 8.32409 26.7154 8.3743 26.9008 8.3743C27.063 8.3743 27.2599 8.30092 27.4917 8.15415C27.7273 8.00738 27.9687 7.80847 28.2159 7.55742C28.4631 7.30251 28.6929 7.0109 28.9053 6.68261C29.1216 6.35431 29.2915 6.01056 29.4151 5.65137L29.9307 4.08133L30.6318 3.73372H30.9272L29.3108 8.57708L29.1602 8.30478C29.3031 8.32409 29.4673 8.31251 29.6527 8.27002C29.8419 8.22367 30.0408 8.14643 30.2494 8.03828C30.458 7.93014 30.6684 7.79302 30.8809 7.62694L31.0721 7.89344C30.5931 8.36465 30.1837 8.68715 29.8438 8.86096C29.5078 9.0309 29.2162 9.11587 28.969 9.11587C28.772 9.11587 28.6349 9.07532 28.5577 8.99421C28.4804 8.9131 28.4689 8.79723 28.5229 8.6466ZM31.3911 4.26672L31.4664 3.73372H34.7281L34.6644 4.26672H31.3911ZM32.3702 7.59798C32.347 7.67522 32.3277 7.74668 32.3122 7.81234C32.2968 7.87413 32.2833 7.93014 32.2717 7.98035C32.2639 8.03056 32.2601 8.07304 32.2601 8.1078C32.2601 8.18119 32.2736 8.23333 32.3006 8.26423C32.3277 8.29513 32.3663 8.31058 32.4165 8.31058C32.5015 8.31058 32.6135 8.27002 32.7525 8.18891C32.8954 8.1078 33.0577 7.99 33.2392 7.83551C33.4246 7.67715 33.6235 7.48018 33.8359 7.24457L34.0908 7.48211C33.89 7.74088 33.693 7.97069 33.4999 8.17153C33.3068 8.37237 33.1214 8.54231 32.9437 8.68136C32.766 8.8204 32.5961 8.92662 32.4339 9C32.2755 9.07338 32.1249 9.11008 31.982 9.11008C31.8043 9.11008 31.6614 9.05793 31.5533 8.95365C31.4451 8.84551 31.3911 8.66977 31.3911 8.42644C31.3911 8.32216 31.4046 8.19664 31.4316 8.04987C31.4587 7.9031 31.5031 7.72543 31.5649 7.51687L32.9727 2.65613H33.8243L32.3702 7.59798ZM37.2991 8.6466L38.0002 6.62467H38.0523C37.7201 7.11905 37.4227 7.52845 37.1601 7.85289C36.8975 8.17733 36.658 8.43031 36.4417 8.61184C36.2293 8.79337 36.0323 8.92082 35.8508 8.99421C35.6692 9.06759 35.4935 9.10428 35.3236 9.10428C35.0841 9.10428 34.8736 9.05987 34.6921 8.97103C34.5106 8.8822 34.3696 8.74702 34.2692 8.56549C34.1687 8.38396 34.1185 8.15029 34.1185 7.86448C34.1185 7.54777 34.1784 7.20209 34.2981 6.82744C34.4179 6.44894 34.5839 6.07622 34.7964 5.7093C35.0127 5.33852 35.2656 5.00056 35.5553 4.69544C35.8488 4.38645 36.1694 4.1412 36.517 3.95967C36.8646 3.77428 37.2277 3.68158 37.6062 3.68158C37.892 3.68158 38.1218 3.74338 38.2956 3.86697C38.4733 3.9867 38.6181 4.16437 38.7301 4.39997L38.5679 4.7302C38.4907 4.5564 38.3806 4.42315 38.2377 4.33045C38.0948 4.23389 37.9229 4.18561 37.7221 4.18561C37.4247 4.18561 37.1427 4.27252 36.8762 4.44632C36.6097 4.62012 36.3645 4.848 36.1405 5.12995C35.9203 5.40804 35.7291 5.7093 35.5669 6.03374C35.4047 6.35817 35.2792 6.67295 35.1903 6.97807C35.1015 7.2832 35.0571 7.54584 35.0571 7.76599C35.0571 7.97069 35.1131 8.12325 35.2251 8.22367C35.341 8.32409 35.4916 8.3743 35.677 8.3743C35.8392 8.3743 36.0362 8.30092 36.2679 8.15415C36.5035 8.00738 36.7449 7.80847 36.9921 7.55742C37.2393 7.30251 37.4691 7.0109 37.6815 6.68261C37.8978 6.35431 38.0678 6.01056 38.1913 5.65137L38.707 4.08133L39.408 3.73372H39.7034L38.0871 8.57708L37.9364 8.30478C38.0793 8.32409 38.2435 8.31251 38.4289 8.27002C38.6181 8.22367 38.817 8.14643 39.0256 8.03828C39.2342 7.93014 39.4447 7.79302 39.6571 7.62694L39.8483 7.89344C39.3694 8.36465 38.9599 8.68715 38.6201 8.86096C38.284 9.0309 37.9924 9.11587 37.7452 9.11587C37.5483 9.11587 37.4112 9.07532 37.3339 8.99421C37.2567 8.9131 37.2451 8.79723 37.2991 8.6466ZM1.63299 17.1284H0.681314C0.865161 15.8631 1.69788 15.1169 3.10376 15.1169C4.63942 15.1169 5.38562 16.0145 5.38562 17.3555V19.6157C5.38562 20.2754 5.4397 20.6864 5.5911 21H4.58535C4.47721 20.7729 4.44476 20.4376 4.43395 20.0916C3.94729 20.8162 3.16865 21.1298 2.47652 21.1298C1.28693 21.1298 0.486653 20.5782 0.486653 19.486C0.486653 18.6965 0.919233 18.1233 1.76276 17.8422C2.54141 17.5826 3.33087 17.5177 4.43395 17.5069V17.3771C4.43395 16.4471 4.00137 15.9388 3.01725 15.9388C2.19534 15.9388 1.75195 16.393 1.63299 17.1284ZM1.45996 19.4643C1.45996 19.9943 1.90335 20.3079 2.57385 20.3079C3.63367 20.3079 4.43395 19.4752 4.43395 18.491V18.2207C1.98987 18.2423 1.45996 18.7614 1.45996 19.4643ZM6.7295 21V15.2575H7.68117V16.0361C8.07049 15.4305 8.69774 15.1169 9.45475 15.1169C10.6768 15.1169 11.4014 15.8307 11.4014 17.1609V21H10.4497V17.3555C10.4497 16.4904 10.0604 15.928 9.1952 15.928C8.24353 15.928 7.68117 16.7823 7.68117 17.6042V21H6.7295ZM14.8541 21.1298C13.3292 21.1298 12.41 20.0051 12.41 18.1342C12.41 16.1875 13.3508 15.1169 14.8541 15.1169C15.5354 15.1169 16.0869 15.3981 16.4654 15.928V13.2136H17.4171V21H16.4654V20.2754C16.0869 20.8162 15.5354 21.1298 14.8541 21.1298ZM14.9189 20.3079C15.9247 20.3079 16.4654 19.54 16.4654 18.1342C16.4654 16.7391 15.9031 15.9388 14.9189 15.9388C13.924 15.9388 13.3833 16.7175 13.3833 18.1342C13.3833 19.5184 13.9456 20.3079 14.9189 20.3079ZM24.8164 16.6896C24.743 16.5197 24.6329 16.3865 24.4861 16.2899C24.3432 16.1933 24.1733 16.1451 23.9763 16.1451C23.6712 16.1451 23.3834 16.232 23.1131 16.4058C22.8427 16.5796 22.5936 16.8094 22.3657 17.0952C22.1417 17.3771 21.9467 17.6823 21.7806 18.0106C21.6184 18.335 21.4928 18.6517 21.404 18.9607C21.3152 19.2658 21.2707 19.5304 21.2707 19.7544C21.2707 19.963 21.3268 20.1194 21.4388 20.2237C21.5546 20.3241 21.7053 20.3743 21.8907 20.3743C22.0258 20.3743 22.1881 20.3241 22.3773 20.2237C22.5666 20.1194 22.7635 19.9784 22.9682 19.8007C23.1729 19.6192 23.3738 19.4087 23.5708 19.1693C23.7716 18.9298 23.9512 18.6691 24.1096 18.3871C24.2718 18.1052 24.3992 17.8136 24.4919 17.5123L25.6854 13.6539C25.6159 13.6037 25.5348 13.5515 25.4421 13.4974C25.3532 13.4434 25.2567 13.3912 25.1524 13.341C25.0481 13.2908 24.94 13.2464 24.8279 13.2078L24.8917 12.976L26.6819 12.6516H26.8557L24.3355 20.5771L24.1849 20.3048C24.3316 20.3241 24.4977 20.3125 24.6831 20.27C24.8685 20.2237 25.0655 20.1464 25.274 20.0383C25.4865 19.9301 25.697 19.793 25.9055 19.6269L26.0967 19.8934C25.6178 20.3646 25.2084 20.6872 24.8685 20.861C24.5325 21.0309 24.2409 21.1159 23.9937 21.1159C23.8006 21.1159 23.6635 21.0753 23.5824 20.9942C23.5051 20.9131 23.4935 20.7972 23.5476 20.6466L24.2544 18.6247H24.3065C23.9705 19.1229 23.6673 19.5342 23.397 19.8587C23.1305 20.1793 22.8891 20.4303 22.6728 20.6118C22.4565 20.7934 22.2556 20.9208 22.0703 20.9942C21.8849 21.0676 21.7072 21.1043 21.5372 21.1043C21.2978 21.1043 21.0873 21.0599 20.9058 20.971C20.7242 20.8822 20.5833 20.7451 20.4828 20.5597C20.3824 20.3743 20.3322 20.1387 20.3322 19.8529C20.3322 19.5323 20.3921 19.1828 20.5118 18.8043C20.6315 18.4258 20.7995 18.0511 21.0158 17.6803C21.236 17.3057 21.4928 16.9658 21.7864 16.6607C22.0799 16.3517 22.4024 16.1045 22.7539 15.9191C23.1054 15.7299 23.4742 15.6352 23.8604 15.6352C24.1424 15.6352 24.3722 15.697 24.5499 15.8206C24.7275 15.9442 24.8704 16.1238 24.9786 16.3594L24.8164 16.6896ZM28.9219 16.1045C28.6863 16.1045 28.468 16.1663 28.2672 16.2899C28.0702 16.4096 27.8926 16.5757 27.7342 16.7881C27.5797 16.9967 27.4465 17.2342 27.3344 17.5007C27.2263 17.7672 27.1413 18.0473 27.0795 18.3408C27.0216 18.6305 26.9926 18.9143 26.9926 19.1924C26.9926 19.6366 27.0776 19.9475 27.2475 20.1252C27.4175 20.3029 27.655 20.3917 27.9601 20.3917C28.161 20.3917 28.3502 20.3589 28.5279 20.2932C28.7094 20.2237 28.8813 20.1078 29.0435 19.9456C29.2096 19.7834 29.368 19.5613 29.5186 19.2793H29.9357C29.7233 19.7467 29.5031 20.1136 29.2753 20.3801C29.0513 20.6466 28.8099 20.8359 28.5511 20.9479C28.2962 21.0599 28.0123 21.1159 27.6994 21.1159C27.3557 21.1159 27.0622 21.0541 26.8188 20.9305C26.5794 20.803 26.3959 20.6157 26.2684 20.3685C26.141 20.1213 26.0773 19.8123 26.0773 19.4416C26.0773 19.009 26.1294 18.5996 26.2337 18.2133C26.338 17.8271 26.4847 17.4776 26.674 17.1647C26.8632 16.848 27.0853 16.5738 27.3402 16.342C27.5952 16.1103 27.8713 15.9326 28.1687 15.809C28.47 15.6816 28.7828 15.6179 29.1073 15.6179C29.424 15.6179 29.6789 15.6719 29.872 15.7801C30.0651 15.8844 30.2061 16.0253 30.2949 16.203C30.3876 16.3768 30.434 16.568 30.434 16.7765C30.434 16.9542 30.3992 17.1338 30.3297 17.3153C30.2602 17.493 30.1713 17.6378 30.0632 17.7499C29.8005 17.8464 29.536 17.9391 29.2695 18.0279C29.0068 18.1129 28.7423 18.194 28.4758 18.2713C28.2093 18.3447 27.9447 18.4161 27.6821 18.4856C27.4194 18.5551 27.1626 18.6189 26.9115 18.6768L26.9347 18.2075C27.3982 18.1071 27.7883 18.0086 28.105 17.9121C28.4217 17.8155 28.6766 17.7209 28.8697 17.6282C29.0667 17.5355 29.2154 17.4428 29.3158 17.3501C29.4201 17.2574 29.4896 17.1609 29.5244 17.0604C29.563 16.96 29.5823 16.8557 29.5823 16.7476C29.5823 16.6163 29.5572 16.5043 29.507 16.4116C29.4568 16.315 29.3834 16.2397 29.2869 16.1856C29.1903 16.1315 29.0686 16.1045 28.9219 16.1045ZM30.7859 19.6385C30.8361 19.739 30.8844 19.8374 30.9308 19.934C30.981 20.0306 31.0543 20.1484 31.1509 20.2874C31.2475 20.4264 31.344 20.5211 31.4406 20.5713C31.5371 20.6215 31.6434 20.6466 31.7592 20.6466C31.9601 20.6466 32.1416 20.6138 32.3038 20.5481C32.466 20.4824 32.5954 20.384 32.692 20.2526C32.7885 20.1213 32.8368 19.963 32.8368 19.7776C32.8368 19.6501 32.8136 19.5285 32.7673 19.4126C32.7209 19.2929 32.636 19.1654 32.5124 19.0302C32.3888 18.895 32.2092 18.7425 31.9736 18.5725C31.7418 18.3987 31.5603 18.2365 31.429 18.0859C31.2977 17.9314 31.205 17.7827 31.1509 17.6398C31.1007 17.493 31.0756 17.3424 31.0756 17.1879C31.0756 16.8866 31.149 16.6182 31.2957 16.3826C31.4464 16.1431 31.6627 15.9558 31.9446 15.8206C32.2266 15.6854 32.5645 15.6179 32.9585 15.6179C33.2404 15.6179 33.4741 15.6526 33.6595 15.7221C33.8487 15.7878 33.9897 15.8805 34.0824 16.0002C34.179 16.12 34.2272 16.2609 34.2272 16.4231C34.2272 16.5313 34.2002 16.6278 34.1461 16.7128C34.0959 16.7978 34.0225 16.8654 33.926 16.9156C33.8333 16.9619 33.7213 16.9851 33.59 16.9851C33.5475 16.904 33.4992 16.8248 33.4451 16.7476C33.3911 16.6703 33.3177 16.5718 33.225 16.4521C33.1361 16.3362 33.0396 16.2513 32.9353 16.1972C32.8349 16.1431 32.7306 16.1161 32.6225 16.1161C32.3675 16.1161 32.159 16.1798 31.9968 16.3073C31.8384 16.4309 31.7592 16.6008 31.7592 16.8171C31.7592 16.9175 31.7824 17.0218 31.8287 17.13C31.879 17.2342 31.9659 17.354 32.0895 17.4891C32.2169 17.6205 32.3984 17.7788 32.634 17.9642C32.8735 18.1457 33.057 18.3234 33.1844 18.4972C33.3157 18.6672 33.4084 18.8332 33.4625 18.9955C33.5166 19.1538 33.5436 19.3141 33.5436 19.4763C33.5436 19.7969 33.4529 20.0808 33.2713 20.328C33.0898 20.5751 32.8426 20.7683 32.5298 20.9073C32.2208 21.0463 31.8693 21.1159 31.4753 21.1159C31.1509 21.1159 30.8844 21.0753 30.6758 20.9942C30.4711 20.9092 30.3205 20.7992 30.2239 20.664C30.1274 20.5288 30.0791 20.384 30.0791 20.2295C30.0791 20.1136 30.1023 20.0112 30.1486 19.9224C30.1988 19.8336 30.2761 19.7641 30.3804 19.7138C30.4885 19.6636 30.6237 19.6385 30.7859 19.6385ZM34.2912 20.5887L35.896 16.2493L36.0814 16.4521C35.9424 16.4444 35.7821 16.4695 35.6006 16.5274C35.419 16.5854 35.2259 16.6742 35.0212 16.7939C34.8165 16.9137 34.606 17.0643 34.3897 17.2458L34.1812 16.9909C34.5172 16.6124 34.8165 16.3247 35.0792 16.1277C35.3457 15.9307 35.5851 15.7975 35.7976 15.7279C36.01 15.6545 36.2012 15.6179 36.3711 15.6179C36.5604 15.6179 36.6917 15.6603 36.7651 15.7453C36.8423 15.8264 36.8462 15.9597 36.7766 16.1451L35.1719 20.5597L35.0328 20.2932C35.1796 20.3086 35.3437 20.2951 35.5253 20.2526C35.7106 20.2063 35.9038 20.131 36.1046 20.0267C36.3093 19.9224 36.5121 19.7911 36.7129 19.6327L36.9099 19.905C36.5932 20.2179 36.3054 20.4631 36.0467 20.6408C35.7879 20.8146 35.5523 20.9363 35.3399 21.0058C35.1313 21.0792 34.9363 21.1159 34.7547 21.1159C34.5191 21.1159 34.3646 21.0772 34.2912 21C34.2179 20.9228 34.2179 20.7856 34.2912 20.5887ZM36.2379 13.4279C36.2379 13.285 36.2688 13.1576 36.3306 13.0455C36.3962 12.9297 36.487 12.8389 36.6028 12.7733C36.7226 12.7076 36.8636 12.6748 37.0258 12.6748C37.2498 12.6748 37.4255 12.7366 37.553 12.8602C37.6804 12.9837 37.7442 13.1382 37.7442 13.3236C37.7442 13.4665 37.7113 13.5959 37.6457 13.7118C37.5839 13.8238 37.4931 13.9126 37.3734 13.9783C37.2575 14.044 37.1185 14.0768 36.9562 14.0768C36.7322 14.0768 36.5565 14.015 36.429 13.8914C36.3016 13.7678 36.2379 13.6133 36.2379 13.4279ZM41.9532 16.5274C41.8876 16.5274 41.8238 16.5139 41.762 16.4869C41.7041 16.4598 41.6365 16.4251 41.5593 16.3826C41.482 16.3401 41.3874 16.2957 41.2754 16.2493C41.1634 16.203 41.0263 16.1605 40.864 16.1219C40.7057 16.0833 40.5087 16.0562 40.2731 16.0408L40.163 15.699C40.4759 15.7299 40.7636 15.7395 41.0263 15.7279C41.2889 15.7163 41.5226 15.699 41.7273 15.6758C41.932 15.6526 42.1058 15.641 42.2487 15.641C42.3259 15.641 42.3839 15.6584 42.4225 15.6932C42.4611 15.7279 42.4804 15.7801 42.4804 15.8496C42.4804 15.923 42.463 16.0002 42.4283 16.0813C42.3935 16.1586 42.3491 16.232 42.295 16.3015C42.241 16.3671 42.183 16.4212 42.1212 16.4637C42.0633 16.5062 42.0073 16.5274 41.9532 16.5274ZM38.8421 18.9723C38.9966 18.9723 39.1472 18.9375 39.294 18.868C39.4408 18.7985 39.576 18.7019 39.6996 18.5783C39.827 18.4509 39.9371 18.3002 40.0298 18.1264C40.1225 17.9526 40.1959 17.7614 40.2499 17.5529C40.304 17.3443 40.331 17.1222 40.331 16.8866C40.331 16.6008 40.277 16.3922 40.1688 16.2609C40.0645 16.1296 39.9023 16.064 39.6822 16.064C39.5277 16.064 39.377 16.0987 39.2303 16.1682C39.0835 16.2339 38.9464 16.3305 38.8189 16.4579C38.6953 16.5815 38.5853 16.7302 38.4887 16.904C38.396 17.0778 38.3226 17.269 38.2686 17.4776C38.2184 17.6861 38.1932 17.9082 38.1932 18.1438C38.1932 18.4296 38.2454 18.6401 38.3497 18.7753C38.4578 18.9066 38.622 18.9723 38.8421 18.9723ZM39.7459 15.6179C40.0781 15.6179 40.3484 15.6777 40.557 15.7974C40.7694 15.9172 40.9278 16.0813 41.0321 16.2899C41.1363 16.4946 41.1885 16.7302 41.1885 16.9967C41.1885 17.3173 41.1248 17.6243 40.9973 17.9179C40.8698 18.2075 40.6941 18.4663 40.4701 18.6942C40.2499 18.9182 39.995 19.0959 39.7053 19.2272C39.4157 19.3547 39.1048 19.4184 38.7726 19.4184C38.4443 19.4184 38.1739 19.3585 37.9615 19.2388C37.7491 19.119 37.5907 18.9549 37.4864 18.7463C37.386 18.5378 37.3358 18.3022 37.3358 18.0395C37.3358 17.719 37.3976 17.4138 37.5212 17.1242C37.6487 16.8306 37.8244 16.5718 38.0484 16.3478C38.2724 16.12 38.5293 15.9423 38.8189 15.8148C39.1086 15.6835 39.4176 15.6179 39.7459 15.6179ZM38.5582 23.9431C38.1411 23.9431 37.7742 23.9103 37.4575 23.8446C37.1446 23.7828 36.8839 23.692 36.6754 23.5723C36.4629 23.4526 36.3026 23.3077 36.1945 23.1378C36.0863 22.9679 36.0323 22.7786 36.0323 22.57C36.0323 22.3228 36.1057 22.1085 36.2524 21.927C36.3992 21.7493 36.6251 21.5987 36.9303 21.4751C37.2393 21.3515 37.6351 21.2549 38.1179 21.1854L38.4771 21.0174L38.8653 21.3128C38.5331 21.3206 38.2415 21.3515 37.9905 21.4055C37.7433 21.4635 37.5367 21.5407 37.3706 21.6373C37.2084 21.7338 37.0867 21.8497 37.0056 21.9849C36.9283 22.1201 36.8897 22.2707 36.8897 22.4368C36.8897 22.6453 36.9515 22.8288 37.0751 22.9872C37.1987 23.1455 37.3899 23.2672 37.6487 23.3522C37.9074 23.441 38.2357 23.4854 38.6336 23.4854C39.0159 23.4854 39.3326 23.4391 39.5837 23.3464C39.8347 23.2537 40.0221 23.132 40.1457 22.9814C40.2692 22.8307 40.331 22.6685 40.331 22.4947C40.331 22.3441 40.2963 22.2128 40.2268 22.1008C40.1572 21.9926 40.0452 21.8961 39.8907 21.8111C39.7362 21.7261 39.5354 21.645 39.2882 21.5678C39.0449 21.4905 38.7494 21.4113 38.4018 21.3302C38.0388 21.2491 37.7665 21.1506 37.5849 21.0348C37.4073 20.9189 37.2875 20.7953 37.2257 20.664C37.1678 20.5327 37.1388 20.4013 37.1388 20.27C37.1388 20.0846 37.1948 19.9243 37.3068 19.7892C37.4227 19.654 37.5869 19.54 37.7993 19.4473C38.0156 19.3508 38.2666 19.2716 38.5524 19.2098L38.761 19.3489C38.4597 19.3798 38.2415 19.4435 38.1063 19.54C37.9712 19.6366 37.9036 19.7505 37.9036 19.8819C37.9036 19.9514 37.919 20.0151 37.9499 20.073C37.9808 20.131 38.0388 20.1889 38.1237 20.2468C38.2126 20.3048 38.34 20.3646 38.5061 20.4264C38.676 20.4844 38.8981 20.552 39.1723 20.6292C39.6822 20.7683 40.08 20.917 40.3658 21.0753C40.6516 21.2337 40.8505 21.4094 40.9625 21.6025C41.0784 21.7956 41.1363 22.0158 41.1363 22.263C41.1363 22.5063 41.0784 22.7303 40.9625 22.935C40.8505 23.1397 40.6844 23.3174 40.4643 23.468C40.2441 23.6187 39.9738 23.7345 39.6532 23.8156C39.3326 23.9006 38.9676 23.9431 38.5582 23.9431ZM41.7375 17.3385L41.5753 17.2748C41.7221 16.8422 41.892 16.5062 42.0851 16.2667C42.2821 16.0273 42.5003 15.8592 42.7398 15.7627C42.9792 15.6661 43.2342 15.6179 43.5045 15.6179C43.574 15.6179 43.6416 15.6217 43.7073 15.6294C43.7768 15.6372 43.8444 15.6468 43.9101 15.6584C43.9796 15.67 44.0491 15.6835 44.1186 15.699L43.2902 18.3234H43.3423C43.5624 17.9063 43.7865 17.5316 44.0143 17.1995C44.2461 16.8673 44.4817 16.5854 44.7211 16.3536C44.9645 16.118 45.2136 15.9384 45.4685 15.8148C45.7234 15.6912 45.9822 15.6294 46.2448 15.6294C46.5963 15.6294 46.8454 15.7086 46.9922 15.867C47.139 16.0215 47.2123 16.2204 47.2123 16.4637C47.2123 16.5989 47.1892 16.7534 47.1428 16.9272C47.1003 17.0971 47.0327 17.2999 46.9401 17.5355L45.7292 20.5597L45.6945 20.299C45.8412 20.3029 46.0015 20.2797 46.1753 20.2295C46.353 20.1793 46.5384 20.1039 46.7315 20.0035C46.9285 19.8992 47.1274 19.7737 47.3282 19.6269L47.531 19.8934C47.2104 20.2063 46.9169 20.4535 46.6504 20.635C46.3839 20.8127 46.1406 20.9363 45.9204 21.0058C45.7002 21.0792 45.4975 21.1159 45.3121 21.1159C45.061 21.1159 44.9027 21.0734 44.837 20.9884C44.7714 20.9034 44.7868 20.7412 44.8834 20.5018L46.1579 17.3211C46.2081 17.1975 46.2448 17.0913 46.268 17.0025C46.295 16.9098 46.3086 16.8268 46.3086 16.7534C46.3086 16.6491 46.2719 16.5661 46.1985 16.5043C46.1251 16.4386 45.9996 16.4058 45.8219 16.4058C45.5979 16.4058 45.3584 16.4907 45.1035 16.6607C44.8486 16.8268 44.5956 17.0585 44.3446 17.3559C44.0974 17.6494 43.8676 17.9912 43.6551 18.3813C43.4466 18.7714 43.2728 19.1886 43.1337 19.6327L42.7108 21H41.8128L43.1975 16.4347C43.1859 16.4347 43.1724 16.4347 43.1569 16.4347C43.1453 16.4347 43.1337 16.4347 43.1221 16.4347C42.9445 16.4347 42.7765 16.4618 42.6181 16.5158C42.4636 16.5699 42.313 16.6626 42.1662 16.7939C42.0233 16.9252 41.8804 17.1068 41.7375 17.3385ZM1.45996 28.7283C1.45996 30.3288 5.19096 29.0094 5.19096 31.3778C5.19096 32.4485 4.23929 33.1298 2.88747 33.1298C1.52485 33.1298 0.573169 32.4809 0.356879 31.1291H1.30856C1.43833 31.9294 2.03313 32.3728 2.91992 32.3728C3.78508 32.3728 4.23929 31.9834 4.23929 31.4427C4.23929 29.8746 0.55154 31.1723 0.55154 28.7932C0.55154 27.9172 1.23285 27.1169 2.63874 27.1169C3.88241 27.1169 4.80164 27.7009 4.98549 29.1284H4.03381C3.89322 28.2308 3.39575 27.8956 2.58467 27.8956C1.87091 27.8956 1.45996 28.2524 1.45996 28.7283ZM6.23617 31.3454V28.0145H5.43589V27.2575H6.23617V25.9381H7.18784V27.2575H8.45314V28.0145H7.18784V31.3454C7.18784 32.0375 7.39332 32.3619 8.23685 32.3619H8.43151V33.0433C8.32337 33.0973 8.08545 33.1298 7.81509 33.1298C6.74445 33.1298 6.23617 32.5566 6.23617 31.3454ZM12.7982 30.6533V27.2575H13.7499V33H12.7982V32.2214C12.4089 32.827 11.8033 33.1298 11.0571 33.1298C9.85666 33.1298 9.1429 32.4268 9.1429 31.0966V27.2575H10.0946V30.902C10.0946 31.7671 10.4731 32.3187 11.3166 32.3187C12.2467 32.3187 12.7982 31.4752 12.7982 30.6533ZM17.2041 33.1298C15.6793 33.1298 14.76 32.0051 14.76 30.1342C14.76 28.1875 15.7009 27.1169 17.2041 27.1169C17.8854 27.1169 18.437 27.3981 18.8155 27.928V25.2136H19.7671V33H18.8155V32.2754C18.437 32.8162 17.8854 33.1298 17.2041 33.1298ZM17.269 32.3079C18.2747 32.3079 18.8155 31.54 18.8155 30.1342C18.8155 28.7391 18.2531 27.9388 17.269 27.9388C16.2741 27.9388 15.7333 28.7175 15.7333 30.1342C15.7333 31.5184 16.2957 32.3079 17.269 32.3079ZM21.0667 26.4897V25.2136H22.0184V26.4897H21.0667ZM21.0667 33V27.2575H22.0184V33H21.0667ZM25.6471 33.1298C24.0033 33.1298 23.0192 32.0051 23.0192 30.1342C23.0192 28.1875 24.0357 27.1169 25.6471 27.1169C27.2909 27.1169 28.275 28.2632 28.275 30.1342C28.275 32.07 27.2585 33.1298 25.6471 33.1298ZM25.6471 32.3079C26.7177 32.3079 27.3017 31.54 27.3017 30.1342C27.3017 28.7391 26.7069 27.9388 25.6471 27.9388C24.5765 27.9388 23.9925 28.7175 23.9925 30.1342C23.9925 31.5184 24.5873 32.3079 25.6471 32.3079Z" fill="#FAF9FA"/>
</svg>
