<svg width="51" height="35" viewBox="0 0 51 35" fill="none" xmlns="http://www.w3.org/2000/svg">
<path fill-rule="evenodd" clip-rule="evenodd" d="M10.0238 27.1143V8.06669C10.0238 6.75172 8.95782 5.68573 7.64286 5.68573C6.32789 5.68573 5.2619 6.75172 5.2619 8.06669V27.1143C5.2619 28.4293 6.32789 29.4953 7.64286 29.4953C8.95782 29.4953 10.0238 28.4293 10.0238 27.1143ZM7.64286 0.923828C3.69797 0.923828 0.5 4.12179 0.5 8.06669V27.1143C0.5 31.0592 3.69797 34.2572 7.64286 34.2572C11.5877 34.2572 14.7857 31.0592 14.7857 27.1143V8.06669C14.7857 4.12179 11.5877 0.923828 7.64286 0.923828Z" fill="#6F02FD"/>
<path fill-rule="evenodd" clip-rule="evenodd" d="M27.8812 27.1141V14.0188C27.8812 12.7039 26.8152 11.6379 25.5003 11.6379C24.1853 11.6379 23.1193 12.7039 23.1193 14.0188V27.1141C23.1193 28.429 24.1853 29.495 25.5003 29.495C26.8152 29.495 27.8812 28.429 27.8812 27.1141ZM25.5003 6.87598C21.5554 6.87598 18.3574 10.0739 18.3574 14.0188V27.1141C18.3574 31.059 21.5554 34.2569 25.5003 34.2569C29.4452 34.2569 32.6431 31.059 32.6431 27.1141V14.0188C32.6431 10.0739 29.4452 6.87598 25.5003 6.87598Z" fill="#6F02FD"/>
<path fill-rule="evenodd" clip-rule="evenodd" d="M45.7377 27.1136V14.0183C45.7377 12.7034 44.6717 11.6374 43.3567 11.6374C42.0418 11.6374 40.9758 12.7034 40.9758 14.0183V27.1136C40.9758 28.4285 42.0418 29.4945 43.3567 29.4945C44.6717 29.4945 45.7377 28.4285 45.7377 27.1136ZM43.3567 6.87549C39.4118 6.87549 36.2139 10.0735 36.2139 14.0183V27.1136C36.2139 31.0585 39.4118 34.2564 43.3567 34.2564C47.3016 34.2564 50.4996 31.0585 50.4996 27.1136V14.0183C50.4996 10.0735 47.3016 6.87549 43.3567 6.87549Z" fill="#6F02FD"/>
<path d="M27.8809 3.30429C27.8809 1.98933 28.9468 0.92334 30.2618 0.92334C31.5768 0.92334 32.6428 1.98933 32.6428 3.30429C32.6428 4.61926 31.5768 5.68524 30.2618 5.68524C28.9468 5.68524 27.8809 4.61926 27.8809 3.30429Z" fill="#6F02FD"/>
<path d="M45.7383 3.30429C45.7383 1.98933 46.8043 0.92334 48.1192 0.92334C49.4342 0.92334 50.5002 1.98933 50.5002 3.30429C50.5002 4.61926 49.4342 5.68524 48.1192 5.68524C46.8043 5.68524 45.7383 4.61926 45.7383 3.30429Z" fill="#6F02FD"/>
</svg>
